/* XPM */
static char *result[] = {
/* columns rows colors chars-per-pixel */
"32 32 106 2 ",
"   c #33293F",
".  c #421E26",
"X  c #363547",
"o  c #313F5A",
"O  c #193C6C",
"+  c #394A56",
"@  c #3C545D",
"#  c #27476D",
"$  c #325C6F",
"%  c #335D70",
"&  c #415F71",
"*  c #134C86",
"=  c #124E88",
"-  c #1F5A82",
";  c #11528D",
":  c #0F5897",
">  c #0E5C9D",
",  c #205C83",
"<  c #10629F",
"1  c #2F6A83",
"2  c #20678F",
"3  c #20688F",
"4  c #387B85",
"5  c #216B91",
"6  c #0D5EA0",
"7  c #0D60A1",
"8  c #156DA1",
"9  c #1471A2",
"0  c #0D6FB1",
"q  c #0C70B3",
"w  c #0E7AB5",
"e  c #0774BE",
"r  c #0876BF",
"t  c #0F79BC",
"y  c #147EB4",
"u  c #4A6F94",
"i  c #4B7094",
"p  c #0676C2",
"a  c #0C7BC1",
"s  c #067FCC",
"d  c #1580B4",
"f  c #1C8EB7",
"g  c #1A8FB8",
"h  c #1D92B9",
"j  c #299BAF",
"k  c #4796BB",
"l  c #1695CA",
"z  c #0382D2",
"x  c #048CD9",
"c  c #0B91D4",
"v  c #0A96DA",
"b  c #0C9ADB",
"n  c #1DB2D8",
"m  c #2EBCCA",
"M  c #31B9C5",
"N  c #28BED4",
"B  c #0094EC",
"V  c #019DEF",
"C  c #07A5ED",
"Z  c #07A9ED",
"A  c #0AABEE",
"S  c #18B9E1",
"D  c #07A8F1",
"F  c #0AADF0",
"G  c #18ADF0",
"H  c #12BAF1",
"J  c #34AFF0",
"K  c #3DBFF1",
"L  c #2BC1D4",
"P  c #24C2DB",
"I  c #31C7D2",
"U  c #1AC1EB",
"Y  c #19C8F4",
"T  c #1ED6F4",
"R  c #25C7E0",
"E  c #26CEE4",
"W  c #28CEE2",
"Q  c #22CFEC",
"!  c #35CEE3",
"~  c #23D1ED",
"^  c #2EDFEA",
"/  c #21D5F4",
"(  c #23DAF5",
")  c #21DAF8",
"_  c #32DBF4",
"`  c #2CE2EF",
"'  c #26E4F5",
"]  c #2AE5F5",
"[  c #2DEAF5",
"{  c #2AE7F8",
"}  c #2CECF9",
"|  c #3CEDF6",
" . c #3BEFF9",
".. c #5AC4CF",
"X. c #4CDFFA",
"o. c #55E4F1",
"O. c #54E9F7",
"+. c #57EFF8",
"@. c #57F5FD",
"#. c #58F2FA",
"$. c #ABD1DD",
"%. c #A9DBE8",
"&. c #A3E7FC",
"*. c #A6EAFB",
"=. c #AEFCFE",
"-. c None",
/* pixels */
"-.-.-.-.-.-.-.-.-.-.-.-.-.-.-.-.-.-.-.-.-.-.-.-.-.-.-.-.-.-.-.-.",
"-.-.-.-.-.-.-.-.-.-.-.-.-.-.-.-.-.-.-.-.-.-.-.-.-.-.-.-.-.-.-.-.",
"-.-.-.-.-.-.-.-.-.-.* * * * * * * * * * * * -.-.-.-.-.-.-.-.-.-.",
"-.-.-.-.-.-.-.-.-.-.> 6 6 6 6 6 6 > < 6 6 > -.-.-.-.-.-.-.-.-.-.",
"-.-.-.-.-.-.* * * : p z s s s s z z z z z t > * * * -.-.-.-.-.-.",
"-.-.-.-.-.-.> < 8 y b F F F F A A A A A F b d 8 < > -.-.-.-.-.-.",
"-.-.-.-.= > p c n R Q / / / / / / / / / / ~ R n c p > * -.-.-.-.",
"-.-.-.-.* 7 c H ( } } [ } } [ [ [ [ [ [ [ [ } _ H c < * -.-.-.-.",
"-.-.-.-.* 8 n ( { [ [ [ [ [ [ [ [ [ [ [ [ [ } } ( n < * -.-.-.-.",
"-.-.-.-.> d R } } } } } } } [ [ [ [ [ [ } } } } } R d > -.-.-.-.",
"-.-.= > p b / } } } } } } } [ [ [ [ } } } } } } } ~ b p < * -.-.",
"-.-.= > s F / ^ R N m M M N E / / Q P N m M I I ` ( F z > * -.-.",
"-.-.= > z F ( W f 2 $ @ @ 1 l F A b y 3 % @ @ & I ( F z 7 = -.-.",
"-.-.= 7 z A ( W f , X . . o t B B x y , X . . @ M ( F z > = -.-.",
"-.-.= > z A / ` E j + . . o t B B C S j + . . $ M ( F z > * -.-.",
"-.-.* > z A / | @...% X   # t B B G X...&     % m ) F z > = -.-.",
"-.-.* 6 z A T #.=.$.i O O ; s B B J &.$.i O O 5 L ( F z > * -.-.",
"-.-.* 6 z A T #.=.%.k 9 9 d b C C K *.%.k < 9 h W ( F z 7 * -.-.",
"-.-.* 6 z A T | +.o.! P L E Q / T _ O.o.! P P W ] / A z 7 * -.-.",
"-.-.* > r v U ( ' { [ } } } [ [ [ [ ' ] } } } ] ' U b e > * -.-.",
"-.-.= ; : q v H / [ [ } [ [ [ [ [ [ ] ] [ [ } ' H v 0 > ; * -.-.",
"-.-.= * * > z A / } [ ] [ [ ] [ ] [ [ [ [ [ [ ~ D s > * * = -.-.",
"-.-.-.-.* > z A ( [ [ [ [ [ ] [ [ [ [ [ [ [ [ ( F z > * -.-.-.-.",
"-.-.-.-.* : e b U ( ] ] ( ( ] [ [ ` ( ( ] ] ( U v e > * -.-.-.-.",
"-.-.-.-.= ; > 0 v H ( ( H H ( [ [ ( H H ( ( H v q > ; * -.-.-.-.",
"-.-.-.-.= = * > z C Y U v v U ( ( H c v U Y F z > * = = -.-.-.-.",
"-.-.-.-.-.-.* > z V D v 0 0 v F A b 0 0 b D V z > = -.-.-.-.-.-.",
"-.-.-.-.-.-.* > r x z e : : r z z r : : r z z r > * -.-.-.-.-.-.",
"-.-.-.-.-.-.= ; > 6 6 > ; ; > 7 7 : ; ; > 6 6 > ; = -.-.-.-.-.-.",
"-.-.-.-.-.-.= = = * * * = * * * = = * * * = * = = = -.-.-.-.-.-.",
"-.-.-.-.-.-.-.-.= = = = -.-.* = * * -.-.= = = = -.-.-.-.-.-.-.-.",
"-.-.-.-.-.-.-.-.= = = = -.-.= ; = ; -.-.= = = = -.-.-.-.-.-.-.-."
};
