/* XPM */
static char *result[] = {
/* columns rows colors chars-per-pixel */
"32 32 103 2 ",
"   c #33293F",
".  c #421E26",
"X  c #363547",
"o  c #313F5A",
"O  c #193C6C",
"+  c #394A56",
"@  c #3C545D",
"#  c #27476D",
"$  c #325C6F",
"%  c #335D70",
"&  c #415F71",
"*  c #134B86",
"=  c #1F5A82",
"-  c #15558E",
";  c #0D5C9E",
":  c #205C83",
">  c #10629F",
",  c #2F6A83",
"<  c #20678F",
"1  c #20688F",
"2  c #387B85",
"3  c #216B91",
"4  c #0D5EA0",
"5  c #156DA1",
"6  c #1471A2",
"7  c #0D6EB0",
"8  c #0C70B2",
"9  c #0E7AB5",
"0  c #0F79BC",
"q  c #147EB4",
"w  c #4A6F94",
"e  c #4B7094",
"r  c #0676C2",
"t  c #0778C2",
"y  c #0C7BC1",
"u  c #067FCC",
"i  c #1580B4",
"p  c #1C8EB7",
"a  c #1A8FB8",
"s  c #1D92B9",
"d  c #299BAF",
"f  c #4796BB",
"g  c #1695CA",
"h  c #0382D1",
"j  c #048CD9",
"k  c #0B91D4",
"l  c #0B95D9",
"z  c #0D9BDB",
"x  c #1DB2D8",
"c  c #2EBCCA",
"v  c #31B9C5",
"b  c #28BED4",
"n  c #0094EC",
"m  c #019DEF",
"M  c #07A5ED",
"N  c #07A9ED",
"B  c #0AABEE",
"V  c #18B9E1",
"C  c #19BFEA",
"Z  c #07A9F1",
"A  c #0AADF0",
"S  c #18ADF0",
"D  c #12BAF1",
"F  c #34AFF0",
"G  c #3DBFF1",
"H  c #2BC1D4",
"J  c #24C2DB",
"K  c #31C7D2",
"L  c #1AC1EB",
"P  c #19C8F4",
"I  c #1ED6F4",
"U  c #25C7E0",
"Y  c #26CEE4",
"T  c #28CEE2",
"R  c #22CFEC",
"E  c #35CEE3",
"W  c #23D1ED",
"Q  c #2EDFEA",
"!  c #21D5F4",
"~  c #23DAF5",
"^  c #21DAF8",
"/  c #32DBF4",
"(  c #2CE2EF",
")  c #26E4F5",
"_  c #2AE5F5",
"`  c #2DEAF5",
"'  c #2AE7F8",
"]  c #2CECF9",
"[  c #3CEDF6",
"{  c #3BEFF9",
"}  c #5AC4CF",
"|  c #4CDFFA",
" . c #55E4F1",
".. c #54E9F7",
"X. c #57EFF8",
"o. c #57F5FD",
"O. c #58F2FA",
"+. c #ABD1DD",
"@. c #A9DBE8",
"#. c #A3E7FC",
"$. c #A6EAFB",
"%. c #AEFCFE",
"&. c None",
/* pixels */
"&.&.&.&.&.&.&.&.&.&.&.&.&.&.&.&.&.&.&.&.&.&.&.&.&.&.&.&.&.&.&.&.",
"&.&.&.&.&.&.&.&.&.&.&.&.&.&.&.&.&.&.&.&.&.&.&.&.&.&.&.&.&.&.&.&.",
"&.&.&.&.&.&.&.&.&.&.&.&.&.&.&.&.&.&.&.&.&.&.&.&.&.&.&.&.&.&.&.&.",
"&.&.&.&.&.&.&.&.&.&.&.&.&.&.&.&.&.&.&.&.&.&.&.&.&.&.&.&.&.&.&.&.",
"&.&.&.&.&.&.&.&.&.&.- * * * * * * * * * * * &.&.&.&.&.&.&.&.&.&.",
"&.&.&.&.&.&.&.&.&.&.; 4 4 4 4 4 4 4 ; ; 4 ; &.&.&.&.&.&.&.&.&.&.",
"&.&.&.&.&.&.* * # 4 r u h u u u h h h h h t ; * * * &.&.&.&.&.&.",
"&.&.&.&.&.&.; > > q m A A A B B B B B B A z i 5 > ; &.&.&.&.&.&.",
"&.&.&.&.* ; r k x U R ! ! ! ! ! ! ! ! ! ! W U x k r ; * &.&.&.&.",
"&.&.&.&.* 4 k D ^ ] ` ` ` ` ` ` ` ` ` ` ] ] ] ~ D k > * &.&.&.&.",
"&.&.&.&.* 5 b ~ ' ` ` ` ` ` ` ` ` ` ` ` ` ` ] ` ~ x 5 * &.&.&.&.",
"&.&.&.&.; q U ] ] ` ] ] ] ` ` ` ` ` ` ` ] ` ] ] ] U i ; &.&.&.&.",
"&.&.* ; r z R ` ] ] ] ] ] ] ] ` ` ` ] ] ] ] ] ] ] W z t ; * &.&.",
"&.&.* 4 h A ! _ T b c v v b Y ! ! Y U b c v v H Q ~ A h 4 * &.&.",
"&.&.* 4 h A ~ T p < $ @ @ , g A A z q < $ @ @ 2 K ^ A h 4 * &.&.",
"&.&.* 4 h B ~ Y p : X . . o 0 n n j q : X . . @ v ^ A h 4 * &.&.",
"&.&.* 4 h B ! _ U d + . . o 0 n n m x d + . . @ v ~ A h 4 * &.&.",
"&.&.* ; h B I { O.} & X X # y n n S | } % X   $ c ^ A h 4 * &.&.",
"&.&.* ; h B I O.%.+.e O O - u n n F #.+.e O O 3 b ^ A u 4 * &.&.",
"&.&.* ; h B I O.%.@.f 5 5 q z M Z E $.@.f 5 5 s T ~ A h 4 * &.&.",
"&.&.* 4 h A I [ X. .E J b U ! ! ! / .. .E b J T / ~ A h 4 * &.&.",
"&.&.* ; t l L ~ ) ) ] ] ] ` ' ` ` _ ' _ ] ] ] ` ~ C z t 4 * &.&.",
"&.&.&.&.; 7 l D I ` ` ` ` ` ` ` ` ` _ ` ] ] ` ~ D l 8 ; &.&.&.&.",
"&.&.&.&.* ; h B ~ ` ` ` ` ` _ ` _ ` ` ` ' ` ` ! B h ; * &.&.&.&.",
"&.&.&.&.* ; h A ~ ] ` ` ` ` _ ` ` _ ` ` ` ` ` ! B h ; * &.&.&.&.",
"&.&.&.&.* ; r z L ~ _ _ ~ ~ _ ` ` _ ~ ~ _ ` ~ L z r ; * &.&.&.&.",
"&.&.&.&.&.&.; 8 l D ~ ~ D D ~ ` ` ~ D D ~ ~ D l 7 ; &.&.&.&.&.&.",
"&.&.&.&.&.&.* ; u A P C k k C ~ ~ C k l L P Z h ; * &.&.&.&.&.&.",
"&.&.&.&.&.&.* ; h m A l 7 7 z A B l 7 7 z Z m h ; * &.&.&.&.&.&.",
"&.&.&.&.&.&.* ; y h h r ; ; t h h t ; ; r h h t ; * &.&.&.&.&.&.",
"&.&.&.&.&.&.&.&.> 4 4 ; &.&.; 4 4 ; &.&.> 4 4 ; &.&.&.&.&.&.&.&.",
"&.&.&.&.&.&.&.&.* * * * &.&.* * * * &.&.* * * * &.&.&.&.&.&.&.&."
};
