<?xml version="1.0" standalone="no"?>
<!DOCTYPE svg PUBLIC "-//W3C//DTD SVG 20010904//EN"
 "http://www.w3.org/TR/2001/REC-SVG-20010904/DTD/svg10.dtd">
<svg version="1.0" xmlns="http://www.w3.org/2000/svg"
 width="64.000000pt" height="64.000000pt" viewBox="0 0 64.000000 64.000000"
 preserveAspectRatio="xMidYMid meet">

<g transform="translate(0.000000,64.000000) scale(0.100000,-0.100000)"
fill="#000000" stroke="none">
<path d="M132 427 c-107 -108 -112 -114 -112 -155 l0 -42 110 0 110 0 0 -55 0
-55 55 0 55 0 0 100 0 100 -107 0 -108 0 103 103 c56 56 102 106 102 110 0 4
-21 7 -48 7 -47 0 -48 -1 -160 -113z"/>
<path d="M400 488 l0 -52 50 49 c28 27 50 51 50 52 0 2 -22 3 -50 3 l-50 0 0
-52z"/>
<path d="M510 487 c0 -51 -2 -55 -55 -107 -54 -53 -55 -55 -55 -112 l0 -58
110 0 110 0 0 50 c0 28 -3 50 -7 50 -4 0 -29 -21 -55 -47 l-48 -47 0 55 c0 53
2 56 55 109 53 52 55 56 55 107 l0 53 -55 0 -55 0 0 -53z"/>
</g>
</svg>
