/* XPM */
static char *result[] = {
/* columns rows colors chars-per-pixel */
"32 32 31 1 ",
"  c #B66D4F",
". c #B76D4F",
"X c #B76E4F",
"o c #B86E50",
"O c #B86F50",
"+ c #B97151",
"@ c #BA7151",
"# c #BF7754",
"$ c #BF7755",
"% c #BF7855",
"& c #C07855",
"* c #C37C58",
"= c #CB8961",
"- c #D08C61",
"; c #D18C61",
": c #D18D62",
"> c #D18E62",
", c #DA9969",
"< c #DB9969",
"1 c #DEA576",
"2 c #DEA577",
"3 c #E8B482",
"4 c #E8BC8C",
"5 c #E6BE91",
"6 c #EACC9F",
"7 c #EACEA2",
"8 c #EAD3A8",
"9 c #EAD4AA",
"0 c #EAD5AB",
"q c #EAD6AD",
"w c None",
/* pixels */
"wwwwwwwwwwwwwwwwwwwwwwwwwwwwwwww",
"wwwwwwwwwwwwwwwwwwwwwwwwwwwwwwww",
"wwwwwwwwwwwwwwwwwwwwwwwwwwwwwwww",
"wwwwwwwwwwwwwwwwwwwwwwwwwwwwwwww",
"wwwwwwwwwwwwwwwwwwwwwwwwwwwwwwww",
"wwwwwwwwwwwwwwwwwwwwwwwwwwwwwwww",
"wwwwwwwwwwwwwwwwwwwwwwwwwwwwwwww",
"wwwwwwwwwwwwwwwwwwwwwwwwwwwwwwww",
"wwwwwwwwwwwwwwwwwwwwwwwwwwwwwwww",
"wwwwwwwwwwwwwwwwwwwwwwwwwwwwwwww",
"wwwwwwwwwwwwOOOOOOOOwwwwwwwwwwww",
"wwwwwwwwwwwwOOoXXoOOwwwwwwwwwwww",
"wwwwwwwwwwOOOOXXXXOOOOwwwwwwwwww",
"wwwwwwwwwwOOX@&**&@XOOwwwwwwwwww",
"wwwwwwwwOOOX %><<>% XOOOwwwwwwww",
"wwwwwwwwOOX@$=2332=$@XOOwwwwwwww",
"wwwwwwwwOX $;156651;$ XOwwwwwwww",
"wwwwwwwwO@%=147qq741=%@Owwwwwwww",
"wwwwwwwwX&:2578008752:&Xwwwwwwww",
"wwwwwwww.*,36q0990q63,*.wwwwwwww",
"wwwwwwww.*,36q0990q63,*.wwwwwwww",
"wwwwwwwwX&:2578008752:&Xwwwwwwww",
"wwwwwwwwO@%=147qq741=%@Owwwwwwww",
"wwwwwwwwOX #-156651-# XOwwwwwwww",
"wwwwwwwwwwX+#=2332=#+Xwwwwwwwwww",
"wwwwwwwwwwOX %:,,:% XOwwwwwwwwww",
"wwwwwwwwwwwwX@&**&@Xwwwwwwwwwwww",
"wwwwwwwwwwwwOOX..XOOwwwwwwwwwwww",
"wwwwwwwwwwwwwwwwwwwwwwwwwwwwwwww",
"wwwwwwwwwwwwwwwwwwwwwwwwwwwwwwww",
"wwwwwwwwwwwwwwwwwwwwwwwwwwwwwwww",
"wwwwwwwwwwwwwwwwwwwwwwwwwwwwwwww"
};
