/* XPM */
static char *result[] = {
/* columns rows colors chars-per-pixel */
"32 32 26 1 ",
"  c #B66D4F",
". c #B76D4F",
"X c #B76E4F",
"o c #B86F50",
"O c #B97151",
"+ c #BA7151",
"@ c #BF7754",
"# c #BF7855",
"$ c #C07855",
"% c #C37C58",
"& c #CB8961",
"* c #D08C61",
"= c #D18D62",
"- c #DA9969",
"; c #DEA576",
": c #DEA577",
"> c #E8B482",
", c #E8BC8C",
"< c #E6BE91",
"1 c #EACC9F",
"2 c #EACEA2",
"3 c #EAD3A8",
"4 c #EAD4AA",
"5 c #EAD5AB",
"6 c #EAD6AD",
"7 c None",
/* pixels */
"77777777777777777777777777777777",
"77777777777777777777777777777777",
"77777777777777777777777777777777",
"77777777777777777777777777777777",
"77777777777777777777777777777777",
"77777777777777777777777777777777",
"77777777777777777777777777777777",
"77777777777777777777777777777777",
"777777777777ooX..Xoo777777777777",
"777777777777X+$%%$+X777777777777",
"7777777777oX #=--=# Xo7777777777",
"7777777777XO@&:>>:&@OX7777777777",
"77777777oX @*;<11<;*@ Xo77777777",
"77777777o+#&;,2662,;&#+o77777777",
"77777777X$=:<235532<:=$X77777777",
"77777777.%->16544561>-%.77777777",
"77777777.%->16544561>-%.77777777",
"77777777X$=:<235532<:=$X77777777",
"77777777o+#&;,2662,;&#+o77777777",
"77777777oX @*;<11<;*@ Xo77777777",
"7777777777XO@&:>>:&@OX7777777777",
"7777777777oX #=--=# Xo7777777777",
"777777777777X+$%%$+X777777777777",
"777777777777ooX..Xoo777777777777",
"77777777777777777777777777777777",
"77777777777777777777777777777777",
"77777777777777777777777777777777",
"77777777777777777777777777777777",
"77777777777777777777777777777777",
"77777777777777777777777777777777",
"77777777777777777777777777777777",
"77777777777777777777777777777777"
};
