/* XPM */
static char *result[] = {
/* columns rows colors chars-per-pixel */
"32 32 136 2 ",
"   c #4C4132",
".  c #5B4835",
"X  c #705C3F",
"o  c #756B3D",
"O  c #463441",
"+  c #5A4859",
"@  c #8D7642",
"#  c #8E7B65",
"$  c #B48D7C",
"%  c #C1965C",
"&  c #C4B151",
"*  c #C9B352",
"=  c #D1BB56",
"-  c #D1BF55",
";  c #D2BF56",
":  c #E4A36E",
">  c #EAB66D",
",  c #E3A371",
"<  c #E3A472",
"1  c #E3A473",
"2  c #E4A470",
"3  c #E4A570",
"4  c #E4A471",
"5  c #E4A571",
"6  c #E4A672",
"7  c #E4A875",
"8  c #E5AE7C",
"9  c #E5AE7D",
"0  c #E5AF7D",
"q  c #E5AF7E",
"w  c #E5AF7F",
"e  c #E9B372",
"r  c #E9B471",
"t  c #E9B473",
"y  c #E6B17B",
"u  c #E7B27B",
"i  c #E6B27C",
"p  c #E5B07F",
"a  c #EBBE79",
"s  c #D9C256",
"d  c #DAC357",
"f  c #EBCD5D",
"g  c #F0DA5D",
"h  c #F2DB5E",
"j  c #FEE75D",
"k  c #FEE65E",
"l  c #FEE75E",
"z  c #FEE75F",
"x  c #FFE75F",
"c  c #FFE95D",
"v  c #FFE85E",
"b  c #FFE95E",
"n  c #FFE85F",
"m  c #FFE95F",
"M  c #FFEA5F",
"N  c #FFEC5F",
"B  c #DBC563",
"V  c #F3C368",
"C  c #F8D763",
"Z  c #FBDC61",
"A  c #FCDD63",
"S  c #F8DA67",
"D  c #F8DA68",
"F  c #F4D373",
"G  c #FCDF70",
"H  c #F5DC7E",
"J  c #F5DD7E",
"K  c #F5DD7F",
"L  c #FEE560",
"P  c #FEE760",
"I  c #FEE761",
"U  c #FDE665",
"Y  c #FDE765",
"T  c #FEE860",
"R  c #FFE860",
"E  c #FFE960",
"W  c #FFE861",
"Q  c #FFE961",
"!  c #FFEA61",
"~  c #FFEB61",
"^  c #FFEA62",
"/  c #FFEB62",
"(  c #FFEC61",
")  c #FFEC62",
"_  c #FEE864",
"`  c #FFEB66",
"'  c #F9E16F",
"]  c #FBE46D",
"[  c #FBE56E",
"{  c #FAE46F",
"}  c #FBE46F",
"|  c #FBE56F",
" . c #FBE66E",
".. c #FBE66F",
"X. c #FCE76F",
"o. c #FFE96B",
"O. c #F9E070",
"+. c #FAE572",
"@. c #FAE573",
"#. c #F9E374",
"$. c #FEE870",
"%. c #F3E17E",
"&. c #E4AE80",
"*. c #E5AF80",
"=. c #E5B181",
"-. c #E7BA86",
";. c #E7BA87",
":. c #E7BF93",
">. c #C4B5B8",
",. c #ECCC8F",
"<. c #F4C98C",
"1. c #F3DD8C",
"2. c #F3DE8D",
"3. c #F3DF8D",
"4. c #E7C194",
"5. c #E7C096",
"6. c #E7C197",
"7. c #ECCC91",
"8. c #ECCF93",
"9. c #ECCE94",
"0. c #ECCF94",
"q. c #ECCF95",
"w. c #E7C79F",
"e. c #E8C99F",
"r. c #EDD090",
"t. c #EED190",
"y. c #EFDB9B",
"u. c #EFDC9B",
"i. c #EED99C",
"p. c #FFEB83",
"a. c #FFEE81",
"s. c #F4E08D",
"d. c #DAD2B8",
"f. c #FEEDC6",
"g. c #FFFAC2",
"h. c None",
/* pixels */
"h.h.h.h.h.h.h.h.h.h.h.h.h.h.h.h.h.h.h.h.h.h.h.h.h.h.h.h.h.h.h.h.",
"h.h.h.h.h.h.h.h.h.h.h.h.h.h.h.h.h.h.h.h.h.h.h.h.h.h.h.h.h.h.h.h.",
"h.h.h.h.h.h.h.h.h.h.h.h.h.h.h.h.h.h.h.h.h.h.h.h.h.h.h.h.h.h.h.h.",
"h.h.h.h.h.h.h.h.h.h.h.h.h.h.h.h.h.h.h.h.h.h.h.h.h.h.h.h.h.h.h.h.",
"h.h.h.h.h.h.h.h.h.h.h.h.3 4 < 1 1 < 4 3 h.h.h.h.h.h.h.h.h.h.h.h.",
"h.h.h.h.h.h.h.h.h.h.h.h.*.i t > > t i *.h.h.h.h.h.h.h.h.h.h.h.h.",
"h.h.h.h.h.h.h.h.3 2 , &.6.7.F C C F 7.6.&., 2 3 h.h.h.h.h.h.h.h.",
"h.h.h.h.h.h.h.h.w y e a r.2.| M N $.s.t.a e y w h.h.h.h.h.h.h.h.",
"h.h.h.h.h.h.: q 5.7.F D O.{ Y E ( ` X.' S F 7.5.q : h.h.h.h.h.h.",
"h.h.h.h.h.h.0 -.0.2...m n R W g ; = f Z L ..3.q.;.q h.h.h.h.h.h.",
"h.h.h.h.3 p 4.8.J [ Y T T ! / - o X % V A _  .K q.5.w 3 h.h.h.h.",
"h.h.h.h.3 =.e.y.+.c n P I ^ ) &   O $ <.G v v [ 2.7.y 2 h.h.h.h.",
"h.h.h.h.3 =.e.u.@.b v P I ^ ) * . + >.f.p.j l Y ..F e , h.h.h.h.",
"h.h.h.h.5 9 :.,.F D O.} U E ~ s @ # d.g.a.l z T m D a &.h.h.h.h.",
"h.h.h.h.6 7 8 u r a r.2.[ v R h d B %.a.o.P P T n O.r.6.*.3 h.h.",
"h.h.h.h.6 6 5 2 , &.6.q.H ] U W / ! v k P I I P P | 2.7.i 4 h.h.",
"h.h.h.h.h.h.h.h.h.h.w ;.9.1.{ R Q Q x z P I I I I Y | F t < h.h.",
"h.h.h.h.h.h.h.h.h.h.: w w.i.#.z P I I I I I I I I R b C > 1 h.h.",
"h.h.h.h.h.h.h.h.h.h.: w w.i.#.z P I I I I I I I I R b C > 1 h.h.",
"h.h.h.h.h.h.h.h.h.h.w ;.9.1.{ P P I I I I I I I I Y | F t < h.h.",
"h.h.h.h.6 6 5 2 , &.6.q.H ] U I I I I I I I I P P | 2.7.i 4 h.h.",
"h.h.h.h.6 7 8 u r a r.2.[ v P I I I I I I I I T n O.r.6.*.3 h.h.",
"h.h.h.h.5 9 :.,.F D O.} U P P I I I I I I I I T m D a &.h.h.h.h.",
"h.h.h.h.3 =.e.u.@.b v P I I I I I I I I I P P Y ..F e , h.h.h.h.",
"h.h.h.h.3 =.e.y.+.c n P I I I I I I I I I P v [ 2.7.y 2 h.h.h.h.",
"h.h.h.h.3 p 4.8.J [ Y T T P I I I I P T T Y [ K q.5.w 3 h.h.h.h.",
"h.h.h.h.h.h.0 -.0.2...m n P I I I I P n m ..2.q.;.q h.h.h.h.h.h.",
"h.h.h.h.h.h.: q 5.7.F D O.| Y R R Y | O.D F 7.5.q : h.h.h.h.h.h.",
"h.h.h.h.h.h.h.h.w y e a r.2.| b b | 2.r.a e y w h.h.h.h.h.h.h.h.",
"h.h.h.h.h.h.h.h.3 2 , &.6.7.F C C F 7.6.&., 2 3 h.h.h.h.h.h.h.h.",
"h.h.h.h.h.h.h.h.h.h.h.h.*.i t > > t i *.h.h.h.h.h.h.h.h.h.h.h.h.",
"h.h.h.h.h.h.h.h.h.h.h.h.3 4 < 1 1 < 4 3 h.h.h.h.h.h.h.h.h.h.h.h."
};
