/* XPM */
static char *result[] = {
/* columns rows colors chars-per-pixel */
"32 32 125 2 ",
"   c #4C4132",
".  c #5B4835",
"X  c #705C3F",
"o  c #756B3D",
"O  c #463441",
"+  c #5A4859",
"@  c #8D7642",
"#  c #8E7B65",
"$  c #B48D7C",
"%  c #C1965C",
"&  c #C4B151",
"*  c #C9B352",
"=  c #D1BB56",
"-  c #D1BF55",
";  c #D2BF56",
":  c #E4A36E",
">  c #EAB66D",
",  c #E3A371",
"<  c #E3A471",
"1  c #E3A472",
"2  c #E3A473",
"3  c #E4A470",
"4  c #E4A570",
"5  c #E4A471",
"6  c #E4A571",
"7  c #E4A572",
"8  c #E4A672",
"9  c #E4A875",
"0  c #E4A876",
"q  c #E5AD7C",
"w  c #E5AE7D",
"e  c #E4AD7E",
"r  c #E5AE7E",
"t  c #E5AF7E",
"y  c #E5AF7F",
"u  c #E9B372",
"i  c #E9B472",
"p  c #E9B473",
"a  c #E9B573",
"s  c #E6B17B",
"d  c #E6B27C",
"f  c #EBBE79",
"g  c #D9C256",
"h  c #DAC357",
"j  c #EBCD5D",
"k  c #F0DA5D",
"l  c #F2DB5E",
"z  c #FEE75D",
"x  c #FEE65E",
"c  c #FEE75E",
"v  c #FEE75F",
"b  c #FFE75F",
"n  c #FFE85E",
"m  c #FFE95E",
"M  c #FFE85F",
"N  c #FFE95F",
"B  c #FFEA5F",
"V  c #FFEC5F",
"C  c #DBC563",
"Z  c #F3C368",
"A  c #F8D763",
"S  c #F8D863",
"D  c #FBDC61",
"F  c #FCDD63",
"G  c #F8DA67",
"H  c #F8DB67",
"J  c #F8DA68",
"K  c #F4D373",
"L  c #F4D473",
"P  c #F4D474",
"I  c #FCDF70",
"U  c #F5DD7F",
"Y  c #FEE560",
"T  c #FEE760",
"R  c #FEE761",
"E  c #FDE765",
"W  c #FEE860",
"Q  c #FFE860",
"!  c #FFE960",
"~  c #FFE861",
"^  c #FFE961",
"/  c #FFEA61",
"(  c #FFE962",
")  c #FFEA62",
"_  c #FFEB62",
"`  c #FFEC61",
"'  c #FFEC62",
"]  c #FEE864",
"[  c #FFEB66",
"{  c #F9E16F",
"}  c #FBE56E",
"|  c #FAE46F",
" . c #FBE56F",
".. c #FBE66E",
"X. c #FBE66F",
"o. c #FCE76F",
"O. c #FFE96B",
"+. c #F9E070",
"@. c #FEE870",
"#. c #F3E17E",
"$. c #E4AE80",
"%. c #E5AF80",
"&. c #E7BA87",
"*. c #E7BB88",
"=. c #E7BF94",
"-. c #E7BF95",
";. c #C4B5B8",
":. c #F4C98C",
">. c #F3DE8C",
",. c #F3DE8D",
"<. c #E7C096",
"1. c #E7C197",
"2. c #ECCC91",
"3. c #ECCD91",
"4. c #ECCF95",
"5. c #EDD090",
"6. c #EED190",
"7. c #ECD095",
"8. c #FFEB83",
"9. c #FFEE81",
"0. c #F4E08D",
"q. c #DAD2B8",
"w. c #FEEDC6",
"e. c #FFFAC2",
"r. c None",
/* pixels */
"r.r.r.r.r.r.r.r.r.r.r.r.r.r.r.r.r.r.r.r.r.r.r.r.r.r.r.r.r.r.r.r.",
"r.r.r.r.r.r.r.r.r.r.r.r.r.r.r.r.r.r.r.r.r.r.r.r.r.r.r.r.r.r.r.r.",
"r.r.r.r.r.r.r.r.r.r.r.r.8 8 8 8 8 8 8 8 r.r.r.r.r.r.r.r.r.r.r.r.",
"r.r.r.r.r.r.r.r.r.r.r.r.6 6 7 7 7 7 6 6 r.r.r.r.r.r.r.r.r.r.r.r.",
"r.r.r.r.r.r.r.r.8 8 8 8 6 6 7 1 1 7 6 6 8 8 8 8 r.r.r.r.r.r.r.r.",
"r.r.r.r.r.r.r.r.6 6 7 0 r d a > > a d r 0 7 6 6 r.r.r.r.r.r.r.r.",
"r.r.r.r.r.r.8 8 6 3 < e -.3.P S S P 3.-.e < 3 6 8 8 r.r.r.r.r.r.",
"r.r.r.r.r.r.6 9 w d i f 6.,. .B V @.0.6.f i d w 9 6 r.r.r.r.r.r.",
"r.r.r.r.8 6 3 q =.3.L J +.| E ! ` [ o.{ H L 3.=.q 3 6 8 r.r.r.r.",
"r.r.r.r.8 9 q *.7.,.X.N M Q ~ k ; = j D Y X.>.7.*.q 9 8 r.r.r.r.",
"r.r.r.r.6 w =.7.U } E W W / _ - o X % Z F ] ..U 7.=.w 6 r.r.r.r.",
"r.r.r.r.3 d 2.,.} n T R R ) ' &   O $ :.I n n } ,.2.d 3 r.r.r.r.",
"r.r.8 7 < i L X.E T T R R ) ' * . + ;.w.8.z c E X.L i < 7 8 r.r.",
"r.r.8 0 e f G N W R R R R ( ) g @ # q.e.9.c v W N G f e 0 8 r.r.",
"r.r.6 w =.6.+.M W R R R R ~ ~ l h C #.9.O.T T W M +.6.=.w 6 r.r.",
"r.r.5 d 2.,. .T T R R R R R R ~ _ / n x T R R T T  .,.2.d 5 r.r.",
"r.r.1 p P  .E R R R R R R R R ~ ( ^ b v T R R R R E  .P p 1 r.r.",
"r.r.2 > A m Q R R R R R R R R R R R R R R R R R R Q m A > 2 r.r.",
"r.r.2 > A m Q R R R R R R R R R R R R R R R R R R Q m A > 2 r.r.",
"r.r.1 p K  .E R R R R R R R R R R R R R R R R R R E  .K p 1 r.r.",
"r.r.5 d 2.,. .T T R R R R R R R R R R R R R R T T  .,.2.d 5 r.r.",
"r.r.4 %.1.5.+.M W R R R R R R R R R R R R R R W M +.5.1.%.4 r.r.",
"r.r.r.r.$.f J N W R R R R R R R R R R R R R R W N J f $.r.r.r.r.",
"r.r.r.r., u K X.E T T R R R R R R R R R R T T E X.K u , r.r.r.r.",
"r.r.r.r.3 s 2.,.} n T R R R R R R R R R R T n } ,.2.s 3 r.r.r.r.",
"r.r.r.r.4 y <.4.U } E W W T R R R R T W W E } U 4.<.y 4 r.r.r.r.",
"r.r.r.r.r.r.t &.4.,.X.N M T R R R R T M N X.,.4.&.t r.r.r.r.r.r.",
"r.r.r.r.r.r.: t <.2.K J +. .E Q Q E  .+.J K 2.<.t : r.r.r.r.r.r.",
"r.r.r.r.r.r.r.r.y s u f 5.,. .m m  .,.5.f u s y r.r.r.r.r.r.r.r.",
"r.r.r.r.r.r.r.r.4 3 , $.1.2.K A A K 2.1.$., 3 4 r.r.r.r.r.r.r.r.",
"r.r.r.r.r.r.r.r.r.r.r.r.%.d p > > p d %.r.r.r.r.r.r.r.r.r.r.r.r.",
"r.r.r.r.r.r.r.r.r.r.r.r.4 5 1 2 2 1 5 4 r.r.r.r.r.r.r.r.r.r.r.r."
};
