/* XPM */
static char *result[] = {
/* columns rows colors chars-per-pixel */
"32 32 135 2 ",
"   c #4C4132",
".  c #5B4835",
"X  c #705C3F",
"o  c #756B3D",
"O  c #463441",
"+  c #5A4859",
"@  c #8D7642",
"#  c #8E7B65",
"$  c #B48D7C",
"%  c #C1965C",
"&  c #C4B151",
"*  c #C9B352",
"=  c #D1BB56",
"-  c #D1BF55",
";  c #D2BF56",
":  c #E4A36E",
">  c #E4A46F",
",  c #EAB66D",
"<  c #E3A371",
"1  c #E3A472",
"2  c #E3A473",
"3  c #E4A470",
"4  c #E4A570",
"5  c #E4A471",
"6  c #E4A571",
"7  c #E4A672",
"8  c #E4A875",
"9  c #E5AE7C",
"0  c #E5AE7D",
"q  c #E5AF7E",
"w  c #E5AF7F",
"e  c #E9B372",
"r  c #E9B473",
"t  c #E6B17B",
"y  c #E6B27C",
"u  c #E5B07E",
"i  c #E5B07F",
"p  c #EBBE79",
"a  c #D9C255",
"s  c #DBC356",
"d  c #EBCD5D",
"f  c #F3DC5B",
"g  c #F0DA5D",
"h  c #FEE75D",
"j  c #FEE65E",
"k  c #FEE75E",
"l  c #FEE75F",
"z  c #FFE85E",
"x  c #FFE95E",
"c  c #FFE85F",
"v  c #FFE95F",
"b  c #FFEA5F",
"n  c #FFEC5F",
"m  c #DBC563",
"M  c #F3C368",
"N  c #F8D763",
"B  c #FBDC61",
"V  c #FCDD63",
"C  c #F8DA67",
"Z  c #F8DA68",
"A  c #F4D373",
"S  c #FCDF70",
"D  c #F5DD7D",
"F  c #F6DE7D",
"G  c #F5DC7E",
"H  c #F5DD7F",
"J  c #FEE560",
"K  c #FEE760",
"L  c #FEE761",
"P  c #FDE665",
"I  c #FDE765",
"U  c #FEE764",
"Y  c #FEE860",
"T  c #FFE860",
"R  c #FFE960",
"E  c #FFE861",
"W  c #FFEA60",
"Q  c #FFEA61",
"!  c #FFEB62",
"~  c #FFEC61",
"^  c #FFEC62",
"/  c #FEE864",
"(  c #FFEA66",
")  c #FFEB66",
"_  c #F9E16F",
"`  c #FBE46D",
"'  c #FBE56D",
"]  c #FBE56E",
"[  c #FAE46F",
"{  c #FBE46F",
"}  c #FBE56F",
"|  c #FBE66E",
" . c #FBE66F",
".. c #FCE56E",
"X. c #FCE66E",
"o. c #FDE66F",
"O. c #FCE76F",
"+. c #FFE96B",
"@. c #F9E070",
"#. c #FDE770",
"$. c #F9E374",
"%. c #FEE870",
"&. c #F3E17E",
"*. c #E4AE80",
"=. c #E5AF80",
"-. c #E7BA87",
";. c #E8BB87",
":. c #C4B5B8",
">. c #F4C98C",
",. c #F3DD8C",
"<. c #F3DE8C",
"1. c #F3DE8D",
"2. c #F3DF8D",
"3. c #F4DF8D",
"4. c #E7C093",
"5. c #E7C096",
"6. c #E7C196",
"7. c #E7C197",
"8. c #E7C296",
"9. c #ECCC91",
"0. c #ECCE94",
"q. c #ECCF94",
"w. c #ECCF95",
"e. c #E7C79F",
"r. c #EDD090",
"t. c #EED190",
"y. c #EDD094",
"u. c #EED99C",
"i. c #FFEB83",
"p. c #FFEE81",
"a. c #F4E08D",
"s. c #DAD2B8",
"d. c #FEEDC6",
"f. c #FFFAC2",
"g. c None",
/* pixels */
"g.g.g.g.g.g.g.g.g.g.g.g.g.g.g.g.g.g.g.g.g.g.g.g.g.g.g.g.g.g.g.g.",
"g.g.g.g.g.g.g.g.g.g.g.g.g.g.g.g.g.g.g.g.g.g.g.g.g.g.g.g.g.g.g.g.",
"g.g.g.g.g.g.g.g.g.g.g.g.4 5 1 2 2 1 5 4 g.g.g.g.g.g.g.g.g.g.g.g.",
"g.g.g.g.g.g.g.g.g.g.g.g.=.y r , , r y =.g.g.g.g.g.g.g.g.g.g.g.g.",
"g.g.g.g.g.g.g.g.4 3 < *.7.9.A N N A 9.7.*.< 3 4 g.g.g.g.g.g.g.g.",
"g.g.g.g.g.g.g.g.w t e p r.1.} b n %.a.t.p e t w g.g.g.g.g.g.g.g.",
"g.g.g.g.g.g.: q 5.9.A Z @.[ I R ~ ) O._ C A 9.5.q : g.g.g.g.g.g.",
"g.g.g.g.g.g.u ;.q.<. .v c T E g ; = d B J  .2.w.-.q g.g.g.g.g.g.",
"g.g.g.g.4 i 8.y.D ' U Y Y Q ! - o X % M V / | H w.5.w 4 g.g.g.g.",
"g.g.g.g.6 0 4.y.F ' U Y Y Q ^ &   O $ >.S z z ] 1.9.t 3 g.g.g.g.",
"g.g.g.g.7 8 9 ;.y.<. .v c W ^ * . + :.d.i.h k I  .A e < g.g.g.g.",
"g.g.g.g.7 6 > w 6.9.A Z @.#.( a @ # s.f.p.k l Y v Z p *.g.g.g.g.",
"g.g.g.g.g.g.g.g.=.t e p r.3.X.f s m &.p.+.K K Y c @.r.7.=.4 g.g.",
"g.g.g.g.g.g.g.g.4 3 < *.7.w.G ..( Q z j K L L K K } 1.9.y 5 g.g.",
"g.g.g.g.g.g.g.g.g.g.g.g.w -.0.<.o.R c l K L L L L I } A r 1 g.g.",
"g.g.g.g.g.g.g.g.g.g.g.g.: w e.u.$.l K L L L L L L T x N , 2 g.g.",
"g.g.g.g.g.g.g.g.g.g.g.g.: w e.u.$.l K L L L L L L T x N , 2 g.g.",
"g.g.g.g.g.g.g.g.g.g.g.g.w -.0.,.[ K K L L L L L L I } A r 1 g.g.",
"g.g.g.g.g.g.g.g.4 3 < *.7.w.G ` P L L L L L L K K } 1.9.y 5 g.g.",
"g.g.g.g.g.g.g.g.=.t e p r.1.] z K L L L L L L Y c @.r.7.=.4 g.g.",
"g.g.g.g.7 6 > w 6.9.A Z @.{ P K K L L L L L L Y v Z p *.g.g.g.g.",
"g.g.g.g.7 8 9 ;.y.<. .v c K L L L L L L L K K I  .A e < g.g.g.g.",
"g.g.g.g.6 0 4.y.F ' U Y Y K L L L L L L L K z ] 1.9.t 3 g.g.g.g.",
"g.g.g.g.4 i 8.y.D ' U Y Y K L L L L K Y Y I ] H w.5.w 4 g.g.g.g.",
"g.g.g.g.g.g.u ;.q.<. .v c K L L L L K c v  .1.w.-.q g.g.g.g.g.g.",
"g.g.g.g.g.g.: q 5.9.A Z @.} I T T I } @.Z A 9.5.q : g.g.g.g.g.g.",
"g.g.g.g.g.g.g.g.w t e p r.1.} x x } 1.r.p e t w g.g.g.g.g.g.g.g.",
"g.g.g.g.g.g.g.g.4 3 < *.7.9.A N N A 9.7.*.< 3 4 g.g.g.g.g.g.g.g.",
"g.g.g.g.g.g.g.g.g.g.g.g.=.y r , , r y =.g.g.g.g.g.g.g.g.g.g.g.g.",
"g.g.g.g.g.g.g.g.g.g.g.g.4 5 1 2 2 1 5 4 g.g.g.g.g.g.g.g.g.g.g.g.",
"g.g.g.g.g.g.g.g.g.g.g.g.g.g.g.g.g.g.g.g.g.g.g.g.g.g.g.g.g.g.g.g.",
"g.g.g.g.g.g.g.g.g.g.g.g.g.g.g.g.g.g.g.g.g.g.g.g.g.g.g.g.g.g.g.g."
};
