/* XPM */
static char *result[] = {
/* columns rows colors chars-per-pixel */
"96 32 7 1 ",
"  c black",
". c #393900",
"X c #656500",
"o c #8F8F00",
"O c #B5B500",
"+ c #DADA00",
"@ c yellow",
/* pixels */
"                                                                                                ",
"                            O@@@@.                                                              ",
"                            O@@@@.                                                              ",
"                            O@@@@.                                                              ",
"                            O@@@@.                                                              ",
"                            O@@@@.                                                              ",
"                            O@@@@.                                                              ",
"                            O@@@@.                                                              ",
"                            O@@@@.                                                              ",
"                 .@@@@@@+   O@@@@.       O@@@@@X         +@@@@@+       O@@@+  @@@X              ",
"               X@@@@@@@@@.  O@@@@.     X@@@@@@@@@.    .@@@@@@@@@@o     O@@@+.@@@@X              ",
"              o@@@@@@@@@@.  O@@@@.    o@@@@@@@@@@@    .@@@@@@@@@@@X    O@@@++@@@@X              ",
"             .@@@@@X    +.  O@@@@.   X@@@@O   +@@@O   .@@o    +@@@+    O@@@@@@@@@X              ",
"             +@@@@.         O@@@@.   +@@@O     @@@@   .o       @@@@.   O@@@@@o                  ",
"            .@@@@o          O@@@@.  .@@@@.     +@@@X          .@@@@X   O@@@@o                   ",
"            X@@@@.          O@@@@.  X@@@@@@@@@@@@@@X    X@@@@@@@@@@X   O@@@@.                   ",
"            o@@@@           O@@@@.  o@@@@@@@@@@@@@@o  .@@@@@@@@@@@@X   O@@@+                    ",
"            o@@@@           O@@@@.  o@@@@@@@@@@@@@@o  @@@@@@@@@@@@@X   O@@@+                    ",
"            o@@@@.          O@@@@.  o@@@@.           o@@@@o    @@@@X   O@@@+                    ",
"            X@@@@o          O@@@@.  X@@@@X           O@@@O     @@@@X   O@@@+                    ",
"             @@@@@          O@@@@.   @@@@+           O@@@O    o@@@@X   O@@@+                    ",
"             o@@@@@X    @.  O@@@@.   o@@@@@     .@.  o@@@@.  X@@@@@X   O@@@+                    ",
"              O@@@@@@@@@@.  O@@@@.    +@@@@@@@@@@@.  .@@@@@@@@@@@@@X   O@@@+                    ",
"               O@@@@@@@@@.  O@@@@.     +@@@@@@@@@@.   o@@@@@@@.@@@@X   O@@@+                    ",
"                 O@@@@@@X   O@@@@.       +@@@@@@O      .@@@@+  @@@@X   O@@@+                    ",
"                                                                                                ",
"                                                                                                ",
"                                                                                                ",
"                                                                                                ",
"                                                                                                ",
"                                                                                                ",
"                                                                                                "
};
