/* XPM */
static char *result[] = {
/* columns rows colors chars-per-pixel */
"96 32 7 1 ",
"  c black",
". c #393900",
"X c #656500",
"o c #8F8F00",
"O c #B5B500",
"+ c #DADA00",
"@ c yellow",
/* pixels */
"                                                                                                ",
"                                                                                                ",
"                                                                                                ",
"                                                                                                ",
"                                                                                                ",
"                                                                                                ",
"                                                                                                ",
"                                                                                                ",
"                                                                                                ",
"                                                                                                ",
"                                                                                                ",
"      @@@+o@@.  O@@@@   o@@.+@@O X@@@.    +@@@.         O@@@@X  o@@.  X@@X  +@@@.  X@@X@@.      ",
"     @@@@@@@@. X@@@@@+  o@@@@@@@O@@@@@  .@@@@@@X       @@@@@@@O .@@X  O@@ .@@@@@@X X@@@@@.      ",
"    O@@X  @@@. Xo  X@@X o@@O .@@@X O@@X O@O  o@+      O@@X  O@@X +@O  +@o O@O  o@+ X@@+         ",
"    +@O   o@@.      @@X o@@.  +@+  .@@X @@@@@@@@      @@+   .@@O o@@ .@@. @@@@@@@@ X@@.         ",
"    @@O   X@@.  @@@@@@X o@@.  +@O  .@@X.@@@@@@@@      @@O    @@O .@@Xo@+ .@@@@@@@@ X@@.         ",
"    @@O   o@@. @@X  @@X o@@.  +@O  .@@X @@o           @@O   .@@o  +@o+@o  @@o      X@@.         ",
"    O@@. .@@@..@@X o@@X o@@.  +@O  .@@X +@@   o.      O@@X  O@@.  o@+@@.  +@@   o. X@@.         ",
"    .@@@@@@@@. @@@@@@@X o@@.  +@O  .@@X X@@@@@@.       @@@@@@@O   .@@@+   X@@@@@@. X@@.         ",
"     .@@@oo@@  X@@@ @@X o@@.  +@O  .@@X  .@@@@O         O@@@@.     +@@X    .@@@@O  X@@.         ",
"          O@+                                                                                   ",
"    .O   o@@o                                                                                   ",
"    .@@@@@@+                                                                                    ",
"    .@@@@@X                                                                                     ",
"                                                                                                ",
"                                                                                                ",
"                                                                                                ",
"                                                                                                ",
"                                                                                                ",
"                                                                                                ",
"                                                                                                ",
"                                                                                                "
};
