/* XPM */
static char *bfd3bdbea84240589dd78d97163a7ceeXIMLRW2Nq890vH5c[] = {
/* columns rows colors chars-per-pixel */
"32 32 163 2 ",
"   c None",
".  c #4C4132",
"X  c #5B4835",
"o  c #705C3F",
"O  c #756B3D",
"+  c #463441",
"@  c #5A4859",
"#  c #8D7642",
"$  c #8E7B65",
"%  c #B48D7C",
"&  c #C1965C",
"*  c #C4B151",
"=  c #C9B352",
"-  c #D1BB56",
";  c #D1BF55",
":  c #D2BF56",
">  c #E4A36E",
",  c #E4A36F",
"<  c #EAB66D",
"1  c #E3A371",
"2  c #E3A471",
"3  c #E3A472",
"4  c #E3A473",
"5  c #E4A470",
"6  c #E4A570",
"7  c #E4A471",
"8  c #E4A571",
"9  c #E4A671",
"0  c #E4A572",
"q  c #E4A672",
"w  c #E4A775",
"e  c #E4A875",
"r  c #E4A975",
"t  c #E4A876",
"y  c #E5AD7B",
"u  c #E5AD7C",
"i  c #E5AD7D",
"p  c #E5AE7C",
"a  c #E5AE7D",
"s  c #E5AF7D",
"d  c #E4AD7E",
"f  c #E5AE7E",
"g  c #E5AF7E",
"h  c #E5AF7F",
"j  c #E9B372",
"k  c #E9B471",
"l  c #E9B472",
"z  c #E9B473",
"x  c #E9B573",
"c  c #E6B17B",
"v  c #E7B27B",
"b  c #E6B27C",
"n  c #E5B07F",
"m  c #EBBE79",
"M  c #D9C256",
"N  c #DAC357",
"B  c #EBCD5D",
"V  c #F0DA5D",
"C  c #F2DB5E",
"Z  c #FEE75D",
"A  c #FEE65E",
"S  c #FEE75E",
"D  c #FEE75F",
"F  c #FFE75F",
"G  c #FFE95D",
"H  c #FFE85E",
"J  c #FFE95E",
"K  c #FFE85F",
"L  c #FFE95F",
"P  c #FFEA5F",
"I  c #FFEC5F",
"U  c #DBC563",
"Y  c #F3C368",
"T  c #F8D763",
"R  c #F8D863",
"E  c #FBDC61",
"W  c #FCDD63",
"Q  c #F8DA67",
"!  c #F8DA68",
"~  c #F4D373",
"^  c #F4D473",
"/  c #F4D474",
"(  c #FCDF70",
")  c #F5DC7E",
"_  c #F5DD7E",
"`  c #F5DD7F",
"'  c #FEE560",
"]  c #FEE760",
"[  c #FEE761",
"{  c #FDE665",
"}  c #FDE765",
"|  c #FEE860",
" . c #FFE860",
".. c #FFE960",
"X. c #FFE861",
"o. c #FFE961",
"O. c #FFEA61",
"+. c #FFEB61",
"@. c #FFEA62",
"#. c #FFEB62",
"$. c #FFEC61",
"%. c #FFEC62",
"&. c #FEE864",
"*. c #FFEB66",
"=. c #F9E16F",
"-. c #FBE46D",
";. c #FBE56E",
":. c #FAE46F",
">. c #FBE46F",
",. c #FBE56F",
"<. c #FBE66E",
"1. c #FBE66F",
"2. c #FCE76F",
"3. c #FFE96B",
"4. c #F9E070",
"5. c #FAE572",
"6. c #FAE573",
"7. c #F9E374",
"8. c #FEE870",
"9. c #F3E17E",
"0. c #E4AE80",
"q. c #E5AF80",
"w. c #E5B181",
"e. c #E7BA86",
"r. c #E7BA87",
"t. c #E8BB87",
"y. c #E7BB88",
"u. c #E7BF93",
"i. c #E7BF94",
"p. c #E7BF95",
"a. c #C4B5B8",
"s. c #ECCC8F",
"d. c #F4C98C",
"f. c #F3DD8C",
"g. c #F3DE8D",
"h. c #F3DF8D",
"j. c #E7C093",
"k. c #E7C194",
"l. c #E7C096",
"z. c #E7C197",
"x. c #ECCD90",
"c. c #ECCC91",
"v. c #ECCD91",
"b. c #ECCF93",
"n. c #ECCE94",
"m. c #ECCF94",
"M. c #ECCF95",
"N. c #E7C79F",
"B. c #E8C99F",
"V. c #EDD090",
"C. c #EED190",
"Z. c #EDD094",
"A. c #ECD095",
"S. c #EFDB9B",
"D. c #EFDC9B",
"F. c #EED99C",
"G. c #FFEB83",
"H. c #FFEE81",
"J. c #F4E08D",
"K. c #DAD2B8",
"L. c #E7C7A0",
"P. c #FEEDC6",
"I. c #FFFAC2",
/* pixels */
"                                                                ",
"                                                                ",
"                                                                ",
"                                                                ",
"            6 6 , 6 6 6 6 w     e 6 6 6 6 6 6 w                 ",
"            n w.w.s e e 6 6     6 e s q.q.s w 6                 ",
"        > s k.B.B.j.s w 6 e     6 s j.B.L.u.y > 6 6             ",
"        s e.b.S.D.s.n 6 6 6     6 v b.S.D.Z.t.s e w             ",
"    6 q.k.M.` 5.5.~ k 1 9 9     1 k ~ 5.5._ m.u.s 6 6 w         ",
"    6 c v.f.1.P P Q m d w 9     0.m ! P P ,.f.b.v 7 6 6         ",
"    1 j ^ 1.} D P 4.V.i.d , > d k.V.( A P } ,.^ j 7 w w         ",
"    q.m ! P D [ A 5.f.A.e.n n e.A.f.1.] ] A ..! m s w 6         ",
"6 q.k.b.! ..D [ ] { 1.) v.N.N.A.f.1.] ] ] ..] 4.C.i.q.6 6 6     ",
", n b.f.5...@.@.....P 1.f.F.F.f.{ A ] ] ] ] ] 5.f.b.n 6 6 w     ",
"9 z ~ 5.&...&.%.%.....} :.7.7.4.} ] ] ] ] ] ] &.,./ z 6 6 w     ",
"9 < T ....V M * * N R ..P D D [ ] ] ] } } ] ] A P R < 1 w 6     ",
"9 < R %.%.M O . X # N %...] ] ] ] ] ] ] } ] ] ....T < 1 6 w     ",
"1 l ^ 8.3.- o + @ $ U ..&.] ] ] } ] ] } ] ] ] } 5./ j w w 6     ",
"1 n v.J.2.B & % a.K.9.A ..] ] } ] ] ] ] ] ] ] 1.f.b.c 6 6 6     ",
"> w.k.C.4.E Y d.P.I.H.A ] ] ] ] ] ] } ] ] ..A ( V.k.s 6 w 6     ",
"    q.m ! ] W ! G.H.3.] ] ] ] ] } ] ] ] } ] P ! m q.e w         ",
"    1 k / 5.} P P A ] ] ] } ] } ] ] ] ] ] } ,./ j 9 6 6         ",
"    9 n c.f.1.A A ] ] ] ] ] ] ] ] } ] ] A ,.f.b.n > 6 w         ",
"    , s k.Z._ 1.} ..] ] ] ] } ] ] ] ] } ,._ Z.j.s 6 6 6         ",
"        n e.m.f.5.P A ] ] ] ] ] ....P 5.f.m.y.s w 6             ",
"        > s i.b./ ! ( 1.} ] A } 5.! Q ~ c.i.i 6 6 w             ",
"            q.n z m s.f.5.P P 1.f.V.m j n s e 6                 ",
"            , , 6 w.j.b.~ T T ~ b.j.s 7 6 6 w 6                 ",
"                    q.n z < < j n s e 6                         ",
"                    6 6 7 4 4 w 6 6 6 w                         ",
"                                                                ",
"                                                                "
};
