/* XPM */
static char *e1a3855135744f75e97433f2576097d2qbJw45DoNeyLUzM0[] = {
/* columns rows colors chars-per-pixel */
"32 32 104 2 ",
"   c None",
".  c #4C4132",
"X  c #5B4835",
"o  c #705C3F",
"O  c #756B3D",
"+  c #463441",
"@  c #5A4859",
"#  c #8D7642",
"$  c #8E7B65",
"%  c #B48D7C",
"&  c #C1965C",
"*  c #C4B151",
"=  c #C9B352",
"-  c #D1BB56",
";  c #D1BF55",
":  c #D2BF56",
">  c #E4A36E",
",  c #EAB66D",
"<  c #E3A371",
"1  c #E3A472",
"2  c #E3A473",
"3  c #E4A470",
"4  c #E4A570",
"5  c #E4A471",
"6  c #E5AF7E",
"7  c #E5AF7F",
"8  c #E9B372",
"9  c #E9B473",
"0  c #E6B17B",
"q  c #E6B27C",
"w  c #EBBE79",
"e  c #D9C256",
"r  c #DAC357",
"t  c #EBCD5D",
"y  c #F0DA5D",
"u  c #F2DB5E",
"i  c #FEE75D",
"p  c #FEE65E",
"a  c #FEE75E",
"s  c #FEE75F",
"d  c #FFE75F",
"f  c #FFE85E",
"g  c #FFE95E",
"h  c #FFE85F",
"j  c #FFE95F",
"k  c #FFEA5F",
"l  c #FFEC5F",
"z  c #DBC563",
"x  c #F3C368",
"c  c #F8D763",
"v  c #FBDC61",
"b  c #FCDD63",
"n  c #F8DA67",
"m  c #F8DA68",
"M  c #F4D373",
"N  c #FCDF70",
"B  c #F5DD7F",
"V  c #FEE560",
"C  c #FEE760",
"Z  c #FEE761",
"A  c #FDE765",
"S  c #FEE860",
"D  c #FFE860",
"F  c #FFE960",
"G  c #FFE861",
"H  c #FFE961",
"J  c #FFEA61",
"K  c #FFE962",
"L  c #FFEA62",
"P  c #FFEB62",
"I  c #FFEC61",
"U  c #FFEC62",
"Y  c #FEE864",
"T  c #FFEB66",
"R  c #F9E16F",
"E  c #FBE56E",
"W  c #FAE46F",
"Q  c #FBE56F",
"!  c #FBE66E",
"~  c #FBE66F",
"^  c #FCE76F",
"/  c #FFE96B",
"(  c #F9E070",
")  c #FEE870",
"_  c #F3E17E",
"`  c #E4AE80",
"'  c #E5AF80",
"]  c #E7BA87",
"[  c #C4B5B8",
"{  c #F4C98C",
"}  c #F3DE8D",
"|  c #F3DF8D",
" . c #E7C096",
".. c #E7C197",
"X. c #ECCC91",
"o. c #ECCF95",
"O. c #EDD090",
"+. c #EED190",
"@. c #FFEB83",
"#. c #FFEE81",
"$. c #F4E08D",
"%. c #DAD2B8",
"&. c #FEEDC6",
"*. c #FFFAC2",
/* pixels */
"                                                                ",
"                                                                ",
"                    < < 2 2 2 < 4 4                             ",
"                    q q 9 , , 9 q '                             ",
"            4 4 < ` ..X.M c c M X...7 < < >                     ",
"            7 0 8 w O.} ) h a ) } O.w 9 0 '                     ",
"        4 ' ] o.M m N W A Z F A ) ( m M X...` >                 ",
"        ' ] o.| W F a a a A Z Z Z Z h W $.O.] 7                 ",
"    4 ' ..O.} E A s s s Z Z Z Z a Z F A W $.o.] ' 4             ",
"    5 q X.| E i i a S S Z Z Z Z Z Z Z Z h ( | X.0 4             ",
"    < 8 M ~ A A Z Z A A Z Z Z Z Z Z Z a h T ) M 8 <             ",
"    ' w m s s S Z Z a a Z Z Z Z Z Z Z Z Z a a m w '             ",
"4 ' ] o.( T S S Z Z Z Z Z Z Z Z Z Z Z Z Z a F W O...' 4         ",
"4 q X.} ) F S U F F F Z Z Z Z Z Z Z Z Z Z Z Z W } X.q 4         ",
"2 9 M ) A Z F Y U T F Z Z Z Z Z Z Z Z Z Z Z Z A ) M 9 <         ",
"2 , c F Z y e * = e y F Z Z Z Z Z Z Z Z Z Z Z Z F c , <         ",
"2 , v l U ; O . X # r F F Z Z Z Z Z Z Z Z Z Z h h c , 2         ",
"2 8 M ) T - o + @ $ z F F Z Z Z Z Z Z Z Z Z Z A W M 9 <         ",
"< q X.$.W t & % [ %._ a Z Z Z Z Z Z Z Z Z Z F W } X.0 <         ",
"< ' ..O.W v x { &.*.#.a Z Z Z Z Z Z Z Z Z F h ( O...' <         ",
"    ' w m A v N @.#./ Z a Z Z Z Z Z Z Z Z h h n x '             ",
"    < 8 M ) Z a h h a Z Z Z Z Z Z Z Z Z A A W M q <             ",
"    < 0 X.} W h a a Z Z Z Z Z Z Z A a Z i E | X.q <             ",
"    4 7 ..O.B W A F h Z Z Z Z Z Z F a A W B O...' <             ",
"        7 ] o.} ) Z a A a Z Z Z A a F ) $.o.] q                 ",
"        > 7 ..X.M m ( ) A a a T W N m M o.] ' 4                 ",
"            7 0 9 w O.} W h h W | O.w 9 ' '                     ",
"            > > < ' ..X.M c c M X...' 2 4 <                     ",
"                    ' q 9 , , 9 0 q                             ",
"                    4 4 < 2 2 2 > <                             ",
"                                                                ",
"                                                                "
};
