/* XPM */
static char *result[] = {
/* columns rows colors chars-per-pixel */
"32 32 104 2 ",
"   c #4C4132",
".  c #5B4835",
"X  c #705C3F",
"o  c #756B3D",
"O  c #463441",
"+  c #5A4859",
"@  c #8D7642",
"#  c #8E7B65",
"$  c #B48D7C",
"%  c #C1965C",
"&  c #C4B151",
"*  c #C9B352",
"=  c #D1BB56",
"-  c #D1BF55",
";  c #D2BF56",
":  c #E4A36E",
">  c #EAB66D",
",  c #E3A371",
"<  c #E3A472",
"1  c #E3A473",
"2  c #E4A470",
"3  c #E4A570",
"4  c #E4A471",
"5  c #E5AF7E",
"6  c #E5AF7F",
"7  c #E9B372",
"8  c #E9B473",
"9  c #E6B17B",
"0  c #E6B27C",
"q  c #EBBE79",
"w  c #D9C256",
"e  c #DAC357",
"r  c #EBCD5D",
"t  c #F0DA5D",
"y  c #F2DB5E",
"u  c #FEE75D",
"i  c #FEE65E",
"p  c #FEE75E",
"a  c #FEE75F",
"s  c #FFE75F",
"d  c #FFE85E",
"f  c #FFE95E",
"g  c #FFE85F",
"h  c #FFE95F",
"j  c #FFEA5F",
"k  c #FFEC5F",
"l  c #DBC563",
"z  c #F3C368",
"x  c #F8D763",
"c  c #FBDC61",
"v  c #FCDD63",
"b  c #F8DA67",
"n  c #F8DA68",
"m  c #F4D373",
"M  c #FCDF70",
"N  c #F5DD7F",
"B  c #FEE560",
"V  c #FEE760",
"C  c #FEE761",
"Z  c #FDE765",
"A  c #FEE860",
"S  c #FFE860",
"D  c #FFE960",
"F  c #FFE861",
"G  c #FFE961",
"H  c #FFEA61",
"J  c #FFE962",
"K  c #FFEA62",
"L  c #FFEB62",
"P  c #FFEC61",
"I  c #FFEC62",
"U  c #FEE864",
"Y  c #FFEB66",
"T  c #F9E16F",
"R  c #FBE56E",
"E  c #FAE46F",
"W  c #FBE56F",
"Q  c #FBE66E",
"!  c #FBE66F",
"~  c #FCE76F",
"^  c #FFE96B",
"/  c #F9E070",
"(  c #FEE870",
")  c #F3E17E",
"_  c #E4AE80",
"`  c #E5AF80",
"'  c #E7BA87",
"]  c #C4B5B8",
"[  c #F4C98C",
"{  c #F3DE8D",
"}  c #F3DF8D",
"|  c #E7C096",
" . c #E7C197",
".. c #ECCC91",
"X. c #ECCF95",
"o. c #EDD090",
"O. c #EED190",
"+. c #FFEB83",
"@. c #FFEE81",
"#. c #F4E08D",
"$. c #DAD2B8",
"%. c #FEEDC6",
"&. c #FFFAC2",
"*. c None",
/* pixels */
"*.*.*.*.*.*.*.*.*.*.*.*.*.*.*.*.*.*.*.*.*.*.*.*.*.*.*.*.*.*.*.*.",
"*.*.*.*.*.*.*.*.*.*.*.*.*.*.*.*.*.*.*.*.*.*.*.*.*.*.*.*.*.*.*.*.",
"*.*.*.*.*.*.*.*.*.*.*.*.3 4 < 1 1 < 4 3 *.*.*.*.*.*.*.*.*.*.*.*.",
"*.*.*.*.*.*.*.*.*.*.*.*.` 0 8 > > 8 0 ` *.*.*.*.*.*.*.*.*.*.*.*.",
"*.*.*.*.*.*.*.*.3 2 , _  ...m x x m .. ._ , 2 3 *.*.*.*.*.*.*.*.",
"*.*.*.*.*.*.*.*.6 9 7 q O.#.( k j W { o.q 7 9 6 *.*.*.*.*.*.*.*.",
"*.*.*.*.*.*.: 5 | ..m b T ~ Y P D Z E / n m ..| 5 : *.*.*.*.*.*.",
"*.*.*.*.*.*.5 ' X.} ! B c r = ; t F S g h ! { X.' 5 *.*.*.*.*.*.",
"*.*.*.*.3 6 | X.N Q U v z % X o - L H A A Z R N X.| 6 3 *.*.*.*.",
"*.*.*.*.2 9 ..{ R d d M [ $ O   & I K C C V d R { ..9 2 *.*.*.*.",
"*.*.*.*., 7 m ! Z p u +.%.] + . * I K C C V V Z ! m 7 , *.*.*.*.",
"*.*.*.*._ q n h A a p @.&.$.# @ w K J C C C C A h n q _ *.*.*.*.",
"*.*.3 `  .o./ g A V V ^ @.) l e y F F C C C C A g / o. .` 3 *.*.",
"*.*.4 0 ..{ W V V C C V i d H L F C C C C C C V V W { ..0 4 *.*.",
"*.*.< 8 m W Z C C C C V a s G J F C C C C C C C C Z W m 8 < *.*.",
"*.*.1 > x f S C C C C C C C C C C C C C C C C C C S f x > 1 *.*.",
"*.*.1 > x f S C C C C C C C C C C C C C C C C C C S f x > 1 *.*.",
"*.*.< 8 m W Z C C C C C C C C C C C C C C C C C C Z W m 8 < *.*.",
"*.*.4 0 ..{ W V V C C C C C C C C C C C C C C V V W { ..0 4 *.*.",
"*.*.3 `  .o./ g A C C C C C C C C C C C C C C A g / o. .` 3 *.*.",
"*.*.*.*._ q n h A C C C C C C C C C C C C C C A h n q _ *.*.*.*.",
"*.*.*.*., 7 m ! Z V V C C C C C C C C C C V V Z ! m 7 , *.*.*.*.",
"*.*.*.*.2 9 ..{ R d V C C C C C C C C C C V d R { ..9 2 *.*.*.*.",
"*.*.*.*.3 6 | X.N R Z A A V C C C C V A A Z R N X.| 6 3 *.*.*.*.",
"*.*.*.*.*.*.5 ' X.{ ! h g V C C C C V g h ! { X.' 5 *.*.*.*.*.*.",
"*.*.*.*.*.*.: 5 | ..m n / W Z S S Z W / n m ..| 5 : *.*.*.*.*.*.",
"*.*.*.*.*.*.*.*.6 9 7 q o.{ W f f W { o.q 7 9 6 *.*.*.*.*.*.*.*.",
"*.*.*.*.*.*.*.*.3 2 , _  ...m x x m .. ._ , 2 3 *.*.*.*.*.*.*.*.",
"*.*.*.*.*.*.*.*.*.*.*.*.` 0 8 > > 8 0 ` *.*.*.*.*.*.*.*.*.*.*.*.",
"*.*.*.*.*.*.*.*.*.*.*.*.3 4 < 1 1 < 4 3 *.*.*.*.*.*.*.*.*.*.*.*.",
"*.*.*.*.*.*.*.*.*.*.*.*.*.*.*.*.*.*.*.*.*.*.*.*.*.*.*.*.*.*.*.*.",
"*.*.*.*.*.*.*.*.*.*.*.*.*.*.*.*.*.*.*.*.*.*.*.*.*.*.*.*.*.*.*.*."
};
