/* XPM */
static char *_dfff76fbce64eb1bd997741dac88a0fJUgG6CfYbbmKs7TE[] = {
/* columns rows colors chars-per-pixel */
"32 32 104 2 ",
"   c None",
".  c #4C4132",
"X  c #5B4835",
"o  c #705C3F",
"O  c #756B3D",
"+  c #463441",
"@  c #5A4859",
"#  c #8D7642",
"$  c #8E7B65",
"%  c #B48D7C",
"&  c #C1965C",
"*  c #C4B151",
"=  c #C9B352",
"-  c #D1BB56",
";  c #D1BF55",
":  c #D2BF56",
">  c #E4A36E",
",  c #EAB66D",
"<  c #E3A371",
"1  c #E3A472",
"2  c #E3A473",
"3  c #E4A470",
"4  c #E4A570",
"5  c #E4A471",
"6  c #E5AF7E",
"7  c #E5AF7F",
"8  c #E9B372",
"9  c #E9B473",
"0  c #E6B17B",
"q  c #E6B27C",
"w  c #EBBE79",
"e  c #D9C256",
"r  c #DAC357",
"t  c #EBCD5D",
"y  c #F0DA5D",
"u  c #F2DB5E",
"i  c #FEE75D",
"p  c #FEE65E",
"a  c #FEE75E",
"s  c #FEE75F",
"d  c #FFE75F",
"f  c #FFE85E",
"g  c #FFE95E",
"h  c #FFE85F",
"j  c #FFE95F",
"k  c #FFEA5F",
"l  c #FFEC5F",
"z  c #DBC563",
"x  c #F3C368",
"c  c #F8D763",
"v  c #FBDC61",
"b  c #FCDD63",
"n  c #F8DA67",
"m  c #F8DA68",
"M  c #F4D373",
"N  c #FCDF70",
"B  c #F5DD7F",
"V  c #FEE560",
"C  c #FEE760",
"Z  c #FEE761",
"A  c #FDE765",
"S  c #FEE860",
"D  c #FFE860",
"F  c #FFE960",
"G  c #FFE861",
"H  c #FFE961",
"J  c #FFEA61",
"K  c #FFE962",
"L  c #FFEA62",
"P  c #FFEB62",
"I  c #FFEC61",
"U  c #FFEC62",
"Y  c #FEE864",
"T  c #FFEB66",
"R  c #F9E16F",
"E  c #FBE56E",
"W  c #FAE46F",
"Q  c #FBE56F",
"!  c #FBE66E",
"~  c #FBE66F",
"^  c #FCE76F",
"/  c #FFE96B",
"(  c #F9E070",
")  c #FEE870",
"_  c #F3E17E",
"`  c #E4AE80",
"'  c #E5AF80",
"]  c #E7BA87",
"[  c #C4B5B8",
"{  c #F4C98C",
"}  c #F3DE8D",
"|  c #F3DF8D",
" . c #E7C096",
".. c #E7C197",
"X. c #ECCC91",
"o. c #ECCF95",
"O. c #EDD090",
"+. c #EED190",
"@. c #FFEB83",
"#. c #FFEE81",
"$. c #F4E08D",
"%. c #DAD2B8",
"&. c #FEEDC6",
"*. c #FFFAC2",
/* pixels */
"                                                                ",
"                                                                ",
"                        2 2 2 2 2 2 2 5                         ",
"                        ' ' 9 , , 9 q '                         ",
"                1 1 1 ` ..X.M c n M X...` < 2 2                 ",
"                ' ' 9 x O.| W s k ^ | O.w 8 ' '                 ",
"            > 6 ] o.M m R W A Z i A ^ N m M X.] ' >             ",
"            6 ] o.| Q k k s Z Z Z Z Z i F Q | o.] q             ",
"        > ' ..o.B Q A k s s Z Z Z Z Z Z Z A Q B O...6 1         ",
"        < 0 X.| Q i i Z Z Z Z Z Z Z Z Z Z i k Q | o.0 <         ",
"        < 8 M Q A Z Z Z Z Z Z Z Z Z Z Z Z i Z A ) M 8 <         ",
"        ` w m k Z Z Z Z Z Z Z Z Z Z Z Z Z Z Z Z Z m w `         ",
"    5 ' ..O.N k i Z F Z Z Z Z Z Z Z Z Z Z Z Z F F m O...' 5     ",
"    5 q X.| Q Z F F U Y F Z Z Z Z Z Z Z Z Z Z Z F Q } X.q 5     ",
"    1 9 M Q A F T P U F Z s P Z Z Z Z Z Z Z Z Z F A Q M 9 1     ",
"    1 , c k F y e * * e c P Z Z Z Z Z Z Z Z Z Z Z Z k n , 1     ",
"    1 , c U F ; O . . O r F Z Z Z Z Z Z Z Z Z Z Z Z k c , 1     ",
"    1 9 M ) T - o + @ % z F F Z Z Z Z Z Z Z Z Z Z A Q M 9 1     ",
"    1 q X.$.) t & % [ %.$.i s Z Z Z Z Z Z Z Z Z i ) } X.0 5     ",
"    1 q ..O.( v x { &.*.) i s Z Z Z Z Z Z Z Z Z F N X...' 5     ",
"        7 w n i p N @.#.! s s Z Z Z Z Z Z Z Z i k m w `         ",
"        1 9 M Q P i s s Z Z P s Z Z Z Z Z Z Z Z Q M 8 <         ",
"        > 0 X.| Q i s s s Z Z Z Z Z Z Z Z Z i A | X.q <         ",
"        1 ` ..O.B Q A s Z s Z Z Z Z Z k i A Q } o.] q 5         ",
"            6 ] o.| ) Z Z Z P s Z Z Z k Z ) | O.] '             ",
"            > 6 ] X.M N N ) A P i A Q R n M o...' 2             ",
"                q q 9 w X.} W s k ) | X.w 8 q '                 ",
"                5 > 5 ` ..X.M c c M X...` < 5 5                 ",
"                        ` q 9 , , 9 q `                         ",
"                        5 5 1 2 < < < 1                         ",
"                                                                ",
"                                                                "
};
