/* XPM */
static char *_aaa307acf0d477dcf9c1ecf5235b97eF401Od10b8GbDHqf[] = {
/* columns rows colors chars-per-pixel */
"32 32 136 2 ",
"   c None",
".  c #4C4132",
"X  c #5B4835",
"o  c #705C3F",
"O  c #756B3D",
"+  c #463441",
"@  c #5A4859",
"#  c #8D7642",
"$  c #8E7B65",
"%  c #B48D7C",
"&  c #C1965C",
"*  c #C4B151",
"=  c #C9B352",
"-  c #D1BB56",
";  c #D1BF55",
":  c #D2BF56",
">  c #E4A36E",
",  c #EAB66D",
"<  c #E3A371",
"1  c #E3A472",
"2  c #E3A473",
"3  c #E4A470",
"4  c #E4A570",
"5  c #E4A471",
"6  c #E4A571",
"7  c #E4A672",
"8  c #E4A875",
"9  c #E5AE7C",
"0  c #E5AE7D",
"q  c #E5AF7D",
"w  c #E5AF7E",
"e  c #E5AF7F",
"r  c #E9B372",
"t  c #E9B471",
"y  c #E9B473",
"u  c #E6B17B",
"i  c #E7B27B",
"p  c #E6B27C",
"a  c #E5B07F",
"s  c #EBBE79",
"d  c #D9C256",
"f  c #DAC357",
"g  c #EBCD5D",
"h  c #F0DA5D",
"j  c #F2DB5E",
"k  c #FEE75D",
"l  c #FEE65E",
"z  c #FEE75E",
"x  c #FEE75F",
"c  c #FFE75F",
"v  c #FFE95D",
"b  c #FFE85E",
"n  c #FFE95E",
"m  c #FFE85F",
"M  c #FFE95F",
"N  c #FFEA5F",
"B  c #FFEC5F",
"V  c #DBC563",
"C  c #F3C368",
"Z  c #F8D763",
"A  c #FBDC61",
"S  c #FCDD63",
"D  c #F8DA67",
"F  c #F8DA68",
"G  c #F4D373",
"H  c #FCDF70",
"J  c #F5DC7E",
"K  c #F5DD7E",
"L  c #F5DD7F",
"P  c #FEE560",
"I  c #FEE760",
"U  c #FEE761",
"Y  c #FDE665",
"T  c #FDE765",
"R  c #FEE860",
"E  c #FFE860",
"W  c #FFE960",
"Q  c #FFE861",
"!  c #FFE961",
"~  c #FFEA61",
"^  c #FFEB61",
"/  c #FFEA62",
"(  c #FFEB62",
")  c #FFEC61",
"_  c #FFEC62",
"`  c #FEE864",
"'  c #FFEB66",
"]  c #F9E16F",
"[  c #FBE46D",
"{  c #FBE56E",
"}  c #FAE46F",
"|  c #FBE46F",
" . c #FBE56F",
".. c #FBE66E",
"X. c #FBE66F",
"o. c #FCE76F",
"O. c #FFE96B",
"+. c #F9E070",
"@. c #FAE572",
"#. c #FAE573",
"$. c #F9E374",
"%. c #FEE870",
"&. c #F3E17E",
"*. c #E4AE80",
"=. c #E5AF80",
"-. c #E5B181",
";. c #E7BA86",
":. c #E7BA87",
">. c #E7BF93",
",. c #C4B5B8",
"<. c #ECCC8F",
"1. c #F4C98C",
"2. c #F3DD8C",
"3. c #F3DE8D",
"4. c #F3DF8D",
"5. c #E7C194",
"6. c #E7C096",
"7. c #E7C197",
"8. c #ECCC91",
"9. c #ECCF93",
"0. c #ECCE94",
"q. c #ECCF94",
"w. c #ECCF95",
"e. c #E7C79F",
"r. c #E8C99F",
"t. c #EDD090",
"y. c #EED190",
"u. c #EFDB9B",
"i. c #EFDC9B",
"p. c #EED99C",
"a. c #FFEB83",
"s. c #FFEE81",
"d. c #F4E08D",
"f. c #DAD2B8",
"g. c #FEEDC6",
"h. c #FFFAC2",
/* pixels */
"                                                                ",
"                                                                ",
"                                                                ",
"                                                                ",
"                    4 7 > 7 7 7         4 7 4 > 2 7             ",
"                    p -.-.e 8 7         7 8 e -.-.p             ",
"                > 9 5.r.r.5.e >         4 e >.r.r.5.e >         ",
"                e ;.9.u.i.<.u >         4 p <.u.u.8.:.p         ",
"            4 e >.w.L #.#.G y 2         2 y G #.#.L 9.>.=.>     ",
"            4 u 8.3.X.v v F s *.        e s F v v X.3.9.p 2     ",
"            2 r G #.Y v v H 8.7.e > 3 =.7.<.] v v Y X.G r 2     ",
"            e s D v U U c X.3.w.;.e -.:.t.3.] U c U v F s =.    ",
"        4 =.7.t.] v I I I Y X.J w.e.e.0.L X.U U Y W W F <.7.p 7 ",
"        4 p 8.3.X.U ( ( ( ( c X.3.u.p.2.] v U U U W W X.3.8.u 2 ",
"        2 r G X.Y U W ( ( W W Y ] $.$.] Y U U U U U U Y #.G r 7 ",
"        2 , Z W W h d * * d h W v c c U U U U U U U U c v Z , 2 ",
"        7 , Z B _ d O . X # f ` W U U U U U U U U U I W v Z , 2 ",
"        2 y G o.T - o + @ $ V W W W U U U U U U U U I Y #.G r 2 ",
"        3 p 8.d.X.g & % ,.f.&.v U U U U U U U U U I I X.3.8.u 7 ",
"        4 =.7.t.] A C 1.g.h.s.z c U U U U U U U U W c +.9.7.-.> ",
"            =.s F ( A H a.s.O.I U U U U U U U U U v W F s *.    ",
"            2 r G X.T z z z z I U U U U U U U U U ` #.G r >     ",
"            7 u 9.3.X.v c z c U U U U U U U U U c X.3.8.u 4     ",
"            > *.>.0.K X.Y U c c U U U U c U v Y X.L w.>.e 4     ",
"                e ;.w.3.X.v c c U U U U U U v X.3.0.;.e         ",
"                > e 7.8.G F $.X.Y U v Y X.H F G 9.>.e >         ",
"                    e p r s <.3.#.v v X.3.<.s r 9 -.            ",
"                    4 4 2 e 7.8.G Z Z G 9.7.e 2 > 4             ",
"                            =.p y , , r p =.                    ",
"                            4 4 7 2 2 7 4 4                     ",
"                                                                ",
"                                                                "
};
