/* XPM */
static char *fcaff80156f941cffb828065493e20d9Gk76RWivrX35vj65[] = {
/* columns rows colors chars-per-pixel */
"32 32 125 2 ",
"   c None",
".  c #4C4132",
"X  c #5B4835",
"o  c #705C3F",
"O  c #756B3D",
"+  c #463441",
"@  c #5A4859",
"#  c #8D7642",
"$  c #8E7B65",
"%  c #B48D7C",
"&  c #C1965C",
"*  c #C4B151",
"=  c #C9B352",
"-  c #D1BB56",
";  c #D1BF55",
":  c #D2BF56",
">  c #E4A36E",
",  c #EAB66D",
"<  c #E3A371",
"1  c #E3A471",
"2  c #E3A472",
"3  c #E3A473",
"4  c #E4A470",
"5  c #E4A570",
"6  c #E4A471",
"7  c #E4A571",
"8  c #E4A572",
"9  c #E4A672",
"0  c #E4A875",
"q  c #E4A876",
"w  c #E5AD7C",
"e  c #E5AE7D",
"r  c #E4AD7E",
"t  c #E5AE7E",
"y  c #E5AF7E",
"u  c #E5AF7F",
"i  c #E9B372",
"p  c #E9B472",
"a  c #E9B473",
"s  c #E9B573",
"d  c #E6B17B",
"f  c #E6B27C",
"g  c #EBBE79",
"h  c #D9C256",
"j  c #DAC357",
"k  c #EBCD5D",
"l  c #F0DA5D",
"z  c #F2DB5E",
"x  c #FEE75D",
"c  c #FEE65E",
"v  c #FEE75E",
"b  c #FEE75F",
"n  c #FFE75F",
"m  c #FFE85E",
"M  c #FFE95E",
"N  c #FFE85F",
"B  c #FFE95F",
"V  c #FFEA5F",
"C  c #FFEC5F",
"Z  c #DBC563",
"A  c #F3C368",
"S  c #F8D763",
"D  c #F8D863",
"F  c #FBDC61",
"G  c #FCDD63",
"H  c #F8DA67",
"J  c #F8DB67",
"K  c #F8DA68",
"L  c #F4D373",
"P  c #F4D473",
"I  c #F4D474",
"U  c #FCDF70",
"Y  c #F5DD7F",
"T  c #FEE560",
"R  c #FEE760",
"E  c #FEE761",
"W  c #FDE765",
"Q  c #FEE860",
"!  c #FFE860",
"~  c #FFE960",
"^  c #FFE861",
"/  c #FFE961",
"(  c #FFEA61",
")  c #FFE962",
"_  c #FFEA62",
"`  c #FFEB62",
"'  c #FFEC61",
"]  c #FFEC62",
"[  c #FEE864",
"{  c #FFEB66",
"}  c #F9E16F",
"|  c #FBE56E",
" . c #FAE46F",
".. c #FBE56F",
"X. c #FBE66E",
"o. c #FBE66F",
"O. c #FCE76F",
"+. c #FFE96B",
"@. c #F9E070",
"#. c #FEE870",
"$. c #F3E17E",
"%. c #E4AE80",
"&. c #E5AF80",
"*. c #E7BA87",
"=. c #E7BB88",
"-. c #E7BF94",
";. c #E7BF95",
":. c #C4B5B8",
">. c #F4C98C",
",. c #F3DE8C",
"<. c #F3DE8D",
"1. c #E7C096",
"2. c #E7C197",
"3. c #ECCC91",
"4. c #ECCD91",
"5. c #ECCF95",
"6. c #EDD090",
"7. c #EED190",
"8. c #ECD095",
"9. c #FFEB83",
"0. c #FFEE81",
"q. c #F4E08D",
"w. c #DAD2B8",
"e. c #FEEDC6",
"r. c #FFFAC2",
/* pixels */
"                                                                ",
"                                                                ",
"                        9 9 9 9 1 3 9 3 9 >                     ",
"                        9 q r f a , , i f &.                    ",
"                9 9 9 > 1 r ;.4.I S D L 4.1.%.3 > 9             ",
"                1 0 r f p g 6.<.#.m m ..<.7.g i d &.            ",
"            9 9 > r 1.4.P J  .@.W E E W ..} K L 4.;.f >         ",
"            9 0 w *.8.<...m E R E E E E E b m #.<.5.=.r         ",
"        9 9 4 r -.8.Y | W E ~ R E E E E E m E W ..Y 5.1.r >     ",
"        9 9 > f 4.<...m E E R R E E E E E E E E m ..<.4.f 9     ",
"        9 9 1 p L #.W b E E E E E E E E E E E E E W ..I i 3     ",
"        9 q r g K m ~ E E E E E E E E E E E E E E m m K g &.    ",
"    9 4 9 r ;.7.U m V V R R E E E E E E E E E E W ~ ~ K 6.1.&.1 ",
"    9 9 9 d 4.<. .~ W ' W W ~ E E E E E E E E E E ~ ~ ..<.3.d 9 ",
"    9 9 9 a I ..W E ~ W C ' ~ ~ E E E E E E E E E E E W #.I p 1 ",
"    9 9 4 , S ~ ~ l h * * j z ~ ~ E E E E E E E E E E E b S , 1 ",
"    9 9 9 , D C W h O . X # j ~ ~ E E E E E E E E E E ~ m S , 1 ",
"    9 4 9 p P O.{ - o + @ $ Z ~ ~ E E E E E E E E E E W ..L a 3 ",
"    9 9 9 f 4.q.X.k & % :.w.$.b E E E E E E E E E E E } <.4.f 1 ",
"    9 9 9 r 1.6. .F A >.e.r.0.E E E E E E E E E E m m  .7.1.&.1 ",
"        9 q r g J b F @.9.#.#.~ E E E E E E E E E E m K g %.    ",
"        9 9 1 p P ..{ m b b { ~ E E E E E E E E b W #.L i 3     ",
"        9 9 > d 4.,...b b b E W E E E E E E E E b ..<.4.d >     ",
"        9 9 1 w -.8.Y ..W E ~ ~ E E E E b E m W ..Y 8.2.r 9     ",
"            9 q r =.8.,.| b ~ ~ E E E E E ~ m ..,.5.=.r         ",
"            9 9 > r 1.6.L H K | W ~ ~ W ..@.K L 4.1.r >         ",
"                9 9 r d p g 6.<...m m ..<.6.g i d f             ",
"                9 9 9 9 9 r -.3.I S S L 4.1.&.9 > 1             ",
"                        9 0 r f p , , a d r                     ",
"                        9 9 9 9 1 3 3 1 9 9                     ",
"                                                                ",
"                                                                "
};
