/* XPM */
static char *_fe881d554b44e27c52752f4b1563c6f2XwmzWBd2pIBbNDG[] = {
/* columns rows colors chars-per-pixel */
"32 32 163 2 ",
"   c None",
".  c #4C4132",
"X  c #5B4835",
"o  c #705C3F",
"O  c #756B3D",
"+  c #463441",
"@  c #5A4859",
"#  c #8D7642",
"$  c #8E7B65",
"%  c #B48D7C",
"&  c #C1965C",
"*  c #C4B151",
"=  c #C9B352",
"-  c #D1BB56",
";  c #D1BF55",
":  c #D2BF56",
">  c #E4A36E",
",  c #E4A36F",
"<  c #EAB66D",
"1  c #E3A371",
"2  c #E3A471",
"3  c #E3A472",
"4  c #E3A473",
"5  c #E4A470",
"6  c #E4A570",
"7  c #E4A471",
"8  c #E4A571",
"9  c #E4A671",
"0  c #E4A572",
"q  c #E4A672",
"w  c #E4A775",
"e  c #E4A875",
"r  c #E4A975",
"t  c #E4A876",
"y  c #E5AD7B",
"u  c #E5AD7C",
"i  c #E5AD7D",
"p  c #E5AE7C",
"a  c #E5AE7D",
"s  c #E5AF7D",
"d  c #E4AD7E",
"f  c #E5AE7E",
"g  c #E5AF7E",
"h  c #E5AF7F",
"j  c #E9B372",
"k  c #E9B471",
"l  c #E9B472",
"z  c #E9B473",
"x  c #E9B573",
"c  c #E6B17B",
"v  c #E7B27B",
"b  c #E6B27C",
"n  c #E5B07F",
"m  c #EBBE79",
"M  c #D9C256",
"N  c #DAC357",
"B  c #EBCD5D",
"V  c #F0DA5D",
"C  c #F2DB5E",
"Z  c #FEE75D",
"A  c #FEE65E",
"S  c #FEE75E",
"D  c #FEE75F",
"F  c #FFE75F",
"G  c #FFE95D",
"H  c #FFE85E",
"J  c #FFE95E",
"K  c #FFE85F",
"L  c #FFE95F",
"P  c #FFEA5F",
"I  c #FFEC5F",
"U  c #DBC563",
"Y  c #F3C368",
"T  c #F8D763",
"R  c #F8D863",
"E  c #FBDC61",
"W  c #FCDD63",
"Q  c #F8DA67",
"!  c #F8DA68",
"~  c #F4D373",
"^  c #F4D473",
"/  c #F4D474",
"(  c #FCDF70",
")  c #F5DC7E",
"_  c #F5DD7E",
"`  c #F5DD7F",
"'  c #FEE560",
"]  c #FEE760",
"[  c #FEE761",
"{  c #FDE665",
"}  c #FDE765",
"|  c #FEE860",
" . c #FFE860",
".. c #FFE960",
"X. c #FFE861",
"o. c #FFE961",
"O. c #FFEA61",
"+. c #FFEB61",
"@. c #FFEA62",
"#. c #FFEB62",
"$. c #FFEC61",
"%. c #FFEC62",
"&. c #FEE864",
"*. c #FFEB66",
"=. c #F9E16F",
"-. c #FBE46D",
";. c #FBE56E",
":. c #FAE46F",
">. c #FBE46F",
",. c #FBE56F",
"<. c #FBE66E",
"1. c #FBE66F",
"2. c #FCE76F",
"3. c #FFE96B",
"4. c #F9E070",
"5. c #FAE572",
"6. c #FAE573",
"7. c #F9E374",
"8. c #FEE870",
"9. c #F3E17E",
"0. c #E4AE80",
"q. c #E5AF80",
"w. c #E5B181",
"e. c #E7BA86",
"r. c #E7BA87",
"t. c #E8BB87",
"y. c #E7BB88",
"u. c #E7BF93",
"i. c #E7BF94",
"p. c #E7BF95",
"a. c #C4B5B8",
"s. c #ECCC8F",
"d. c #F4C98C",
"f. c #F3DD8C",
"g. c #F3DE8D",
"h. c #F3DF8D",
"j. c #E7C093",
"k. c #E7C194",
"l. c #E7C096",
"z. c #E7C197",
"x. c #ECCD90",
"c. c #ECCC91",
"v. c #ECCD91",
"b. c #ECCF93",
"n. c #ECCE94",
"m. c #ECCF94",
"M. c #ECCF95",
"N. c #E7C79F",
"B. c #E8C99F",
"V. c #EDD090",
"C. c #EED190",
"Z. c #EDD094",
"A. c #ECD095",
"S. c #EFDB9B",
"D. c #EFDC9B",
"F. c #EED99C",
"G. c #FFEB83",
"H. c #FFEE81",
"J. c #F4E08D",
"K. c #DAD2B8",
"L. c #E7C7A0",
"P. c #FEEDC6",
"I. c #FFFAC2",
/* pixels */
"                                                                ",
"                                                                ",
"                                                                ",
"                                                                ",
"                4 , , 4 q q q q     7 q 7 q > 4 q q             ",
"                b w.w.b r q q q     7 e b w.w.s e q             ",
"            > s j.B.B.j.b 4 q q     7 c p.B.B.p.p , 7 q         ",
"            s e.b.D.D.b.v , 7 q     7 c s.F.D.C.t.s e 7         ",
"        > b p.M.` 5.5.^ j 1 4 7     > z ~ 5.5.) A.j.s 4 7 q     ",
"        4 c c.g.,.L L Q m s w ,     s m Q L L ,.g.b.b , 7 7     ",
"        1 j ~ ,.} D L ( C.p.s 1 > q.l.b.:.D L } ,.^ z 1 7 q     ",
"        0.m ! L | D D ,.g.M.e.w.s y.M.f.:.D D [ L Q m s e q     ",
"    7 b z.b.( L | [ | } 5.` c.L.L.M.) :.} [ [ D D :.C.j.b 7 7 q ",
"    7 b c.g.,.[ ....%.| D ,.f.F.F.g.-.D D [ [ [ [ ,.g.b.b 4 7 q ",
"    4 z ~ ,.} ..%.| %.%.L } :.7.7.:.[ [ [ [ [ [ [ } ,.^ z 4 q q ",
"    4 < T L ..V M * * M V ..[ D D [ [ [ [ [ [ [ [ D L R < w 7 q ",
"    4 < T I $.M O . X # N ....[ D [ [ [ [ [ [ [ [ ..L T < 7 7 q ",
"    4 z ~ 2.*.- o + @ $ U ....[ [ [ [ [ [ [ [ [ [ } -.~ z 7 7 q ",
"    > b c.J.-.B & % a.K.J.G D [ [ [ [ [ [ [ [ D [ :.g.b.v q 7 e ",
"    4 0.z.C.:.R Y d.P.I.8.Z D [ [ [ [ [ [ [ [ [ D :.b.u.b 7 7 q ",
"        p m ! D { ( G.H.3.[ D [ [ [ [ [ [ [ [ L L Q m s t q     ",
"        , z / 5.} [ D D D [ [ [ [ [ [ [ [ D D } ,.~ j 4 4 7     ",
"        , c c.g.,.D D D [ [ [ [ [ [ [ [ [ D L ,.g.c.b 4 7 q     ",
"        4 q.z.C.) ,.} L ..D [ [ [ [ D [ [ } ,.) A.j.b q 7 q     ",
"            b y.M.g.5.L L D [ [ [ [ D D L ,.g.A.y.s e q         ",
"            , s p.c.~ Q 7.,.} L [ [ ,.7.Q ^ c.p.s , 7 q         ",
"                b b j m s.f.-.L L ,.g.C.m z b b w 7             ",
"                , 4 1 q.l.b.~ T T ^ c.u.p 4 7 7 4 7             ",
"                        w.c z < < z c s e q                     ",
"                        , 7 4 4 4 4 7 4 q q                     ",
"                                                                ",
"                                                                "
};
