/* XPM */
static char *_bb5177f35de4d6aa005d375bad1d5f10Cmzq3GKySHbo3DA[] = {
/* columns rows colors chars-per-pixel */
"32 32 135 2 ",
"   c None",
".  c #4C4132",
"X  c #5B4835",
"o  c #705C3F",
"O  c #756B3D",
"+  c #463441",
"@  c #5A4859",
"#  c #8D7642",
"$  c #8E7B65",
"%  c #B48D7C",
"&  c #C1965C",
"*  c #C4B151",
"=  c #C9B352",
"-  c #D1BB56",
";  c #D1BF55",
":  c #D2BF56",
">  c #E4A36E",
",  c #E4A46F",
"<  c #EAB66D",
"1  c #E3A371",
"2  c #E3A472",
"3  c #E3A473",
"4  c #E4A470",
"5  c #E4A570",
"6  c #E4A471",
"7  c #E4A571",
"8  c #E4A672",
"9  c #E4A875",
"0  c #E5AE7C",
"q  c #E5AE7D",
"w  c #E5AF7E",
"e  c #E5AF7F",
"r  c #E9B372",
"t  c #E9B473",
"y  c #E6B17B",
"u  c #E6B27C",
"i  c #E5B07E",
"p  c #E5B07F",
"a  c #EBBE79",
"s  c #D9C255",
"d  c #DBC356",
"f  c #EBCD5D",
"g  c #F3DC5B",
"h  c #F0DA5D",
"j  c #FEE75D",
"k  c #FEE65E",
"l  c #FEE75E",
"z  c #FEE75F",
"x  c #FFE85E",
"c  c #FFE95E",
"v  c #FFE85F",
"b  c #FFE95F",
"n  c #FFEA5F",
"m  c #FFEC5F",
"M  c #DBC563",
"N  c #F3C368",
"B  c #F8D763",
"V  c #FBDC61",
"C  c #FCDD63",
"Z  c #F8DA67",
"A  c #F8DA68",
"S  c #F4D373",
"D  c #FCDF70",
"F  c #F5DD7D",
"G  c #F6DE7D",
"H  c #F5DC7E",
"J  c #F5DD7F",
"K  c #FEE560",
"L  c #FEE760",
"P  c #FEE761",
"I  c #FDE665",
"U  c #FDE765",
"Y  c #FEE764",
"T  c #FEE860",
"R  c #FFE860",
"E  c #FFE960",
"W  c #FFE861",
"Q  c #FFEA60",
"!  c #FFEA61",
"~  c #FFEB62",
"^  c #FFEC61",
"/  c #FFEC62",
"(  c #FEE864",
")  c #FFEA66",
"_  c #FFEB66",
"`  c #F9E16F",
"'  c #FBE46D",
"]  c #FBE56D",
"[  c #FBE56E",
"{  c #FAE46F",
"}  c #FBE46F",
"|  c #FBE56F",
" . c #FBE66E",
".. c #FBE66F",
"X. c #FCE56E",
"o. c #FCE66E",
"O. c #FDE66F",
"+. c #FCE76F",
"@. c #FFE96B",
"#. c #F9E070",
"$. c #FDE770",
"%. c #F9E374",
"&. c #FEE870",
"*. c #F3E17E",
"=. c #E4AE80",
"-. c #E5AF80",
";. c #E7BA87",
":. c #E8BB87",
">. c #C4B5B8",
",. c #F4C98C",
"<. c #F3DD8C",
"1. c #F3DE8C",
"2. c #F3DE8D",
"3. c #F3DF8D",
"4. c #F4DF8D",
"5. c #E7C093",
"6. c #E7C096",
"7. c #E7C196",
"8. c #E7C197",
"9. c #E7C296",
"0. c #ECCC91",
"q. c #ECCE94",
"w. c #ECCF94",
"e. c #ECCF95",
"r. c #E7C79F",
"t. c #EDD090",
"y. c #EED190",
"u. c #EDD094",
"i. c #EED99C",
"p. c #FFEB83",
"a. c #FFEE81",
"s. c #F4E08D",
"d. c #DAD2B8",
"f. c #FEEDC6",
"g. c #FFFAC2",
/* pixels */
"                                                                ",
"                                                                ",
"                                                                ",
"                                                                ",
"                5 5 5 9                 5 9 5 5                 ",
"                i i 9 5                 5 9 w i                 ",
"            > i 8.5.w 5                 4 w :.r.i >             ",
"            w :.u.0.:.w                 w :.e.e.:.w             ",
"        , w 6.w.F F y.6.=.5         2 =.6.y.F F e.8.w 5         ",
"        1 y 0.2.| | 2.0.y 5         , y 0.1.| | <.0.y 4         ",
"        1 r S | P U | S r 1         1 r S $.P U o.S r 1         ",
"        =.a A n E E n Z a =.        =.a A n P E n A a =.        ",
"    5 -.8.y.D n P E n D t.6.p , , w 8.y.D n P z n #.0.6.=.5     ",
"    5 i 0.2.| P E E n +.2.u.;.=.w ;.w.2.} z z P P | s.0.i 5     ",
"    2 t S | U E / / / @.| J 0.r.r.0.H | U P P P P U } S r 9     ",
"    2 < B n E h ; * = s g | s.i.i.1.| z P P P P P z n B < 5     ",
"    9 < B ^ E : O . X # d @.$.#.%.| U P z P P P P E n B < 2     ",
"    1 t S &./ - o + @ $ M E E z P z P P P P P P P U | S t 2     ",
"    5 i 0.s.| f & % >.d.*.n z P P z P P P P P P P } 2.0.i 5     ",
"    5 =.8.y.} V N ,.f.g.&.z z P P P P P P P P z z } 0.6.i 5     ",
"        =.a Z P ' D p.a.@.P z P P P P P P P P P E A a =.        ",
"        1 r S | U n z z z P P P P P P P P z z U | S r 4         ",
"        5 y 0.2.o.z z z P P P P P P P P P z n | 2.0.y 5         ",
"        , i 6.e.F | U z n P P P P P z P P U | F e.6.-.5         ",
"            w ;.e.<.o.E n P P P P P P P E #.2.i.;.w             ",
"            > w 8.0.S A A | U P P U $.%.A S q.:.w >             ",
"                =.y t a u.s.$.n n } 2.e.a t y w                 ",
"                5 4 5 =.8.0.S B B S e.:.=.1 5 5                 ",
"                        -.i t < < t i -.                        ",
"                        5 5 2 3 1 1 5 5                         ",
"                                                                ",
"                                                                "
};
