/* XPM */
static char *d27ae7bd8e2847ddbfccbebe4b3cb119SLeugfTcx1oQFPrx[] = {
/* columns rows colors chars-per-pixel */
"32 32 104 2 ",
"   c None",
".  c #4C4132",
"X  c #5B4835",
"o  c #705C3F",
"O  c #756B3D",
"+  c #463441",
"@  c #5A4859",
"#  c #8D7642",
"$  c #8E7B65",
"%  c #B48D7C",
"&  c #C1965C",
"*  c #C4B151",
"=  c #C9B352",
"-  c #D1BB56",
";  c #D1BF55",
":  c #D2BF56",
">  c #E4A36E",
",  c #EAB66D",
"<  c #E3A371",
"1  c #E3A472",
"2  c #E3A473",
"3  c #E4A470",
"4  c #E4A570",
"5  c #E4A471",
"6  c #E5AF7E",
"7  c #E5AF7F",
"8  c #E9B372",
"9  c #E9B473",
"0  c #E6B17B",
"q  c #E6B27C",
"w  c #EBBE79",
"e  c #D9C256",
"r  c #DAC357",
"t  c #EBCD5D",
"y  c #F0DA5D",
"u  c #F2DB5E",
"i  c #FEE75D",
"p  c #FEE65E",
"a  c #FEE75E",
"s  c #FEE75F",
"d  c #FFE75F",
"f  c #FFE85E",
"g  c #FFE95E",
"h  c #FFE85F",
"j  c #FFE95F",
"k  c #FFEA5F",
"l  c #FFEC5F",
"z  c #DBC563",
"x  c #F3C368",
"c  c #F8D763",
"v  c #FBDC61",
"b  c #FCDD63",
"n  c #F8DA67",
"m  c #F8DA68",
"M  c #F4D373",
"N  c #FCDF70",
"B  c #F5DD7F",
"V  c #FEE560",
"C  c #FEE760",
"Z  c #FEE761",
"A  c #FDE765",
"S  c #FEE860",
"D  c #FFE860",
"F  c #FFE960",
"G  c #FFE861",
"H  c #FFE961",
"J  c #FFEA61",
"K  c #FFE962",
"L  c #FFEA62",
"P  c #FFEB62",
"I  c #FFEC61",
"U  c #FFEC62",
"Y  c #FEE864",
"T  c #FFEB66",
"R  c #F9E16F",
"E  c #FBE56E",
"W  c #FAE46F",
"Q  c #FBE56F",
"!  c #FBE66E",
"~  c #FBE66F",
"^  c #FCE76F",
"/  c #FFE96B",
"(  c #F9E070",
")  c #FEE870",
"_  c #F3E17E",
"`  c #E4AE80",
"'  c #E5AF80",
"]  c #E7BA87",
"[  c #C4B5B8",
"{  c #F4C98C",
"}  c #F3DE8D",
"|  c #F3DF8D",
" . c #E7C096",
".. c #E7C197",
"X. c #ECCC91",
"o. c #ECCF95",
"O. c #EDD090",
"+. c #EED190",
"@. c #FFEB83",
"#. c #FFEE81",
"$. c #F4E08D",
"%. c #DAD2B8",
"&. c #FEEDC6",
"*. c #FFFAC2",
/* pixels */
"                                                                ",
"                                                                ",
"                            4 4 2 2 2 2 4 4                     ",
"                            ' q 9 , , 9 q '                     ",
"                    4 4 < ` ..X.M n c M X...` 2 4 4             ",
"                    ' q 9 w O.} ~ f f E } O.w 8 0 7             ",
"                2 ' ] X.M n W ( A s Z A ~ ( m M X.] 7 >         ",
"                ' ] o.} ) f s s Z Z Z Z Z f f ) $.o.] 7         ",
"            4 7 ] o.} E A Z F Z Z Z Z Z Z f Z A ) } O...' >     ",
"            4 0 o.| ~ f Z Z Z Z Z Z Z Z Z Z Z s s ~ } X.q 2     ",
"            2 8 M ) Z Z Z Z Z Z Z Z Z Z Z Z Z Z s A ~ M 8 2     ",
"            7 w m f s Z Z Z Z Z Z Z Z Z Z Z Z Z Z s f m w '     ",
"        4 ' ..O.N f a Y a Y Z Z Z Z Z Z Z Z Z Z Z F s R O...7 < ",
"        4 q X.} W F Y U l Y F Z Z Z Z Z Z Z Z Z Z s Z E } X.q 4 ",
"        2 8 M ~ A Z F Y U I F Z Z Z Z Z Z Z Z Z Z Z Z A ~ M 8 < ",
"        2 , c F F y e * * e y F F Z Z Z Z Z Z Z Z Z Z s s n , 2 ",
"        < , c l Y e O . X # r I F Z Z Z Z Z Z Z Z Z Z Z f c , < ",
"        < 9 M ) T = O + @ $ z I F Z Z Z Z Z Z Z Z Z Z A ~ M 9 < ",
"        4 q X.$.) t & % [ %._ l Z Z Z Z Z Z Z Z Z Z Z ~ } X.q 4 ",
"        4 ' ..O.W v x { &.*._ a Z Z Z Z Z Z Z Z Z f f ( O...' 4 ",
"            ' w m V c ( @.@./ a Z Z Z Z Z Z Z Z Z Z Y m w '     ",
"            < 9 M ) Y f a a a Y Z Z Z Z Z Z Z Z Z A ) M 9 2     ",
"            > 0 X.} ~ f a a s Z Z Z Z Z Z Z Z Z F ~ $.o.0 4     ",
"            > 7 ..o.B ~ A a Y Z Z Z Z Z s Z f A ~ B o.] 7 4     ",
"                7 ] o.| ) Z Z s Z Y a Y Z f Z ) } o.] '         ",
"                2 q ] o.M m N ) A F f A ~ N n M o.] q >         ",
"                    ' q 9 w X.} ~ f f ~ } X.w 9 ' '             ",
"                    4 4 2 ` ..X.M c c M X...' < < <             ",
"                            ' q 8 , , 9 q '                     ",
"                            4 4 < < 2 < 4 4                     ",
"                                                                ",
"                                                                "
};
