/* XPM */
static char *result[] = {
/* columns rows colors chars-per-pixel */
"32 32 163 2 ",
"   c #4C4132",
".  c #5B4835",
"X  c #705C3F",
"o  c #756B3D",
"O  c #463441",
"+  c #5A4859",
"@  c #8D7642",
"#  c #8E7B65",
"$  c #B48D7C",
"%  c #C1965C",
"&  c #C4B151",
"*  c #C9B352",
"=  c #D1BB56",
"-  c #D1BF55",
";  c #D2BF56",
":  c #E4A36E",
">  c #E4A36F",
",  c #EAB66D",
"<  c #E3A371",
"1  c #E3A471",
"2  c #E3A472",
"3  c #E3A473",
"4  c #E4A470",
"5  c #E4A570",
"6  c #E4A471",
"7  c #E4A571",
"8  c #E4A671",
"9  c #E4A572",
"0  c #E4A672",
"q  c #E4A775",
"w  c #E4A875",
"e  c #E4A975",
"r  c #E4A876",
"t  c #E5AD7B",
"y  c #E5AD7C",
"u  c #E5AD7D",
"i  c #E5AE7C",
"p  c #E5AE7D",
"a  c #E5AF7D",
"s  c #E4AD7E",
"d  c #E5AE7E",
"f  c #E5AF7E",
"g  c #E5AF7F",
"h  c #E9B372",
"j  c #E9B471",
"k  c #E9B472",
"l  c #E9B473",
"z  c #E9B573",
"x  c #E6B17B",
"c  c #E7B27B",
"v  c #E6B27C",
"b  c #E5B07F",
"n  c #EBBE79",
"m  c #D9C256",
"M  c #DAC357",
"N  c #EBCD5D",
"B  c #F0DA5D",
"V  c #F2DB5E",
"C  c #FEE75D",
"Z  c #FEE65E",
"A  c #FEE75E",
"S  c #FEE75F",
"D  c #FFE75F",
"F  c #FFE95D",
"G  c #FFE85E",
"H  c #FFE95E",
"J  c #FFE85F",
"K  c #FFE95F",
"L  c #FFEA5F",
"P  c #FFEC5F",
"I  c #DBC563",
"U  c #F3C368",
"Y  c #F8D763",
"T  c #F8D863",
"R  c #FBDC61",
"E  c #FCDD63",
"W  c #F8DA67",
"Q  c #F8DA68",
"!  c #F4D373",
"~  c #F4D473",
"^  c #F4D474",
"/  c #FCDF70",
"(  c #F5DC7E",
")  c #F5DD7E",
"_  c #F5DD7F",
"`  c #FEE560",
"'  c #FEE760",
"]  c #FEE761",
"[  c #FDE665",
"{  c #FDE765",
"}  c #FEE860",
"|  c #FFE860",
" . c #FFE960",
".. c #FFE861",
"X. c #FFE961",
"o. c #FFEA61",
"O. c #FFEB61",
"+. c #FFEA62",
"@. c #FFEB62",
"#. c #FFEC61",
"$. c #FFEC62",
"%. c #FEE864",
"&. c #FFEB66",
"*. c #F9E16F",
"=. c #FBE46D",
"-. c #FBE56E",
";. c #FAE46F",
":. c #FBE46F",
">. c #FBE56F",
",. c #FBE66E",
"<. c #FBE66F",
"1. c #FCE76F",
"2. c #FFE96B",
"3. c #F9E070",
"4. c #FAE572",
"5. c #FAE573",
"6. c #F9E374",
"7. c #FEE870",
"8. c #F3E17E",
"9. c #E4AE80",
"0. c #E5AF80",
"q. c #E5B181",
"w. c #E7BA86",
"e. c #E7BA87",
"r. c #E8BB87",
"t. c #E7BB88",
"y. c #E7BF93",
"u. c #E7BF94",
"i. c #E7BF95",
"p. c #C4B5B8",
"a. c #ECCC8F",
"s. c #F4C98C",
"d. c #F3DD8C",
"f. c #F3DE8D",
"g. c #F3DF8D",
"h. c #E7C093",
"j. c #E7C194",
"k. c #E7C096",
"l. c #E7C197",
"z. c #ECCD90",
"x. c #ECCC91",
"c. c #ECCD91",
"v. c #ECCF93",
"b. c #ECCE94",
"n. c #ECCF94",
"m. c #ECCF95",
"M. c #E7C79F",
"N. c #E8C99F",
"B. c #EDD090",
"V. c #EED190",
"C. c #EDD094",
"Z. c #ECD095",
"A. c #EFDB9B",
"S. c #EFDC9B",
"D. c #EED99C",
"F. c #FFEB83",
"G. c #FFEE81",
"H. c #F4E08D",
"J. c #DAD2B8",
"K. c #E7C7A0",
"L. c #FEEDC6",
"P. c #FFFAC2",
"I. c None",
/* pixels */
"I.I.I.I.I.I.I.I.I.I.I.I.5 6 2 3 3 2 6 5 I.I.I.I.I.I.I.I.I.I.I.I.",
"I.I.I.I.I.I.I.I.I.I.I.I.0.v l , , l v 0.I.I.I.I.I.I.I.I.I.I.I.I.",
"I.I.I.I.I.I.I.I.5 4 < 9.l.x.! Y Y ! x.l.9.< 4 5 I.I.I.I.I.I.I.I.",
"I.I.I.I.I.I.I.I.g x h n V.H.7.P L >.f.B.n h x g I.I.I.I.I.I.I.I.",
"I.I.I.I.I.I.: f k.x.! W *.1.&.#. .{ ;.3.Q ! x.k.f : I.I.I.I.I.I.",
"I.I.I.I.I.I.f e.m.g.<.` R N = ; B ..| J K <.f.n.w.a I.I.I.I.I.I.",
"I.I.I.I.5 g k.m._ ,.%.E U % X o - @.o.} } { -.) v.j.b 5 I.I.I.I.",
"I.I.I.I.4 x x.f.-.G G / s.$ O   & $.+.] ' J F 4.A.N.q.5 I.I.I.I.",
"I.I.I.I.< h ! <.{ A C F.L.p.+ . * $.+.] ' G H 5.S.N.q.5 I.I.I.I.",
"I.I.I.I.9.n Q K } S A G.P.J.# @ m O. .[ :.3.Q ~ z.h.p 7 I.I.I.I.",
"I.I.5 0.l.B.3.J } ' ' 2.G.8.I M V | G -.f.V.n j c p e 0 I.I.I.I.",
"I.I.6 v x.f.>.' ' ] ] ' Z G o.@...[ =.) Z.i.s 1 4 7 0 0 I.I.I.I.",
"I.I.2 l ! >.{ ] ] ] ] ' S D X.X.| ;.d.n.e.u q 9 7 8 0 0 I.I.I.I.",
"I.I.3 , Y H | ] ] ] ] ] ] ] ] ' S 6.D.K.0.> 5 0 0 0 0 0 I.I.I.I.",
"I.I.3 , Y H | ] ] ] ] ] ] ] ] ' S 6.D.M.g : I.I.I.I.I.I.I.I.I.I.",
"I.I.2 l ^ >.{ ] ] ] ] ] ] ] ] ' ' ;.d.b.e.g I.I.I.I.I.I.I.I.I.I.",
"I.I.6 v x.f.>.' ' ] ] ] ] ] ] ] ] [ =.( m.l.9.< 4 7 0 0 I.I.I.I.",
"I.I.7 p u.V.3.J } ] ] ] ] ] ] ] ] ' G -.f.B.n j c i w 0 I.I.I.I.",
"I.I.0 r s n W K } ] ] ] ] ] ] ] ] ' ' [ :.3.Q ! a.y.p 7 I.I.I.I.",
"I.I.0 9 1 k ~ <.{ ' ' ] ] ] ] ] ] ] ] ] ' G H 5.A.N.q.5 I.I.I.I.",
"I.I.I.I.4 v x.f.-.G ' ] ] ] ] ] ] ] ] ] ' J F 4.A.N.q.5 I.I.I.I.",
"I.I.I.I.7 p u.Z._ -.{ } } ' ] ] ] ] ' } } { -.) C.y.i 7 I.I.I.I.",
"I.I.I.I.0 w y t.Z.f.<.K J ' ] ] ] ] ' J K <.f.Z.r.t w 0 I.I.I.I.",
"I.I.I.I.0 7 4 y u.c.~ Q 3.>.{ | | { >.3.Q ~ c.u.y 4 7 0 I.I.I.I.",
"I.I.I.I.I.I.7 w p v k n V.f.>.H H >.f.V.n k v p w 7 I.I.I.I.I.I.",
"I.I.I.I.I.I.0 0 7 4 1 s i.c.^ T T ^ c.i.s 1 4 7 0 0 I.I.I.I.I.I.",
"I.I.I.I.I.I.I.I.7 7 9 r d v z , , z v d r 9 7 7 I.I.I.I.I.I.I.I.",
"I.I.I.I.I.I.I.I.0 0 0 0 7 7 9 2 2 9 7 7 0 0 0 0 I.I.I.I.I.I.I.I.",
"I.I.I.I.I.I.I.I.I.I.I.I.7 7 9 9 9 9 7 7 I.I.I.I.I.I.I.I.I.I.I.I.",
"I.I.I.I.I.I.I.I.I.I.I.I.0 0 0 0 0 0 0 0 I.I.I.I.I.I.I.I.I.I.I.I.",
"I.I.I.I.I.I.I.I.I.I.I.I.I.I.I.I.I.I.I.I.I.I.I.I.I.I.I.I.I.I.I.I.",
"I.I.I.I.I.I.I.I.I.I.I.I.I.I.I.I.I.I.I.I.I.I.I.I.I.I.I.I.I.I.I.I."
};
