/* XPM */
static char *result[] = {
/* columns rows colors chars-per-pixel */
"64 64 58 1 ",
"  c #000000",
". c #080404",
"X c #160B0B",
"o c #1D0F0F",
"O c #1E1010",
"+ c gray12",
"@ c #241313",
"# c #291515",
"$ c #371B1B",
"% c #333434",
"& c #363838",
"* c #462525",
"= c #492626",
"- c #4C2828",
"; c #5F2F2F",
": c #5D3131",
"> c #602F2F",
", c #643333",
"< c #6A3636",
"1 c #773C3C",
"2 c #7B3D3D",
"3 c #7F4242",
"4 c #656262",
"5 c #6B6D6D",
"6 c #803F3F",
"7 c #834343",
"8 c #8B4646",
"9 c #8E4949",
"0 c #934B4B",
"q c #994E4E",
"w c #9C5050",
"e c #A45555",
"r c #AA5656",
"t c #AC5A5A",
"y c #B15C5C",
"u c #B16363",
"i c #BB7676",
"p c #BD7979",
"a c #888888",
"s c gray74",
"d c #C28484",
"f c #C09292",
"g c #D1A3A3",
"h c #C1B4B4",
"j c #DBB8B8",
"k c #E0BDBD",
"l c #C1C4C4",
"z c #CFD0D0",
"x c #D3D5D5",
"c c #D4D9D9",
"v c #EDDBDB",
"b c #F1DDDD",
"n c #F2E3E3",
"m c #F6E9E9",
"M c #F2F4F4",
"N c #F7FAFA",
"B c #FFFEFE",
"V c None",
/* pixels */
"VVVVVVVVVVVVVVVVVVVVVVVVVVVVVVVVVVVVVVVVVVVVVVVVVVVVVVVVVVVVVVVV",
"VVVVVVVVVVVVVVVVVVVVVVVVVVVVVVVVVVVVVVVVVVVVVVVVVVVVVVVVVVVVVVVV",
"VVVVVVVVVVVVVVVVVVVVVVVVVVVVVVVVVVVVVVVVVVVVVVVVVVVVVVVVVVVVVVVV",
"VVVVVVVVVVVVVVVVVVVVVVVVVVVVVVVVVVVVVVVVVVVVVVVVVVVVVVVVVVVVVVVV",
"VVVVVVVVVVVVVVVVVVVVVVVVVVVVVVVVVVVVVVVVVVVVVVVVVVVVVVVVVVVVVVVV",
"VVVVVVVVVVVVVVVVVVVVVVVVVVVVVVVVVVVVVVVVVVVVVVVVVVVVVVVVVVVVVVVV",
"VVVVVVVVVVVVVVVVVVVVVVVVVVVV    VVVVVVVVVVVVVVVVVVVVVVVVVVVVVVVV",
"VVVVVVVVVVVVVVVVVVVVVVVVVVVV@###VVVVVVVVVVVVVVVVVVVVVVVVVVVVVVVV",
"VVVVVVVVVVVVVVVVVVVVVVVVVV +,88<# VVVVVVVVVVVVVVVVVVVVVVVVVVVVVV",
"VVVVVVVVVVVVVVVVVVVVVVVVVVO-0t9<@ VVVVVVVVVVVVVVVVVVVVVVVVVVVVVV",
"VVVVVVVVVVVVVVVVVVVVVVVV @:0t0-@VVVVVVVVVV    VVVVVVVVVVVVVVVVVV",
"VVVVVVVVVVVVVVVVVVVVVVVV@=9u0,@ VVVVVVVVVV@###VVVVVVVVVVVVVVVVVV",
"VVVVVVVVVVVVVVVVVVVVVV.O,9t0-@VVVVVVVV  .@,79<@ VVVVVVVVVVVVVVVV",
"VVVVVVVVVVVVVVVVVVVVVVO=8t0:X VVVVVVVV##@-9uq<@ VVVVVVVVVVVVVVVV",
"VVVVVVVVVVVVVVVVVV   @<9t9=X.        @<770tq-+VVVVVVVVVVVVVVVVVV",
"VVVVVVVVVVVVVVVVVV@@@-9tu9=@@######@@-9r077:X.VVVVVVVVVVVVVVVVVV",
"VVVVVVVVVVVVVV   @<779ette933777337339t0=@@O..VVVVVVVVVVVVVVVVVV",
"VVVVVVVVVVVVVV@@@=0uytttttuttytyyyyyytu9=@O#@@VVVVVVVVVVVVVVVVVV",
"VVVVVVVVVVVV @<778eyyytttttttytuyttytttw83777<O.  VVVVVVVVVVVVVV",
"VVVVVVVVVVVV@*9yutttttttttttttttttttttttuytyu9=##@VVVVVVVVVVVVVV",
"VVVVVVVVVV @,0eyuttttttttttttttttttttttttttyye987<O.VVVVVVVVVVVV",
"VVVVVVVVVV@*9yttetttttttttttttttttttttttrttttreee8=@VVVVVVVVVVVV",
"VVVVVVVV @<0etttttttttttttttttttttttttttttttteq8889,@ VVVVVVVVVV",
"VVVVVVVVO*9yttttttttttttttttttrrrtttttttttttte0778w9*@VVVVVVVVVV",
"VVVVVV @,8etrrrttttttttttttttrrrertttttrtttttrew86899:O.VVVVVVVV",
"VVVVVV@*8upddpurttttttttttttrypddpurrtttttttttte8669w9*OVVVVVVVV",
"VVVV @<9wpkvvjiertttttttttterijvvjperrttttttttte8627998<@ VVVVVV",
"VVVV@*9uignBBbgiutrttttttttuignBBngiutttttttttte087339e7# VVVVVV",
"VV @<8epknNBBNnjprrtttttterpjnNBBNnjprrtrttttttteq8678r8# VVVVVV",
"VV #7yrdvBBBBBBvdertttttttedvBBBBBBvdrrtttttttttye9878e7# VVVVVV",
"VV #7ytdvBBBBBBvdrrtttttttrdvBBBBBBvdrrtttrtttttrreq98e7# VVVVVV",
"VV #7trdvMxsszMvdrrttttttrrdvMxsszMvdrtttttttttttyte89e7# VVVVVV",
"VV #7tydbx5%%5xbdrttttttyrtdbx5%%5xbdrrttttttttttttw89e7# VVVVVV",
"VV #7ytdnl& +5xbdertttttttrdnl& +5xvdrrtttttttttwuyw89e7@ VVVVVV",
"VV #7ytdnl%+axNvdrrttttttrrdbl%+axNvdrttttttttttttuw89e7#   VVVV",
"VV #6ttpkh45xBmjptrttttttrtpkh45xBmjprrtttttttttttte98e0-o. VVVV",
"VV #7ttupfhxNmgiurtttttttttupfhcNmgpytttttttttttttte99ee0,O VVVV",
"VV #7tyreiknvjperttttttttttrepknnjiertttttttttttttyw87qrt7# VVVV",
"VV #7yyrrypddpurtttttttttttrrudddiurttttttttttttttte8780r7# VVVV",
"VV #7yttytttrrttttttrttttttttrrrrrrtttttttttuwttttte0779t7# VVVV",
"VV #7yttttetetttttttttttttttttterrtttttttetttttttttte079e3# VVVV",
"VV #7yttttttttttttyttyttttttttttrtttttttttttttttttttye99e7#.VVVV",
"VV #7tyttttttttttyytytuyytttttttttttttttttttttttttttte88e7#.VVVV",
"VV #7yyttttttttttw937739wtttttttttttttttttttttttttttre89e7#.VVVV",
"VV #7tytttttttttu9*@@@@=8urttttttttttttttttttttttrtttw99e7# VVVV",
"VV #7ytttttttttyt9*X. X=8uttttttttttttttttttttttttttte99e7# VVVV",
"VV #7uyttttttttttw9:XX:9wtttttttttttttttttttttttttttte99e7# VVVV",
"VV @<9ettttttttttyy9*=9yuttuwttttttttttttttttttttttrew80t8# VVVV",
"VVVV@-8tytttttttttte99eyttttttttttttttttttttttttttte08wrt8#.VVVV",
"VVVV @7utttttttrtttttytttttttttttrtttttttttrtttttrrw00er9<@ VVVV",
"VVVV @7uyttttttttttttyttttttttttttttttttryttttttte00wet9=OVVVVVV",
"VVVV @<9etttttttttttttttttttttttttttrttttrttttttew78wrt3@.VVVVVV",
"VVVVVV@-9tttttttttttttttttttttttttttttttttttttye097680r7@   VVVV",
"VVVVVV @7yytttttttttttttttttttttttttttttttttttew866669e0-O. VVVV",
"VVVVVV #7uytttttttttttttttttttttttttttttttttte09767769er9,O VVVV",
"VVVVVV O:0eutttttttrtttttttttttttttttttttteeew86666668qru7# VVVV",
"VVVVVV .O-9uyutttttttttttttttttrttrttttyye0988666666668qr7@ VVVV",
"VVVVVV   @<778eyyttttttttytttttytreeeeeeeq86666668666668w7*@VVVV",
"VVVVVVVVVV@@@=9uyyyttttytttttyttteq888999887666666666666889<@ VV",
"VVVVVVVVVV   @<779qeeeeeeeeeeeeeew91<;:,>>><66686886688678e3# VV",
"VVVVVVVVVVVVVV@#@*10999099990999998<$oooooo$<88786867786680<@ VV",
"VVVVVVVVVVVVVV   X*>>>>>>>>>>>>>>>>-o      X=>>,>>>,>,>>>>,*X VV",
"VVVVVVVVVVVVVVVV .XoooooooooooooooooVVVVVVVVoooooooooooooooX. VV",
"VVVVVVVVVVVVVVVV     .     .     .  VVVVVVVV .    ..  .  .    VV"
};
