/* XPM */
static char *result[] = {
/* columns rows colors chars-per-pixel */
"64 64 58 1 ",
"  c #000000",
". c #080404",
"X c #160B0B",
"o c #1D0F0F",
"O c #1E1010",
"+ c gray12",
"@ c #241313",
"# c #291515",
"$ c #371B1B",
"% c #333434",
"& c #363838",
"* c #462525",
"= c #492626",
"- c #4C2828",
"; c #5F2F2F",
": c #5D3131",
"> c #602F2F",
", c #643333",
"< c #6A3636",
"1 c #773C3C",
"2 c #7B3D3D",
"3 c #7F4242",
"4 c #656262",
"5 c #6B6D6D",
"6 c #803F3F",
"7 c #834343",
"8 c #8B4646",
"9 c #8E4949",
"0 c #934B4B",
"q c #994E4E",
"w c #9C5050",
"e c #A45555",
"r c #AA5656",
"t c #AC5A5A",
"y c #B15C5C",
"u c #B16363",
"i c #BB7676",
"p c #BD7979",
"a c #888888",
"s c gray74",
"d c #C28484",
"f c #C09292",
"g c #D1A3A3",
"h c #C1B4B4",
"j c #DBB8B8",
"k c #E0BDBD",
"l c #C1C4C4",
"z c #CFD0D0",
"x c #D3D5D5",
"c c #D4D9D9",
"v c #EDDBDB",
"b c #F1DDDD",
"n c #F2E3E3",
"m c #F6E9E9",
"M c #F2F4F4",
"N c #F7FAFA",
"B c #FFFEFE",
"V c None",
/* pixels */
"VVVVVVVVVVVVVVVVVVVVVVVVVVVVVVVVVVVVVVVVVVVVVVVVVVVVVVVVVVVVVVVV",
"VVVVVVVVVVVVVVVVVVVVVVVVVVVVVVVVVVVVVVVVVVVVVVVVVVVVVVVVVVVVVVVV",
"VVVVVVVVVVVVVVVVVVVVVVVVVVVVVVVVVVVVVVVVVVVVVVVVVVVVVVVVVVVVVVVV",
"VVVVVVVVVVVVVVVVVVVVVVVVVVVVVVVVVVVVVVVVVVVVVVVVVVVVVVVVVVVVVVVV",
"VVVVVVVVVVVVVVVVVVVVVVVVVVVVVVVVVVVVVVVVVVVVVVVVVVVVVVVVVVVVVVVV",
"VVVVVVVVVVVVVVVVVVVVVVVVVVVVVVVVVVVVVVVVVVVVVVVVVVVVVVVVVVVVVVVV",
"VVVVVVVVVVVVVVVVVVVVVVVVVVVVVVVV  . VVVVVVVVVVVVVVVVVVVVVVVVVVVV",
"VVVVVVVVVVVVVVVVVVVVVVVVVVVVVVVV###@VVVVVVVVVVVVVVVVVVVVVVVVVVVV",
"VVVVVVVVVVVVVVVVVVVVVVVVVVVVVV #<97<O.VVVVVVVVVVVVVVVVVVVVVVVVVV",
"VVVVVVVVVVVVVVVVVVVVVVVVVVVVVV @<0t0=OVVVVVVVVVVVVVVVVVVVVVVVVVV",
"VVVVVVVVVVVVVVVVVV..  VVVVVVVVVV@-0t0<@ VVVVVVVVVVVVVVVVVVVVVVVV",
"VVVVVVVVVVVVVVVVVV@##@VVVVVVVVVV +:0t9=OVVVVVVVVVVVVVVVVVVVVVVVV",
"VVVVVVVVVVVVVVVV @<79<O.  VVVVVVVV@=0r9,@ VVVVVVVVVVVVVVVVVVVVVV",
"VVVVVVVVVVVVVVVV.#<qt0-##@VVVVVVVV o:0t9=@VVVVVVVVVVVVVVVVVVVVVV",
"VVVVVVVVVVVVVVVVVV#-0t077<@         X=9t9<@   VVVVVVVVVVVVVVVVVV",
"VVVVVVVVVVVVVVVVVV.X:370r9-@@######@@=9uu9*@@@VVVVVVVVVVVVVVVVVV",
"VVVVVVVVVVVVVVVVVV .o@@=9t937377777739wttt973<O.  VVVVVVVVVVVVVV",
"VVVVVVVVVVVVVVVVVV@#@@@*9tuttyyyttuyttuttttuu9=@#@VVVVVVVVVVVVVV",
"VVVVVVVVVVVVVV   @<77339wuttytyttutytyttttttye977<@ VVVVVVVVVVVV",
"VVVVVVVVVVVVVV@#@-9uuytttttttttttttttttttttttttuu9*@VVVVVVVVVVVV",
"VVVVVVVVVVVV @<739tttytyttttttrttttttttttttttttttr9,@ VVVVVVVVVV",
"VVVVVVVVVVVV@=7rtetttttttttttttttttrttrttttttttttty9*@VVVVVVVVVV",
"VVVVVVVVVV @<78990ertrttttttttttttttttttttttttrerttt9<O VVVVVVVV",
"VVVVVVVVVV@=7e8679rtttttttttttrrrrttttttttttttttttttt9*@VVVVVVVV",
"VVVVVVVV @<70868wrtrtettttttrrrrrrrrtttttttttttttrrrrr8<@ VVVVVV",
"VVVVVVVV@*9w8668etttttttttttrupddpurttttttttttttrupddpu8*@VVVVVV",
"VVVVVV @<7987628etttttttttttrijvvjirrtttttttttttrijvbjie8<@ VVVV",
"VVVVVV #7r936780ettttttttttuignBBngiutrttttttttuignBBngiu9*@VVVV",
"VVVVVV #7t9668qettttttttterijnNBBNnjprtttttttrrpjnNBBNnjpe9<@ VV",
"VVVVVV #3e9770ttttttttttttedvBBBBBBvdtrttttttrrpvBBBBBBvdry7# VV",
"VVVVVV #7e98qrrttttttttttrrdvBBBBBNvdrtttttttrrdvBBBBBBvdry7# VV",
"VVVVVV #7t97etttttttttttttrdvMzssxMvdrrtttttttrdvMzssxMvdrt7# VV",
"VVVVVV #7e98tttttttttttttrrdvz5%%5xbdrrtttttttrdvz5%%5cbdry7# VV",
"VVVVVV @3r88wttttttttttttrrdnz5+ &lndrttttttttrdvc5+ %lndrr7# VV",
"VVVV   @7e88ettttttttttttrrdvNxa+%lndrrtttttttrdvNxa+%lndyy7# VV",
"VVVV .O-9t98ettttttttttttrrpjmBc54hkprttttttttrijmBx54hkpyy6# VV",
"VVVV O:0ew99wttttttetttttttuigmNchfiuttttttttttuigmNcsfiutt7# VV",
"VVVV.#7utq78ettttttttttttttrrijvnkirttttttttttrtrijnbjirtty7# VV",
"VVVV #7rq778ettttttttttttttteuiddpurrttttttttttrrupddpurryy7# VV",
"VVVV #7r8680etttttttttttttttttttrtttttttttttrtttrrrrrryttty7# VV",
"VVVV #7t97qertttttttttttttttteterrttttttttttttttttrrrtrttyy7@ VV",
"VVVV #7e88rttttttttttttttttttttttttttttttttyttttttttttttttt7# VV",
"VVVV.#7e98ettttttttttttttttttttttttttttttuyytutttttttttttty7# VV",
"VVVV #7e89etttttttttttttttttttttttttrtuw937739ettttttttttyy7# VV",
"VVVV #7t88wtttttwtttttttttttttttttttrtt9*@@@@=9ttttttttttty7# VV",
"VVVV #3e98etttttutttttttttttttttttttttt9*X .X*9ytttttttttyy7# VV",
"VVVV.#7e98wuttttttttttttttttttttttrttttr9:XX:9ettttttttttyu7# VV",
"VVVV #7rq9wwtttttttttttttttttttttttttttuy9=*9uttttttttttte9<@ VV",
"VVVV #7urw00ertttttttttttttttttttttttttttr99eutrttttttttu9-@VVVV",
"VVVV @<9et09wrrttttttttttttttttttttttttttttutttttttttttty7@ VVVV",
"VVVVVV@-9ttw00ttttttttttttttttttttttttttttttttttttttttryu7@ VVVV",
"VVVVVV @3teq77qertttttttttrttttttttttttttttttrttttttttte0<@ VVVV",
"VVVV   @7r087780etttttttttttttttetttttttttttttttttttttt9=@VVVVVV",
"VVVV .O-8r967668qrrttttrttttttttttttttttttttttttttttttu7@ VVVVVV",
"VVVV O:9re96666680rttyyyttttttttttttttttttttttttttttttu7# VVVVVV",
"VVVV #9trq87676667qeeerrtttttttttttttttttttttttttttutt9:O VVVVVV",
"VVVV #8rq7866666688890rrtttrtrtttttttttttttttttttttuy9=o. VVVVVV",
"VVVV@*7q87666668666668qrreererrtttttttttytttttttye977<@   VVVVVV",
"VV @<8986676666666666600999880rtttuttttttttyttyyy9=@@@VVVVVVVVVV",
"VV @3e06676886866862<>>>>:;<28qrwtweeeeteeeerq977<@  .VVVVVVVVVV",
"VV @<08668686868788<$oooooo$<88998089080808001*@#@VVVVVVVVVVVVVV",
"VV X*,>>>>>,>>>>>,>=o      o=,>>>>;,::>;>,>>>*X . VVVVVVVVVVVVVV",
"VV .XoooooooooooooooVVVVVVVVoooooooooooooooooX. VVVVVVVVVVVVVVVV",
"VV       .     .    VVVVVVVV  .                 VVVVVVVVVVVVVVVV"
};
