/* XPM */
static char *result[] = {
/* columns rows colors chars-per-pixel */
"64 64 145 2 ",
"   c black",
".  c #080404",
"X  c #0A0505",
"o  c #1C0F0F",
"O  c #1E0F0F",
"+  c #1F0F0F",
"@  c #1E1010",
"#  c #1F1010",
"$  c #211010",
"%  c #201111",
"&  c #211111",
"*  c #221111",
"=  c #221212",
"-  c #231212",
";  c #241313",
":  c #251313",
">  c #251414",
",  c #261414",
"<  c #271414",
"1  c #271515",
"2  c #281515",
"3  c #291515",
"4  c #291616",
"5  c #2A1616",
"6  c #2B1616",
"7  c #2C1717",
"8  c #472525",
"9  c #482525",
"0  c #482626",
"q  c #492626",
"w  c #492727",
"e  c #4A2727",
"r  c #4B2727",
"t  c #4D2929",
"y  c #602F2F",
"u  c #613030",
"i  c #603232",
"p  c #633434",
"a  c #643434",
"s  c #643535",
"d  c #663535",
"f  c #663636",
"g  c #673636",
"h  c #683434",
"j  c #683636",
"k  c #693737",
"l  c #6B3636",
"z  c #6A3737",
"x  c #793E3E",
"c  c #7F4242",
"v  c #803F3F",
"b  c #813F3F",
"n  c #814040",
"m  c #824040",
"M  c #834040",
"N  c #834141",
"B  c #804343",
"V  c #814343",
"C  c #844141",
"Z  c #854141",
"A  c #854242",
"S  c #864242",
"D  c #874343",
"F  c #814444",
"G  c #824444",
"H  c #834444",
"J  c #834545",
"K  c #844545",
"L  c #864545",
"P  c #854646",
"I  c #864646",
"U  c #874646",
"Y  c #874747",
"T  c #884343",
"R  c #884444",
"E  c #894444",
"W  c #894545",
"Q  c #8A4545",
"!  c #8B4545",
"~  c #884747",
"^  c #894747",
"/  c #8A4646",
"(  c #8B4646",
")  c #8C4646",
"_  c #8D4747",
"`  c #8E4747",
"'  c #8F4747",
"]  c #8A4848",
"[  c #8D4848",
"{  c #8C4949",
"}  c #8F4848",
"|  c #8D4A4A",
" . c #8E4A4A",
".. c #8F4B4B",
"X. c #904949",
"o. c #904B4B",
"O. c #934B4B",
"+. c #944B4B",
"@. c #904C4C",
"#. c #914C4C",
"$. c #924D4D",
"%. c #954C4C",
"&. c #964C4C",
"*. c #944E4E",
"=. c #954E4E",
"-. c #994E4E",
";. c #9A4F4F",
":. c #9B5050",
">. c #9D5050",
",. c #A05252",
"<. c #A15353",
"1. c #A25353",
"2. c #A25454",
"3. c #A35454",
"4. c #A25555",
"5. c #A35555",
"6. c #A45555",
"7. c #A55555",
"8. c #A45656",
"9. c #A55656",
"0. c #A55757",
"q. c #A65656",
"w. c #A75656",
"e. c #A65757",
"r. c #A75757",
"t. c #A85757",
"y. c #A95757",
"u. c #AA5858",
"i. c #AA5959",
"p. c #AB5959",
"a. c #AC5959",
"s. c #AC5A5A",
"d. c #AD5A5A",
"f. c #AD5B5B",
"g. c #AE5B5B",
"h. c #AF5B5B",
"j. c #AF5C5C",
"k. c #B05C5C",
"l. c #B15C5C",
"z. c #B15D5D",
"x. c #B25D5D",
"c. c #B35D5D",
"v. c #B35E5E",
"b. c #B45E5E",
"n. c None",
/* pixels */
"n.n.n.n.n.n.n.n.n.n.n.n.n.n.n.n.n.n.n.n.n.n.n.n.n.n.n.n.n.n.n.n.n.n.n.n.n.n.n.n.n.n.n.n.n.n.n.n.n.n.n.n.n.n.n.n.n.n.n.n.n.n.n.n.",
"n.n.n.n.n.n.n.n.n.n.n.n.n.n.n.n.n.n.n.n.n.n.n.n.n.n.n.n.n.n.n.n.n.n.n.n.n.n.n.n.n.n.n.n.n.n.n.n.n.n.n.n.n.n.n.n.n.n.n.n.n.n.n.n.",
"n.n.n.n.n.n.n.n.n.n.n.n.n.n.n.n.n.n.n.n.n.n.n.n.n.n.n.n.n.n.n.n.n.n.n.n.n.n.n.n.n.n.n.n.n.n.n.n.n.n.n.n.n.n.n.n.n.n.n.n.n.n.n.n.",
"n.n.n.n.n.n.n.n.n.n.n.n.n.n.n.n.n.n.n.n.n.n.n.n.n.n.n.n.n.n.n.n.n.n.n.n.n.n.n.n.n.n.n.n.n.n.n.n.n.n.n.n.n.n.n.n.n.n.n.n.n.n.n.n.",
"n.n.n.n.n.n.n.n.n.n.n.n.n.n.n.n.n.n.n.n.n.n.n.n.n.n.n.n.n.n.n.n.n.n.n.n.n.n.n.n.n.n.n.n.n.n.n.n.n.n.n.n.n.n.n.n.n.n.n.n.n.n.n.n.",
"n.n.n.n.n.n.n.n.n.n.n.n.n.n.n.n.n.n.n.n.n.n.n.n.n.n.n.n.n.n.n.n.n.n.n.n.n.n.n.n.n.n.n.n.n.n.n.n.n.n.n.n.n.n.n.n.n.n.n.n.n.n.n.n.",
"n.n.n.n.n.n.n.n.n.n.n.n.n.n.n.n.n.n.n.n.        n.n.n.n.n.n.n.n.        n.n.n.n.n.n.n.n.n.n.n.n.n.n.n.n.n.n.n.n.n.n.n.n.n.n.n.n.",
"n.n.n.n.n.n.n.n.n.n.n.n.n.n.n.n.n.n.n.n.2 6 5 > n.n.n.n.n.n.n.n.2 6 5 > n.n.n.n.n.n.n.n.n.n.n.n.n.n.n.n.n.n.n.n.n.n.n.n.n.n.n.n.",
"n.n.n.n.n.n.n.n.n.n.n.n.n.n.n.n.n.n.  , k Y P g >   n.n.n.n.  , k Y P g >   n.n.n.n.n.n.n.n.n.n.n.n.n.n.n.n.n.n.n.n.n.n.n.n.n.n.",
"n.n.n.n.n.n.n.n.n.n.n.n.n.n.n.n.n.n.  : j =.f.I 5   n.n.n.n.  : j =.f.I 5   n.n.n.n.n.n.n.n.n.n.n.n.n.n.n.n.n.n.n.n.n.n.n.n.n.n.",
"n.n.n.n.n.n.n.n.n.n.n.n.n.n.n.n.n.n.n.n.; t *.~ 7   n.n.n.n.n.n.; t *.~ 7   n.n.n.n.n.n.n.n.n.n.n.n.n.n.n.n.n.n.n.n.n.n.n.n.n.n.",
"n.n.n.n.n.n.n.n.n.n.n.n.n.n.n.n.n.n.n.n.  ; z a &   n.n.n.n.n.n.  ; z a &   n.n.n.n.n.n.n.n.n.n.n.n.n.n.n.n.n.n.n.n.n.n.n.n.n.n.",
"n.n.n.n.n.n.n.n.n.n.n.n.n.n.n.n.n.n.n.n.n.n.< # X   n.n.n.n.n.n.n.n.< # X   n.n.n.n.n.n.n.n.n.n.n.n.n.n.n.n.n.n.n.n.n.n.n.n.n.n.",
"n.n.n.n.n.n.n.n.n.n.n.n.n.n.n.n.n.n.n.n.n.n.        n.n.n.n.n.n.n.n.        n.n.n.n.n.n.n.n.n.n.n.n.n.n.n.n.n.n.n.n.n.n.n.n.n.n.",
"n.n.n.n.n.n.n.n.n.n.n.n.n.n.n.n.n.n.n.n.n.n.        n.n.n.n.n.n.n.n.        n.n.n.n.n.n.n.n.n.n.n.n.n.n.n.n.n.n.n.n.n.n.n.n.n.n.",
"n.n.n.n.n.n.n.n.n.n.n.n.n.n.n.n.n.n.n.n.n.n.        n.n.n.n.n.n.n.n.        n.n.n.n.n.n.n.n.n.n.n.n.n.n.n.n.n.n.n.n.n.n.n.n.n.n.",
"n.n.n.n.n.n.n.n.n.n.n.n.n.n.n.n.n.n.                                                    n.n.n.n.n.n.n.n.n.n.n.n.n.n.n.n.n.n.n.n.",
"n.n.n.n.n.n.n.n.n.n.n.n.n.n.n.n.n.n.: 3 3 3 4 5 5 4 3 3 3 3 3 3 3 3 4 5 5 4 3 4 5 @ .   n.n.n.n.n.n.n.n.n.n.n.n.n.n.n.n.n.n.n.n.",
"n.n.n.n.n.n.n.n.n.n.n.n.n.n.      - g H G F G H H G F V V V V V V F G H H G F H K i o       n.n.n.n.n.n.n.n.n.n.n.n.n.n.n.n.n.n.",
"n.n.n.n.n.n.n.n.n.n.n.n.n.n.: < , q ..v.x.k.k.k.k.k.k.k.k.k.k.k.k.k.k.k.k.k.k.x.v.o.e , < : n.n.n.n.n.n.n.n.n.n.n.n.n.n.n.n.n.n.",
"n.n.n.n.n.n.n.n.n.n.n.n.  = d G F { 5.k.j.h.h.h.h.h.h.h.h.h.h.h.h.h.h.h.h.h.h.j.k.8.| G H g -       n.n.n.n.n.n.n.n.n.n.n.n.n.n.",
"n.n.n.n.n.n.n.n.n.n.n.n.& 0  .v.x.j.f.s.s.s.s.s.s.s.s.s.s.s.s.s.s.s.s.s.s.s.s.s.s.f.j.x.v...q , 2 > n.n.n.n.n.n.n.n.n.n.n.n.n.n.",
"n.n.n.n.n.n.n.n.n.n.  & s  .9.k.j.g.d.s.s.s.s.s.s.s.s.s.s.s.s.s.s.s.s.s.s.s.s.s.s.d.g.j.k.8.{ G J f =   n.n.n.n.n.n.n.n.n.n.n.n.",
"n.n.n.n.n.n.n.n.n.n.& 0  .x.j.s.s.s.s.s.s.s.s.s.s.s.s.s.s.s.s.s.s.s.s.s.s.s.s.s.s.s.s.s.s.i.r.w.y.I 8 = n.n.n.n.n.n.n.n.n.n.n.n.",
"n.n.n.n.n.n.n.n.  & s  .9.j.f.s.s.s.s.s.s.s.s.s.s.s.s.s.s.s.s.s.s.s.s.s.s.s.s.s.s.s.s.s.d.7.%._ ` _ U f =   n.n.n.n.n.n.n.n.n.n.",
"n.n.n.n.n.n.n.n.& 0  .x.j.s.s.s.s.s.s.s.s.s.s.s.s.s.s.s.s.s.s.s.s.s.s.s.s.s.s.s.s.s.s.s.d.6.O.D m ! ,.U 8 = n.n.n.n.n.n.n.n.n.n.",
"n.n.n.n.n.n.  & s  .9.j.f.s.s.s.s.s.s.s.s.s.s.s.s.s.s.s.s.s.s.s.s.s.s.s.s.s.s.s.s.s.s.s.s.i.7.-.R N ! [ U f =   n.n.n.n.n.n.n.n.",
"n.n.n.n.n.n.& 0  .x.j.s.s.s.s.s.s.s.s.s.s.s.s.s.s.s.s.s.s.s.s.s.s.s.s.s.s.s.s.s.s.s.s.s.s.d.g.9.+.R m ! ,.U 8 = n.n.n.n.n.n.n.n.",
"n.n.n.n.  & s  .9.j.f.s.s.s.s.s.s.s.s.s.s.s.s.s.s.s.s.s.s.s.s.s.s.s.s.s.s.s.s.s.s.s.s.s.s.s.d.p.9.-.R N ! [ U f =   n.n.n.n.n.n.",
"n.n.n.n.= 0  .x.j.s.s.s.s.s.s.s.s.s.s.s.s.s.s.s.s.s.s.s.s.s.s.s.s.s.s.s.s.s.s.s.s.s.s.s.s.s.s.d.g.9.+.R m ! ,.U 8 = n.n.n.n.n.n.",
"n.n.  : d  .9.j.f.s.s.s.s.s.s.s.s.s.s.s.s.s.s.s.s.s.s.s.s.s.s.s.s.s.s.s.s.s.s.s.s.s.s.s.s.s.s.s.d.p.9.-.R N ! _ I f >   n.n.n.n.",
"n.n.  3 J v.k.s.s.s.s.s.s.s.s.s.s.s.s.s.s.s.s.s.s.s.s.s.s.s.s.s.s.s.s.s.s.s.s.s.s.s.s.s.s.s.s.s.s.d.g.9.+.R m } y.K 4   n.n.n.n.",
"n.n.  3 G x.j.s.s.s.s.s.s.s.s.s.s.s.s.s.s.s.s.s.s.s.s.s.s.s.s.s.s.s.s.s.s.s.s.s.s.s.s.s.s.s.s.s.s.s.d.p.9.-.R ` r.J 4   n.n.n.n.",
"n.n.  3 V k.h.s.s.s.s.s.s.s.s.s.s.s.s.s.s.s.s.s.s.s.s.s.s.s.s.s.s.s.s.s.s.s.s.s.s.s.s.s.s.s.s.s.s.s.s.f.g.2.( ` 7.G 4   n.n.n.n.",
"n.n.  3 V k.h.s.s.s.s.s.s.s.s.s.s.s.s.s.s.s.s.s.s.s.s.s.s.s.s.s.s.s.s.s.s.s.s.s.s.s.s.s.s.s.s.s.s.s.s.d.f.2.( ` 7.G 4   n.n.n.n.",
"n.n.  3 V k.h.s.s.s.s.s.s.s.s.s.s.s.s.s.s.s.s.s.s.s.s.s.s.s.s.s.s.s.s.s.s.s.s.s.s.s.s.s.s.s.s.s.s.s.s.d.f.<.( ` 7.G 4   n.n.n.n.",
"n.n.  3 V k.h.s.s.s.s.s.s.s.s.s.s.s.s.s.s.s.s.s.s.s.s.s.s.s.s.s.s.s.s.s.s.s.s.s.s.s.s.s.s.s.s.s.s.s.s.d.f.<.( ` 7.G 4   n.n.n.n.",
"n.n.  3 V k.h.s.s.s.s.s.s.s.s.s.s.s.s.s.s.s.s.s.s.s.s.s.s.s.s.s.s.s.s.s.s.s.s.s.s.s.s.s.s.s.s.s.s.s.s.d.f.<.( ` 7.G 4   n.n.n.n.",
"n.n.  3 V k.h.s.s.s.s.s.s.s.s.s.s.s.s.s.s.s.s.s.s.s.s.s.s.s.s.s.s.s.s.s.s.s.s.s.s.s.s.s.s.s.s.s.s.s.s.d.f.<.( ` 7.G 4   n.n.n.n.",
"n.n.  3 V k.h.s.s.s.s.s.s.s.s.s.s.s.s.s.s.s.s.s.s.s.s.s.s.s.s.s.s.s.s.s.s.s.s.s.s.s.s.s.s.s.s.s.s.s.s.d.f.<.( ` 7.G 4   n.n.n.n.",
"n.n.  3 V k.h.s.s.s.s.s.s.s.s.s.s.s.s.s.s.s.s.s.s.s.s.s.s.s.s.s.s.s.s.s.s.s.s.s.s.s.s.s.s.s.s.s.s.s.s.d.f.<.( ` 7.G 4   n.n.n.n.",
"n.n.  3 V k.h.s.s.s.s.s.s.s.s.s.s.s.s.s.s.s.s.s.s.s.s.s.s.s.s.s.s.s.s.s.s.s.s.s.s.s.s.s.s.s.s.s.s.s.s.d.f.<.( ` 7.G 4   n.n.n.n.",
"n.n.  3 V k.h.s.s.s.s.s.s.s.s.s.s.s.s.s.s.s.s.s.s.s.s.s.s.s.s.s.s.s.s.s.s.s.s.s.s.s.s.s.s.s.s.s.s.s.s.d.f.<.( ` 7.G 4   n.n.n.n.",
"n.n.  3 V k.h.s.s.s.s.s.s.s.s.s.s.s.s.s.s.s.s.s.s.s.s.s.s.s.s.s.s.s.s.s.s.s.s.s.s.s.s.s.s.s.s.s.s.s.s.d.f.<.( ` 7.G 4   n.n.n.n.",
"n.n.  3 V k.h.s.s.s.s.s.s.s.s.s.s.s.s.s.s.s.s.s.s.s.s.s.s.s.s.s.s.s.s.s.s.s.s.s.s.s.s.s.s.s.s.s.s.s.s.d.f.<.( ` 7.G 4   n.n.n.n.",
"n.n.  3 V k.h.s.s.s.s.s.s.s.s.s.s.s.s.s.s.s.s.s.s.s.s.s.s.s.s.s.s.s.s.s.s.s.s.s.s.s.s.s.s.s.s.s.s.s.s.f.g.2.( ` 7.G 4   n.n.n.n.",
"n.n.  3 V k.h.s.s.s.s.s.s.s.s.s.s.s.s.s.s.s.s.s.s.s.s.s.s.s.s.s.s.s.s.s.s.s.s.s.s.s.s.s.s.s.s.s.s.s.d.g.g.2.( ` 7.G 4   n.n.n.n.",
"n.n.  3 V k.h.s.s.s.s.s.s.s.s.s.s.s.s.s.s.s.s.s.s.s.s.s.s.s.s.s.s.s.s.s.s.s.s.s.s.s.s.s.s.s.s.s.d.i.6.2.2.-.R _ 7.G 4   n.n.n.n.",
"n.n.  3 V k.h.s.s.s.s.s.s.s.s.s.s.s.s.s.s.s.s.s.s.s.s.s.s.s.s.s.s.s.s.s.s.s.s.s.s.s.s.s.s.s.s.d.g.9.+.) ) E M ` 9.G 4   n.n.n.n.",
"n.n.  3 G v.z.g.d.s.s.s.s.s.s.s.s.s.s.s.s.s.s.s.s.s.s.s.s.s.s.s.s.s.s.s.s.s.s.s.s.s.s.s.s.s.d.p.9.;.E v v N Q -.p.H 4   n.n.n.n.",
"n.n.  3 H b.v.j.d.s.d.d.s.s.s.s.s.s.s.s.s.s.s.s.s.s.s.s.s.s.s.s.s.s.s.s.s.s.s.s.s.s.s.s.s.d.g.9.+.E C v v E >.a.x.J 3   n.n.n.n.",
"n.n.  , g H G | 4.i.7.6.i.d.s.s.s.s.s.s.s.s.s.s.s.s.s.s.s.s.s.s.s.s.s.s.s.s.s.s.s.s.s.d.f.p.9.;.E v b A Q / L K J g ,   n.n.n.n.",
"n.n.n.n., < , e | r.%.O.7.g.d.s.s.s.s.s.s.s.s.s.s.s.s.s.s.s.s.s.s.s.s.s.s.s.s.s.s.s.d.f.g.9.+.E N b b ( >.L 9 1 1 , n.n.n.n.n.n.",
"n.n.n.n.      : F 7._ R -.9.p.f.d.d.d.d.d.d.d.d.d.d.d.d.d.d.d.d.d.d.d.d.d.d.d.d.f.i.6.2.2.;.E v n n b } w.G >       n.n.n.n.n.n.",
"n.n.n.n.n.n.  ; B q.` m R +.9.g.f.f.f.f.f.f.f.f.f.f.f.f.f.f.f.f.f.f.f.f.f.f.f.f.g.9.+.) ) Q C n m n b } w.F :   n.n.n.n.n.n.n.n.",
"n.n.n.n.n.n.= w | 9.` v v E ;.3.2.2.2.2.2.2.2.2.2.2.2.2.2.2.2.2.2.2.2.2.2.2.2.2.3.;.E v b n m m m n b ` 9.| e - n.n.n.n.n.n.n.n.",
"n.n.n.n.  = d o.0.6._ b b C Q ) ) ) ) ) ) ) ) ) ) ) ) ) ) ) ) ) ) ) ) ) ) ) ) ) ) Q C b n m m m m n b _ 6.0.@.g =   n.n.n.n.n.n.",
"n.n.n.n.& q ..l.t.;.W n m m n b b b b b b b b b b b b b b b b b b b b b b b b b b n m m m m m m m m n Q ;.9.t.I 8 = n.n.n.n.n.n.",
"n.n.  & s ..e.t.&.E C m m m m n n n n n n n n n n n n n n n n n n n n n n n n n n m m m m m m m m m m C Q _ ' [ U f =   n.n.n.n.",
"n.n.; r #.c.u.:.! m M C C C C C C C C C C C C C C C C C C C C C C C C C C C C C C C C C C C C C C C C C M m m ` 1.^ q ; n.n.n.n.",
"  , k $.i.p.-.) S C Z A A A A A A A A A A A A A A A A A A A A A A A A A A A A A A A A A A A A A A A A Z Z C C T ' X.] z <   n.n.",
"  # p Y K x h y y u u u u u u u u u u u u u u u u u u u u u u u u u u u u u u u u u u u u u u u u u u u u u u y y l c p #   n.n.",
"  X % 7 5 , $ O O + + + + + + + + + + + + + + + + + + + + + + + + + + + + + + + + + + + + + + + + + + + + + + O O * 3 % X   n.n.",
"                                                                                                                            n.n."
};
