/* XPM */
static char *result[] = {
/* columns rows colors chars-per-pixel */
"64 64 206 2 ",
"   c black",
".  c #010101",
"X  c #080404",
"o  c #0A0505",
"O  c #160C0C",
"+  c #170C0C",
"@  c #1C0F0F",
"#  c #1E0F0F",
"$  c #1F0F0F",
"%  c #1E1010",
"&  c #1F1010",
"*  c gray12",
"=  c #211010",
"-  c #211111",
";  c #221212",
":  c #231212",
">  c #241313",
",  c #251313",
"<  c #251414",
"1  c #261414",
"2  c #271414",
"3  c #281515",
"4  c #291515",
"5  c #291616",
"6  c #2A1616",
"7  c #2B1616",
"8  c #2C1717",
"9  c #313131",
"0  c #333535",
"q  c #353535",
"w  c #363838",
"e  c #462525",
"r  c #472525",
"t  c #482626",
"y  c #492626",
"u  c #4A2727",
"i  c #4D2929",
"p  c #5C3030",
"a  c #602F2F",
"s  c #613030",
"d  c #603232",
"f  c #643434",
"g  c #643535",
"h  c #663535",
"j  c #663636",
"k  c #673636",
"l  c #683434",
"z  c #693535",
"x  c #683636",
"c  c #693737",
"v  c #6A3737",
"b  c #793E3E",
"n  c #793F3F",
"m  c #7F4343",
"M  c #656262",
"N  c #696A6A",
"B  c #6B6C6C",
"V  c #6B6D6D",
"C  c #6E6F6F",
"Z  c #803F3F",
"A  c #813F3F",
"S  c #814040",
"D  c #824040",
"F  c #834040",
"G  c #834141",
"H  c #804343",
"J  c #814343",
"K  c #844141",
"L  c #854141",
"P  c #854242",
"I  c #874343",
"U  c #814444",
"Y  c #824444",
"T  c #834444",
"R  c #834545",
"E  c #844545",
"W  c #854545",
"Q  c #854646",
"!  c #864646",
"~  c #874646",
"^  c #874747",
"/  c #884444",
"(  c #894444",
")  c #8A4545",
"_  c #8B4545",
"`  c #884747",
"'  c #8B4646",
"]  c #8C4646",
"[  c #8D4646",
"{  c #8C4747",
"}  c #8D4747",
"|  c #8E4747",
" . c #8B4848",
".. c #8B4949",
"X. c #8D4848",
"o. c #8C4949",
"O. c #8F4848",
"+. c #8D4A4A",
"@. c #8E4A4A",
"#. c #8F4B4B",
"$. c #904949",
"%. c #904B4B",
"&. c #934B4B",
"*. c #944B4B",
"=. c #954C4C",
"-. c #964C4C",
";. c #974C4C",
":. c #974D4D",
">. c #944E4E",
",. c #954E4E",
"<. c #994E4E",
"1. c #9A4F4F",
"2. c #9C5050",
"3. c #9D5050",
"4. c #A05252",
"5. c #A15353",
"6. c #A15454",
"7. c #A25454",
"8. c #A35454",
"9. c #A35555",
"0. c #A45555",
"q. c #A55555",
"w. c #A45656",
"e. c #A55656",
"r. c #A55757",
"t. c #A75656",
"y. c #A65757",
"u. c #A75757",
"i. c #A95454",
"p. c #A85757",
"a. c #A95757",
"s. c #AA5656",
"d. c #AA5757",
"f. c #AB5757",
"g. c #AA5858",
"h. c #AB5858",
"j. c #AA5959",
"k. c #AB5959",
"l. c #AC5959",
"z. c #AC5A5A",
"x. c #AD5A5A",
"c. c #AD5B5B",
"v. c #AE5B5B",
"b. c #AF5B5B",
"n. c #AF5C5C",
"m. c #B05C5C",
"M. c #B15C5C",
"N. c #B25D5D",
"B. c #B35E5E",
"V. c #B45E5E",
"C. c #B65F5F",
"Z. c #B06262",
"A. c #B16363",
"S. c #B76060",
"D. c #BA7575",
"F. c #BB7777",
"G. c #BB7878",
"H. c #BE7A7A",
"J. c #BE7B7B",
"K. c #888888",
"L. c #BCBCBC",
"P. c gray",
"I. c #C08282",
"U. c #C08383",
"Y. c #C18383",
"T. c #C18484",
"R. c #C28484",
"E. c #C38585",
"W. c #C48686",
"Q. c #C48787",
"!. c #C09292",
"~. c #D0A2A2",
"^. c #D2A4A4",
"/. c #C0B3B3",
"(. c #C1B4B4",
"). c #DBB8B8",
"_. c #E0BDBD",
"`. c #C0C3C3",
"'. c #C1C4C4",
"]. c #CFD0D0",
"[. c #D1D3D3",
"{. c #D2D3D3",
"}. c #D2D4D4",
"|. c #D3D6D6",
" X c #D4D6D6",
".X c #D4D9D9",
"XX c #ECD9D9",
"oX c #EDD9D9",
"OX c #ECDADA",
"+X c #EDDCDC",
"@X c #EEDCDC",
"#X c #EFDEDE",
"$X c #F0DCDC",
"%X c #F1DEDE",
"&X c #F2DFDF",
"*X c #F3E0E0",
"=X c #F2E1E1",
"-X c #F2E4E4",
";X c #F6E9E9",
":X c #F1F3F3",
">X c #F2F4F4",
",X c #F6F9F9",
"<X c #F7FBFB",
"1X c #FCF9F9",
"2X c white",
"3X c None",
/* pixels */
"3X3X3X3X3X3X3X3X3X3X3X3X3X3X3X3X3X3X3X3X3X3X3X3X3X3X3X3X3X3X3X3X3X3X3X3X3X3X3X3X3X3X3X3X3X3X3X3X3X3X3X3X3X3X3X3X3X3X3X3X3X3X3X3X",
"3X3X3X3X3X3X3X3X3X3X3X3X3X3X3X3X3X3X3X3X3X3X3X3X3X3X3X3X3X3X3X3X3X3X3X3X3X3X3X3X3X3X3X3X3X3X3X3X3X3X3X3X3X3X3X3X3X3X3X3X3X3X3X3X",
"3X3X3X3X3X3X3X3X3X3X3X3X3X3X3X3X3X3X3X3X3X3X3X3X3X3X3X3X3X3X3X3X3X3X3X3X3X3X3X3X3X3X3X3X3X3X3X3X3X3X3X3X3X3X3X3X3X3X3X3X3X3X3X3X",
"3X3X3X3X3X3X3X3X3X3X3X3X3X3X3X3X3X3X3X3X3X3X3X3X3X3X3X3X3X3X3X3X3X3X3X3X3X3X3X3X3X3X3X3X3X3X3X3X3X3X3X3X3X3X3X3X3X3X3X3X3X3X3X3X",
"3X3X3X3X3X3X3X3X3X3X3X3X3X3X3X3X3X3X3X3X3X3X3X3X        3X3X3X3X3X3X3X3X        3X3X3X3X3X3X3X3X3X3X3X3X3X3X3X3X3X3X3X3X3X3X3X3X",
"3X3X3X3X3X3X3X3X3X3X3X3X3X3X3X3X3X3X3X3X3X3X3X3X< 6 7 3 3X3X3X3X3X3X3X3X< 6 7 3 3X3X3X3X3X3X3X3X3X3X3X3X3X3X3X3X3X3X3X3X3X3X3X3X",
"3X3X3X3X3X3X3X3X3X3X3X3X3X3X3X3X3X3X3X3X3X3X  < k Q ^ c 1   3X3X3X3X  < k Q ^ c 1   3X3X3X3X3X3X3X3X3X3X3X3X3X3X3X3X3X3X3X3X3X3X",
"3X3X3X3X3X3X3X3X3X3X3X3X3X3X3X3X3X3X3X3X3X3X  6 ! c.,.x ,   3X3X3X3X  6 ! c.,.x ,   3X3X3X3X3X3X3X3X3X3X3X3X3X3X3X3X3X3X3X3X3X3X",
"3X3X3X3X3X3X3X3X3X3X3X3X3X3X3X3X3X3X3X3X3X3X  8 ` >.i > 3X3X3X3X3X3X  8 ` >.i > 3X3X3X3X3X3X3X3X3X3X3X3X3X3X3X3X3X3X3X3X3X3X3X3X",
"3X3X3X3X3X3X3X3X3X3X3X3X3X3X3X3X3X3X3X3X3X3X  - f v >   3X3X3X3X3X3X  - f v >   3X3X3X3X3X3X3X3X3X3X3X3X3X3X3X3X3X3X3X3X3X3X3X3X",
"3X3X3X3X3X3X3X3X3X3X3X3X3X3X3X3X3X3X3X3X3X3X  o & 2 3X3X3X3X3X3X3X3X  o & 2 3X3X3X3X3X3X3X3X3X3X3X3X3X3X3X3X3X3X3X3X3X3X3X3X3X3X",
"3X3X3X3X3X3X3X3X3X3X3X3X3X3X3X3X3X3X3X3X3X3X        3X3X3X3X3X3X3X3X        3X3X3X3X3X3X3X3X3X3X3X3X3X3X3X3X3X3X3X3X3X3X3X3X3X3X",
"3X3X3X3X3X3X3X3X3X3X3X3X3X3X3X3X3X3X3X3X3X3X        3X3X3X3X3X3X3X3X        3X3X3X3X3X3X3X3X3X3X3X3X3X3X3X3X3X3X3X3X3X3X3X3X3X3X",
"3X3X3X3X3X3X3X3X3X3X3X3X3X3X3X3X3X3X3X3X3X3X        3X3X3X3X3X3X3X3X        3X3X3X3X3X3X3X3X3X3X3X3X3X3X3X3X3X3X3X3X3X3X3X3X3X3X",
"3X3X3X3X3X3X3X3X3X3X3X3X3X3X3X3X3X3X                                                    3X3X3X3X3X3X3X3X3X3X3X3X3X3X3X3X3X3X3X3X",
"3X3X3X3X3X3X3X3X3X3X3X3X3X3X3X3X3X3X, 4 4 4 5 6 6 5 4 4 4 4 4 4 4 4 5 6 6 5 4 5 6 % X   3X3X3X3X3X3X3X3X3X3X3X3X3X3X3X3X3X3X3X3X",
"3X3X3X3X3X3X3X3X3X3X3X3X3X3X      : k T Y U Y T T Y U J J J J J J U Y T T Y U T E d @       3X3X3X3X3X3X3X3X3X3X3X3X3X3X3X3X3X3X",
"3X3X3X3X3X3X3X3X3X3X3X3X3X3X, 2 1 y #.B.N.m.m.m.m.m.m.m.m.m.m.m.m.m.m.m.m.m.m.N.B.%.u 1 2 , 3X3X3X3X3X3X3X3X3X3X3X3X3X3X3X3X3X3X",
"3X3X3X3X3X3X3X3X3X3X3X3X  ; h Y U o.9.m.n.b.b.b.b.b.b.b.b.b.b.b.b.b.b.b.b.b.b.n.m.w.+.Y T k :       3X3X3X3X3X3X3X3X3X3X3X3X3X3X",
"3X3X3X3X3X3X3X3X3X3X3X3X- t @.B.N.n.c.z.z.z.z.z.z.z.z.z.z.z.z.z.z.z.z.z.z.z.z.z.z.c.n.N.B.#.y 1 3 < 3X3X3X3X3X3X3X3X3X3X3X3X3X3X",
"3X3X3X3X3X3X3X3X3X3X  - g @.e.m.n.v.x.z.z.z.z.z.z.z.z.z.z.z.z.z.z.z.z.z.z.z.z.z.z.x.v.n.m.w.o.Y R j ;   3X3X3X3X3X3X3X3X3X3X3X3X",
"3X3X3X3X3X3X3X3X3X3X- t @.N.n.z.z.z.z.z.z.z.z.z.z.z.z.z.z.z.z.z.z.z.z.z.z.z.z.z.z.z.z.z.z.j.u.t.a.! r ; 3X3X3X3X3X3X3X3X3X3X3X3X",
"3X3X3X3X3X3X3X3X  - g @.e.n.c.z.z.z.z.z.z.z.z.z.z.z.z.z.z.z.z.z.z.z.z.z.z.z.z.z.z.z.z.z.x.q.=.} | } ~ j ;   3X3X3X3X3X3X3X3X3X3X",
"3X3X3X3X3X3X3X3X- t @.N.n.z.z.z.z.l.h.f.f.h.l.z.z.z.z.z.z.z.z.z.z.z.z.z.z.l.h.f.f.h.l.x.c.0.&.I D _ 4.~ r ; 3X3X3X3X3X3X3X3X3X3X",
"3X3X3X3X3X3X  - g @.e.n.c.z.z.z.z.l.f.s.s.f.l.z.z.z.z.z.z.z.z.z.z.z.z.z.z.l.f.s.s.f.l.z.z.j.q.<./ G _ X.~ j ;   3X3X3X3X3X3X3X3X",
"3X3X3X3X3X3X- t @.N.n.z.z.z.z.k.f.Z.G.Y.Y.G.Z.f.k.z.z.z.z.z.z.z.z.z.z.k.f.Z.G.Y.Y.G.Z.f.k.c.v.e.*./ D _ 4.~ r ; 3X3X3X3X3X3X3X3X",
"3X3X3X3X  - g @.e.n.c.z.z.z.z.f.i.D.).+X+X).D.i.f.z.z.z.z.z.z.z.z.z.z.f.i.D.).+X+X).D.i.f.z.c.k.e.<./ G _ X.~ j ;   3X3X3X3X3X3X",
"3X3X3X3X; t @.N.n.z.z.z.z.l.l.Z.D.~.-X2X2X-X~.D.Z.l.l.z.z.z.z.z.z.l.l.Z.D.~.-X2X2X-X~.D.Z.l.l.x.v.e.*./ D _ 4.~ r ; 3X3X3X3X3X3X",
"3X3X  , h @.e.n.c.z.z.z.z.h.f.G.).-X1X2X2X1X-X).G.f.h.z.z.z.z.z.z.h.f.G.).-X1X2X2X1X-X).G.f.h.z.x.k.e.<./ G _ } ! j <   3X3X3X3X",
"3X3X  4 R B.m.z.z.z.z.z.z.h.s.U.OX2X2X2X2X2X2XOXU.s.h.z.z.z.z.z.z.h.s.U.OX2X2X2X2X2X2XOXU.s.h.z.z.x.v.e.*./ D O.a.E 5   3X3X3X3X",
"3X3X  4 Y N.n.z.z.z.z.z.z.h.s.I.XX2X2X2X2X2X2XXXI.s.h.z.z.z.z.z.z.h.s.I.XX2X2X2X2X2X2XXXI.s.h.z.z.z.x.k.e.<./ | u.R 5   3X3X3X3X",
"3X3X  4 J m.b.z.z.z.z.z.z.h.s.Y.XX>X{.P.L.].:XoXY.s.h.z.z.z.z.z.z.h.s.Y.XX>X{.P.L.].:XoXY.s.h.z.z.z.z.c.v.7.' | q.Y 5   3X3X3X3X",
"3X3X  4 J m.b.z.z.z.z.z.z.h.s.E.$X}.C q 9 N [.$XE.s.h.z.z.z.z.z.z.h.s.E.$X}.C q 9 N [.$XE.s.h.z.z.z.z.x.c.7.' | q.Y 5   3X3X3X3X",
"3X3X  4 J m.b.z.z.z.z.z.z.h.s.W.&X'.w   * B |.%XE.s.h.z.z.z.z.z.z.h.s.W.&X'.w   * B |.%XE.s.h.z.z.z.z.x.c.5.' | q.Y 5   3X3X3X3X",
"3X3X  4 J m.b.z.z.z.z.z.z.h.s.Q.*X`.0 * K. X,X@XT.s.h.z.z.z.z.z.z.h.s.Q.*X`.0 * K. X,X@XT.s.h.z.z.z.z.x.c.5.' | q.Y 5   3X3X3X3X",
"3X3X  4 J m.b.z.z.z.z.z.z.h.f.H._./.M V  X2X;X).F.f.h.z.z.z.z.z.z.h.f.H._./.M V  X2X;X).F.f.h.z.z.z.z.x.c.5.' | q.Y 5   3X3X3X3X",
"3X3X  4 J m.b.z.z.z.z.z.z.l.l.A.F.!.(..X<X;X^.D.Z.l.l.z.z.z.z.z.z.l.l.A.F.!.(..X<X;X^.D.Z.l.l.z.z.z.z.x.c.5.' | q.Y 5   3X3X3X3X",
"3X3X  4 J m.b.z.z.z.z.z.z.z.z.d.i.F._.=X#X).D.i.f.z.z.z.z.z.z.z.z.z.z.d.i.F._.=X#X).D.i.f.z.z.z.z.z.z.x.c.5.' | q.Y 5   3X3X3X3X",
"3X3X  4 J m.b.z.z.z.z.z.z.z.z.k.d.A.J.W.R.F.Z.f.k.z.z.z.z.z.z.z.z.z.z.k.d.A.J.W.R.F.Z.f.k.z.z.z.z.z.z.x.c.5.' | q.Y 5   3X3X3X3X",
"3X3X  4 J m.b.z.z.z.z.z.z.z.z.z.z.l.f.s.s.f.l.z.z.z.z.z.z.z.z.z.z.z.z.z.z.l.f.s.s.f.l.z.z.z.z.z.z.z.z.x.c.5.' | q.Y 5   3X3X3X3X",
"3X3X  4 J m.b.z.z.z.z.z.z.z.z.z.z.l.h.f.f.h.l.z.z.z.z.z.z.z.z.z.z.z.z.z.z.l.h.f.f.h.l.z.z.z.z.z.z.z.z.x.c.5.' | q.Y 5   3X3X3X3X",
"3X3X  4 J m.b.z.z.z.z.z.z.z.z.z.z.z.z.z.z.z.z.z.z.x.v.b.b.b.b.v.x.z.z.z.z.z.z.z.z.z.z.z.z.z.z.z.z.z.z.x.c.5.' | q.Y 5   3X3X3X3X",
"3X3X  4 J m.b.z.z.z.z.z.z.z.z.z.z.z.z.z.z.z.z.z.z.c.n.m.m.m.m.n.c.z.z.z.z.z.z.z.z.z.z.z.z.z.z.z.z.z.z.x.c.5.' | q.Y 5   3X3X3X3X",
"3X3X  4 J m.b.z.z.z.z.z.z.z.z.z.z.z.z.z.z.z.z.x.c.6. .H U U H  .6.c.x.z.z.z.z.z.z.z.z.z.z.z.z.z.z.z.z.x.c.5.' | q.Y 5   3X3X3X3X",
"3X3X  4 J m.b.z.z.z.z.z.z.z.z.z.z.z.z.z.z.z.z.v.n...e : 2 2 : e ..n.v.z.z.z.z.z.z.z.z.z.z.z.z.z.z.z.z.x.c.5.' | q.Y 5   3X3X3X3X",
"3X3X  4 J m.b.z.z.z.z.z.z.z.z.z.z.z.z.z.z.z.z.v.n.o.r + . . + r o.n.v.z.z.z.z.z.z.z.z.z.z.z.z.z.z.z.z.x.c.7._ } q.Y 5   3X3X3X3X",
"3X3X  4 J m.b.z.z.z.z.z.z.z.z.z.z.z.z.z.z.z.z.x.c.9.@.p O O p @.9.c.x.z.z.z.z.z.z.z.z.z.z.z.z.z.z.z.z.c.v.7._ } q.Y 5   3X3X3X3X",
"3X3X  4 Y N.n.z.z.z.z.z.z.z.z.z.z.z.z.z.z.z.z.z.z.n.N.@.r r @.N.n.z.z.z.z.z.z.z.z.z.z.z.z.z.z.z.z.z.x.j.e.2.$.;.g.R 5   3X3X3X3X",
"3X3X  4 R B.m.z.z.z.z.z.z.z.z.z.z.z.z.z.z.z.z.z.z.c.n.9.o.o.9.n.c.z.z.z.z.z.z.z.z.z.z.z.z.z.z.z.z.x.v.e.*.$.2.p.M.R 4   3X3X3X3X",
"3X3X  , h @.e.n.c.z.z.z.z.z.z.z.z.z.z.z.z.z.z.z.z.z.z.c.n.n.c.z.z.z.z.z.z.z.z.z.z.z.z.z.z.z.z.z.x.k.e.<.I ] q.y.#.h ,   3X3X3X3X",
"3X3X3X3X; t @.N.n.z.z.z.z.z.z.z.z.z.z.z.z.z.z.z.z.z.z.x.v.v.x.z.z.z.z.z.z.z.z.z.z.z.z.z.z.z.z.x.v.e.*./ D | p.#.y ; 3X3X3X3X3X3X",
"3X3X3X3X  - h #.9.c.c.z.z.z.z.z.z.z.z.z.z.z.z.z.z.z.z.z.z.z.z.z.z.z.z.z.z.z.z.z.z.z.z.z.z.z.x.k.e.1.( G ( { ~ k ;   3X3X3X3X3X3X",
"3X3X3X3X3X3X; y o.n.b.x.z.z.z.z.z.z.z.z.z.z.z.z.z.z.z.z.z.z.z.z.z.z.z.z.z.z.z.z.z.z.z.z.z.x.v.e.*./ F _ 3.W r ; 3X3X3X3X3X3X3X3X",
"3X3X3X3X3X3X  > m v.t.0.j.x.z.z.z.z.z.z.z.z.z.z.z.z.z.z.z.z.z.z.z.z.z.z.z.z.z.z.z.z.z.x.c.k.e.1.( Z Z O.t.J >   3X3X3X3X3X3X3X3X",
"3X3X3X3X3X3X  > H p.-.&.q.v.x.z.z.z.z.z.z.z.z.z.z.z.z.z.z.z.z.z.z.z.z.z.z.z.z.z.z.z.x.c.v.e.*.( G A A O.t.H >   3X3X3X3X3X3X3X3X",
"3X3X3X3X3X3X; u +.q.[ / <.e.k.c.x.x.x.x.x.x.x.x.x.x.x.x.x.x.x.x.x.x.x.x.x.x.x.x.c.j.0.7.7.1.( Z S S A | q.+.y ; 3X3X3X3X3X3X3X3X",
"3X3X3X3X  - h %.r.9.] D / *.e.v.c.c.c.c.c.c.c.c.c.c.c.c.c.c.c.c.c.c.c.c.c.c.c.c.v.e.*.] ] ) K S D S A } 8.w.#.h -   3X3X3X3X3X3X",
"3X3X3X3X; y @.m.p.1.) A Z ( 1.8.7.7.7.7.7.7.7.7.7.7.7.7.7.7.7.7.7.7.7.7.7.7.7.7.8.1.( Z A S D D D S A ] 7.m.B.@.t ; 3X3X3X3X3X3X",
"3X3X  , h @.r.u.=.( K S A K ) ] ] ] ] ] ] ] ] ] ] ] ] ] ] ] ] ] ] ] ] ] ] ] ] ] ] ) K A S D D D D S A ] 8.n.m.e.@.h ,   3X3X3X3X",
"3X3X  5 W S.B.0.} D F K K K F F F F F F F F F F F F F F F F F F F F F F F F F F F F K K K K K K K G F ' 2.u.z.N.C.W 5   3X3X3X3X",
"3X3X  6 Q S.V.e.O.K K P P L L K K K K K K K K K K K K K K K K K K K K K K K K K K L L P P P P P P L L I ] :.p.V.S.Q 6   3X3X3X3X",
"3X3X  % d E R n z a s s s s s s s s s s s s s s s s s s s s s s s s s s s s s s s s s s s s s s s s s a a l b R E d %   3X3X3X3X",
"3X3X  o % 6 5 1 - # $ $ $ $ $ $ $ $ $ $ $ $ $ $ $ $ $ $ $ $ $ $ $ $ $ $ $ $ $ $ $ $ $ $ $ $ $ $ $ $ $ # # = 1 5 6 % o   3X3X3X3X",
"3X3X                                                                                                                    3X3X3X3X"
};
