/* XPM */
static char *result[] = {
/* columns rows colors chars-per-pixel */
"64 64 60 1 ",
"  c #000000",
". c #080404",
"X c #160B0B",
"o c #1D0E0E",
"O c #1E1010",
"+ c gray12",
"@ c #241313",
"# c #291515",
"$ c #361B1B",
"% c #3E2121",
"& c #333434",
"* c #363838",
"= c #462525",
"- c #4A2626",
"; c #4C2828",
": c #5F2F2F",
"> c #5D3131",
", c #602F2F",
"< c #643333",
"1 c #6A3535",
"2 c #6D3939",
"3 c #773C3C",
"4 c #7B3C3C",
"5 c #7F4242",
"6 c #656262",
"7 c #6B6D6D",
"8 c #803F3F",
"9 c #834343",
"0 c #8B4646",
"q c #8E4949",
"w c #934B4B",
"e c #9A4E4E",
"r c #9C5050",
"t c #A45555",
"y c #AA5656",
"u c #AC5A5A",
"i c #B15D5D",
"p c #B16363",
"a c #BB7676",
"s c #BD7979",
"d c #888888",
"f c gray74",
"g c #C28484",
"h c #C09292",
"j c #D1A3A3",
"k c #C1B4B4",
"l c #DBB8B8",
"z c #E0BDBD",
"x c #C1C4C4",
"c c #CFD0D0",
"v c #D3D5D5",
"b c #D4D9D9",
"n c #EDDBDB",
"m c #F1DDDD",
"M c #F2E3E3",
"N c #F6E9E9",
"B c #F2F4F4",
"V c #F7FAFA",
"C c #FFFEFE",
"Z c None",
/* pixels */
"ZZZZZZZZZZZZZZZZZZZZZZZZZZZZZZZZZZZZZZZZZZZZZZZZZZZZZZZZZZZZZZZZ",
"ZZZZZZZZZZZZZZZZZZZZZZZZZZZZZZZZZZZZZZZZZZZZZZZZZZZZZZZZZZZZZZZZ",
"ZZZZZZZZZZZZZZZZZZZZZZZZZZZZZZZZZZZZZZZZZZZZZZZZZZZZZZZZZZZZZZZZ",
"ZZZZZZZZZZZZZZZZZZZZZZZZZZZZZZZZZZZZZZZZZZZZZZZZZZZZZZZZZZZZZZZZ",
"ZZZZZZZZZZZZZZZZZZZZZZZZZZZZZZZZZZZZZZZZZZZZZZZZZZZZZZZZZZZZZZZZ",
"ZZZZZZZZZZZZZZZZZZZZZZZZZZZZZZZZZZZZZZZZZZZZZZZZZZZZZZZZZZZZZZZZ",
"ZZZZZZZZZZZZZZZZZZZZZZZZZZZZZZZZZZZZZZZZZZZZZZZZZZZZZZZZZZZZZZZZ",
"ZZZZZZZZZZZZZZZZZZZZZZZZZZZZZZZZZZZZZZZZZZZZZZZZZZZZZZZZZZZZZZZZ",
"ZZZZZZZZZZZZZZZZZZZZZZZZZZZZZZZZZZZZZZZZZZZZZZZZZZZZZZZZZZZZZZZZ",
"ZZZZZZZZZZZZZZZZZZZZZZZZZZZZZZZZZZZZZZZZZZZZZZZZZZZZZZZZZZZZZZZZ",
"ZZZZZZZZZZZZZZZZZZZZZZZZZZZZ  ..ZZZZZZZZZZ    ZZZZZZZZZZZZZZZZZZ",
"ZZZZZZZZZZZZZZZZZZZZZZZZZZZZ@###ZZZZZZZZZZ@###ZZZZZZZZZZZZZZZZZZ",
"ZZZZZZZZZZZZZZZZZZZZZZZZZZ @<q9<@.ZZZZZZ @<9q2@ ZZZZZZZZZZZZZZZZ",
"ZZZZZZZZZZZZZZZZZZZZZZZZZZ@;wue2@ ZZZZZZO;wuw<@ ZZZZZZZZZZZZZZZZ",
"ZZZZZZZZZZZZZZZZZZZZZZ   O2wyq;@ZZZZZZ O<wuw;@ZZZZZZZZZZZZZZZZZZ",
"ZZZZZZZZZZZZZZZZZZZZZZ@#@%2q0>o ZZZZZZ@;wuw<+ ZZZZZZZZZZZZZZZZZZ",
"ZZZZZZZZZZZZZZZZZZ   @<002%@@O.      @1quq;@ZZZZZZZZZZZZZZZZZZZZ",
"ZZZZZZZZZZZZZZZZZZ@#@-qppq=O@@#####@@-quq>o ZZZZZZZZZZZZZZZZZZZZ",
"ZZZZZZZZZZZZZZ   @<99qtiitq5599999995quq;X    ZZZZZZZZZZZZZZZZZZ",
"ZZZZZZZZZZZZZZ@@#;qppuuuuuuiiiuppuiuipuq-@###@ZZZZZZZZZZZZZZZZZZ",
"ZZZZZZZZZZZZ @<99qtiuuuuuuuiuuuuuiuiuiutq59991@   ZZZZZZZZZZZZZZ",
"ZZZZZZZZZZZZ@-wiiiuuuuuuuuuuuuuuuuuuuuuuuuuppq=@#@ZZZZZZZZZZZZZZ",
"ZZZZZZZZZZ O<qtiuuuuuuuuuuuuuuuuuuuuuuuuuuipuyq901O.ZZZZZZZZZZZZ",
"ZZZZZZZZZZ@;quiuuuuuuuuuuuuuuuuuuuuuuuuuuuuuuutyy9-OZZZZZZZZZZZZ",
"ZZZZZZZZ @<qtiuuuuuuuuuuuuuuuuuuuuuuuuuuuuuuutw0qq9<@ ZZZZZZZZZZ",
"ZZZZZZZZ@=quuyuuuuuuuuuuuuuuuuyyyuuuuuuuuuuuutw99qr0=@ZZZZZZZZZZ",
"ZZZZZZ @<wtyyyuyuuuuuuuuuuuuuuuyyyuuuuuuuuuuuute090q0<@ ZZZZZZZZ",
"ZZZZZZ@-0psggapyuuuuuuyuuuuyypaggapyyuuyuuuuuuut044qrq-OZZZZZZZZ",
"ZZZZ @<0talnnlatuuuuuuuuuuuytalnnlatyuuyuuuuuuut0889000<@ ZZZZZZ",
"ZZZZ@=wpajMCCMjapuuuuuuyuuupajMCCMjapuuuuuuuuuutw0889qt0# ZZZZZZ",
"ZZ @<qtszMVCCCMlauuuuuuuuuyalMVCCVMlsyyuuuuuuuuyye085qy9#.ZZZZZZ",
"ZZ #9iygnCCCCCCngtyuuuuuutygnCCCCCCngyyuuuuuuuuuutw09qt9# ZZZZZZ",
"ZZ #9iygnCCCCCCngyuuuuuuuyygnCCCCCCngyyuuuuuuuuuutrr00t9# ZZZZZZ",
"ZZ #9iygnBvffcBngyyuuyuuuyygnBvffcBngyyuuuuuuuuuuupr0qt5# ZZZZZZ",
"ZZ #9iygnv7*&7vngyyuuuuuuuygmv7*&7cmgyyuuuuuuuuuuuutq0y9# ZZZZZZ",
"ZZ #8iigmx* +7vmgyyuyuuuuyygmx* +7vngyyuupruuuuuuuprqqt5# ZZZZZZ",
"ZZ #9uugmx*#dvVngyyuuuuuuuygMx&+dvVngyuuuuuuuuuuuuutqqy5@   ZZZZ",
"ZZ #9uuszk67bCNlayuuuuuuuyuszk67vCNlauyuuuuuuuuuuuur00tq;O. ZZZZ",
"ZZ #9uupshfbVNjapuyuuuuuuuupahkvVNjapuuuuuuuuuuuuuut00tyw>O ZZZZ",
"ZZ #9iuuyalmmlatyuuuuuuuuuuyyslMmlaytuuuuuuuuuuuuuut00etuq# ZZZZ",
"ZZ #9iuuypsggapyuuuuuuuuuuuutpshgapyyuuuuuuuuuuuuuut089eu9# ZZZZ",
"ZZ #9uuuuyuyyuuuuuuuuuuuuuuuuuyyyyuuuuuuuuuupruuuuutw08qy5# ZZZZ",
"ZZ #9iiuuuyyyyuuuuuuuuuuuuuuuuyyyuuuuuuuuuuuuuuuuuuute00t9#.ZZZZ",
"ZZ #9iuuuuuuuuuuuuuupuuuuuuuuuuuuuuuuuyuuuuuuuuuuuuuut00t5#.ZZZZ",
"ZZ #9iiuuuuuuuuuuuuuuupuuuuuuuuuuuuuuuuuuuuuuuuuuuuupt00y9# ZZZZ",
"ZZ #5uuuuuuuuuuuutq5599qruuuuuuuuuuuuuuuuuuuuuuuuuuuut0qt9# ZZZZ",
"ZZ #9iiuuuuuuuuupq=@#@@=qpuuuuuuuuuuuuuyuuuuuuuuuuuuurqqt9# ZZZZ",
"ZZ #9iuuuuuuuuuuuq;X  X=quuuuuuuuuuuuuuuuuuuuuuuuuuuur0qy5# ZZZZ",
"ZZ #9puuuuuuuuuuutq>XX>qtuuuuuuuuuuuuuuuuuuuuuuuuuuuut00t9# ZZZZ",
"ZZ @1qtuuuuuuuuuuupq==qpiuuuuuuuuuuuuuuuuuuuuuuuuuuutrweu9# ZZZZ",
"ZZZZ@-qiuuuuuuuuuuptqqtuuuuuuuuuuuuuuuuuuuuuuuuuuuutqqryu9# ZZZZ",
"ZZZZ @9iiuuuuuuuuuuuuiuuuuuuuuuyuuuuuuuuuuuuuuuuuute00tyw<# ZZZZ",
"ZZZZ @9piuuuuuuuuuuuuuuuuuuuuuuuuuuuuuuuuuuuuuuiutw080tq;@ZZZZZZ",
"ZZZZ @<wtuuuuuuuuuuuuuuuuuuuuuuuuuuuuuuuuuuuuuuytr088qt9@ ZZZZZZ",
"ZZZZZZ@;quuuuuuuuuuuuuuuuuuuuuuuuuuuuuuuuuuuuuyye0988qy9@   ZZZZ",
"ZZZZZZ @9ppuuuuuuuuuuuuuuuuuuuuuuuuyttttttrtttte988880e0=O. ZZZZ",
"ZZZZZZ #9ipiiuuuuuuuuuuuuuuuuuuuuuutwq0q00qq00w088888900q>O ZZZZ",
"ZZZZZZ @<0999qtiiuuiuuuuuiuuuuuyuytr041::148888880888880rq=@ZZZZ",
"ZZZZZZZZ@##@@-qppuuuuuuuuuuuuiyiutwq01$oo$198888888888800q0<@ ZZ",
"ZZZZZZZZ     @199990rtyttttttttytrq41-o  o-188088008808890t5# ZZ",
"ZZZZZZZZZZZZZZ@##@#=4wqqw0qqqqqqqq02$XZZZZo$10090088089080w2@ ZZ",
"ZZZZZZZZZZZZZZ     X=,,<,,,,,<,,,,,-X ZZZZ o-,,<,,<,,<,,,,,=X ZZ",
"ZZZZZZZZZZZZZZZZZZ .XoooooooooooooooZZZZZZZZoooooo@ooooo@ooX. ZZ",
"ZZZZZZZZZZZZZZZZZZ   .     .     .  ZZZZZZZZ .     .     .    ZZ"
};
