/* XPM */
static char *result[] = {
/* columns rows colors chars-per-pixel */
"64 64 233 2 ",
"   c black",
".  c #010101",
"X  c #020101",
"o  c #080404",
"O  c #0A0505",
"+  c #160C0C",
"@  c #170C0C",
"#  c #180C0C",
"$  c #190D0D",
"%  c #1B0D0D",
"&  c #1C0F0F",
"*  c #1E0F0F",
"=  c #1F0F0F",
"-  c #1E1010",
";  c #1F1010",
":  c gray12",
">  c #211111",
",  c #221111",
"<  c #221212",
"1  c #231212",
"2  c #241313",
"3  c #251313",
"4  c #251414",
"5  c #261414",
"6  c #271414",
"7  c #271515",
"8  c #281515",
"9  c #291515",
"0  c #291616",
"q  c #2A1616",
"w  c #2B1616",
"e  c #313131",
"r  c #333535",
"t  c #353535",
"y  c #363838",
"u  c #412121",
"i  c #462525",
"p  c #472525",
"a  c #482525",
"s  c #482626",
"d  c #492626",
"f  c #4A2727",
"g  c #4B2727",
"h  c #4C2525",
"j  c #4C2828",
"k  c #5C3030",
"l  c #5D3131",
"z  c #602F2F",
"x  c #613030",
"c  c #623030",
"v  c #603232",
"b  c #613333",
"n  c #643535",
"m  c #653535",
"M  c #663535",
"N  c #663636",
"B  c #673636",
"V  c #683636",
"C  c #693737",
"Z  c #6B3636",
"A  c #753B3B",
"S  c #7C4040",
"D  c #656262",
"F  c #696A6A",
"G  c #6B6C6C",
"H  c #6B6D6D",
"J  c #6E6F6F",
"K  c #803F3F",
"L  c #813F3F",
"P  c #814040",
"I  c #824040",
"U  c #834040",
"Y  c #834141",
"T  c #804343",
"R  c #814343",
"E  c #844141",
"W  c #854141",
"Q  c #854242",
"!  c #874343",
"~  c #814444",
"^  c #824444",
"/  c #834545",
"(  c #844545",
")  c #854545",
"_  c #854646",
"`  c #864646",
"'  c #874646",
"]  c #874747",
"[  c #884444",
"{  c #894444",
"}  c #8A4545",
"|  c #8B4545",
" . c #8B4646",
".. c #8B4747",
"X. c #8C4646",
"o. c #8D4646",
"O. c #8C4747",
"+. c #8D4747",
"@. c #8E4747",
"#. c #8F4747",
"$. c #8A4848",
"%. c #8B4848",
"&. c #8B4949",
"*. c #8D4848",
"=. c #8C4949",
"-. c #8D4949",
";. c #8F4848",
":. c #8E4A4A",
">. c #8F4B4B",
",. c #914949",
"<. c #924949",
"1. c #904B4B",
"2. c #934B4B",
"3. c #944B4B",
"4. c #904C4C",
"5. c #914C4C",
"6. c #924C4C",
"7. c #924D4D",
"8. c #954C4C",
"9. c #944D4D",
"0. c #974D4D",
"q. c #994E4E",
"w. c #9A4F4F",
"e. c #9C5050",
"r. c #9D5050",
"t. c #9D5151",
"y. c #A25050",
"u. c #A05252",
"i. c #A15353",
"p. c #A35353",
"a. c #A15454",
"s. c #A25454",
"d. c #A35454",
"f. c #A35555",
"g. c #A45555",
"h. c #A55555",
"j. c #A45656",
"k. c #A55656",
"l. c #A65656",
"z. c #A75656",
"x. c #A65757",
"c. c #A75757",
"v. c #A95454",
"b. c #A85757",
"n. c #A95757",
"m. c #AA5656",
"M. c #AA5757",
"N. c #AB5757",
"B. c #AD5757",
"V. c #A85858",
"C. c #A95858",
"Z. c #AA5858",
"A. c #AB5858",
"S. c #AA5959",
"D. c #AB5959",
"F. c #AD5858",
"G. c #AC5959",
"H. c #AE5858",
"J. c #AE5959",
"K. c #AC5A5A",
"L. c #AD5A5A",
"P. c #AD5B5B",
"I. c #AE5A5A",
"U. c #AF5A5A",
"Y. c #AE5B5B",
"T. c #AF5B5B",
"R. c #AF5C5C",
"E. c #B15B5B",
"W. c #B25B5B",
"Q. c #B05C5C",
"!. c #B15D5D",
"~. c #B25D5D",
"^. c #B35D5D",
"/. c #B35E5E",
"(. c #B45E5E",
"). c #B06262",
"_. c #B16363",
"`. c #B66565",
"'. c #BA7575",
"]. c #BB7777",
"[. c #BD7777",
"{. c #BB7878",
"}. c #BE7979",
"|. c #BE7A7A",
" X c #BE7B7B",
".X c #888888",
"XX c #BCBCBC",
"oX c gray",
"OX c #C08282",
"+X c #C08383",
"@X c #C18383",
"#X c #C18484",
"$X c #C28484",
"%X c #C38585",
"&X c #C48686",
"*X c #C48787",
"=X c #C09292",
"-X c #D0A2A2",
";X c #D2A4A4",
":X c #C0B3B3",
">X c #C1B4B4",
",X c #DBB8B8",
"<X c #DDB9B9",
"1X c #E0BDBD",
"2X c #C0C3C3",
"3X c #C1C4C4",
"4X c #CFD0D0",
"5X c #D1D3D3",
"6X c #D2D3D3",
"7X c #D2D4D4",
"8X c #D3D6D6",
"9X c #D4D6D6",
"0X c #D4D9D9",
"qX c #ECD9D9",
"wX c #EDD9D9",
"eX c #ECDADA",
"rX c #EDDCDC",
"tX c #EEDCDC",
"yX c #EFDEDE",
"uX c #F0DCDC",
"iX c #F1DEDE",
"pX c #F2DFDF",
"aX c #F3E0E0",
"sX c #F2E1E1",
"dX c #F2E4E4",
"fX c #F6E9E9",
"gX c #F1F3F3",
"hX c #F2F4F4",
"jX c #F6F9F9",
"kX c #F7FBFB",
"lX c #FCF9F9",
"zX c white",
"xX c None",
/* pixels */
"xXxXxXxXxXxXxXxXxXxXxXxXxXxXxXxXxXxXxXxXxXxXxXxXxXxXxXxXxXxXxXxXxXxXxXxXxXxXxXxXxXxXxXxXxXxXxXxXxXxXxXxXxXxXxXxXxXxXxXxXxXxXxXxX",
"xXxXxXxXxXxXxXxXxXxXxXxXxXxXxXxXxXxXxXxXxXxXxXxXxXxXxXxXxXxXxXxXxXxXxXxXxXxXxXxXxXxXxXxXxXxXxXxXxXxXxXxXxXxXxXxXxXxXxXxXxXxXxXxX",
"xXxXxXxXxXxXxXxXxXxXxXxXxXxXxXxXxXxXxXxXxXxXxXxXxXxXxXxXxXxXxXxXxXxXxXxXxXxXxXxXxXxXxXxXxXxXxXxXxXxXxXxXxXxXxXxXxXxXxXxXxXxXxXxX",
"xXxXxXxXxXxXxXxXxXxXxXxXxXxXxXxXxXxXxXxXxXxXxXxXxXxXxXxXxXxXxXxXxXxXxXxXxXxXxXxXxXxXxXxXxXxXxXxXxXxXxXxXxXxXxXxXxXxXxXxXxXxXxXxX",
"xXxXxXxXxXxXxXxXxXxXxXxXxXxXxXxXxXxXxXxXxXxXxXxXxXxXxXxXxXxXxXxX        xXxXxXxXxXxXxXxXxXxXxXxXxXxXxXxXxXxXxXxXxXxXxXxXxXxXxXxX",
"xXxXxXxXxXxXxXxXxXxXxXxXxXxXxXxXxXxXxXxXxXxXxXxXxXxXxXxXxXxXxXxX8 w q 3 xXxXxXxXxXxXxXxXxXxXxXxXxXxXxXxXxXxXxXxXxXxXxXxXxXxXxXxX",
"xXxXxXxXxXxXxXxXxXxXxXxXxXxXxXxXxXxX        xXxXxXxXxXxXxXxX  5 C ] _ m <   xXxXxXxXxXxXxXxXxXxXxXxXxXxXxXxXxXxXxXxXxXxXxXxXxXxX",
"xXxXxXxXxXxXxXxXxXxXxXxXxXxXxXxXxXxX8 w q 3 xXxXxXxXxXxXxXxX  3 V 9.K.5.f > xXxXxXxXxXxXxXxXxXxXxXxXxXxXxXxXxXxXxXxXxXxXxXxXxXxX",
"xXxXxXxXxXxXxXxXxXxXxXxXxXxXxXxX  5 C ] _ m <   xXxXxXxXxXxXxXxX2 j 5.D.5.n >   xXxXxXxXxXxXxXxXxXxXxXxXxXxXxXxXxXxXxXxXxXxXxXxX",
"xXxXxXxXxXxXxXxXxXxXxXxXxXxXxXxX  3 V 9.K.5.f > xXxXxXxXxXxXxXxX  < M 7.K.5.f > xXxXxXxXxXxXxXxXxXxXxXxXxXxXxXxXxXxXxXxXxXxXxXxX",
"xXxXxXxXxXxXxXxXxXxXxXxXxXxXxXxXxXxX2 j 5.D.5.n >   xXxXxXxXxXxXxXxX< g 6.D.5.n >   xXxXxXxXxXxXxXxXxXxXxXxXxXxXxXxXxXxXxXxXxXxX",
"xXxXxXxXxXxXxXxXxXxXxXxXxXxXxXxXxXxX  < M 7.K.5.f > xXxXxXxXxXxXxXxX  $ l 5.S.>.d > xXxXxXxXxXxXxXxXxXxXxXxXxXxXxXxXxXxXxXxXxXxX",
"xXxXxXxXxXxXxXxXxXxXxXxXxXxXxXxXxXxXxXxX< g 6.D.5.M <                 X # s >.V.1.M <       xXxXxXxXxXxXxXxXxXxXxXxXxXxXxXxXxXxX",
"xXxXxXxXxXxXxXxXxXxXxXxXxXxXxXxXxXxXxXxX  $ l 5.S.1.d 4 6 9 9 9 9 9 0 6 1 i &.~.(.>.d 5 6 3 xXxXxXxXxXxXxXxXxXxXxXxXxXxXxXxXxXxX",
"xXxXxXxXxXxXxXxXxXxXxXxXxXxXxXxXxXxX      X # s >.c.:.T T R R R R ~ ^ ~ T $.a.Y.Q.f.=.~ ^ B 1       xXxXxXxXxXxXxXxXxXxXxXxXxXxX",
"xXxXxXxXxXxXxXxXxXxXxXxXxXxXxXxXxXxX3 0 q 6 1 i &.Q.!.Q.Q.Q.Q.Q.Q.Q.Q.Q.Q.R.P.K.K.P.R.~./.>.d 5 6 3 xXxXxXxXxXxXxXxXxXxXxXxXxXxX",
"xXxXxXxXxXxXxXxXxXxXxXxXxXxX      1 B / ( ~ T $.a.Y.T.T.T.T.T.T.T.T.T.T.T.Y.L.K.K.L.Y.R.Q.f.=.~ ^ M <   xXxXxXxXxXxXxXxXxXxXxXxX",
"xXxXxXxXxXxXxXxXxXxXxXxXxXxX4 8 5 d >./.~.Q.Q.R.P.K.K.K.K.K.K.K.K.K.K.K.K.K.K.K.K.K.K.K.K.P.R.~./.:.s > xXxXxXxXxXxXxXxXxXxXxXxX",
"xXxXxXxXxXxXxXxXxXxXxXxX  < N / ^ =.j.Q.R.T.T.Y.L.K.K.K.K.K.K.K.K.K.K.K.K.K.K.K.K.K.K.K.K.L.Y.R.Q.k.:.n >   xXxXxXxXxXxXxXxXxXxX",
"xXxXxXxXxXxXxXxXxXxXxXxX< p ` n.z.c.S.K.K.K.K.K.K.K.K.K.K.K.K.K.K.K.K.K.K.K.K.K.K.K.K.K.K.K.K.K.K.R.~.:.s > xXxXxXxXxXxXxXxXxXxX",
"xXxXxXxXxXxXxXxXxXxX  < N ' +.@.+.8.h.L.K.K.K.K.K.K.K.K.K.K.K.K.K.K.K.K.K.K.K.K.K.K.K.K.K.K.K.K.K.P.R.k.:.n >   xXxXxXxXxXxXxXxX",
"xXxXxXxXxXxXxXxXxXxX< p ' u.X.I ! 2.g.L.K.K.K.K.K.K.K.K.K.G.A.N.N.A.G.K.K.K.K.K.K.K.K.K.K.K.K.K.K.G.A.J.E.*.a > xXxXxXxXxXxXxXxX",
"xXxXxXxXxXxXxXxX  < N ' *.| E { q.h.S.K.K.K.K.K.K.K.K.K.K.G.N.m.m.N.G.K.K.K.K.K.K.K.K.K.K.K.K.K.K.D.M.N.F.p.-.m >   xXxXxXxXxXxX",
"xXxXxXxXxXxXxXxX< i ' u.X.K K X.s.Y.P.K.K.K.K.K.K.K.K.D.N.).{.@X@X{.).N.D.K.K.K.K.K.K.K.K.K.K.D.N.).{.@X@X}.`.O.a > xXxXxXxXxXxX",
"xXxXxXxXxXxX  4 N ` +.X.Q K K X.s.P.L.K.K.K.K.K.K.K.K.N.v.'.,XrXrX,X'.v.N.K.K.K.K.K.K.K.K.K.K.N.v.'.,XrXrX<X[.y.O.m >   xXxXxXxX",
"xXxXxXxXxXxX  0 ( n.;.K K E { 3.g.L.K.K.K.K.K.K.K.G.G.).'.-XdXzXzXdX-X'.).G.G.K.K.K.K.K.K.G.G.).'.-XdXzXzXdX-X[.`.-.a < xXxXxXxX",
"xXxXxXxXxXxX  0 / b.;.K K { w.k.S.K.K.K.K.K.K.K.K.A.N.{.,XdXlXzXzXlXdX,X{.N.A.K.K.K.K.K.K.A.N.{.,XdXlXzXzXlXdX<X}.p.*.M 3   xXxX",
"xXxXxXxXxXxX  0 ^ l.@.Y [ 3.k.Y.L.K.K.K.K.K.K.K.K.A.m.+XeXzXzXzXzXzXzXeX+Xm.A.K.K.K.K.K.K.A.m.+XeXzXzXzXzXzXzXeX+XH.W./ 9   xXxX",
"xXxXxXxXxXxX  0 ^ k.@.{ q.k.D.L.K.K.K.K.K.K.K.K.K.A.m.OXqXzXzXzXzXzXzXqXOXm.A.K.K.K.K.K.K.A.m.OXqXzXzXzXzXzXzXqXOXF.E.^ 9   xXxX",
"xXxXxXxXxXxX  0 ^ h.@. .s.Y.P.K.K.K.K.K.K.K.K.K.K.A.m.@XwXgX4XXXoX6XhXqX@Xm.A.K.K.K.K.K.K.A.m.@XwXgX4XXXoX6XhXqX@XB.U.R 9   xXxX",
"xXxXxXxXxXxX  0 ^ h.@. .s.P.L.K.K.K.K.K.K.K.K.K.K.A.m.%XuX5XF e t J 7XuX%Xm.A.K.K.K.K.K.K.A.m.%XuX5XF e t J 7XuX%XB.U.R 9   xXxX",
"xXxXxXxXxXxX  7 ~ h.@. .i.P.L.K.K.K.K.K.K.K.K.K.K.A.m.%XiX8XG :   y 3XpX&Xm.A.K.K.K.K.K.K.A.m.%XiX8XG :   y 3XpX&XB.U.R 9   xXxX",
"xXxXxXxX      6 ^ k.@. .i.P.L.K.K.K.K.K.K.K.K.K.K.A.m.#XtXjX9X.X: r 2XaX*Xm.A.K.K.K.K.K.K.A.m.#XtXjX9X.X: r 2XaX*XB.U.R 9   xXxX",
"xXxXxXxX  o & g >.h.+. .i.P.L.K.K.K.K.K.K.K.K.K.K.A.N.].,XfXzX9XH D :X1X|.N.A.K.K.K.K.K.K.A.N.].,XfXzX9XH D :X1X|.F.U.R 9   xXxX",
"xXxXxXxX  - v 4.x.d.X. .i.P.L.K.K.K.K.K.K.K.K.K.K.G.G.).'.;XfXkX0X>X=X]._.G.G.K.K.K.K.K.K.G.G.).'.;XfXkX0X>X=X]._.I.Q.R 9   xXxX",
"xXxXxXxX  q ( !.C.q.[  .i.P.L.K.K.K.K.K.K.K.K.K.K.K.K.N.v.'.,XyXsX1X].v.M.K.K.K.K.K.K.K.K.K.K.N.v.'.,XyXsX1X].v.M.T.Q.R 9   xXxX",
"xXxXxXxX  q / Z.0.[ I  .i.P.L.K.K.K.K.K.K.K.K.K.K.K.K.D.N.).].$X&X X_.M.D.K.K.K.K.K.K.K.K.K.K.D.N.).].$X&X X_.M.D.T.Q.R 9   xXxX",
"xXxXxXxX  0 ^ k.@.I [ 3.g.L.K.K.K.K.K.K.K.K.K.K.K.K.K.K.K.G.N.m.m.N.G.K.K.K.K.K.K.K.K.K.K.K.K.K.K.G.N.m.m.N.G.K.K.T.Q.R 9   xXxX",
"xXxXxXxX  0 ^ h.+.[ q.k.S.K.K.K.K.K.K.K.K.K.K.K.K.K.K.K.K.G.A.N.N.A.G.K.K.K.K.K.K.K.K.K.K.K.K.K.K.G.A.N.N.A.G.K.K.T.Q.R 9   xXxX",
"xXxXxXxX  0 ^ h.@. .s.Y.P.K.K.K.K.K.K.K.K.K.K.K.K.K.K.K.K.K.K.K.K.K.K.K.K.K.K.L.Y.T.T.T.T.Y.L.K.K.K.K.K.K.K.K.K.K.T.Q.R 9   xXxX",
"xXxXxXxX  0 ^ h.@. .s.P.L.K.K.K.K.K.K.K.K.K.K.K.K.K.K.K.K.K.K.K.K.K.K.K.K.K.K.P.R.Q.Q.Q.Q.R.P.K.K.K.K.K.K.K.K.K.K.T.Q.R 9   xXxX",
"xXxXxXxX  0 ^ h.@. .i.P.L.K.K.K.K.K.K.K.K.K.K.K.K.K.K.K.K.K.K.K.K.K.K.K.K.L.P.a.%.T ~ ~ T %.a.P.L.K.K.K.K.K.K.K.K.T.Q.R 9   xXxX",
"xXxXxXxX  0 ^ h.@. .i.P.L.K.K.K.K.K.K.K.K.K.K.K.K.K.K.K.K.K.K.K.K.K.K.K.K.Y.R.&.i 1 6 6 1 i &.R.Y.K.K.K.K.K.K.K.K.T.Q.R 9   xXxX",
"xXxXxXxX  0 ^ h.@. .i.P.L.K.K.K.K.K.K.K.K.K.K.K.K.K.K.K.K.K.K.K.K.K.K.K.K.Y.R.=.p @ . . @ p =.R.Y.K.K.K.K.K.K.K.K.R.~.^ 9   xXxX",
"xXxXxXxX  0 ^ h.@. .i.P.L.K.K.K.K.K.K.K.K.K.K.K.K.K.K.K.K.K.K.K.K.K.K.K.K.L.P.f.:.k + + k :.f.P.L.K.K.K.K.K.K.K.K.Q././ 9   xXxX",
"xXxXxXxX  0 ^ h.@. .i.P.L.K.K.K.K.K.K.K.K.K.K.K.K.K.K.K.K.K.K.K.K.K.K.K.K.K.K.R.~.:.p p :.~.R.K.K.K.K.K.K.K.K.L.P.f.>.B 3   xXxX",
"xXxXxXxX  0 ^ h.@. .i.P.L.K.K.K.K.K.K.K.K.K.K.K.K.K.K.K.K.K.K.K.K.K.K.K.K.K.K.P.R.f.=.=.f.R.P.K.K.K.K.K.K.K.K.Y.R.=.d 1 xXxXxXxX",
"xXxXxXxX  0 ^ h.@. .i.P.L.K.K.K.K.K.K.K.K.K.K.K.K.K.K.K.K.K.K.K.K.K.K.K.K.K.K.K.K.P.R.R.P.K.K.K.K.K.K.K.K.K.K.R.~.~ 5   xXxXxXxX",
"xXxXxXxX  0 ^ h.@. .i.P.L.K.K.K.K.K.K.K.K.K.K.K.K.K.K.K.K.K.K.K.K.K.K.K.K.K.K.K.K.L.Y.Y.L.K.K.K.K.K.K.K.K.K.K.Q./.^ 6   xXxXxXxX",
"xXxXxXxX  7 ~ h.@. .i.P.L.K.K.K.K.K.K.K.K.K.K.K.K.K.K.K.K.K.K.K.K.K.K.K.K.K.K.K.K.K.K.K.K.K.K.K.K.K.K.K.K.L.P.f.>.B 3   xXxXxXxX",
"xXxX      6 ^ k.@. .i.P.L.K.K.K.K.K.K.K.K.K.K.K.K.K.K.K.K.K.K.K.K.K.K.K.K.K.K.K.K.K.K.K.K.K.K.K.K.K.K.K.K.Y.R.=.d 1 xXxXxXxXxXxX",
"xXxX  o & g >.h.+. .s.Y.P.K.K.K.K.K.K.K.K.K.K.K.K.K.K.K.K.K.K.K.K.K.K.K.K.K.K.K.K.K.K.K.K.K.K.K.K.K.K.K.K.R.~.~ 5   xXxXxXxXxXxX",
"xXxX  - v 4.x.d.X. .s.Y.Y.L.K.K.K.K.K.K.K.K.K.K.K.K.K.K.K.K.K.K.K.K.K.K.K.K.K.K.K.K.K.K.K.K.K.K.K.K.K.K.K.Q./.^ 6   xXxXxXxXxXxX",
"xXxX  q ( !.C.q.{ { w.s.s.g.S.P.L.K.K.K.K.K.K.K.K.K.K.K.K.K.K.K.K.K.K.K.K.K.K.K.K.K.K.K.K.K.K.K.K.K.K.P.R.k.:.M 3   xXxXxXxXxXxX",
"xXxX  q / Z.0.{ E E } X.X.3.k.Y.P.L.K.K.K.K.K.K.K.K.K.K.K.K.K.K.K.K.K.K.K.K.K.K.K.K.K.K.K.K.K.K.K.K.K.R.~.:.s < xXxXxXxXxXxXxXxX",
"xXxX  7 ~ l.@.K L I P L K { w.s.s.g.S.P.L.L.L.L.L.K.K.K.K.K.K.K.K.K.K.K.K.K.K.K.K.K.K.K.K.K.K.L.Y.R.Q.k.:.n >   xXxXxXxXxXxXxXxX",
"xXxX  5 ~ z.#.L P I I P L E } X.X.3.k.Y.P.P.P.P.P.L.K.K.K.K.K.K.K.K.K.K.K.K.K.K.K.K.K.K.K.K.K.P.R.~./.:.s > xXxXxXxXxXxXxXxXxXxX",
"xXxX1 p ) r. .P I I I I I I P L K { w.d.s.s.s.s.s.g.S.P.L.L.L.L.L.L.L.L.L.L.L.L.L.L.L.L.L.Y.R.f.=.~ ^ M <   xXxXxXxXxXxXxXxXxXxX",
"  5 V ' ..} Q I I I I I I I I P L E } X.X.X.X.X. .3.k.Y.P.P.P.P.P.P.P.P.P.P.P.P.P.P.P.P.P.Q.^.>.d 5 6 3 xXxXxXxXxXxXxXxXxXxXxXxX",
"  q ` D.,.I U E E E E E E E E E E E U U U U U I I | e.h.g.g.g.g.g.g.g.g.g.g.g.g.g.g.g.g.h.t.&.M <       xXxXxXxXxXxXxXxXxXxXxXxX",
"  q ` G.<.Y E Q Q Q Q Q Q Q Q Q Q W W E E E E E E ! o.;.;.;.;.;.;.;.;.;.;.;.;.;.;.;.;.,.<.A u < xXxXxXxXxXxXxXxXxXxXxXxXxXxXxXxX",
"  ; b S Z z x x x x x x x x x x x x x x x x x x x x z z z z z z z z z z z z z z z z z x c h #   xXxXxXxXxXxXxXxXxXxXxXxXxXxXxXxX",
"  O ; 6 , * = = = = = = = = = = = = = = = = = = = = * * * * * * * * * * * * * * * * * * * % xXxXxXxXxXxXxXxXxXxXxXxXxXxXxXxXxXxX",
"                                                                                            xXxXxXxXxXxXxXxXxXxXxXxXxXxXxXxXxXxX"
};
