/* XPM */
static char *result[] = {
/* columns rows colors chars-per-pixel */
"64 64 60 1 ",
"  c #000000",
". c #080404",
"X c #160B0B",
"o c #1D0E0E",
"O c #1E1010",
"+ c gray12",
"@ c #241313",
"# c #291515",
"$ c #361B1B",
"% c #3E2121",
"& c #333434",
"* c #363838",
"= c #462525",
"- c #4A2626",
"; c #4C2828",
": c #5F2F2F",
"> c #5D3131",
", c #602F2F",
"< c #643333",
"1 c #6A3535",
"2 c #6D3939",
"3 c #773C3C",
"4 c #7B3C3C",
"5 c #7F4242",
"6 c #656262",
"7 c #6B6D6D",
"8 c #803F3F",
"9 c #834343",
"0 c #8B4646",
"q c #8E4949",
"w c #934B4B",
"e c #9A4E4E",
"r c #9C5050",
"t c #A45555",
"y c #AA5656",
"u c #AC5A5A",
"i c #B15D5D",
"p c #B16363",
"a c #BB7676",
"s c #BD7979",
"d c #888888",
"f c gray74",
"g c #C28484",
"h c #C09292",
"j c #D1A3A3",
"k c #C1B4B4",
"l c #DBB8B8",
"z c #E0BDBD",
"x c #C1C4C4",
"c c #CFD0D0",
"v c #D3D5D5",
"b c #D4D9D9",
"n c #EDDBDB",
"m c #F1DDDD",
"M c #F2E3E3",
"N c #F6E9E9",
"B c #F2F4F4",
"V c #F7FAFA",
"C c #FFFEFE",
"Z c None",
/* pixels */
"ZZZZZZZZZZZZZZZZZZZZZZZZZZZZZZZZZZZZZZZZZZZZZZZZZZZZZZZZZZZZZZZZ",
"ZZZZZZZZZZZZZZZZZZZZZZZZZZZZZZZZZZZZZZZZZZZZZZZZZZZZZZZZZZZZZZZZ",
"ZZZZZZZZZZZZZZZZZZZZZZZZZZZZZZZZZZZZZZZZZZZZZZZZZZZZZZZZZZZZZZZZ",
"ZZZZZZZZZZZZZZZZZZZZZZZZZZZZZZZZZZZZZZZZZZZZZZZZZZZZZZZZZZZZZZZZ",
"ZZZZZZZZZZZZZZZZZZZZZZZZZZZZZZZZZZZZZZZZZZZZZZZZZZZZZZZZZZZZZZZZ",
"ZZZZZZZZZZZZZZZZZZZZZZZZZZZZZZZZZZZZZZZZZZZZZZZZZZZZZZZZZZZZZZZZ",
"ZZZZZZZZZZZZZZZZZZZZZZZZZZZZZZZZZZZZZZZZZZZZZZZZZZZZZZZZZZZZZZZZ",
"ZZZZZZZZZZZZZZZZZZZZZZZZZZZZZZZZZZZZZZZZZZZZZZZZZZZZZZZZZZZZZZZZ",
"ZZZZZZZZZZZZZZZZZZZZZZZZZZZZZZZZZZZZZZZZZZZZZZZZZZZZZZZZZZZZZZZZ",
"ZZZZZZZZZZZZZZZZZZZZZZZZZZZZZZZZZZZZZZZZZZZZZZZZZZZZZZZZZZZZZZZZ",
"ZZZZZZZZZZZZZZZZZZ    ZZZZZZZZZZ    ZZZZZZZZZZZZZZZZZZZZZZZZZZZZ",
"ZZZZZZZZZZZZZZZZZZ###@ZZZZZZZZZZ###@ZZZZZZZZZZZZZZZZZZZZZZZZZZZZ",
"ZZZZZZZZZZZZZZZZ #1q9<@ ZZZZZZ @2091O ZZZZZZZZZZZZZZZZZZZZZZZZZZ",
"ZZZZZZZZZZZZZZZZ #1wpw-OZZZZZZ @1euq;@ZZZZZZZZZZZZZZZZZZZZZZZZZZ",
"ZZZZZZZZZZZZZZZZZZ@;quq1@ ZZZZZZ@-wpw2O   ZZZZZZZZZZZZZZZZZZZZZZ",
"ZZZZZZZZZZZZZZZZZZ @<wuw-@ZZZZZZ O>9q2%###ZZZZZZZZZZZZZZZZZZZZZZ",
"ZZZZZZZZZZZZZZZZZZZZ@-wuq1O      .O@@%2091@   ZZZZZZZZZZZZZZZZZZ",
"ZZZZZZZZZZZZZZZZZZZZ o>quq=#######@@@=qppq-@@@ZZZZZZZZZZZZZZZZZZ",
"ZZZZZZZZZZZZZZZZZZ    X-quq9599999955qtuitq992@   ZZZZZZZZZZZZZZ",
"ZZZZZZZZZZZZZZZZZZ@##@@=qiiuupuiiuuipuuuuuiipq-@#@ZZZZZZZZZZZZZZ",
"ZZZZZZZZZZZZZZ   @29095qtuuiiuuuuiuiuuuuuuuiutq991@ ZZZZZZZZZZZZ",
"ZZZZZZZZZZZZZZ@#@-qipupuuuuuuuuuuuuuuuuuuuuuuuuppq=@ZZZZZZZZZZZZ",
"ZZZZZZZZZZZZ @199qtiuiuuuuuuuuuuuuuuuuuuuuuuuuuuuuq<@ ZZZZZZZZZZ",
"ZZZZZZZZZZZZ@=9ytuuuuuuuuuuuuuuuuuuuuuuuuuuuuuuuuuiq=@ZZZZZZZZZZ",
"ZZZZZZZZZZ @<000qwtuuuuuuuuuuuuuuuuuuuuuuuuuuuuuuuuyq<@ ZZZZZZZZ",
"ZZZZZZZZZZ@=0t099wtuuuuuuuutuuyyuuuuuuuuuuuuuuuuuuyyi0=@ZZZZZZZZ",
"ZZZZZZZZ O<00080rtuuuuuuuuuuuuyytyuuuuuuuuuuuuuuuuyyutw<@ ZZZZZZ",
"ZZZZZZZZ@=0r0880tiuuuuuuuuuuypsggapyuuuuuuuuutuuypsggsp0=@ZZZZZZ",
"ZZZZZZ @19q09880tuuuuuuuuuuytalnnlatyuuuuuuuuuuyyszmnlst0<@ ZZZZ",
"ZZZZZZ #9uq4890wtuuuuuuuuuupajMCCMjapuyuuuuuuuupahMCCMjspq=@ZZZZ",
"ZZZZZZ #9uq580etuuuuuuuuutualMVCCVMlsyyuuuuuuyyslMVCCVMlstq<@ ZZ",
"ZZZZZZ #5uq50wtuuuuuuuuuuutgnCCCCCCngtuuuuuuuuygnCCCCCCngii9# ZZ",
"ZZZZZZ #9y00etuuuuuuuuuuuyygnCCCCCCngyyyuuuuutygnCCCCCCngyi9# ZZ",
"ZZZZZZ #9t00tuuuuuuuuuuuuyygnBcffvBngyyuuuuuuyygnBcfkvBngyu9# ZZ",
"ZZZZZZ #9tq0tuuuuuuuuuuuuyygnv7&&7vmgyuuuuuuutygnv7&&7vmgyi9# ZZ",
"ZZZZZZ #9t00tuuuuuuuuuuuuyygmv7+ *xMgyyuuuuuuuygmv6+ &xMgiu9# ZZ",
"ZZZZ   @9tq0tuuuuuuuuuuuuyygnVvd+&xMgyuuuuuuuutgnVvd+&xmgyu9# ZZ",
"ZZZZ .O-quq0ruuuutuuuuuuuuyalNCv76kzsuuuuuuuuyualNCb76kzsuu9# ZZ",
"ZZZZ O>wut00tuuuuuuuuuuuuuupajNVbkhapyuuuuuuuuupajNVbkhapii9# ZZ",
"ZZZZ #0ute90tuuuuuuuuuuuuuuytslnMzayyuuuuuuuuuuuyalnMzsyyiu9# ZZ",
"ZZZZ #9ue990tuuuuuuuutuuuuuuupaggspyuuuuuuuuuuuuypsggspuuii9@ ZZ",
"ZZZZ #5u080wtyuuuuuuuuuuuuuuuuytyyuuuuuuuuuuuuuuuuytyyuuuuu9# ZZ",
"ZZZZ #5u00wuuuuuuuuuuuuuuuututuuyuuuuuuuuuuuuuuuuuuyuyuuuui9# ZZ",
"ZZZZ #5tqqtuuuuuuuuuuuuuuuuuuuuuuuuuuuuuuiuuuuuuuuuuuuuuuii9# ZZ",
"ZZZZ #9u00tuuuuuuuupuuuuuuuuuuuuuuuuuuuuupuiiuuuuuuuuuuuuuu5# ZZ",
"ZZZZ #5tq0ruuuuuuuutuuuuuuuuuuuuuuuuuuurq9995qtuuuuuuuuuuii9# ZZ",
"ZZZZ #9tq0ruuuutuuuuuuuuuuuuuuuuuuuuuuuq=@@#@=quuuuuuuuuuui9# ZZ",
"ZZZZ #9tqqtuuuuuuuuuuuuuuuuuuuuuuuuuuuiq=X  X=qpuuuuuuuuuii9# ZZ",
"ZZZZ #9tqqtuuuuuuuuuuuuuuyuuuuuuuuuuuuutq>XO>qtuuuuuuuuuuip9# ZZ",
"ZZZZ #9uwqryuuuuuuuuuuuuuuuuuuuuuuuuuuuupq==qpuuuuuuuuuuutq1@ ZZ",
"ZZZZ #9purqwuuuuuuuuuuuuuuuuuuuuuuuuuuuuutqqtuuuuuuuuuuuuq-@ZZZZ",
"ZZZZ @1qur09wtuuuuuuuuuuuuuuuuuuuuuuuuuuuuuiuuuuuuuuuuuup9@ ZZZZ",
"ZZZZZZ@-wt080wtuiuuuuuuuuuuuuuuuuuuuuuuuuuuuuuuuuuuuuuuip9@ ZZZZ",
"ZZZZZZ @9y0840rtyuuuuuuuuuuuuuuuuuuuuuuuuuuuuuuuuuuuuuutq2@ ZZZZ",
"ZZZZ   @9tw8890wtuuiuuuuuuuuuuuuuuuuuuuuuuuuuuuuuuuuuuiq-@ZZZZZZ",
"ZZZZ .O-9r088880ettrtytyttrtuuuuuuuuuuuuuuuuuuuuuuuuuii9@ ZZZZZZ",
"ZZZZ o,0q0088880w0000w00w00wtuuuuuuuuuuuuuuuuuuuuuuiiip9# ZZZZZZ",
"ZZZZ@-0t098888888888881,,<40rtyuuuuuuuuuuuuuuiiuitq99991@ ZZZZZZ",
"ZZ @100098988888888881$XX$100wyiupuuupuuuiuiiuiipq-@@##@ZZZZZZZZ",
"ZZ @5tw88980088088081;o..o;140eyrtttttruttte099992@     ZZZZZZZZ",
"ZZ @1w08808080089081$oZZZZo$100000w0qw000ww4=@##@@ZZZZZZZZZZZZZZ",
"ZZ X=<,,,,,,,,,,,<,;o ZZZZ o-<,,,,,,>,,<:,,=X     ZZZZZZZZZZZZZZ",
"ZZ .XOOoOOOOOoOOoOooZZZZZZZZoOOoOOOOOoooo@OX  ZZZZZZZZZZZZZZZZZZ",
"ZZ       .     .    ZZZZZZZZ     .            ZZZZZZZZZZZZZZZZZZ"
};
