/* XPM */
static char *result[] = {
/* columns rows colors chars-per-pixel */
"64 64 205 2 ",
"   c black",
".  c #010101",
"X  c #080404",
"o  c #0A0505",
"O  c #160C0C",
"+  c #170C0C",
"@  c #1C0F0F",
"#  c #1E0F0F",
"$  c #1F0F0F",
"%  c #1E1010",
"&  c #1F1010",
"*  c gray12",
"=  c #211010",
"-  c #201111",
";  c #211111",
":  c #221212",
">  c #231212",
",  c #241313",
"<  c #251313",
"1  c #251414",
"2  c #261414",
"3  c #271414",
"4  c #271515",
"5  c #281515",
"6  c #291515",
"7  c #291616",
"8  c #2A1616",
"9  c #2B1616",
"0  c #2C1717",
"q  c #313131",
"w  c #333535",
"e  c #353535",
"r  c #363838",
"t  c #462525",
"y  c #472525",
"u  c #482626",
"i  c #492626",
"p  c #492727",
"a  c #4A2727",
"s  c #4B2727",
"d  c #4D2929",
"f  c #5C3030",
"g  c #602F2F",
"h  c #613030",
"j  c #603232",
"k  c #633434",
"l  c #643434",
"z  c #643535",
"x  c #663535",
"c  c #663636",
"v  c #673636",
"b  c #683434",
"n  c #683636",
"m  c #693737",
"M  c #6A3737",
"N  c #793E3E",
"B  c #656262",
"V  c #696A6A",
"C  c #6B6C6C",
"Z  c #6B6D6D",
"A  c #6E6F6F",
"S  c #803F3F",
"D  c #813F3F",
"F  c #814040",
"G  c #824040",
"H  c #834040",
"J  c #834141",
"K  c #804343",
"L  c #814343",
"P  c #844141",
"I  c #854141",
"U  c #854242",
"Y  c #874343",
"T  c #814444",
"R  c #824444",
"E  c #834444",
"W  c #834545",
"Q  c #844545",
"!  c #854646",
"~  c #864646",
"^  c #874646",
"/  c #874747",
"(  c #884444",
")  c #894444",
"_  c #8A4545",
"`  c #8B4545",
"'  c #884747",
"]  c #8B4646",
"[  c #8C4646",
"{  c #8D4646",
"}  c #8D4747",
"|  c #8E4747",
" . c #8B4848",
".. c #8B4949",
"X. c #8D4848",
"o. c #8C4949",
"O. c #8F4848",
"+. c #8D4A4A",
"@. c #8E4A4A",
"#. c #8F4B4B",
"$. c #904949",
"%. c #904B4B",
"&. c #934B4B",
"*. c #944B4B",
"=. c #914C4C",
"-. c #924D4D",
";. c #954C4C",
":. c #964C4C",
">. c #974C4C",
",. c #944E4E",
"<. c #954E4E",
"1. c #994E4E",
"2. c #9A4F4F",
"3. c #9C5050",
"4. c #A05252",
"5. c #A15353",
"6. c #A15454",
"7. c #A25454",
"8. c #A35454",
"9. c #A35555",
"0. c #A45555",
"q. c #A55555",
"w. c #A45656",
"e. c #A55656",
"r. c #A55757",
"t. c #A65656",
"y. c #A75656",
"u. c #A75757",
"i. c #A95454",
"p. c #A85757",
"a. c #A95757",
"s. c #AA5656",
"d. c #AA5757",
"f. c #AB5757",
"g. c #AA5858",
"h. c #AB5858",
"j. c #AA5959",
"k. c #AB5959",
"l. c #AC5959",
"z. c #AC5A5A",
"x. c #AD5A5A",
"c. c #AD5B5B",
"v. c #AE5B5B",
"b. c #AF5B5B",
"n. c #AF5C5C",
"m. c #B05C5C",
"M. c #B15C5C",
"N. c #B15D5D",
"B. c #B25D5D",
"V. c #B35D5D",
"C. c #B35E5E",
"Z. c #B06262",
"A. c #B16363",
"S. c #BA7575",
"D. c #BB7777",
"F. c #BB7878",
"G. c #BE7A7A",
"H. c #BE7B7B",
"J. c #888888",
"K. c #BCBCBC",
"L. c gray",
"P. c #C08282",
"I. c #C08383",
"U. c #C18383",
"Y. c #C18484",
"T. c #C28484",
"R. c #C38585",
"E. c #C48686",
"W. c #C48787",
"Q. c #C09292",
"!. c #D0A2A2",
"~. c #D2A4A4",
"^. c #C0B3B3",
"/. c #C1B4B4",
"(. c #DBB8B8",
"). c #E0BDBD",
"_. c #C0C3C3",
"`. c #C1C4C4",
"'. c #CFD0D0",
"]. c #D1D3D3",
"[. c #D2D3D3",
"{. c #D2D4D4",
"}. c #D3D6D6",
"|. c #D4D6D6",
" X c #D4D9D9",
".X c #ECD9D9",
"XX c #EDD9D9",
"oX c #ECDADA",
"OX c #EDDCDC",
"+X c #EEDCDC",
"@X c #EFDEDE",
"#X c #F0DCDC",
"$X c #F1DEDE",
"%X c #F2DFDF",
"&X c #F3E0E0",
"*X c #F2E1E1",
"=X c #F2E4E4",
"-X c #F6E9E9",
";X c #F1F3F3",
":X c #F2F4F4",
">X c #F6F9F9",
",X c #F7FBFB",
"<X c #FCF9F9",
"1X c white",
"2X c None",
/* pixels */
"2X2X2X2X2X2X2X2X2X2X2X2X2X2X2X2X2X2X2X2X2X2X2X2X2X2X2X2X2X2X2X2X2X2X2X2X2X2X2X2X2X2X2X2X2X2X2X2X2X2X2X2X2X2X2X2X2X2X2X2X2X2X2X2X",
"2X2X2X2X2X2X2X2X2X2X2X2X2X2X2X2X2X2X2X2X2X2X2X2X2X2X2X2X2X2X2X2X2X2X2X2X2X2X2X2X2X2X2X2X2X2X2X2X2X2X2X2X2X2X2X2X2X2X2X2X2X2X2X2X",
"2X2X2X2X2X2X2X2X2X2X2X2X2X2X2X2X2X2X2X2X2X2X2X2X        2X2X2X2X2X2X2X2X2X2X        2X2X2X2X2X2X2X2X2X2X2X2X2X2X2X2X2X2X2X2X2X2X",
"2X2X2X2X2X2X2X2X2X2X2X2X2X2X2X2X2X2X2X2X2X2X2X2X1 8 9 5 2X2X2X2X2X2X2X2X2X2X1 8 9 5 2X2X2X2X2X2X2X2X2X2X2X2X2X2X2X2X2X2X2X2X2X2X",
"2X2X2X2X2X2X2X2X2X2X2X2X2X2X2X2X2X2X2X2X2X2X  1 v ! / m 2   2X2X2X2X2X2X  1 v ! / m 2   2X2X2X2X2X2X2X2X2X2X2X2X2X2X2X2X2X2X2X2X",
"2X2X2X2X2X2X2X2X2X2X2X2X2X2X2X2X2X2X2X2X2X2X  8 ~ c.<.n <   2X2X2X2X2X2X  8 ~ c.<.n <   2X2X2X2X2X2X2X2X2X2X2X2X2X2X2X2X2X2X2X2X",
"2X2X2X2X2X2X2X2X2X2X2X2X2X2X2X2X2X2X2X2X2X2X  0 ' ,.d , 2X2X2X2X2X2X2X2X  0 ' ,.d , 2X2X2X2X2X2X2X2X2X2X2X2X2X2X2X2X2X2X2X2X2X2X",
"2X2X2X2X2X2X2X2X2X2X2X2X2X2X2X2X2X2X2X2X2X2X  ; l M ,   2X2X2X2X2X2X2X2X  ; l M ,   2X2X2X2X2X2X2X2X2X2X2X2X2X2X2X2X2X2X2X2X2X2X",
"2X2X2X2X2X2X2X2X2X2X2X2X2X2X2X2X2X2X2X2X2X2X  o & 3 2X2X2X2X2X2X2X2X2X2X  o & 3 2X2X2X2X2X2X2X2X2X2X2X2X2X2X2X2X2X2X2X2X2X2X2X2X",
"2X2X2X2X2X2X2X2X2X2X2X2X2X2X2X2X2X2X2X2X2X2X        2X2X2X2X2X2X2X2X2X2X        2X2X2X2X2X2X2X2X2X2X2X2X2X2X2X2X2X2X2X2X2X2X2X2X",
"2X2X2X2X2X2X2X2X2X2X2X2X2X2X2X2X2X2X2X2X2X2X        2X2X2X2X2X2X2X2X2X2X        2X2X2X2X2X2X2X2X2X2X2X2X2X2X2X2X2X2X2X2X2X2X2X2X",
"2X2X2X2X2X2X2X2X2X2X2X2X2X2X2X2X2X2X2X2X2X2X        2X2X2X2X2X2X2X2X2X2X        2X2X2X2X2X2X2X2X2X2X2X2X2X2X2X2X2X2X2X2X2X2X2X2X",
"2X2X2X2X2X2X2X2X2X2X2X2X2X2X2X2X2X2X                                                        2X2X2X2X2X2X2X2X2X2X2X2X2X2X2X2X2X2X",
"2X2X2X2X2X2X2X2X2X2X2X2X2X2X2X2X2X2X< 6 6 6 7 8 8 7 6 6 6 6 6 6 6 6 6 6 7 8 8 7 6 7 8 % X   2X2X2X2X2X2X2X2X2X2X2X2X2X2X2X2X2X2X",
"2X2X2X2X2X2X2X2X2X2X2X2X2X2X      > v E R T R E E R T L L L L L L L L T R E E R T E Q j @       2X2X2X2X2X2X2X2X2X2X2X2X2X2X2X2X",
"2X2X2X2X2X2X2X2X2X2X2X2X2X2X< 3 2 i #.C.B.m.m.m.m.m.m.m.m.m.m.m.m.m.m.m.m.m.m.m.m.B.C.%.a 2 3 < 2X2X2X2X2X2X2X2X2X2X2X2X2X2X2X2X",
"2X2X2X2X2X2X2X2X2X2X2X2X  : x R T o.9.m.n.b.b.b.b.b.b.b.b.b.b.b.b.b.b.b.b.b.b.b.b.n.m.w.+.R E v >       2X2X2X2X2X2X2X2X2X2X2X2X",
"2X2X2X2X2X2X2X2X2X2X2X2X; u @.C.B.n.c.z.z.z.z.z.z.z.z.z.z.z.z.z.z.z.z.z.z.z.z.z.z.z.z.c.n.B.C.#.i 2 5 1 2X2X2X2X2X2X2X2X2X2X2X2X",
"2X2X2X2X2X2X2X2X2X2X  ; z @.e.m.n.v.x.z.z.z.z.z.z.z.z.z.z.z.z.z.z.z.z.z.z.z.z.z.z.z.z.x.v.n.m.w.o.R W c :   2X2X2X2X2X2X2X2X2X2X",
"2X2X2X2X2X2X2X2X2X2X; u @.B.n.z.z.z.z.z.z.z.z.z.z.z.z.z.z.z.z.z.z.z.z.z.z.z.z.z.z.z.z.z.z.z.z.j.u.y.a.~ y : 2X2X2X2X2X2X2X2X2X2X",
"2X2X2X2X2X2X2X2X  ; z @.e.n.c.z.z.z.z.z.z.z.z.z.z.z.z.z.z.z.z.z.z.z.z.z.z.z.z.z.z.z.z.z.z.z.x.q.;.} | } ^ c :   2X2X2X2X2X2X2X2X",
"2X2X2X2X2X2X2X2X; u @.B.n.z.z.z.z.l.h.f.f.h.l.z.z.z.z.z.z.z.z.z.z.z.z.z.z.z.z.l.h.f.f.h.l.x.c.0.&.Y G ` 4.^ y : 2X2X2X2X2X2X2X2X",
"2X2X2X2X2X2X  ; z @.e.n.c.z.z.z.z.l.f.s.s.f.l.z.z.z.z.z.z.z.z.z.z.z.z.z.z.z.z.l.f.s.s.f.l.z.z.j.q.1.( J ` X.^ c :   2X2X2X2X2X2X",
"2X2X2X2X2X2X; u @.B.n.z.z.z.z.k.f.Z.F.U.U.F.Z.f.k.z.z.z.z.z.z.z.z.z.z.z.z.k.f.Z.F.U.U.F.Z.f.k.c.v.e.*.( G ` 4.^ y : 2X2X2X2X2X2X",
"2X2X2X2X  ; z @.e.n.c.z.z.z.z.f.i.S.(.OXOX(.S.i.f.z.z.z.z.z.z.z.z.z.z.z.z.f.i.S.(.OXOX(.S.i.f.z.c.k.e.1.( J ` X.^ c :   2X2X2X2X",
"2X2X2X2X: u @.B.n.z.z.z.z.l.l.Z.S.!.=X1X1X=X!.S.Z.l.l.z.z.z.z.z.z.z.z.l.l.Z.S.!.=X1X1X=X!.S.Z.l.l.x.v.e.*.( G ` 4.^ y : 2X2X2X2X",
"2X2X  < x @.e.n.c.z.z.z.z.h.f.F.(.=X<X1X1X<X=X(.F.f.h.z.z.z.z.z.z.z.z.h.f.F.(.=X<X1X1X<X=X(.F.f.h.z.x.k.e.1.( J ` } ~ c 1   2X2X",
"2X2X  6 W C.m.z.z.z.z.z.z.h.s.I.oX1X1X1X1X1X1XoXI.s.h.z.z.z.z.z.z.z.z.h.s.I.oX1X1X1X1X1X1XoXI.s.h.z.z.x.v.e.*.( G O.a.Q 7   2X2X",
"2X2X  6 R B.n.z.z.z.z.z.z.h.s.P..X1X1X1X1X1X1X.XP.s.h.z.z.z.z.z.z.z.z.h.s.P..X1X1X1X1X1X1X.XP.s.h.z.z.z.x.k.e.1.( | u.W 7   2X2X",
"2X2X  6 L m.b.z.z.z.z.z.z.h.s.U..X:X[.L.K.'.;XXXU.s.h.z.z.z.z.z.z.z.z.h.s.U..X:X[.L.K.'.;XXXU.s.h.z.z.z.z.c.v.7.] | q.R 7   2X2X",
"2X2X  6 L m.b.z.z.z.z.z.z.h.s.R.#X{.A e q V ].#XR.s.h.z.z.z.z.z.z.z.z.h.s.R.#X{.A e q V ].#XR.s.h.z.z.z.z.x.c.7.] | q.R 7   2X2X",
"2X2X  6 L m.b.z.z.z.z.z.z.h.s.E.%X`.r   * C }.$XR.s.h.z.z.z.z.z.z.z.z.h.s.E.%X`.r   * C }.$XR.s.h.z.z.z.z.x.c.5.] | q.R 7   2X2X",
"2X2X  6 L m.b.z.z.z.z.z.z.h.s.W.&X_.w * J.|.>X+XY.s.h.z.z.z.z.z.z.z.z.h.s.W.&X_.w * J.|.>X+XY.s.h.z.z.z.z.x.c.5.] | q.R 7   2X2X",
"2X2X  6 L m.b.z.z.z.z.z.z.h.f.G.).^.B Z |.1X-X(.D.f.h.z.z.z.z.z.z.z.z.h.f.G.).^.B Z |.1X-X(.D.f.h.z.z.z.z.x.c.5.] | q.R 7   2X2X",
"2X2X  6 L m.b.z.z.z.z.z.z.l.l.A.D.Q./. X,X-X~.S.Z.l.l.z.z.z.z.z.z.z.z.l.l.A.D.Q./. X,X-X~.S.Z.l.l.z.z.z.z.x.c.5.] | q.R 7   2X2X",
"2X2X  6 L m.b.z.z.z.z.z.z.z.z.d.i.D.).*X@X(.S.i.f.z.z.z.z.z.z.z.z.z.z.z.z.d.i.D.).*X@X(.S.i.f.z.z.z.z.z.z.x.c.5.] | q.R 7   2X2X",
"2X2X  6 L m.b.z.z.z.z.z.z.z.z.k.d.A.H.E.T.D.Z.f.k.z.z.z.z.z.z.z.z.z.z.z.z.k.d.A.H.E.T.D.Z.f.k.z.z.z.z.z.z.x.c.5.] | q.R 7   2X2X",
"2X2X  6 L m.b.z.z.z.z.z.z.z.z.z.z.l.f.s.s.f.l.z.z.z.z.z.z.z.z.z.z.z.z.z.z.z.z.l.f.s.s.f.l.z.z.z.z.z.z.z.z.x.c.5.] | q.R 7   2X2X",
"2X2X  6 L m.b.z.z.z.z.z.z.z.z.z.z.l.h.f.f.h.l.z.z.z.z.z.z.z.z.z.z.z.z.z.z.z.z.l.h.f.f.h.l.z.z.z.z.z.z.z.z.x.c.5.] | q.R 7   2X2X",
"2X2X  6 L m.b.z.z.z.z.z.z.z.z.z.z.z.z.z.z.z.z.z.z.z.z.x.v.b.b.b.b.v.x.z.z.z.z.z.z.z.z.z.z.z.z.z.z.z.z.z.z.x.c.5.] | q.R 7   2X2X",
"2X2X  6 L m.b.z.z.z.z.z.z.z.z.z.z.z.z.z.z.z.z.z.z.z.z.c.n.m.m.m.m.n.c.z.z.z.z.z.z.z.z.z.z.z.z.z.z.z.z.z.z.x.c.5.] | q.R 7   2X2X",
"2X2X  6 L m.b.z.z.z.z.z.z.z.z.z.z.z.z.z.z.z.z.z.z.x.c.6. .K T T K  .6.c.x.z.z.z.z.z.z.z.z.z.z.z.z.z.z.z.z.x.c.5.] | q.R 7   2X2X",
"2X2X  6 L m.b.z.z.z.z.z.z.z.z.z.z.z.z.z.z.z.z.z.z.v.n...t > 3 3 > t ..n.v.z.z.z.z.z.z.z.z.z.z.z.z.z.z.z.z.x.c.5.] | q.R 7   2X2X",
"2X2X  6 L m.b.z.z.z.z.z.z.z.z.z.z.z.z.z.z.z.z.z.z.v.n.o.y + . . + y o.n.v.z.z.z.z.z.z.z.z.z.z.z.z.z.z.z.z.x.c.7.` } q.R 7   2X2X",
"2X2X  6 L m.b.z.z.z.z.z.z.z.z.z.z.z.z.z.z.z.z.z.z.x.c.9.@.f O O f @.9.c.x.z.z.z.z.z.z.z.z.z.z.z.z.z.z.z.z.c.v.7.` } q.R 7   2X2X",
"2X2X  6 R B.n.z.z.z.z.z.z.z.z.z.z.z.z.z.z.z.z.z.z.z.z.n.B.@.y y @.B.n.z.z.z.z.z.z.z.z.z.z.z.z.z.z.z.z.z.z.j.e.3.$.>.g.W 7   2X2X",
"2X2X  6 W C.m.z.z.z.z.z.z.z.z.z.z.z.z.z.z.z.z.z.z.z.z.c.n.9.o.o.9.n.c.z.z.z.z.z.z.z.z.z.z.z.z.z.z.z.z.z.x.0.&.$.3.p.M.W 6   2X2X",
"2X2X  < v #.9.c.x.z.z.z.z.z.z.z.z.z.z.z.z.z.z.z.z.z.z.z.z.c.n.n.c.z.z.z.z.z.z.z.z.z.z.z.z.z.z.z.z.z.z.x.v.5._ ` 8.r.%.v <   2X2X",
"2X2X2X2X> i o.n.v.z.z.z.z.z.z.z.z.z.z.z.z.z.z.z.z.z.z.z.z.x.v.v.x.z.z.z.z.z.z.z.z.z.z.z.z.z.z.z.z.z.z.c.v.7._ [ 0.+.p > 2X2X2X2X",
"2X2X2X2X  2 T B.n.z.z.z.z.z.z.z.z.z.z.z.z.z.z.z.z.z.z.z.z.z.z.z.z.z.z.z.z.z.z.z.z.z.z.z.z.z.z.z.z.z.z.j.e.3.$.>.g.R 2   2X2X2X2X",
"2X2X2X2X  3 R C.m.z.z.z.z.z.z.z.z.z.z.z.z.z.z.z.z.z.z.z.z.z.z.z.z.z.z.z.z.z.z.z.z.z.z.z.z.z.z.z.z.z.x.0.&.$.3.p.N.R 3   2X2X2X2X",
"2X2X2X2X  < v #.9.c.x.z.z.z.z.z.z.z.z.z.z.z.z.z.z.z.z.z.z.z.z.z.z.z.z.z.z.z.z.z.z.z.z.z.z.z.z.z.z.x.c.5.` ] 8.r.%.v <   2X2X2X2X",
"2X2X2X2X2X2X> i o.n.v.z.z.z.z.z.z.z.z.z.z.z.z.z.z.z.z.z.z.z.z.z.z.z.z.z.z.z.z.z.z.z.z.z.z.z.z.z.z.c.v.7.] { q.+.p > 2X2X2X2X2X2X",
"2X2X2X2X2X2X  1 K m.n.z.z.z.z.z.z.z.z.z.z.z.z.z.z.z.z.z.z.z.z.z.z.z.z.z.z.z.z.z.z.z.z.z.z.z.z.z.x.k.e.1.) | t.L 2   2X2X2X2X2X2X",
"2X2X2X2X2X2X  3 K m.n.x.z.z.z.z.z.z.z.z.z.z.z.z.z.z.z.z.z.z.z.z.z.z.z.z.z.z.z.z.z.z.z.z.z.z.z.x.v.e.*.( J | t.T 4   2X2X2X2X2X2X",
"2X2X2X2X2X2X  3 K c.y.0.j.x.z.z.z.z.z.z.z.z.z.z.z.z.z.z.z.z.z.z.z.z.z.z.z.z.z.z.z.z.z.z.z.x.c.k.e.2.) S S O.t.T 4   2X2X2X2X2X2X",
"2X2X2X2X2X2X  2 K p.:.&.q.v.x.z.z.z.z.z.z.z.z.z.z.z.z.z.z.z.z.z.z.z.z.z.z.z.z.z.z.z.z.z.x.c.v.e.*.) J D D O.t.L 2   2X2X2X2X2X2X",
"2X2X2X2X2X2X: a +.q.{ ( 1.e.k.c.x.x.x.x.x.x.x.x.x.x.x.x.x.x.x.x.x.x.x.x.x.x.x.x.x.x.c.j.0.7.7.2.) S F F D | e.+.a : 2X2X2X2X2X2X",
"2X2X2X2X  ; x %.r.9.[ G ( *.e.v.c.c.c.c.c.c.c.c.c.c.c.c.c.c.c.c.c.c.c.c.c.c.c.c.c.c.v.e.*.[ [ _ P F G F D } 0.r.%.x ;   2X2X2X2X",
"2X2X2X2X, s =.V.g.3.] G G ` 3.q.0.0.0.0.0.0.0.0.0.0.0.0.0.0.0.0.0.0.0.0.0.0.0.0.0.0.q.3.` G G H P P P J H ] 3.g.V.=.s , 2X2X2X2X",
"2X2X  2 m -.j.k.1.[ Y I P Y { O.O.O.O.O.O.O.O.O.O.O.O.O.O.O.O.O.O.O.O.O.O.O.O.O.O.O.O.{ Y P P I I U U I I Y [ 1.k.j.-.m 2   2X2X",
"2X2X  & k / Q N b g g h h h g g g g g g g g g g g g g g g g g g g g g g g g g g g g g g h h h h h h h h h g g b N Q / k &   2X2X",
"2X2X  o - 0 8 2 = # # $ $ $ # # # # # # # # # # # # # # # # # # # # # # # # # # # # # # $ $ $ $ $ $ $ $ $ # # = 2 8 0 - o   2X2X",
"2X2X                                                                                                                        2X2X"
};
