/* XPM */
static char *result[] = {
/* columns rows colors chars-per-pixel */
"64 64 128 2 ",
"   c black",
".  c #080404",
"X  c #0A0505",
"o  c #1C0F0F",
"O  c #1E0F0F",
"+  c #1F0F0F",
"@  c #1E1010",
"#  c #1F1010",
"$  c #211010",
"%  c #201111",
"&  c #211111",
"*  c #221212",
"=  c #231212",
"-  c #241313",
";  c #251313",
":  c #251414",
">  c #261414",
",  c #271414",
"<  c #271515",
"1  c #281515",
"2  c #291515",
"3  c #291616",
"4  c #2A1616",
"5  c #2B1616",
"6  c #2C1717",
"7  c #472525",
"8  c #482626",
"9  c #492626",
"0  c #492727",
"q  c #4A2727",
"w  c #4B2727",
"e  c #4D2929",
"r  c #602F2F",
"t  c #613030",
"y  c #603232",
"u  c #633434",
"i  c #643434",
"p  c #643535",
"a  c #663535",
"s  c #663636",
"d  c #673636",
"f  c #683434",
"g  c #683636",
"h  c #693737",
"j  c #6A3737",
"k  c #793E3E",
"l  c #803F3F",
"z  c #813F3F",
"x  c #814040",
"c  c #824040",
"v  c #834040",
"b  c #834141",
"n  c #804343",
"m  c #814343",
"M  c #844141",
"N  c #854141",
"B  c #854242",
"V  c #874343",
"C  c #814444",
"Z  c #824444",
"A  c #834444",
"S  c #834545",
"D  c #844545",
"F  c #854646",
"G  c #864646",
"H  c #874646",
"J  c #874747",
"K  c #884444",
"L  c #894444",
"P  c #8A4545",
"I  c #8B4545",
"U  c #884747",
"Y  c #8B4646",
"T  c #8C4646",
"R  c #8D4646",
"E  c #8D4747",
"W  c #8E4747",
"Q  c #8D4848",
"!  c #8C4949",
"~  c #8F4848",
"^  c #8D4A4A",
"/  c #8E4A4A",
"(  c #8F4B4B",
")  c #904949",
"_  c #904B4B",
"`  c #934B4B",
"'  c #944B4B",
"]  c #914C4C",
"[  c #924D4D",
"{  c #954C4C",
"}  c #964C4C",
"|  c #974C4C",
" . c #944E4E",
".. c #954E4E",
"X. c #994E4E",
"o. c #9A4F4F",
"O. c #9C5050",
"+. c #A05252",
"@. c #A15353",
"#. c #A25454",
"$. c #A35454",
"%. c #A35555",
"&. c #A45555",
"*. c #A55555",
"=. c #A45656",
"-. c #A55656",
";. c #A55757",
":. c #A65656",
">. c #A75656",
",. c #A75757",
"<. c #A85757",
"1. c #A95757",
"2. c #AA5858",
"3. c #AA5959",
"4. c #AB5959",
"5. c #AC5A5A",
"6. c #AD5A5A",
"7. c #AD5B5B",
"8. c #AE5B5B",
"9. c #AF5B5B",
"0. c #AF5C5C",
"q. c #B05C5C",
"w. c #B15C5C",
"e. c #B15D5D",
"r. c #B25D5D",
"t. c #B35D5D",
"y. c #B35E5E",
"u. c None",
/* pixels */
"u.u.u.u.u.u.u.u.u.u.u.u.u.u.u.u.u.u.u.u.u.u.u.u.u.u.u.u.u.u.u.u.u.u.u.u.u.u.u.u.u.u.u.u.u.u.u.u.u.u.u.u.u.u.u.u.u.u.u.u.u.u.u.u.",
"u.u.u.u.u.u.u.u.u.u.u.u.u.u.u.u.u.u.u.u.u.u.u.u.u.u.u.u.u.u.u.u.u.u.u.u.u.u.u.u.u.u.u.u.u.u.u.u.u.u.u.u.u.u.u.u.u.u.u.u.u.u.u.u.",
"u.u.u.u.u.u.u.u.u.u.u.u.u.u.u.u.u.u.u.u.        u.u.u.u.u.u.u.u.u.u.        u.u.u.u.u.u.u.u.u.u.u.u.u.u.u.u.u.u.u.u.u.u.u.u.u.u.",
"u.u.u.u.u.u.u.u.u.u.u.u.u.u.u.u.u.u.u.u.1 5 4 : u.u.u.u.u.u.u.u.u.u.1 5 4 : u.u.u.u.u.u.u.u.u.u.u.u.u.u.u.u.u.u.u.u.u.u.u.u.u.u.",
"u.u.u.u.u.u.u.u.u.u.u.u.u.u.u.u.u.u.  > h J F d :   u.u.u.u.u.u.  > h J F d :   u.u.u.u.u.u.u.u.u.u.u.u.u.u.u.u.u.u.u.u.u.u.u.u.",
"u.u.u.u.u.u.u.u.u.u.u.u.u.u.u.u.u.u.  ; g ..7.G 4   u.u.u.u.u.u.  ; g ..7.G 4   u.u.u.u.u.u.u.u.u.u.u.u.u.u.u.u.u.u.u.u.u.u.u.u.",
"u.u.u.u.u.u.u.u.u.u.u.u.u.u.u.u.u.u.u.u.- e  .U 6   u.u.u.u.u.u.u.u.- e  .U 6   u.u.u.u.u.u.u.u.u.u.u.u.u.u.u.u.u.u.u.u.u.u.u.u.",
"u.u.u.u.u.u.u.u.u.u.u.u.u.u.u.u.u.u.u.u.  - j i &   u.u.u.u.u.u.u.u.  - j i &   u.u.u.u.u.u.u.u.u.u.u.u.u.u.u.u.u.u.u.u.u.u.u.u.",
"u.u.u.u.u.u.u.u.u.u.u.u.u.u.u.u.u.u.u.u.u.u., # X   u.u.u.u.u.u.u.u.u.u., # X   u.u.u.u.u.u.u.u.u.u.u.u.u.u.u.u.u.u.u.u.u.u.u.u.",
"u.u.u.u.u.u.u.u.u.u.u.u.u.u.u.u.u.u.u.u.u.u.        u.u.u.u.u.u.u.u.u.u.        u.u.u.u.u.u.u.u.u.u.u.u.u.u.u.u.u.u.u.u.u.u.u.u.",
"u.u.u.u.u.u.u.u.u.u.u.u.u.u.u.u.u.u.u.u.u.u.        u.u.u.u.u.u.u.u.u.u.        u.u.u.u.u.u.u.u.u.u.u.u.u.u.u.u.u.u.u.u.u.u.u.u.",
"u.u.u.u.u.u.u.u.u.u.u.u.u.u.u.u.u.u.u.u.u.u.        u.u.u.u.u.u.u.u.u.u.        u.u.u.u.u.u.u.u.u.u.u.u.u.u.u.u.u.u.u.u.u.u.u.u.",
"u.u.u.u.u.u.u.u.u.u.u.u.u.u.u.u.u.u.                                                        u.u.u.u.u.u.u.u.u.u.u.u.u.u.u.u.u.u.",
"u.u.u.u.u.u.u.u.u.u.u.u.u.u.u.u.u.u.; 2 2 2 3 4 4 3 2 2 2 2 2 2 2 2 2 2 3 4 4 3 2 3 4 @ .   u.u.u.u.u.u.u.u.u.u.u.u.u.u.u.u.u.u.",
"u.u.u.u.u.u.u.u.u.u.u.u.u.u.      = d A Z C Z A A Z C m m m m m m m m C Z A A Z C A D y o       u.u.u.u.u.u.u.u.u.u.u.u.u.u.u.u.",
"u.u.u.u.u.u.u.u.u.u.u.u.u.u.; , > 9 ( y.r.q.q.q.q.q.q.q.q.q.q.q.q.q.q.q.q.q.q.q.q.r.y._ q > , ; u.u.u.u.u.u.u.u.u.u.u.u.u.u.u.u.",
"u.u.u.u.u.u.u.u.u.u.u.u.  * a Z C ! %.q.0.9.9.9.9.9.9.9.9.9.9.9.9.9.9.9.9.9.9.9.9.0.q.=.^ Z A d =       u.u.u.u.u.u.u.u.u.u.u.u.",
"u.u.u.u.u.u.u.u.u.u.u.u.& 8 / y.r.0.7.5.5.5.5.5.5.5.5.5.5.5.5.5.5.5.5.5.5.5.5.5.5.5.5.7.0.r.y.( 9 > 1 : u.u.u.u.u.u.u.u.u.u.u.u.",
"u.u.u.u.u.u.u.u.u.u.  & p / -.q.0.8.6.5.5.5.5.5.5.5.5.5.5.5.5.5.5.5.5.5.5.5.5.5.5.5.5.6.8.0.q.=.! Z S s *   u.u.u.u.u.u.u.u.u.u.",
"u.u.u.u.u.u.u.u.u.u.& 8 / r.0.5.5.5.5.5.5.5.5.5.5.5.5.5.5.5.5.5.5.5.5.5.5.5.5.5.5.5.5.5.5.5.5.3.,.>.1.G 7 * u.u.u.u.u.u.u.u.u.u.",
"u.u.u.u.u.u.u.u.  & p / -.0.7.5.5.5.5.5.5.5.5.5.5.5.5.5.5.5.5.5.5.5.5.5.5.5.5.5.5.5.5.5.5.5.6.*.{ E W E H s *   u.u.u.u.u.u.u.u.",
"u.u.u.u.u.u.u.u.& 8 / r.0.5.5.5.5.5.5.5.5.5.5.5.5.5.5.5.5.5.5.5.5.5.5.5.5.5.5.5.5.5.5.5.5.5.6.&.` V c I +.H 7 * u.u.u.u.u.u.u.u.",
"u.u.u.u.u.u.  & p / -.0.7.5.5.5.5.5.5.5.5.5.5.5.5.5.5.5.5.5.5.5.5.5.5.5.5.5.5.5.5.5.5.5.5.5.5.3.*.X.K b I Q H s *   u.u.u.u.u.u.",
"u.u.u.u.u.u.& 8 / r.0.5.5.5.5.5.5.5.5.5.5.5.5.5.5.5.5.5.5.5.5.5.5.5.5.5.5.5.5.5.5.5.5.5.5.5.5.6.8.-.' K c I +.H 7 * u.u.u.u.u.u.",
"u.u.u.u.  & p / -.0.7.5.5.5.5.5.5.5.5.5.5.5.5.5.5.5.5.5.5.5.5.5.5.5.5.5.5.5.5.5.5.5.5.5.5.5.5.5.6.4.-.X.K b I Q H s *   u.u.u.u.",
"u.u.u.u.* 8 / r.0.5.5.5.5.5.5.5.5.5.5.5.5.5.5.5.5.5.5.5.5.5.5.5.5.5.5.5.5.5.5.5.5.5.5.5.5.5.5.5.5.6.8.-.' K c I +.H 7 * u.u.u.u.",
"u.u.  ; a / -.0.7.5.5.5.5.5.5.5.5.5.5.5.5.5.5.5.5.5.5.5.5.5.5.5.5.5.5.5.5.5.5.5.5.5.5.5.5.5.5.5.5.5.6.4.-.X.K b I E G s :   u.u.",
"u.u.  2 S y.q.5.5.5.5.5.5.5.5.5.5.5.5.5.5.5.5.5.5.5.5.5.5.5.5.5.5.5.5.5.5.5.5.5.5.5.5.5.5.5.5.5.5.5.5.6.8.-.' K c ~ 1.D 3   u.u.",
"u.u.  2 Z r.0.5.5.5.5.5.5.5.5.5.5.5.5.5.5.5.5.5.5.5.5.5.5.5.5.5.5.5.5.5.5.5.5.5.5.5.5.5.5.5.5.5.5.5.5.5.6.4.-.X.K W ,.S 3   u.u.",
"u.u.  2 m q.9.5.5.5.5.5.5.5.5.5.5.5.5.5.5.5.5.5.5.5.5.5.5.5.5.5.5.5.5.5.5.5.5.5.5.5.5.5.5.5.5.5.5.5.5.5.5.7.8.#.Y W *.Z 3   u.u.",
"u.u.  2 m q.9.5.5.5.5.5.5.5.5.5.5.5.5.5.5.5.5.5.5.5.5.5.5.5.5.5.5.5.5.5.5.5.5.5.5.5.5.5.5.5.5.5.5.5.5.5.5.6.7.#.Y W *.Z 3   u.u.",
"u.u.  2 m q.9.5.5.5.5.5.5.5.5.5.5.5.5.5.5.5.5.5.5.5.5.5.5.5.5.5.5.5.5.5.5.5.5.5.5.5.5.5.5.5.5.5.5.5.5.5.5.6.7.@.Y W *.Z 3   u.u.",
"u.u.  2 m q.9.5.5.5.5.5.5.5.5.5.5.5.5.5.5.5.5.5.5.5.5.5.5.5.5.5.5.5.5.5.5.5.5.5.5.5.5.5.5.5.5.5.5.5.5.5.5.6.7.@.Y W *.Z 3   u.u.",
"u.u.  2 m q.9.5.5.5.5.5.5.5.5.5.5.5.5.5.5.5.5.5.5.5.5.5.5.5.5.5.5.5.5.5.5.5.5.5.5.5.5.5.5.5.5.5.5.5.5.5.5.6.7.@.Y W *.Z 3   u.u.",
"u.u.  2 m q.9.5.5.5.5.5.5.5.5.5.5.5.5.5.5.5.5.5.5.5.5.5.5.5.5.5.5.5.5.5.5.5.5.5.5.5.5.5.5.5.5.5.5.5.5.5.5.6.7.@.Y W *.Z 3   u.u.",
"u.u.  2 m q.9.5.5.5.5.5.5.5.5.5.5.5.5.5.5.5.5.5.5.5.5.5.5.5.5.5.5.5.5.5.5.5.5.5.5.5.5.5.5.5.5.5.5.5.5.5.5.6.7.@.Y W *.Z 3   u.u.",
"u.u.  2 m q.9.5.5.5.5.5.5.5.5.5.5.5.5.5.5.5.5.5.5.5.5.5.5.5.5.5.5.5.5.5.5.5.5.5.5.5.5.5.5.5.5.5.5.5.5.5.5.6.7.@.Y W *.Z 3   u.u.",
"u.u.  2 m q.9.5.5.5.5.5.5.5.5.5.5.5.5.5.5.5.5.5.5.5.5.5.5.5.5.5.5.5.5.5.5.5.5.5.5.5.5.5.5.5.5.5.5.5.5.5.5.6.7.@.Y W *.Z 3   u.u.",
"u.u.  2 m q.9.5.5.5.5.5.5.5.5.5.5.5.5.5.5.5.5.5.5.5.5.5.5.5.5.5.5.5.5.5.5.5.5.5.5.5.5.5.5.5.5.5.5.5.5.5.5.6.7.@.Y W *.Z 3   u.u.",
"u.u.  2 m q.9.5.5.5.5.5.5.5.5.5.5.5.5.5.5.5.5.5.5.5.5.5.5.5.5.5.5.5.5.5.5.5.5.5.5.5.5.5.5.5.5.5.5.5.5.5.5.6.7.@.Y W *.Z 3   u.u.",
"u.u.  2 m q.9.5.5.5.5.5.5.5.5.5.5.5.5.5.5.5.5.5.5.5.5.5.5.5.5.5.5.5.5.5.5.5.5.5.5.5.5.5.5.5.5.5.5.5.5.5.5.6.7.@.Y W *.Z 3   u.u.",
"u.u.  2 m q.9.5.5.5.5.5.5.5.5.5.5.5.5.5.5.5.5.5.5.5.5.5.5.5.5.5.5.5.5.5.5.5.5.5.5.5.5.5.5.5.5.5.5.5.5.5.5.6.7.@.Y W *.Z 3   u.u.",
"u.u.  2 m q.9.5.5.5.5.5.5.5.5.5.5.5.5.5.5.5.5.5.5.5.5.5.5.5.5.5.5.5.5.5.5.5.5.5.5.5.5.5.5.5.5.5.5.5.5.5.5.6.7.@.Y W *.Z 3   u.u.",
"u.u.  2 m q.9.5.5.5.5.5.5.5.5.5.5.5.5.5.5.5.5.5.5.5.5.5.5.5.5.5.5.5.5.5.5.5.5.5.5.5.5.5.5.5.5.5.5.5.5.5.5.6.7.#.I E *.Z 3   u.u.",
"u.u.  2 m q.9.5.5.5.5.5.5.5.5.5.5.5.5.5.5.5.5.5.5.5.5.5.5.5.5.5.5.5.5.5.5.5.5.5.5.5.5.5.5.5.5.5.5.5.5.5.5.7.8.#.I E *.Z 3   u.u.",
"u.u.  2 Z r.0.5.5.5.5.5.5.5.5.5.5.5.5.5.5.5.5.5.5.5.5.5.5.5.5.5.5.5.5.5.5.5.5.5.5.5.5.5.5.5.5.5.5.5.5.5.5.3.-.O.) | 2.S 3   u.u.",
"u.u.  2 S y.q.5.5.5.5.5.5.5.5.5.5.5.5.5.5.5.5.5.5.5.5.5.5.5.5.5.5.5.5.5.5.5.5.5.5.5.5.5.5.5.5.5.5.5.5.5.6.&.` ) O.<.w.S 2   u.u.",
"u.u.  ; d ( %.7.6.5.5.5.5.5.5.5.5.5.5.5.5.5.5.5.5.5.5.5.5.5.5.5.5.5.5.5.5.5.5.5.5.5.5.5.5.5.5.5.5.5.5.6.8.@.P I $.;._ d ;   u.u.",
"u.u.u.u.= 9 ! 0.8.5.5.5.5.5.5.5.5.5.5.5.5.5.5.5.5.5.5.5.5.5.5.5.5.5.5.5.5.5.5.5.5.5.5.5.5.5.5.5.5.5.5.7.8.#.P T &.^ 0 = u.u.u.u.",
"u.u.u.u.  > C r.0.5.5.5.5.5.5.5.5.5.5.5.5.5.5.5.5.5.5.5.5.5.5.5.5.5.5.5.5.5.5.5.5.5.5.5.5.5.5.5.5.5.5.3.-.O.) | 2.Z >   u.u.u.u.",
"u.u.u.u.  , Z y.q.5.5.5.5.5.5.5.5.5.5.5.5.5.5.5.5.5.5.5.5.5.5.5.5.5.5.5.5.5.5.5.5.5.5.5.5.5.5.5.5.5.6.&.` ) O.<.e.Z ,   u.u.u.u.",
"u.u.u.u.  ; d ( %.7.6.5.5.5.5.5.5.5.5.5.5.5.5.5.5.5.5.5.5.5.5.5.5.5.5.5.5.5.5.5.5.5.5.5.5.5.5.5.5.6.7.@.I Y $.;._ d ;   u.u.u.u.",
"u.u.u.u.u.u.= 9 ! 0.8.5.5.5.5.5.5.5.5.5.5.5.5.5.5.5.5.5.5.5.5.5.5.5.5.5.5.5.5.5.5.5.5.5.5.5.5.5.5.7.8.#.Y R *.^ 0 = u.u.u.u.u.u.",
"u.u.u.u.u.u.  : n q.0.5.5.5.5.5.5.5.5.5.5.5.5.5.5.5.5.5.5.5.5.5.5.5.5.5.5.5.5.5.5.5.5.5.5.5.5.5.6.4.-.X.L W :.m >   u.u.u.u.u.u.",
"u.u.u.u.u.u.  , n q.0.6.5.5.5.5.5.5.5.5.5.5.5.5.5.5.5.5.5.5.5.5.5.5.5.5.5.5.5.5.5.5.5.5.5.5.5.6.8.-.' K b W :.C <   u.u.u.u.u.u.",
"u.u.u.u.u.u.  , n 7.>.&.3.6.5.5.5.5.5.5.5.5.5.5.5.5.5.5.5.5.5.5.5.5.5.5.5.5.5.5.5.5.5.5.5.6.7.4.-.o.L l l ~ :.C <   u.u.u.u.u.u.",
"u.u.u.u.u.u.  > n <.} ` *.8.6.5.5.5.5.5.5.5.5.5.5.5.5.5.5.5.5.5.5.5.5.5.5.5.5.5.5.5.5.5.6.7.8.-.' L b z z ~ :.m >   u.u.u.u.u.u.",
"u.u.u.u.u.u.* q ^ *.R K X.-.4.7.6.6.6.6.6.6.6.6.6.6.6.6.6.6.6.6.6.6.6.6.6.6.6.6.6.6.7.3.&.#.#.o.L l x x z W -.^ q * u.u.u.u.u.u.",
"u.u.u.u.  & a _ ;.%.T c K ' -.8.7.7.7.7.7.7.7.7.7.7.7.7.7.7.7.7.7.7.7.7.7.7.7.7.7.7.8.-.' T T P M x c x z E &.;._ a &   u.u.u.u.",
"u.u.u.u.- w ] t.2.O.Y c c I O.*.&.&.&.&.&.&.&.&.&.&.&.&.&.&.&.&.&.&.&.&.&.&.&.&.&.&.*.O.I c c v M M M b v Y O.2.t.] w - u.u.u.u.",
"u.u.  > h [ 3.4.X.T V N M V R ~ ~ ~ ~ ~ ~ ~ ~ ~ ~ ~ ~ ~ ~ ~ ~ ~ ~ ~ ~ ~ ~ ~ ~ ~ ~ ~ ~ R V M M N N B B N N V T X.4.3.[ h >   u.u.",
"u.u.  # u J D k f r r t t t r r r r r r r r r r r r r r r r r r r r r r r r r r r r r r t t t t t t t t t r r f k D J u #   u.u.",
"u.u.  X % 6 4 > $ O O + + + O O O O O O O O O O O O O O O O O O O O O O O O O O O O O O + + + + + + + + + O O $ > 4 6 % X   u.u.",
"u.u.                                                                                                                        u.u."
};
