/* XPM */
static char *af8b107b56184428f1c4730997a35627EmcuhvZkMiGXXm65[] = {
/* columns rows colors chars-per-pixel */
"64 64 6 1 ",
"  c None",
". c black",
"X c #C30000",
"o c red",
"O c #FF1E1E",
"+ c #FFD2D2",
/* pixels */
"                                                                ",
"                                                                ",
"                                                                ",
"                                                                ",
"                                                                ",
"                                                                ",
"                                                                ",
"                                                                ",
"                                                                ",
"                                                                ",
"                                                                ",
"                                                                ",
"                                                                ",
"                                                                ",
"                                                                ",
"                                                                ",
"                                                                ",
"                                                                ",
"                                                                ",
"                                                                ",
"                                 .                              ",
"                                .                               ",
"                                .                               ",
"                            ... . ...                           ",
"                           .oOX...Xoo.                          ",
"                          .XoooXXXoooo.                         ",
"                         .Xooooooooo+oo.                        ",
"                         .Xoooooooooo+o.                        ",
"                         .Xoooooooooooo.                        ",
"                         .Xoooooooooooo.                        ",
"                         .Xoooooooooooo.                        ",
"                         .Xoooooooooooo.                        ",
"                          .Xoooooooooo.                         ",
"                          .Xoooooooooo.                         ",
"                           .XXooooooo.                          ",
"                            ..XXXXX..                           ",
"                              .....                             ",
"                                                                ",
"                                                                ",
"                                                                ",
"                                                                ",
"                                                                ",
"                                                                ",
"                                                                ",
"                                                                ",
"                                                                ",
"                                                                ",
"                                                                ",
"                                                                ",
"                                                                ",
"                                                                ",
"                                                                ",
"                                                                ",
"                                                                ",
"                                                                ",
"                                                                ",
"                                                                ",
"                                                                ",
"                                                                ",
"                                                                ",
"                                                                ",
"                                                                ",
"                                                                ",
"                                                                "
};
