/* XPM */
static char *result[] = {
/* columns rows colors chars-per-pixel */
"64 64 178 2 ",
"   c #050201",
".  c #140F0D",
"X  c #16100E",
"o  c #1C110D",
"O  c #1D1A16",
"+  c #1E1C19",
"@  c #21150F",
"#  c #231712",
"$  c #261B15",
"%  c #2D1B15",
"&  c #231C19",
"*  c #2B1F1A",
"=  c #341E17",
"-  c #301F18",
";  c #1A251D",
":  c #21211A",
">  c #2D211D",
",  c #33221C",
"<  c #3D241B",
"1  c #3B281F",
"2  c #1E2921",
"3  c #242422",
"4  c #2A2624",
"5  c #242A26",
"6  c #2D2926",
"7  c #272B28",
"8  c #2A2C29",
"9  c #392720",
"0  c #392A22",
"q  c #263129",
"w  c #2C332D",
"e  c #2D392F",
"r  c #37362E",
"t  c #3C312F",
"y  c #2F3731",
"u  c #2E3D32",
"i  c #303531",
"p  c #353C36",
"a  c #383D38",
"s  c #393D39",
"d  c #40241B",
"f  c #45291F",
"g  c #48281E",
"h  c #462C21",
"j  c #4C2D22",
"k  c #4D3226",
"l  c #47322A",
"z  c #523126",
"x  c #5C3327",
"c  c #51362A",
"v  c #5C3629",
"b  c #573B2C",
"n  c #5B3C2D",
"m  c #413E38",
"M  c #583F31",
"N  c #613629",
"B  c #643A2C",
"V  c #693E2E",
"C  c #613E30",
"Z  c #334237",
"A  c #364239",
"S  c #3A443C",
"D  c #3B4A3E",
"F  c #5B4133",
"G  c #64412E",
"H  c #6B412F",
"J  c #664333",
"K  c #6B4332",
"L  c #6D4A35",
"P  c #6E4A39",
"I  c #724734",
"U  c #744935",
"Y  c #7A4C35",
"T  c #764C39",
"R  c #794E3B",
"E  c #7C523C",
"W  c #3E4440",
"Q  c #3F4B42",
"!  c #444543",
"~  c #434C45",
"^  c #464F48",
"/  c #4B4D4B",
"(  c #544F4E",
")  c #445146",
"_  c #465249",
"`  c #4B544D",
"'  c #4C594E",
"]  c #514F52",
"[  c #4F5451",
"{  c #4E5A51",
"}  c #525452",
"|  c #535D55",
" . c #575658",
".. c #585759",
"X. c #555F58",
"o. c #5D5E5E",
"O. c #7D5441",
"+. c #7A5846",
"@. c #605F5F",
"#. c #546355",
"$. c #566258",
"%. c #5A655C",
"&. c #5C695D",
"*. c #60605F",
"=. c #5E6661",
"-. c #5F6B60",
";. c #616262",
":. c #636C64",
">. c #686F67",
",. c #676D6A",
"<. c #6A6D6B",
"1. c #667266",
"2. c #6B736C",
"3. c #6E796E",
"4. c #6F7571",
"5. c #717573",
"6. c #747A75",
"7. c #777B79",
"8. c #7A7D7B",
"9. c #815137",
"0. c #85563C",
"q. c #88573A",
"w. c #87593F",
"e. c #8C5B3D",
"r. c #815640",
"t. c #845C46",
"y. c #8D5E42",
"u. c #845C48",
"i. c #905F41",
"p. c #8E6045",
"a. c #86634D",
"s. c #8C644D",
"d. c #926345",
"f. c #956649",
"g. c #96684B",
"h. c #986A4D",
"j. c #8F6950",
"k. c #946C53",
"l. c #996E52",
"z. c #9C7155",
"x. c #9E7459",
"c. c #A0775C",
"v. c #A1785D",
"b. c #7C827D",
"n. c #7D887D",
"m. c #7E7F80",
"M. c #7F8380",
"N. c #828484",
"B. c #858A86",
"V. c #878788",
"C. c #878989",
"Z. c #8B8C8D",
"A. c #8D908E",
"S. c #8E8F90",
"D. c #918E92",
"F. c #8F9190",
"G. c #939494",
"H. c #959896",
"J. c #979699",
"K. c #99969B",
"L. c #979998",
"P. c #9B9B9C",
"I. c #9F9EA1",
"U. c #A19FA2",
"Y. c #A1A1A3",
"T. c #A7A3A8",
"R. c #A9A6AB",
"E. c #AFAFAF",
"W. c #B6B6B6",
"Q. c #B8B7B7",
"!. c #BBBBBA",
"~. c #C0BFC0",
"^. c #C3C3C3",
"/. c #CECECE",
"(. c #CFCFD0",
"). c #D0CFD0",
"_. c #CFD0D0",
"`. c #D0D0D0",
/* pixels */
"/././././././././././././././././././././././././._.`./.^.^.~.^.~.~.^.`.`.`.(.(././././././././././././././././././././././././.",
"/./././././././././././././././././././././.`.`.`.~.E.P.! a a s a s =.E.W.^.`._././././././././././././././././././././././././.",
"/././././././././././././././././././././.`.^.Y.P. .3 q A a ) ` S u p 3 5 8.Y.E.`.`././././././././././././././././././././././.",
"/././././././././././././././././././.`./.G.<.w ; ! :.7.B.<.R.Y.M.#.S.,.=.w 5 W 8.E.`./././././././././././././././././././././.",
"/././././././././././././././././././.G.*.r e #.| Z.R.T.B.%.G.B.b.| P.T.U.5.{ ' 2 ^ <.!.(./././././././././././././././././././.",
"/./././././././././././././././././.G.a q 1.A.H.5.2.Z.P.B.) n.Z.M.{ P.J.m.2.b.L.N.) 7 } Q.)./.(././././././././././././././././.",
"/././././././././././././././././.G.u e 2.P.Z.N.2.#.B.M.<.S &.>.%.S 8.B.6.| F.N.G.G.{ q } W.).(././././././././././././././././.",
"/./././././././././././././././.G.s ) S :.B.6.m.A.} ) ' > O $ $ $ o r $.D 4.Z.8.8.M.' ~ Q / Q.`././././././././././././././././.",
"/././././././././././././././.Z.s 5.L.5._ #.M.7.} t - = x x x x v v j , % ! ..B.6.) $.M.G.| [ E.`./././././././././././././././.",
"/./././././././././././././.Z.p <.J.N.G.B.D S r = j N N N N N N N N N N N d , a Z X.L.V.N.Z.~ / W./././././././././././././././.",
"/././././././././././././.Z.w e 5.A.7.N...; < g B N N B B B B B B N N B N N x h - u 8.8.N.C.#.> / W.)./././././././././././././.",
"/./././././././././././.Z.p D _ ) 1.6.2.6 d N N B B V 9.0.I O.y.9.Y E r.V V N N x , ! 7.6.1.Q _ p / E./././././././././././././.",
"/././././././././.).).E.8 S N.Y.=.) %.m h N B V U I f.d.g.Y t.g.e.9.E l.q.0.V K N x 1 ) _ ~ b.K.%.q [ /././././././././././././.",
"/././././././././.).^.5.A m.G.G.U.;.: f x B r.y.i.I j.f.g.Y t.l.e.9.O.l.i.q.T s.I V x = w N.U.S.L.=.s P././././././././././././.",
"/././././././././.).Q.5 | P.7.V.Z.( j N V I l.i.i.U j.f.f.Y t.f.d.9.E l.i.q.U z.e.9.V x l <.P.A.G.S.q =.)./././././././././././.",
"/././././././././.).Q.5 S 6.7.8.;.* x V 0.U l.d.f.U k.d.d.r.t.k.e.q.O.c.d.0.U l.e.e.H B g w A.S.5.2.5 @././././././././././././.",
"/././././././././.`.Q.5 S X.=.$.7 k U q.q.I k.d.e.U j.d.i.r.u.f.i.u.r.l.d.y.T l.d.i.T u.C < ~ 4.X.| 5 =.`./././././././././././.",
"/././././././././.(.Q.5 } Y.4.^ O J l.e.q.I k.i.i.U g.d.i.r.u.f.i.y.O.l.f.r.T l.d.d.I z.r.< w | S.C.7 ;._./././././././././././.",
"/./././././././.(.(.Q.8 | S.D.S.4 J z.e.y.U k.e.y.U j.d.i.r.u.f.y.y.O.l.f.y.U l.i.d.T k.q.d } K.N.7.e ;._./././././././././././.",
"/./././././././.(.(.Q.5 ^ M.C.Z.4 J z.e.d.T l.d.i.T g.d.i.r.u.f.y.y.r.l.f.w.T a.L T C k.E % ] S.V.7.q ;.(./././././././././././.",
"/././././././././.(.Q.5 Q 4.4.4.4 J z.e.d.T k.d.f.U g.d.i.r.t.g.e.0.O.l.u.n C a.b M C l 9 . ! Z.N.=.5 =.(.(././././././././././.",
"/././././././././.(.Q.5 p { _ ~ O J z.e.w.I k.f.d.U j.f.g.R t.g.e.9.O.l.b * , 0 4 , , & & . 8 | | ^ 2 ;.(.(././././././././././.",
"/././././././././.(.Q.5 { I.S.F.6 J z.e.w.I k.f.d.U j.f.g.Y t.g.d.0.O.l.C > > , - * , & & .  .P.J.C.2 ;.(./././././././././././.",
"/./././././././.(.(.Q.5 ^ C.V.C.6 J z.d.d.I h.f.d.U g.g.g.Y t.g.g.9.O.l.y.P C P k k z h < . [ G.C.<.; ;.(.(././././././././././.",
"/././././././././.).Q.5 Q M.4.8.6 J l.e.d.T k.d.f.U g.f.g.Y t.g.d.0.O.l.e.d.T s.E T B r.I % } A.M.$.; ;.)./././././././././././.",
"/./././././././././.Q.5 Z <.,.4.4 J z.e.d.T k.f.d.U k.f.g.Y t.g.i.9.O.l.e.i.R l.y.f.E k.w.d A 8.:.{ ; ;.`./././././././././././.",
"/././././././././.).W.5 u | &.{ + K z.e.e.I k.d.d.U j.d.g.Y t.g.i.0.O.l.y.i.R k.y.d.R k.w.d 7 ' | { ; ;.`./././././././././././.",
"/././././././././.).Q.7 | P.L.B.3 K z.e.w.I l.d.d.I k.f.g.Y t.g.i.y.O.l.e.s.R l.d.y.T z.w.< ^ P.J.n.2 ;.`./././././././././././.",
"/././././././././.).Q.8 ` M.8.M.6 J l.e.e.U k.f.f.U j.d.i.Y t.g.d.y.r.l.e.y.U l.y.q.U k.0.d ` Z.N.=.2 ;._./././././././././././.",
"/././././././././.).Q.8 _ 8.b.M.6 J c.e.w.U l.d.d.Y j.d.e.Y t.g.y.y.O.l.y.0.U l.d.y.U k.0.< | M.V.:.2 ;.`./././././././././././.",
"/././././././././.).Q.7 S 4.4.&.: J x.y.q.I k.e.f.E k.d.e.Y u.g.y.y.O.l.i.r.U l.d.d.T k.0.d s 1.2.=.; ;.)./././././././././././.",
"/././././././././.).Q.5 Z %.#._ O J x.i.e.I l.e.d.E j.d.e.R u.g.i.u.r.l.i.q.T k.d.d.U l.0.d 7 ' { ` ; ;././././././././././././.",
"/./././././././.(.(.Q.8 [ G.P.S.6 J x.d.y.I k.d.i.U k.i.y.9.t.g.i.y.r.l.i.y.T l.f.d.I k.y.< } L.P.N.5 %._./././././././././././.",
"/./././././././.(.(.Q.8 [ S.N.N.6 J x.f.0.I l.d.g.T j.f.i.R t.d.e.R E l.y.i.T k.d.d.I k.0.< } G.D.<.7 ;.`./././././././././././.",
"/././././././././.(.Q.5 ' m.C.G.6 J v.f.0.I k.d.f.T j.f.g.Y t.g.e.9.E l.y.y.T l.d.p.T z.0.< ..Z.N.b.w ;.`./././././././././././.",
"/././././././././.(.Q.5 Q 4.7.,.& J x.J G K s.P C U g.f.g.Y t.g.e.9.r.l.y.f.T l.f.p.I k.q.d s 2.5.:.q ;.`./././././././././././.",
"/././././././././.(.Q.5 Z | | ' + J +.4 > > 9 > * k j.f.g.R t.g.i.0.O.l.q.y.O.l.e.d.E k.0.d 8 $.| _ 5 ;././././././././././././.",
"/././././././././.(.Q.8 | G.L.Z.4 J a.0 - 9 , - 9 v j.f.i.Y t.g.i.u.r.l.y.i.T k.w.f.E k.0.d [ P.G.C.q ;.`./././././././././././.",
"/./././././././.(._.Q.5 { Z.N.b.4 J z.I V V R I T U k.f.e.Y u.g.i.y.O.l.i.i.T l.e.d.E l.0.d ` A.Z.2.; ;.`./././././././././././.",
"/./././././././.(._.Q.8 ' Z.b.M.6 K z.e.q.I l.y.y.U k.i.i.T u.g.y.0.r.l.d.t.T l.d.p.T k.q.d } A.Z.-.2 ;.`./././././././././././.",
"/././././././././.).Q.8 Q 5.6.5.3 J z.e.q.I k.d.i.U j.d.i.R u.f.e.0.O.h.y.i.T l.i.f.P l.r.d s 2.3.&.; ;.`./././././././././././.",
"/././././././././.(.Q.5 A -.4.X.O J z.e.q.U l.e.e.U g.i.e.Y u.f.e.0.O.l.i.i.T l.i.i.T k.0.d w %.1.:.; ;.`./././././././././././.",
"/./././././././.(.(.Q.5 ' A.P.J.6 J z.y.e.I k.f.d.T j.d.i.Y t.f.i.r.O.l.i.y.P l.e.y.U k.0.d ..P.H.N.5 *.`./././././././././././.",
"/./././././././.(.).Q.8 | V.7.C.6 J z.f.d.U k.d.d.U g.f.f.Y t.f.g.0.O.l.i.r.U l.i.r.T l.0.< W C.8.,.; ;.`./././././././././././.",
"/././././././././._.Q.5 ^ V.N.C.6 J z.d.e.I k.f.f.U g.f.g.Y u.g.f.0.O.h.i.0.T l.i.e.U l.r.d ! V.C.<.7 ;.`./././././././././././.",
"/././././././././.(.Q.5 ~ 8.<.b.6 J z.i.w.I k.d.d.U j.f.g.Y u.g.f.0.O.l.i.q.U l.e.y.T k.0.d } S.8.| 5 ;././././././././././././.",
"/././././././././.(.Q.5 e %.$._ O K z.e.q.I l.d.d.U j.f.g.Y u.g.f.0.R l.i.q.U l.e.i.U k.r.d r $.=.' ; =.`./././././././././././.",
"/./././././././.(.(.Q.5 p #.%.$.O J z.e.q.I k.i.e.U k.h.f.Y u.g.f.0.r.l.e.0.U l.i.e.U l.q.d i =.$.$.5 ;././././././././././././.",
"/./././././././././.Q.5 _ n.Z.J.6 K z.d.w.U l.i.i.U k.l.e.Y t.g.f.0.E l.d.w.U k.p.p.T k.0.< ..L.n.b.y ;.`./././././././././././.",
"/././././././././.(.Q.5 ^ 6.8.Z.4 J x.f.q.I k.i.e.T k.z.e.Y t.g.p.p.r.l.f.w.T a.K P C j.T $ } B.7.5.5 ;.)./././././././././././.",
"/././././././././.(.W.8 D b.Z.N.4 K c.d.q.I k.e.e.U g.z.i.Y u.g.y.p.O.l.t.c n u.b F n h , X ` M.C.5.5 =.`./././././././././././.",
"/././././././././.(.W.5 Z $.:.%.; K c.f.q.U k.f.d.U j.f.f.Y u.f.y.y.O.z.c $ * 4 > & * & O X e #.&.=.w ;.`./././././././././././.",
"/./././././././._.`.W.7 S | &.$.O J c.d.q.I k.d.d.U j.f.f.Y u.f.y.y.+.l.J , 1 < > , < & & . 7 { $.&.5 ;.(./././././././././././.",
"/././././././././.`.W.7 ) n.A.B.4 J c.f.q.U k.d.f.U k.f.f.Y u.f.y.y.O.l.d.T J P z k z k h X ] B.A.8.2 ;._./././././././././././.",
"/././././././././.`.W.8 ` V.b.b.4 K c.f.q.I l.d.d.R g.f.g.Y u.f.i.u.O.l.f.e.U j.E Y H u.U = s 6.C.-.; =.`./././././././././././.",
"/././././././././.`.W.7 ~ 3.b.N.4 J c.f.w.I k.y.f.E j.f.g.Y u.f.i.y.O.l.e.p.T z.i.w.U z.q.d / b.6.2.5 =.`./././././././././././.",
"/././././././././.`.Q.5 p %.:.-.: J x.f.y.I l.d.f.E k.f.f.Y u.f.e.y.r.l.e.d.T x.f.q.U k.w.d w &.1.%.q ;._./././././././././././.",
"/././././././././.`.Q.5 A 2.1.| + J l.f.d.I k.i.f.E j.d.d.Y u.f.e.y.O.l.e.y.T x.f.w.U l.w.d w <.5.&.q ;.`./././././././././././.",
"/././././././././.`.W.5 ~ J.G.Z.6 J z.d.y.I k.y.d.T k.p.e.Y u.f.w.9.r.l.e.0.I l.f.y.I z.w.d s V.Y.6.5 ;.`./././././././././././.",
"/././././././././.`.W.5 _ Z.b.B.6 J z.f.y.I l.d.i.U k.d.i.9.u.h.e.9.O.l.e.0.T l.f.d.U k.w.< ~ Z.Z.:.q ;.`./././././././././././.",
"/././././././././.).Q.5 ' N.V.G.4 b g.w.0.J p.e.q.K u.y.e.T O.k.d.Y P f.q.9.J s.y.y.J s.9.= } G.8.8.7 %././././././././././././.",
"/./././././././././.~.} w ` ..` X . h h d o 9 h h # = h h % # h j , @ h f d o d j f @ < ,   5 ) ) / q V././././././././././././.",
"/././././././././././.!.,.*.;.;.o.o.@.@.*.o.;.@.@.@.@.*.@.@.@.@.*.%.o.*.@.@.o.*.@.@.@.;.@.@.@.*.@.@.N./././././././././././././.",
"/././././././././././././._./././.`./.`./.)./.`./././.`.).)././.).)./.`./.`./.`././././././././././././././././././././././././."
};
