/* XPM */
static char *result[] = {
/* columns rows colors chars-per-pixel */
"64 64 137 2 ",
"   c #000000",
".  c #0B0C0B",
"X  c #120B08",
"o  c #0E100E",
"O  c #141414",
"+  c #141B16",
"@  c #191918",
"#  c #201917",
"$  c #241B19",
"%  c #2B1F1B",
"&  c #2C221C",
"*  c #1F2C23",
"=  c #222522",
"-  c #242D26",
";  c #262F29",
":  c #2B2D2A",
">  c #362621",
",  c #392720",
"<  c #3D2B22",
"1  c #263229",
"2  c #2B342D",
"3  c #2C392F",
"4  c #2E3931",
"5  c #363736",
"6  c #323B34",
"7  c #383C36",
"8  c #373F39",
"9  c #3B3C3A",
"0  c #412E25",
"q  c #4B3326",
"w  c #44342C",
"e  c #4C3529",
"r  c #4B392F",
"t  c #533A2D",
"y  c #583E2F",
"u  c #563E32",
"i  c #364139",
"p  c #39433B",
"a  c #4D413A",
"s  c #534034",
"d  c #5A4134",
"f  c #53463F",
"g  c #5E4738",
"h  c #624637",
"j  c #654D3D",
"k  c #6C4D3C",
"l  c #754C3A",
"z  c #75523D",
"x  c #7E553F",
"c  c #424643",
"v  c #444C45",
"b  c #4B4E4C",
"n  c #544740",
"m  c #5E4F46",
"M  c #445346",
"N  c #495047",
"B  c #47524A",
"V  c #4B544D",
"C  c #4D5B4E",
"Z  c #4F5451",
"A  c #4E5951",
"S  c #535654",
"D  c #545A55",
"F  c #575958",
"G  c #595A59",
"H  c #645044",
"J  c #735441",
"K  c #7C5943",
"L  c #536055",
"P  c #576359",
"I  c #5A655C",
"U  c #5D6360",
"Y  c #5E6960",
"T  c #646564",
"R  c #636C65",
"E  c #676D69",
"W  c #6B6D6A",
"Q  c #657066",
"!  c #667068",
"~  c #6B736C",
"^  c #6E7571",
"/  c #767776",
"(  c #787575",
")  c #747B75",
"_  c #797877",
"`  c #777D79",
"'  c #7B7D7C",
"]  c #84573B",
"[  c #8B5D43",
"{  c #8A6147",
"}  c #84614B",
"|  c #8B654E",
" . c #916245",
".. c #93664B",
"X. c #96694C",
"o. c #996C4F",
"O. c #8D6A53",
"+. c #946C52",
"@. c #9A6E51",
"#. c #9C7155",
"$. c #977158",
"%. c #9E7559",
"&. c #A0765A",
"*. c #A27A5E",
"=. c #A57D62",
"-. c #778079",
";. c #7C817D",
":. c #A88166",
">. c #7F7F80",
",. c #7F8280",
"<. c #838584",
"1. c #838984",
"2. c #868688",
"3. c #89878A",
"4. c #878989",
"5. c #8A8B8B",
"6. c #8D928E",
"7. c #8F8E91",
"8. c #908E91",
"9. c #8F9191",
"0. c #939494",
"q. c #969698",
"w. c #99979A",
"e. c #9A9A9B",
"r. c #A09F9F",
"t. c #9E9CA0",
"y. c #A4A3A5",
"u. c #AAAAAA",
"i. c #AFB0B0",
"p. c #B4B4B5",
"a. c #BBBBBB",
"s. c #C6C6C6",
"d. c #C7C7C8",
"f. c #C7C8C8",
"g. c #CECECE",
"h. c #CFCFD0",
"j. c #D1D1D1",
/* pixels */
"g.g.g.g.g.g.g.g.g.g.g.g.g.g.g.g.g.g.g.g.g.g.g.g.g.h.h.h.g.g.d.g.d.g.g.h.j.g.g.g.g.g.g.g.g.g.g.g.g.g.g.g.g.g.g.g.g.g.g.g.g.g.g.g.",
"g.g.g.g.g.g.g.g.g.g.g.g.g.g.g.g.g.g.g.g.g.g.g.g.h.j.s.a.0.V b Z b b W p.a.g.j.h.g.g.g.g.g.g.g.g.g.g.g.g.g.g.g.g.g.g.g.g.g.g.g.g.",
"g.g.g.g.g.g.g.g.g.g.g.g.g.g.g.g.g.g.g.g.g.g.j.g.u.r.G : 6 4 i B c 3 8 : 5 5.y.a.j.g.g.g.g.g.g.g.g.g.g.g.g.g.g.g.g.g.g.g.g.g.g.g.",
"g.g.g.g.g.g.g.g.g.g.g.g.g.g.g.g.g.g.g.g.g.g.u.~ 9 - v W <.) 5.y.6.L 4.^ U 2 1 G 5.s.g.g.g.g.g.g.g.g.g.g.g.g.g.g.g.g.g.g.g.g.g.g.",
"g.g.g.g.g.g.g.g.g.g.g.g.g.g.g.g.g.g.g.j.a.T c 3 I I 5.y.y.~ ^ 6.,.P 9.y.e.~ I v 6 Z 0.g.h.h.h.h.j.j.j.g.g.g.g.g.g.g.g.g.g.g.g.g.",
"g.g.g.g.g.g.g.g.g.g.g.g.g.g.g.g.g.g.j.a.D 2 P 9.q.) R 5.e.E I 5.,.A 9.9.' R 6.w.-.i 6 8.g.h.h.u.y.y.i.g.g.g.g.g.g.g.g.g.g.g.g.g.",
"g.g.g.g.g.g.g.g.g.g.g.g.g.g.g.g.g.j.a.D 1 B q.4.-.-.P -.) 9 i N A 3 U ,.! Y 5.-.q.` 4 6 5.g.8.u r r n e.h.g.g.g.g.g.g.g.g.g.g.g.",
"g.g.g.g.g.g.g.g.g.g.g.g.g.g.g.g.j.a.G S R M Q ;.1.<.v ; =           o 4 * >.,.:.) L A E c G H ..X.$.| m t.h.g.g.g.g.g.g.g.g.g.g.",
"g.g.g.g.g.g.g.g.g.g.g.g.g.g.g.j.a.G D q.5.,.B I I = o                     @ c ^ V Y 4.q.E 0 +.&.@.#.:.| f p.h.g.g.g.g.g.g.g.g.g.",
"g.g.g.g.g.g.g.g.g.g.g.g.g.g.h.a.D 4 1.5.;.7.b O .                             o ; ,.4.>.G g @.#.#.o.%.%.h <.f.g.g.g.g.g.g.g.g.g.",
"g.g.g.g.g.g.g.g.g.g.g.g.g.g.a.G 3 i I -.' G .                                     3 ) >.T h o.&.#.#.#.:.+.a a.g.g.g.g.g.g.g.g.g.",
"g.g.g.g.g.g.g.g.g.g.g.g.g.g.G 3 ~ 4.V C R =                                       . v U 7 j &.@.@.o...:.=.k ( h.g.g.g.g.g.g.g.g.",
"g.g.g.g.g.g.g.g.g.g.g.g.g.y.p R q.w.0.v @                                           . + = O.&.&.#.X.o.#.%.z G h.g.g.g.g.g.g.g.g.",
"g.g.g.g.g.g.g.g.g.g.g.g.g.G 8 w.;.5.3.5                                                 X J @.%.#.X.X.@.#.X.m y.h.g.g.g.g.g.g.g.",
"g.g.g.g.g.g.g.g.g.g.g.g.h.F 1 ) -.-.S                                                   X J @.&.#.X.#.@.#.*.d / j.h.g.g.g.g.g.g.",
"g.g.g.g.g.g.g.g.g.g.g.g.g.F 2 I I C +                                                   X J &.#.@.@.#.@.X.*.y / j.g.g.g.g.g.g.g.",
"g.g.g.g.g.g.g.g.g.g.g.g.g.F 8 t.>.A .                                                   X z o.#.#.#.#.@.X.*.d / j.h.g.g.g.g.g.g.",
"g.g.g.g.g.g.g.g.g.g.g.g.g.F i 2.8.3.O                                                   X J o.#.#.o.#.%.o.*.y ( j.g.g.g.g.g.g.g.",
"g.g.g.g.g.g.g.g.g.g.g.g.g.F 2 / 2.>.O                                                   X J K y X.o.#.%.#.*.y / j.g.g.g.g.g.g.g.",
"g.g.g.g.g.g.g.g.g.g.g.g.g.F 2 D G A o                                                   . u w < X.o.#.%.o.*.y ( j.h.g.g.g.g.g.g.",
"g.g.g.g.g.g.g.g.g.g.g.g.h.F 4 ` ^ E O                                                   X # @ 0 $.o.@.@.X.*.y ) j.g.g.g.g.g.g.g.",
"g.g.g.g.g.g.g.g.g.g.g.g.h.F 6 7.7.5.O                                                   . , & 0 $.o.X.#.o.*.y ( j.g.g.g.g.g.g.g.",
"g.g.g.g.g.g.g.g.g.g.g.g.h.F 2 ' ' / O                                                   X k r 0 %.%...&.@.*.d ( j.g.g.g.g.g.g.g.",
"g.g.g.g.g.g.g.g.g.g.g.g.g.F 1 ~ ~ ^ O                                                   X J J e $.%...%.#.*.d ) j.g.g.g.g.g.g.g.",
"g.g.g.g.g.g.g.g.g.g.g.g.g.F * A I Z .                                                   X J %.| #.o...#.o.*.y / j.g.g.g.g.g.g.g.",
"g.g.g.g.g.g.g.g.g.g.g.g.g.G 8 0.0.' O                                                   X J *.*.#.X.o.@.X.*.y / j.g.g.g.g.g.g.g.",
"g.g.g.g.g.g.g.g.g.g.g.g.g.G i ' ;.' O                                                   X J %.%.#.X.X.%.o.*.y / j.g.g.g.g.g.g.g.",
"g.g.g.g.g.g.g.g.g.g.g.g.g.G 6 ) ;.` O                                                   X J o.%.#.X.@.%.o.*.y ( j.g.g.g.g.g.g.g.",
"g.g.g.g.g.g.g.g.g.g.g.g.g.F 1 Y R C .                                                   X z o.#.o.X.#.o.X.*.y ) j.g.g.g.g.g.g.g.",
"g.g.g.g.g.g.g.g.g.g.g.g.g.F 2 ~ ^ I o                                                   X z o.#.#.X.#.#.X.*.y ( j.g.g.g.g.g.g.g.",
"g.g.g.g.g.g.g.g.g.g.g.g.g.F 9 7.0.<.O                                                   X z o.#.@.X.@.#.X.*.d ( j.h.g.g.g.g.g.g.",
"g.g.g.g.g.g.g.g.g.g.g.g.g.F 8 <.2.<.O                                                   X J *.%.@.X.o.@.X.*.d / j.g.g.g.g.g.g.g.",
"g.g.g.g.g.g.g.g.g.g.g.g.h.D 6 / <.' O                                                   X J *.&.o.o.o.#.X.*.y / j.h.g.g.g.g.g.g.",
"g.g.g.g.g.g.g.g.g.g.g.g.g.G 1 D D v .                                                   X J *.#.@.&.&.o.X.*.y / j.g.g.g.g.g.g.g.",
"g.g.g.g.g.g.g.g.g.g.g.g.g.G i 1.5.` O                                                   X J *.*.%.%.X.[ X.*.y _ j.g.g.g.g.g.g.g.",
"g.g.g.g.g.g.g.g.g.g.g.g.g.F i 3.5.-.O                                                   X J *.&.#.K e ] K %.y / j.g.g.g.g.g.g.g.",
"g.g.g.g.g.g.g.g.g.g.g.g.g.G i 1.,.` O                                                   X J #.#.#.s % q , h t _ j.g.g.g.g.g.g.g.",
"g.g.g.g.g.g.g.g.g.g.g.g.g.G 2 ~ ) ~ O                                                   X J @.#.#.} > $ # > e / j.g.g.g.g.g.g.g.",
"g.g.g.g.g.g.g.g.g.g.g.g.g.D 1 R -.G .                                                   X J *.&.@...l u & u t / j.g.g.g.g.g.g.g.",
"g.g.g.g.g.g.g.g.g.g.g.g.g.G i 4.0.7.O                                                   X J #.#.@.X.@...l $.y / j.g.g.g.g.g.g.g.",
"g.g.g.g.g.g.g.g.g.g.g.g.g.F i <.>.,.O                                                   X J o.%.%.X.#.@.X.=.y / j.g.g.g.g.g.g.g.",
"g.g.g.g.g.g.g.g.g.g.g.g.g.F 4 _ ' ,.@                                                   X z @.&.*.X.#.#...=.y _ j.g.g.g.g.g.g.g.",
"g.g.g.g.g.g.g.g.g.g.g.g.h.F ; ) W R O                                                   X J o.&.&.X.@.#...*.y / j.g.g.g.g.g.g.g.",
"g.g.g.g.g.g.g.g.g.g.g.g.g.F * v B p .                                                   X J o.&.&.o.#.@.X.=.y / j.h.g.g.g.g.g.g.",
"g.g.g.g.g.g.g.g.g.g.g.g.g.F 6 -.1.,.O                                                   X J o.&.*.#.@.@.X.*.y / j.g.g.g.g.g.g.g.",
"g.g.g.g.g.g.g.g.g.g.g.g.g.G 4 ^ ;.4.@                                                   X J o.&.*.o...@.X.*.y / j.g.g.g.g.g.g.g.",
"g.g.g.g.g.g.g.g.g.g.g.g.g.G 4 ) 5.>.O                                                   X J { k %.#...o.X.*.y / j.g.g.g.g.g.g.g.",
"g.g.g.g.g.g.g.g.g.g.g.g.g.F 1 I ~ I .                                                   X h r 0 @.%...@.X.=.y _ j.g.g.g.g.g.g.g.",
"g.g.g.g.g.g.g.g.g.g.g.g.g.F 1 C Y A .                                                   X $ $ < X.#.X.#.X.*.y / j.h.g.g.g.g.g.g.",
"g.g.g.g.g.g.g.g.g.g.g.g.h.F 4 ;.6.;.O                                                   . % $ 0 X.X...@.X.*.y / j.g.g.g.g.g.g.g.",
"g.g.g.g.g.g.g.g.g.g.g.g.g.G p ;.;.) O                                                   X h w , X...{ #.o.*.d / j.g.g.g.g.g.g.g.",
"g.g.g.g.g.g.g.g.g.g.g.g.g.G 3 ~ ;.,.O                                                   X J h 0 X... .%.o.*.y / j.g.g.g.g.g.g.g.",
"g.g.g.g.g.g.g.g.g.g.g.g.g.F = C P V .                                                   X J +.K o.X.X.@.X.*.y / j.g.g.g.g.g.g.g.",
"g.g.g.g.g.g.g.g.g.g.g.g.g.F 3 <.1.! o                                                   X J @.&.o.X.X.#.X.*.y / j.g.g.g.g.g.g.g.",
"g.g.g.g.g.g.g.g.g.g.g.g.g.F 2 4.5.<.O                                                   X J @.#.#.X.#.#.X.*.y / j.h.g.g.g.g.g.g.",
"g.g.g.g.g.g.g.g.g.g.g.g.g.F 8 <.<.5.@                                                   X J @.@.o.X.#.o.X.*.y / j.g.g.g.g.g.g.g.",
"g.g.g.g.g.g.g.g.g.g.g.g.g.T 4 T / R .                                                     q [ %.@.X.@.#.X.*.d ( j.g.g.g.g.g.g.g.",
"g.g.g.g.g.g.g.g.g.g.g.g.g.a.G c n c 5 5 5 5 5 5 5 5 5 5 5 5 5 5 5 5 5 5 5 5 5 5 5 5 5 5 5 r u ..@.X.#.@.X.*.d / j.g.g.g.g.g.g.g.",
"g.g.g.g.g.g.g.g.g.g.g.g.g.g.f.s.s.s.s.s.d.s.s.s.d.d.s.s.d.d.s.s.d.d.d.s.d.s.d.d.s.s.s.s.d.s.' y ..X.@.#.X.*.y / j.g.g.g.g.g.g.g.",
"g.g.g.g.g.g.g.g.g.g.g.g.g.g.j.j.g.j.g.h.h.h.j.g.h.j.h.h.h.h.g.h.h.h.h.g.g.h.h.h.h.g.h.h.h.h.d._ d ] #.@.X.*.d / j.h.g.g.g.g.g.g.",
"g.g.g.g.g.g.g.g.g.g.g.g.g.g.g.g.g.g.g.g.g.g.g.g.g.g.g.g.g.g.g.g.g.g.g.g.g.g.g.g.g.g.g.g.g.g.h.f.) y | #.X.*.y ( j.g.g.g.g.g.g.g.",
"g.g.g.g.g.g.g.g.g.g.g.g.g.g.g.g.g.g.g.g.g.g.g.g.g.g.g.g.g.g.g.g.g.g.g.g.g.g.g.g.g.g.g.g.g.g.g.g.f.( y [ X.*.y / j.g.g.g.g.g.g.g.",
"g.g.g.g.g.g.g.g.g.g.g.g.g.g.g.g.g.g.g.g.g.g.g.g.g.g.g.g.g.g.g.g.g.g.g.g.g.g.g.g.g.g.g.g.g.g.g.g.h.d.( t x %.d ( j.h.g.g.g.g.g.g.",
"g.g.g.g.g.g.g.g.g.g.g.g.g.g.g.g.g.g.g.g.g.g.g.g.g.g.g.g.g.g.g.g.g.g.g.g.g.g.g.g.g.g.g.g.g.g.h.h.h.j.f.W t l y ' j.g.g.g.g.g.g.g."
};
