/* XPM */
static char *result[] = {
/* columns rows colors chars-per-pixel */
"64 64 251 2 ",
"   c #383528",
".  c #453E26",
"X  c #463E26",
"o  c #443E29",
"O  c #423D2E",
"+  c #235928",
"@  c #235A28",
"#  c #235B28",
"$  c #235B29",
"%  c #245A29",
"&  c #245B29",
"*  c #245C29",
"=  c #245D29",
"-  c #255D29",
";  c #275C29",
":  c #245E29",
">  c #245E2A",
",  c #255E2A",
"<  c #245F2A",
"1  c #255F2A",
"2  c #265E2A",
"3  c #265F2A",
"4  c #275F2A",
"5  c #285A29",
"6  c #2A5B2A",
"7  c #2B5D29",
"8  c #2C5D2A",
"9  c #25602A",
"0  c #26602A",
"q  c #26612A",
"w  c #26602B",
"e  c #27612B",
"r  c #25622A",
"t  c #26622A",
"y  c #26622B",
"u  c #27622B",
"i  c #27632B",
"p  c #27602C",
"a  c #27622C",
"s  c #27622D",
"d  c #28622B",
"f  c #28632B",
"g  c #28642B",
"h  c #29642B",
"j  c #28622C",
"k  c #28632C",
"l  c #28632D",
"z  c #29632D",
"x  c #28642C",
"c  c #29642D",
"v  c #2A652C",
"b  c #29662C",
"n  c #2A672C",
"m  c #2B672C",
"M  c #2A672D",
"N  c #2B672E",
"B  c #2D652C",
"V  c #2C672F",
"C  c #2A682C",
"Z  c #2B682C",
"A  c #2B682D",
"S  c #2A692D",
"D  c #2B692D",
"F  c #2B6A2D",
"G  c #2C692D",
"H  c #2C6A2D",
"J  c #2D6A2D",
"K  c #2C6B2D",
"L  c #2D6B2D",
"P  c #2C682E",
"I  c #2C692E",
"U  c #2C6A2E",
"Y  c #2D6A2E",
"T  c #2D6B2E",
"R  c #2D6C2E",
"E  c #2D6D2E",
"W  c #2E6C2E",
"Q  c #2E6D2E",
"!  c #2E6C2F",
"~  c #2E6D2F",
"^  c #2F6D2F",
"/  c #2E6E2E",
"(  c #2E6F2E",
")  c #2F6F2E",
"_  c #2F6E2F",
"`  c #2F6F2F",
"'  c #2F702F",
"]  c #30702F",
"[  c #30712F",
"{  c #30722F",
"}  c #31722F",
"|  c #2B6630",
" . c #2D6A30",
".. c #2F6E30",
"X. c #2F6F30",
"o. c #2E6C32",
"O. c #2F6D35",
"+. c #2F6E34",
"@. c #2F6E35",
"#. c #306F35",
"$. c #2F7030",
"%. c #317130",
"&. c #317230",
"*. c #317330",
"=. c #327330",
"-. c #317132",
";. c #317033",
":. c #317430",
">. c #327430",
",. c #327530",
"<. c #337530",
"1. c #327431",
"2. c #337531",
"3. c #337630",
"4. c #337631",
"5. c #337532",
"6. c #337632",
"7. c #347731",
"8. c #347632",
"9. c #347733",
"0. c #327335",
"q. c #317036",
"w. c #337436",
"e. c #347831",
"r. c #357932",
"t. c #357933",
"y. c #357A32",
"u. c #367A32",
"i. c #367B32",
"p. c #367B33",
"a. c #377C32",
"s. c #377D32",
"d. c #377C33",
"f. c #377D33",
"g. c #357834",
"h. c #367936",
"j. c #367937",
"k. c #387D32",
"l. c #387D33",
"z. c #387E33",
"x. c #387F33",
"c. c #397F34",
"v. c #387E35",
"b. c #387F35",
"n. c #397F35",
"m. c #387D37",
"M. c #397F36",
"N. c #337439",
"B. c #347639",
"V. c #34763A",
"C. c #35773B",
"Z. c #377B38",
"A. c #377B3C",
"S. c #377A3D",
"D. c #387D38",
"F. c #387C39",
"G. c #397D3A",
"H. c #397E3A",
"J. c #397E3B",
"K. c #424126",
"L. c #4E4425",
"P. c #4F4625",
"I. c #4A432C",
"U. c #564B24",
"Y. c #5C4F23",
"T. c #4C5325",
"R. c #495A29",
"E. c #5F5124",
"W. c #5F5929",
"Q. c #574D30",
"!. c #565232",
"~. c #5C5133",
"^. c #605225",
"/. c #695829",
"(. c #695929",
"). c #69592B",
"_. c #6A5A2A",
"`. c #615530",
"'. c #6C5E35",
"]. c #546430",
"[. c #67602E",
"{. c #71602F",
"}. c #74622F",
"|. c #6F6032",
" X c #676A35",
".X c #756330",
"XX c #7C6935",
"oX c #7E6A35",
"OX c #816D38",
"+X c #836F39",
"@X c #398034",
"#X c #398035",
"$X c #3A8036",
"%X c #3A8136",
"&X c #3A8137",
"*X c #3B8237",
"=X c #3B823B",
"-X c #3C8439",
";X c #3D853B",
":X c #3B823C",
">X c #3D853D",
",X c #3D863C",
"<X c #3E873C",
"1X c #3E873D",
"2X c #3E883D",
"3X c #3E883E",
"4X c #3F883E",
"5X c #3F893E",
"6X c #3F893F",
"7X c #3F8A3F",
"8X c #408A3F",
"9X c #3C8342",
"0X c #3D8542",
"qX c #3E8643",
"wX c #3D8544",
"eX c #3E8544",
"rX c #3E8644",
"tX c #3F8744",
"yX c #3F8745",
"uX c #3F8841",
"iX c #3F8844",
"pX c #3F8846",
"aX c #408A40",
"sX c #408B40",
"dX c #408A43",
"fX c #418B45",
"gX c #408946",
"hX c #408947",
"jX c #418C45",
"kX c #428E44",
"lX c #438F45",
"zX c #418C46",
"xX c #449046",
"cX c #449047",
"vX c #449147",
"bX c #459249",
"nX c #459349",
"mX c #44914A",
"MX c #45914A",
"NX c #45924B",
"BX c #46954B",
"VX c #47964C",
"CX c #47964D",
"ZX c #48964D",
"AX c #48974D",
"SX c #49984F",
"DX c #499950",
"FX c #4A9950",
"GX c #4A9A51",
"HX c #4A9B52",
"JX c None",
/* pixels */
"JXJXJXJXJXJXJXJXJXJXJXJXJXJXJXJXJXJXJXJXJXJXJXJXJXJXJXJXJXJXJXJXJXJXJXJXJXJXJXJXJXJXJXJXJXJXJXJXJXJXJXJXJXJXJXJXJXJXJXJXJXJXJXJX",
"JXJXJXJXJXJXJXJXJXJXJXJXJXJXJXJXJXJXJXJXJXJXJXJXJXJXJXJXJXJXJXJXJXJXJXJXJXJXJXJXJXJXJXJXJXJXJXJXJXJXJXJXJXJXJXJXJXJXJXJXJXJXJXJX",
"JXJXJXJXJXJXJXJXJXJXJXJXJXJXJXJXJXJXJXJXJXJXJXJXJXJXJXJXJXJXJXJXJXJXJXJXJXJXJXJXJXJXJXJXJXJXJXJXJXJXJXJXJXJXJXJXJXJXJXJXJXJXJXJX",
"JXJXJXJXJXJXJXJXJXJXJXJXJXJXJX..W JXJXJXJXJXJXJXJXJXJXJXJXJXJX..W JXJXJXJXJXJXJXJXJXJXJXJXJXJX..W JXJXJXJXJXJXJXJXJXJXJXJXJXJXJX",
"JXJXJXJXJXJXJXJXJXJXJXJXJXJXpXxXc.>.JXJXJXJXJXJXJXJXJXJXJXJXpXxXc.>.JXJXJXJXJXJXJXJXJXJXJXJXpXxXc.>.JXJXJXJXJXJXJXJXJXJXJXJXJXJX",
"JXJXJXJXJXJXJXJXJXJXJXJXJXpXGXDX2Xz.=.JXJXJXJXJXJXJXJXJXJXpXGXDX2Xz.=.JXJXJXJXJXJXJXJXJXJXpXGXDX2Xz.=.JXJXJXJXJXJXJXJXJXJXJXJXJX",
"JXJXJXJXJXJXJXJXJXJXJXJXyXGXGXGXZX*Xa.G JXJXJXJXJXJXJXJXyXGXGXGXZX*Xa.G JXJXJXJXJXJXJXJXyXGXGXGXZX*Xa.G JXJXJXJXJXJXJXJXJXJXJXJX",
"JXJXJXJXJXJXJXJXJXJXJXJXqXFXDXGXGX7X@X5.JXJXJXJXJXJXJXJXqXFXDXGXGX7X@X5.JXJXJXJXJXJXJXJXqXFXDXGXGX7X@X5.JXJXJXJXJXJXJXJXJXJXJXJX",
"JXJXJXJXJXJXJXJXJXJXJX;.MXGXvXZXAX&X7XjXc JXJXJXJXJXJX;.MXGXvXZXAX&X7XjXc JXJXJXJXJXJX;.MXGXvXZXAX&X7XjXc JXJXJXJXJXJXJXJXJXJXJX",
"JXJXJXJXJXJXJXJXJXJX| fXSXVXSXlX,Xz.%XaXX.+ JXJXJXJX| fXSXVXSXlX,Xz.%XaXX.+ JXJXJXJX| fXSXVXSXlX,Xz.%XaXX.+ JXJXJXJXJXJXJXJXJXJX",
"JXJXJXJXJXJXJXJXJXJXgXGXkXBXSX,Xk.z.z.k.i.D JXJXJXJXgXGXkXBXSX,Xk.z.z.k.i.D JXJXJXJXgXGXkXBXSX,Xk.z.z.k.i.D JXJXJXJXJXJXJXJXJXJX",
"JXJXJXJXJXJXJXJXJXZ.CXcX$X2X3Xz.z.z.;X<Xx.i.P ^ L w.CXvX$X2X3Xz.z.z.;X<Xx.i.P ^ L w.CXvX$X2X3Xz.z.z.;X<Xx.i.n JXJXJXJXJXJXJXJXJX",
"JXJXJXJXJXJXJXJXS.4X%X%Xc.xX6Xs.z.z.<XnXb.8.iXxXc.<.g.%Xc.xX6Xs.z.z.<XnXb.8.iXxXc.<.g.%Xc.xX6Xs.z.z.<XbXn.z.` * JXJXJXJXJXJXJXJX",
"JXJXJXJXJXJXJXJXN.NXuXH.1XaX-X6X#Xs.z.n...rXGXDX2Xz.2.h.<XaX-X6X#Xs.z.n...rXGXDX2Xz.2.h.<XaX-X6X#Xs.z.n.R 4.C $ JXJXJXJXJXJXJXJX",
"JXJXJXJXJXJXJXJXp @.#.+.dXn.vXZX%X*.r.8.eXGXGXGXZX*Xa.! J.n.vXZX%X*.r.8.eXGXGXGXZX*Xa.! J.n.vXZX%X*.y.>., 3 = & JXJXJXJXJXJXJXJX",
"JXJXJXJXJXJXJXB.m.$.4.*.I I 9X4Xl.n v N 0XFXDXGXGX7X@X1.h U 9X4Xl.n v N 0XFXDXGXGX7X@X1.h U 9X4Xl.n v h 1 1 9 1 * JXJXJXJXJXJXJX",
"JXJXJXJXJXJXJX=X#XvXaXz.>.} R L J 1 :  .MXGXvXZXAX&X8XfXk ) R L J 1 :  .MXGXvXZXAX&X8XfXk ) R L J 1 1 q t 9 9 t 0 JXJXJXJXJXJXJX",
"JXJXJXJXJXJXC.D.t.aX%Xz.z.x.i.C > 1 l zXSXVXSXlX,Xz.%XaXX.W a.C > 1 l zXSXVXSXlX,Xz.%XaXX.W a.C > 9 9 C } i q *.( * JXJXJXJXJXJX",
"JXJXJXJXJXP >XM.i.k.z.z.z.z.i.n : l wXHXkXBXSX,Xk.z.z.k.i.L ] C : l wXHXkXBXSX,Xk.z.z.k.i.L ] C > 9 9 i y./ 9 K 3.y & JXJXJXJXJX",
"JXJXJXJXJXz &.f.<X;Xz.z.z.z.%.! G 0.ZXcX$X2X3Xz.z.z.;X<Xx.i.I ! G 0.ZXcX$X2X3Xz.z.z.;X<Xx.i.I ! L q 9 9 ` / < 9 g t * JXJXJXJXJX",
"JXJXJXJXJXG.p.n.bX<Xz.e.a.9.tXvXc.<.g.%Xc.xX6Xs.z.z.<XnXb.8.iXvXc.<.g.%Xc.xX6Xs.z.z.<XnXb.8.iXvX@X} 0 9 q F C < R :.0 JXJXJXJXJX",
"JXJXJXJXT 6.E d.%Xz.i.[ 5.tXGXDX2Xz.2.h.<XaX-X6X#Xs.z.n...rXGXDX2Xz.2.h.<XaX-X6X#Xs.z.n...rXGXDX2Xz.} 1 1 D E 1 i R q * JXJXJXJX",
"JXJXJXJX, 2 ) r.[ f.( M tXGXGXGXZX*Xa.! J.n.vXZX%X*.r.8.eXGXGXGXZX*Xa.! J.n.vXZX%X*.r.8.eXGXGXGXZX*Xs.A , 9 q 9 9 : & & JXJXJXJX",
"JXJXJXJXJXJXJX3 f E i a 0XFXDXGXGX7X@X1.h U 9X4Xl.n v N 0XFXDXGXGX7X@X1.h U 9X4Xl.n v N 0XFXDXGXGX7X@X2.1 9 9 = * JXJXJXJXJXJXJX",
"JXJXJXJXJXJXJXJX- * d -.mXGXvXZXAX&X8XfXk ) R L J 1 :  .MXGXvXZXAX&X8XfXk ) R L J 1 :  .MXGXvXZXAX&X8XfXj * = & JXJXJXJXJXJXJXJX",
"JXJXJXJXJXJXJXJXJXJXV jXSXVXSXlX,Xz.%XaXX.W a.C > 1 l zXSXVXSXlX,Xz.%XaXX.W a.C > 1 l zXSXVXSXlX,Xz.%XaXX.+ JXJXJXJXJXJXJXJXJXJX",
"JXJXJXJXJXJXJXJXJXJXhXGXkXBXSX,Xk.z.z.k.i.L ] C : l wXHXkXBXSX,Xk.z.z.k.i.L ] C : l wXHXkXBXSX,Xk.z.z.k.i.D JXJXJXJXJXJXJXJXJXJX",
"JXJXJXJXJXJXJXJXJXZ.CXcX$X2X3Xz.z.z.;X<Xx.i.I ! G 0.ZXcX$X2X3Xz.z.z.;X<Xx.i.I ! G 0.ZXcX$X2X3Xz.z.z.;X<Xx.i.n JXJXJXJXJXJXJXJXJX",
"JXJXJXJXJXJXJXJXS.4X%X%Xc.xX6Xs.z.z.<XnXb.8.iXvXc.<.g.%Xc.xX6Xs.z.z.<XnXb.8.iXvXc.<.g.%Xc.xX6Xs.z.z.<XbXn.z.` * JXJXJXJXJXJXJXJX",
"JXJXJXJXJXJXJXJXN.NXuXH.1XaX-X6X#Xs.z.n...rXGXDX2Xz.2.h.<XaX-X6X#Xs.z.n...rXGXDX2Xz.2.h.<XaX-X6X#Xs.z.n.R 4.C $ JXJXJXJXJXJXJXJX",
"JXJXJXJXJXJXJXJXp @.#.+.dXn.vXZX%X*.r.8.eXGXGXGXZX*Xa.! J.n.vXZX%X*.r.8.eXGXGXGXZX*Xa.! J.n.vXZX%X*.y.>., 3 = & JXJXJXJXJXJXJXJX",
"JXJXJXJXJXJXJXB.m.$.4.*.I I 9X4Xl.n v N 0XFXDXGXGX7X@X1.h U 9X4Xl.n v N 0XFXDXGXGX7X@X1.h U 9X4Xl.n v h 1 1 9 1 * JXJXJXJXJXJXJX",
"JXJXJXJXJXJXJX=X#XvXaXz.>.} R L J 1 :  .MXGXvXZXAX&X8XfXk ) R L J 1 :  .MXGXvXZXAX&X8XfXk ) R L J 1 1 q t 9 9 t 0 JXJXJXJXJXJXJX",
"JXJXJXJXJXJXC.D.t.aX%Xz.z.x.i.C > 1 l zXSXVXSXlX,Xz.%XaXX.W a.C > 1 l zXSXVXSXlX,Xz.%XaXX.W a.C > 9 9 C } i q *.( * JXJXJXJXJXJX",
"JXJXJXJXJXP >XM.i.k.z.z.z.z.i.n : l wXHXkXBXSX,Xk.z.z.k.i.L ] C : l wXHXkXBXSX,Xk.z.z.k.i.L ] C > 9 9 i y./ 9 K 3.y & JXJXJXJXJX",
"JXJXJXJXJXz &.f.<X;Xz.z.z.z.%.! G 0.ZXcX$X2X3Xz.z.z.;X<Xx.i.I ! G 0.ZXcX$X2X3Xz.z.z.;X<Xx.i.I ! L q 9 9 ` / < 9 g t * JXJXJXJXJX",
"JXJXJXJXJXG.p.n.bX<Xz.e.a.9.tXvXc.<.g.%Xc.xX6Xs.z.z.<XnXb.8.iXvXc.<.g.%Xc.xX6Xs.z.z.<XnXb.8.iXvX@X} 0 9 q F C < R :.0 JXJXJXJXJX",
"JXJXJXJXT 6.E d.%Xz.i.[ 5.tXGXDX2Xz.2.h.<XaX-X6X#Xs.z.n...rXGXDX2Xz.2.h.<XaX-X6X#Xs.z.n...rXGXDX2Xz.} 1 1 D E 1 i R q * JXJXJXJX",
"JXJXJXJX, 2 ) r.[ f.( M tXGXGXGXZX*Xa.! J.n.vXZX%X*.r.8.eXGXGXGXZX*Xa.! J.n.vXZX%X*.r.8.eXGXGXGXZX*Xs.A , 9 q 9 9 : & & JXJXJXJX",
"JXJXJXJXJXJXJX3 f E i a 0XFXDXGXGX7X@X1.h U 9X4Xl.n v N 0XFXDXGXGX7X@X1.h U 9X4Xl.n v N 0XFXDXGXGX7X@X2.1 9 9 = * JXJXJXJXJXJXJX",
"JXJXJXJXJXJXJXJX- * d -.mXGXvXZXAX&X8XfXk ) R L J 1 :  .MXGXvXZXAX&X8XfXk ) R L J 1 :  .MXGXvXZXAX&X8XfXj * = & JXJXJXJXJXJXJXJX",
"JXJXJXJXJXJXJXJXJXJXV jXSXVXSXlX,Xz.%XaXX.W a.C > 1 l zXSXVXSXlX,Xz.%XaXX.W a.C > 1 l zXSXVXSXlX,Xz.%XaXX.+ JXJXJXJXJXJXJXJXJXJX",
"JXJXJXJXJXJXJXJXJXJXhXGXkXBXSX,Xk.z.z.k.i.K [ D < l wXHXkXBXSX,Xk.z.z.k.i.K [ D < l wXHXkXBXSX,Xk.z.z.k.i.D JXJXJXJXJXJXJXJXJXJX",
"JXJXJXJXJXJXJXJXJXZ.CXcX$X2X3Xz.z.z.;X<Xx.i.Z : e j.ZXcX$X2X3Xz.z.z.;X<Xx.i.Z : e j.ZXcX$X2X3Xz.z.z.;X<Xx.i.n JXJXJXJXJXJXJXJXJX",
"JXJXJXJXJXJXJXJXS.4X%X%Xc.xX6Xs.z.z.<XbXn.z.' @ V.5X%X%Xc.xX6Xs.z.z.<XbXn.z.' @ V.5X%X%Xc.xX6Xs.z.z.<XbXn.z.` * JXJXJXJXJXJXJXJX",
"JXJXJXJXJXJXJXJXN.NXuXH.1XaX-X6X#Xs.z.n.R 4.C # O.NXuXH.1XaX-X6X#Xs.z.n.R 4.C # O.NXuXH.1XaX-X6X#Xs.z.n.R 4.C $ JXJXJXJXJXJXJXJX",
"JXJXJXJXJXJXJXJXp @.#.+.dXn.vXZX%X*.y.>., 3 = * w @.#.+.dXn.vXZX%X*.y.>., 3 = * - @.#.+.dXn.vXZX%X*.y.>., 3 = & JXJXJXJXJXJXJXJX",
"JXJXJXJXJXJXJXB.m.$.4.*.I I 9X4Xl.n v h 1 1 1 +.m.$.4.*.I I 9X4Xl.n v h 1 1 9 1 f ~ 6.*.I I 9X4Xl.n v h 1 1 9 1 * JXJXJXJXJXJXJX",
"JXJXJXJXJXJXJX=X#XvXaXz.>.} R L J 1 1 q t 9 s :X#XvXaXz.>.} R L J 1 1 q t 9 9 t 9 A.sXz.>.} R L J 1 1 q t 9 9 t 0 JXJXJXJXJXJXJX",
"JXJXJXJXJXJXC.D.t.aX%Xz.z.x.i.n > 9 9 C } u q.D.t.aX%Xz.z.x.i.n > 9 9 C } i q *./ o.v.z.z.x.i.n > 9 9 C } i q *.( * JXJXJXJXJXJX",
"JXJXJXJXJXP >XM.i.k.z.z.z.z.i.D 9 9 9 i 7._ >XM.i.k.z.z.z.z.i.D 9 9 9 i y./ 9 K 3.q m a.z.z.i.D 9 9 9 i y./ 9 K 3.y & JXJXJXJXJX",
"JXJXJXJXJXz &.f.<X;Xz.z.z.x.[ 9 9 9 9 9 R Y } f.<X;Xz.z.z.x.[ 9 9 9 9 9 ` / < 9 g q h a.z.x.[ 9 9 9 9 9 ` / < 9 g t * JXJXJXJXJX",
"JXJXJXJXJXG.p.n.bX<Xz.e.a.z.i.D 9 9 9 9 x F.p.n.bX<Xz.e.a.z.i.D 9 9 9 9 q F C < R :.i Q d.z.i.D 9 9 9 9 q F C < R :.0 JXJXJXJXJX",
"JXJXJXJXT 6.E d.%Xz.i.{ f.l.i.D 9 9 9 < H 6.E d.%Xz.i.{ f.l.i.D 9 9 9 9 9 D E 1 i R q 3 u.z.i.D 9 9 9 9 9 D E 1 i R q * JXJXJXJX",
"JXJXJXJX, 2 ) r.[ f.( E <.H n 9 9 9 9 1 1 , ` r.[ f.( E <.H n 9 9 9 9 9 9 9 q 9 9 : & h *.K n 9 9 9 9 9 9 9 q 9 9 : & & JXJXJXJX",
"JXJXJXJXJXJXJX3 f E i b C 1 1 9 9 9 9 9 1 1 0 3 f E i b C 1 1 9 9 9 9 9 9 9 9 = * = 1 b C 1 1 9 9 9 9 9 9 9 9 = * JXJXJXJXJXJXJX",
"JXJXJXJXJXJXJXJX- * h ,.S < b r 9 9 9 9 1 = * @ - * h ,.S < b r 9 9 9 9 1 = = & % * h ,.S < b r 9 9 9 9 1 = = & JXJXJXJXJXJXJXJX",
"JXJXJXJXJXJXJXJXJXJXJX4 6 B H 8 7 < ; 5 & JXJXJXJXJXJX4 6 B H 8 7 < ; 5 & JXJXJXJXJXJX4 6 B H 8 7 < ; 5 & JXJXJXJXJXJXJXJXJXJXJX",
"JXJXJXJXJXJXJXJXJXJXJXJX!. X].[.W.R.T.K.JXJXJXJXJXJXJXJX!. X].[.W.R.T.K.JXJXJXJXJXJXJXJX!. X].[.W.R.T.K.JXJXJXJXJXJXJXJXJXJXJXJX",
"JXJXJXJXJXJXJXJXJXJXJXJX~.+XoX.X(./.E.X JXJXJXJXJXJXJXJX~.+XoX.X(./.E.X JXJXJXJXJXJXJXJX~.+XoX.X(./.E.X JXJXJXJXJXJXJXJXJXJXJXJX",
"JXJXJXJXJXJXJXJXJXJXJXJX'.OXXX}._.^.Y.P.JXJXJXJXJXJXJXJX'.OXXX}._.^.Y.P.JXJXJXJXJXJXJXJX'.OXXX}._.^.Y.P.JXJXJXJXJXJXJXJXJXJXJXJX",
"JXJXJXJXJXJXJXJXJXJXJXO Q.`.|.{.).U.L..   JXJXJXJXJXJXO Q.`.|.{.).U.L..   JXJXJXJXJXJXO Q.`.|.{.).U.L..   JXJXJXJXJXJXJXJXJXJXJX",
"JXJXJXJXJXJXJXJXJXJXJXJXJXJXJXI.o JXJXJXJXJXJXJXJXJXJXJXJXJXJXI.o JXJXJXJXJXJXJXJXJXJXJXJXJXJXI.o JXJXJXJXJXJXJXJXJXJXJXJXJXJXJX",
"JXJXJXJXJXJXJXJXJXJXJXJXJXJXJXJXJXJXJXJXJXJXJXJXJXJXJXJXJXJXJXJXJXJXJXJXJXJXJXJXJXJXJXJXJXJXJXJXJXJXJXJXJXJXJXJXJXJXJXJXJXJXJXJX"
};
