/* XPM */
static char *result[] = {
/* columns rows colors chars-per-pixel */
"32 32 104 2 ",
"   c #33293F",
".  c #421E26",
"X  c #363547",
"o  c #313F5A",
"O  c #193C6C",
"+  c #394A56",
"@  c #3C545D",
"#  c #27476D",
"$  c #325C6F",
"%  c #335D70",
"&  c #415F71",
"*  c #134C86",
"=  c #124E89",
"-  c #1F5A82",
";  c #12518D",
":  c #0E5C9C",
">  c #205C83",
",  c #2F6A83",
"<  c #20678F",
"1  c #20688F",
"2  c #387B85",
"3  c #216B91",
"4  c #0D5EA0",
"5  c #1063A0",
"6  c #156EA1",
"7  c #1471A2",
"8  c #0D6EB0",
"9  c #0C70B2",
"0  c #0E7AB5",
"q  c #0774BF",
"w  c #0F79BC",
"e  c #147EB4",
"r  c #4A6F94",
"t  c #4B7094",
"y  c #0777C2",
"u  c #0778C2",
"i  c #0C7BC1",
"p  c #067FCC",
"a  c #1581B5",
"s  c #1C8EB7",
"d  c #1A8FB8",
"f  c #1D92B9",
"g  c #299BAF",
"h  c #4796BB",
"j  c #1695CA",
"k  c #0382D2",
"l  c #048CD9",
"z  c #0B93D5",
"x  c #0B95D9",
"c  c #0D9BDB",
"v  c #1DB4D9",
"b  c #2EBCCA",
"n  c #31B9C5",
"m  c #28BED4",
"M  c #0094EC",
"N  c #019DEF",
"B  c #07A5ED",
"V  c #07A9ED",
"C  c #0AABEE",
"Z  c #18B9E1",
"A  c #19BFEA",
"S  c #07A9F1",
"D  c #0AADF0",
"F  c #18ADF0",
"G  c #12BAF1",
"H  c #34AFF0",
"J  c #3DBFF1",
"K  c #2BC1D4",
"L  c #24C2DB",
"P  c #31C7D2",
"I  c #1AC1EB",
"U  c #19C8F4",
"Y  c #1ED6F4",
"T  c #24C6E1",
"R  c #25CBE2",
"E  c #28CEE2",
"W  c #22CFEC",
"Q  c #35CEE3",
"!  c #23D2EE",
"~  c #2EDFEA",
"^  c #21D5F4",
"/  c #23DAF5",
"(  c #21DAF8",
")  c #32DBF4",
"_  c #2CE2EF",
"`  c #26E4F5",
"'  c #2AE5F5",
"]  c #2DEAF5",
"[  c #2CECF9",
"{  c #3CEDF6",
"}  c #3BEFF9",
"|  c #5AC4CF",
" . c #4CDFFA",
".. c #55E4F1",
"X. c #54E9F7",
"o. c #57EFF8",
"O. c #57F5FD",
"+. c #58F2FA",
"@. c #ABD1DD",
"#. c #A9DBE8",
"$. c #A3E7FC",
"%. c #A6EAFB",
"&. c #AEFCFE",
"*. c None",
/* pixels */
"*.*.*.*.*.*.*.*.*.*.*.*.*.*.*.*.*.*.*.*.*.*.*.*.*.*.*.*.*.*.*.*.",
"*.*.*.*.*.*.*.*.*.*.*.*.*.*.*.*.*.*.*.*.*.*.*.*.*.*.*.*.*.*.*.*.",
"*.*.*.*.*.*.*.*.*.*.= = = = = = = = = = = = *.*.*.*.*.*.*.*.*.*.",
"*.*.*.*.*.*.*.*.*.*.= * = = = = = = = = = = *.*.*.*.*.*.*.*.*.*.",
"*.*.*.*.*.*.= = * = = * * * * * = = = = = * = = = = *.*.*.*.*.*.",
"*.*.*.*.*.*.= = * = : 4 4 4 4 4 4 4 4 4 4 : = * = = *.*.*.*.*.*.",
"*.*.*.*.= = * * * : y k k k p k k p k k p y : * = = = = *.*.*.*.",
"*.*.*.*.= = : 5 6 a c D D D C C D C D D D c e 6 5 : ; = *.*.*.*.",
"*.*.*.*.= : q z v R ! ^ ^ ^ ^ ^ ^ ^ ^ ^ ^ ! R v z q : * *.*.*.*.",
"*.*.*.*.* 4 z G ( ] ] ] ] ] ] ] ] ] ] ] ] ] [ / G z : * *.*.*.*.",
"*.*.= = * 6 m / ' ] ] ] ] ] ] ] ] ] ] ] ] ] ] ] / v 6 * * = *.*.",
"*.*.= ; : e T [ [ ] [ [ ] ] ] ] ] ] ] ] [ [ [ [ [ R e : ; = *.*.",
"*.*.= : q c W ] [ [ [ [ [ [ ] ] ] ] ] [ [ [ [ [ [ ! c y : * *.*.",
"*.*.* 4 k C ^ ' E m b n n m W ^ ^ W T m b n n K _ / D k : * *.*.",
"*.*.* 5 k D / E s < $ @ @ , j D C c e < $ @ @ 2 P / D k 4 * *.*.",
"*.*.* : k C ^ E s > X . . o w M M l e > X . . @ n / D k : * *.*.",
"*.*.* 4 k C ^ ' R g + . . + w M M N v g + . . @ n ( D k : = *.*.",
"*.*.* 4 k C ^ } +.| % X X # i M M F  .| % X   $ b ( D k : = *.*.",
"*.*.* : k C Y +.&.@.r O O = p M M H %.@.t O O 3 m ( D k : * *.*.",
"*.*.* : k C Y +.&.#.h 6 6 e c B S Q %.#.h 6 6 f E / D k 5 * *.*.",
"*.*.* 5 k S Y } o...Q m L E W ^ ^ ) X...Q m m R ' ( D p 4 = *.*.",
"*.*.* : y x I / ` ' [ [ ] ] ] ] ] ' ' ] [ [ [ ] / A c i : * *.*.",
"*.*.*.*.: 8 x G / ] [ [ ' ] ] ] ' ] ] ' [ [ [ / G z 9 : *.*.*.*.",
"*.*.*.*.* 4 p C Y ] ] ' ] ] ] ] ] ' ] ] ' [ ] ^ D p : * *.*.*.*.",
"*.*.*.*.* : k D ^ [ ] ] ] ] ] ' ] ] ] ] ] ] [ ^ D p : * *.*.*.*.",
"*.*.*.*.* : y c I ^ ] ' / / ' ] ] ' ! / ' ] / A M y : * *.*.*.*.",
"*.*.*.*.*.*.: 8 c G / ^ F G / ] ] / G G / / G c 8 : *.*.*.*.*.*.",
"*.*.*.*.*.*.* 4 p C U A x x A ^ / A x z A U S p : * *.*.*.*.*.*.",
"*.*.*.*.*.*.* : k N D c 8 9 c D D x 8 8 x S N k : * *.*.*.*.*.*.",
"*.*.*.*.*.*.= : i k k u : : u k p u : : i k k u 5 * *.*.*.*.*.*.",
"*.*.*.*.*.*.*.*.: 5 4 : *.*.: : 4 : *.*.: 4 5 : *.*.*.*.*.*.*.*.",
"*.*.*.*.*.*.*.*.* * * * *.*.* * * = *.*.* * = * *.*.*.*.*.*.*.*."
};
