/* XPM */
static char *result[] = {
/* columns rows colors chars-per-pixel */
"64 64 214 2 ",
"   c black",
".  c #010101",
"X  c #020101",
"o  c #080404",
"O  c #0A0505",
"+  c #160C0C",
"@  c #170C0C",
"#  c #180C0C",
"$  c #190C0C",
"%  c #190D0D",
"&  c #1C0E0E",
"*  c #1C0F0F",
"=  c #1E0F0F",
"-  c #1F0F0F",
";  c #1E1010",
":  c #1F1010",
">  c #211111",
",  c #221111",
"<  c #221212",
"1  c #231212",
"2  c #241313",
"3  c #251313",
"4  c #251414",
"5  c #261414",
"6  c #271414",
"7  c #271515",
"8  c #281515",
"9  c #291515",
"0  c #291616",
"q  c #2A1616",
"w  c #2B1616",
"e  c #202222",
"r  c #212323",
"t  c #3E2020",
"y  c #333434",
"u  c #363737",
"i  c #353838",
"p  c #373A3A",
"a  c #462525",
"s  c #472525",
"d  c #482626",
"f  c #492626",
"g  c #4A2727",
"h  c #4B2727",
"j  c #4D2626",
"k  c #4C2828",
"l  c #5C3030",
"z  c #5D3131",
"x  c #602F2F",
"c  c #613030",
"v  c #623030",
"b  c #633131",
"n  c #603232",
"m  c #613333",
"M  c #643535",
"N  c #653535",
"B  c #663535",
"V  c #663636",
"C  c #673636",
"Z  c #683636",
"A  c #693737",
"S  c #6B3636",
"D  c #6D3636",
"F  c #554141",
"G  c #544242",
"H  c #7C4040",
"J  c #6A6C6C",
"K  c #6C6E6E",
"L  c #6F7171",
"P  c #803F3F",
"I  c #813F3F",
"U  c #814040",
"Y  c #824040",
"T  c #834040",
"R  c #834141",
"E  c #804343",
"W  c #814343",
"Q  c #844141",
"!  c #854141",
"~  c #844242",
"^  c #854242",
"/  c #864242",
"(  c #874242",
")  c #874343",
"_  c #814444",
"`  c #824444",
"'  c #834444",
"]  c #834545",
"[  c #844545",
"{  c #854545",
"}  c #854646",
"|  c #864646",
" . c #874646",
".. c #874747",
"X. c #884444",
"o. c #894444",
"O. c #894545",
"+. c #8A4545",
"@. c #8B4545",
"#. c #8B4646",
"$. c #8B4747",
"%. c #8C4646",
"&. c #8D4747",
"*. c #8E4747",
"=. c #8F4747",
"-. c #8A4848",
";. c #8B4848",
":. c #8B4949",
">. c #8D4848",
",. c #8C4949",
"<. c #8F4848",
"1. c #8E4A4A",
"2. c #8F4B4B",
"3. c #914949",
"4. c #924949",
"5. c #904B4B",
"6. c #934B4B",
"7. c #944B4B",
"8. c #904C4C",
"9. c #914C4C",
"0. c #924C4C",
"q. c #924D4D",
"w. c #954C4C",
"e. c #944D4D",
"r. c #974D4D",
"t. c #994E4E",
"y. c #9A4F4F",
"u. c #905252",
"i. c #915353",
"p. c #9D5050",
"a. c #A05252",
"s. c #A15353",
"d. c #A15454",
"f. c #A25454",
"g. c #A35454",
"h. c #A35555",
"j. c #A45555",
"k. c #A55555",
"l. c #A45656",
"z. c #A55656",
"x. c #A65656",
"c. c #A75656",
"v. c #A65757",
"b. c #A75757",
"n. c #A85757",
"m. c #A95757",
"M. c #AA5656",
"N. c #AA5757",
"B. c #AB5757",
"V. c #AD5757",
"C. c #A85858",
"Z. c #A95858",
"A. c #AA5858",
"S. c #AB5858",
"D. c #AA5959",
"F. c #AB5959",
"G. c #AC5858",
"H. c #AD5858",
"J. c #AC5959",
"K. c #AE5959",
"L. c #AC5A5A",
"P. c #AD5A5A",
"I. c #AD5B5B",
"U. c #AE5A5A",
"Y. c #AF5A5A",
"T. c #AE5B5B",
"R. c #AF5B5B",
"E. c #AF5C5C",
"W. c #B15B5B",
"Q. c #B05C5C",
"!. c #B15D5D",
"~. c #B25D5D",
"^. c #B35D5D",
"/. c #B35E5E",
"(. c #B45E5E",
"). c #B16464",
"_. c #B26565",
"`. c #B17373",
"'. c #B37575",
"]. c #BB7878",
"[. c #BD7A7A",
"{. c #BE7B7B",
"}. c #8A8C8C",
"|. c #BBA8A8",
" X c #BEAAAA",
".X c #C18484",
"XX c #C28585",
"oX c #C38585",
"OX c #C48686",
"+X c #C48787",
"@X c #C58787",
"#X c #DCB9B9",
"$X c #E0BEBE",
"%X c #BEC0C0",
"&X c #C0C2C2",
"*X c #C0C4C4",
"=X c #C1C5C5",
"-X c #D1D4D4",
";X c #D2D5D5",
":X c #D3D6D6",
">X c #D4D7D7",
",X c #D5D8D8",
"<X c #EEDCDC",
"1X c #F1DDDD",
"2X c #F0DEDE",
"3X c #F1DEDE",
"4X c #F1DFDF",
"5X c #F2DFDF",
"6X c #F3E0E0",
"7X c #F5E2E2",
"8X c #F3F7F7",
"9X c #F4F8F8",
"0X c #F6FAFA",
"qX c None",
/* pixels */
"qXqXqXqXqXqXqXqXqXqXqXqXqXqXqXqXqXqXqXqXqXqXqXqXqXqXqXqXqXqXqXqXqXqXqXqXqXqXqXqXqXqXqXqXqXqXqXqXqXqXqXqXqXqXqXqXqXqXqXqXqXqXqXqX",
"qXqXqXqXqXqXqXqXqXqXqXqXqXqXqXqXqXqXqXqXqXqXqXqXqXqXqXqXqXqXqXqXqXqXqXqXqXqXqXqXqXqXqXqXqXqXqXqXqXqXqXqXqXqXqXqXqXqXqXqXqXqXqXqX",
"qXqXqXqXqXqXqXqXqXqXqXqXqXqXqXqXqXqXqXqXqXqXqXqXqXqXqXqXqXqXqXqXqXqXqXqXqXqXqXqXqXqXqXqXqXqXqXqXqXqXqXqXqXqXqXqXqXqXqXqXqXqXqXqX",
"qXqXqXqXqXqXqXqXqXqXqXqXqXqXqXqXqXqXqXqXqXqXqXqXqXqXqXqXqXqXqXqXqXqXqXqXqXqXqXqXqXqXqXqXqXqXqXqXqXqXqXqXqXqXqXqXqXqXqXqXqXqXqXqX",
"qXqXqXqXqXqXqXqXqXqXqXqXqXqXqXqXqXqXqXqXqXqXqXqXqXqXqXqXqXqXqXqXqXqXqXqXqXqXqXqXqXqXqXqXqXqXqXqXqXqXqXqXqXqXqXqXqXqXqXqXqXqXqXqX",
"qXqXqXqXqXqXqXqXqXqXqXqXqXqXqXqXqXqXqXqXqXqXqXqXqXqXqXqXqXqXqXqXqXqXqXqXqXqXqXqXqXqXqXqXqXqXqXqXqXqXqXqXqXqXqXqXqXqXqXqXqXqXqXqX",
"qXqXqXqXqXqXqXqXqXqXqXqXqXqXqXqXqXqXqXqXqXqXqXqXqXqXqXqX        qXqXqXqXqXqXqXqXqXqXqXqXqXqXqXqXqXqXqXqXqXqXqXqXqXqXqXqXqXqXqXqX",
"qXqXqXqXqXqXqXqXqXqXqXqXqXqXqXqXqXqXqXqXqXqXqXqXqXqXqXqX3 q w 8 qXqXqXqXqXqXqXqXqXqXqXqXqXqXqXqXqXqXqXqXqXqXqXqXqXqXqXqXqXqXqXqX",
"qXqXqXqXqXqXqXqXqXqXqXqXqXqXqXqXqXqXqXqXqXqXqXqXqXqX  < N } ..A 5   qXqXqXqXqXqXqXqX        qXqXqXqXqXqXqXqXqXqXqXqXqXqXqXqXqXqX",
"qXqXqXqXqXqXqXqXqXqXqXqXqXqXqXqXqXqXqXqXqXqXqXqXqXqX> g 9.L.e.Z 3   qXqXqXqXqXqXqXqX3 q w 8 qXqXqXqXqXqXqXqXqXqXqXqXqXqXqXqXqXqX",
"qXqXqXqXqXqXqXqXqXqXqXqXqXqXqXqXqXqXqXqXqXqXqXqX  > M 9.F.9.k 2 qXqXqXqXqXqXqXqX  < N } ..A 5   qXqXqXqXqXqXqXqXqXqXqXqXqXqXqXqX",
"qXqXqXqXqXqXqXqXqXqXqXqXqXqXqXqXqXqXqXqXqXqXqXqX> g 9.L.q.B <   qXqXqXqXqXqXqXqX> g 9.L.e.Z 3   qXqXqXqXqXqXqXqXqXqXqXqXqXqXqXqX",
"qXqXqXqXqXqXqXqXqXqXqXqXqXqXqXqXqXqXqXqXqXqX  > M 9.F.0.h < qXqXqXqXqXqXqXqX  > M 9.F.9.k 2 qXqXqXqXqXqXqXqXqXqXqXqXqXqXqXqXqXqX",
"qXqXqXqXqXqXqXqXqXqXqXqXqXqXqXqXqXqXqXqXqXqX> f 2.D.9.z %   qXqXqXqXqXqXqXqX> g 9.L.q.B <   qXqXqXqXqXqXqXqXqXqXqXqXqXqXqXqXqXqX",
"qXqXqXqXqXqXqXqXqXqXqXqXqXqXqXqXqXqX      < B 5.C.2.d # X                 < B 9.F.0.h < qXqXqXqXqXqXqXqXqXqXqXqXqXqXqXqXqXqXqXqX",
"qXqXqXqXqXqXqXqXqXqXqXqXqXqXqXqXqXqX3 6 5 f 2.(.~.:.a 1 6 0 9 9 9 9 9 6 4 f 5.D.9.z %   qXqXqXqXqXqXqXqXqXqXqXqXqXqXqXqXqXqXqXqX",
"qXqXqXqXqXqXqXqXqXqXqXqXqXqX      1 C ` _ ,.h.Q.T.d.-.E _ ` _ W W W W E E 1.b.2.d # X       qXqXqXqXqXqXqXqXqXqXqXqXqXqXqXqXqXqX",
"qXqXqXqXqXqXqXqXqXqXqXqXqXqX3 6 5 f 2./.~.E.I.L.L.I.E.Q.Q.Q.Q.Q.Q.Q.Q.Q.Q.!.Q.:.a 1 6 q 0 3 qXqXqXqXqXqXqXqXqXqXqXqXqXqXqXqXqXqX",
"qXqXqXqXqXqXqXqXqXqXqXqX  < B ` _ ,.h.Q.E.T.P.L.L.P.T.R.R.R.R.R.R.R.R.R.R.R.T.d.-.E _ [ ] C 1       qXqXqXqXqXqXqXqXqXqXqXqXqXqX",
"qXqXqXqXqXqXqXqXqXqXqXqX> d 1./.~.E.I.L.L.L.L.L.L.L.L.L.L.L.L.L.L.L.L.L.L.L.L.I.E.Q.Q.~./.2.f 5 8 4 qXqXqXqXqXqXqXqXqXqXqXqXqXqX",
"qXqXqXqXqXqXqXqXqXqX  > M 1.z.Q.E.T.P.L.L.L.L.L.L.L.L.L.L.L.L.L.L.L.L.L.L.L.L.P.T.R.R.E.Q.l.,.` ] V <   qXqXqXqXqXqXqXqXqXqXqXqX",
"qXqXqXqXqXqXqXqXqXqX> d 1.~.E.L.L.L.L.L.L.L.L.L.L.L.L.L.L.L.L.L.L.L.L.L.L.L.L.L.L.L.L.L.L.D.b.c.m.| s < qXqXqXqXqXqXqXqXqXqXqXqX",
"qXqXqXqXqXqXqXqX  > M 1.z.E.I.L.L.L.L.L.L.L.L.L.L.L.L.L.L.L.L.L.L.L.L.L.L.L.L.L.L.L.L.L.P.k.w.&.*.&. .V <   qXqXqXqXqXqXqXqXqXqX",
"qXqXqXqXqXqXqXqX> d 1.~.E.L.L.L.L.L.L.L.L.L.L.L.L.L.L.L.L.L.L.L.L.L.L.L.L.L.L.L.L.L.L.L.P.j.6.) Y %.a. .s < qXqXqXqXqXqXqXqXqXqX",
"qXqXqXqXqXqX  > M 1.z.E.I.L.L.L.L.L.L.L.L.L.L.L.L.L.L.L.L.L.L.L.L.L.L.L.L.L.L.L.L.L.L.L.L.D.k.t.o.Q @.>. .V <   qXqXqXqXqXqXqXqX",
"qXqXqXqXqXqX> d 1.~.E.L.L.L.L.L.L.L.L.L.L.L.L.L.L.L.L.L.L.L.L.L.L.L.L.L.L.L.L.L.L.L.L.L.L.I.T.f.%.P P %.a. .a < qXqXqXqXqXqXqXqX",
"qXqXqXqX  > M 1.z.E.I.L.L.L.L.L.L.L.L.L.L.L.L.L.L.L.L.L.L.L.L.L.L.L.L.L.L.L.L.L.L.L.L.L.L.P.I.f.%.P P ^ %.&.| V 4   qXqXqXqXqXqX",
"qXqXqXqX< d 1.~.U.B.B.S.S.S.S.S.J.L.L.L.L.L.L.L.L.L.L.J.S.S.S.S.S.S.S.S.J.L.L.L.L.L.L.L.L.L.P.j.7.o.Q P P <.m.[ 0   qXqXqXqXqXqX",
"qXqX  3 B 1.z.R.G.M.M.M.M.M.M.B.J.L.L.L.L.L.L.L.L.L.L.J.B.M.M.M.M.M.M.B.J.L.L.L.L.L.L.L.L.L.L.D.z.y.o.P P <.n.] 0   qXqXqXqXqXqX",
"qXqX  9 ] ^.R.).]..XoXOXOXoX.X].).J.J.L.L.L.L.L.L.J.J.).]..XoXOXOXoX.X].).J.J.L.L.L.L.L.L.L.L.P.T.z.7.X.R *.x.` 0   qXqXqXqXqXqX",
"qXqX  9 ` W.K.].#X<X2X1X1X2X<X#X].B.S.L.L.L.L.L.L.S.B.].#X<X2X1X1X2X<X#X].B.S.L.L.L.L.L.L.L.L.L.P.F.z.t.o.*.z.` 0   qXqXqXqXqXqX",
"qXqX  9 W Y.V..X<X9X>X&X%X-X8X<X.XM.S.L.L.L.L.L.L.S.M..X<X9X>X&X%X-X8X<X.XM.S.L.L.L.L.L.L.L.L.L.L.I.T.f.#.*.k.` 0   qXqXqXqXqXqX",
"qXqX  9 W Y.V.oX2X>XL u y J ;X3XoXM.S.L.L.L.L.L.L.S.M.oX2X>XL u y J ;X3XoXM.S.L.L.L.L.L.L.L.L.L.L.P.I.f.#.*.k.` 0   qXqXqXqXqXqX",
"qXqX  9 W Y.V.OX5X=Xp   e K :X3XoXM.S.L.L.L.L.L.L.S.M.OX5X=Xp   e K :X3XoXM.S.L.L.L.L.L.L.L.L.L.L.P.I.s.#.*.k._ 7   qXqXqXqXqXqX",
"qXqX  9 W Y.V.+X6X*Xi r }.,X0X<X.XM.S.L.L.L.L.L.L.S.M.+X6X*Xi r }.,X0X<X.XM.S.L.L.L.L.L.L.L.L.L.L.P.I.s.#.*.z.` 6       qXqXqXqX",
"qXqX  9 W Y.H.{.$X|.G F  X7X4X#X].B.S.L.L.L.L.L.L.S.B.{.$X|.G F  X7X4X#X].B.S.L.L.L.L.L.L.L.L.L.L.P.I.s.#.&.k.2.h * o   qXqXqXqX",
"qXqX  9 W Q.U._.[.`.u.i.'.@XXX].).J.J.L.L.L.L.L.L.J.J._.[.`.u.i.'.@XXX].).J.J.L.L.L.L.L.L.L.L.L.L.P.I.s.#.%.g.v.8.n ;   qXqXqXqX",
"qXqX  9 W Q.R.F.N.G.R.R.G.M.M.B.J.L.L.L.L.L.L.L.L.L.L.F.N.G.R.R.G.M.M.B.J.L.L.L.L.L.L.L.L.L.L.L.L.P.I.s.#.X.t.Z.!.[ q   qXqXqXqX",
"qXqX  9 W Q.R.J.S.G.U.T.J.B.B.S.J.L.L.L.L.L.L.L.L.L.L.J.S.G.U.T.J.B.B.S.J.L.L.L.L.L.L.L.L.L.L.L.L.P.I.s.#.Y X.r.A.] q   qXqXqXqX",
"qXqX  9 W Q.R.L.L.L.L.L.L.L.L.L.L.L.L.L.L.L.L.L.L.L.L.L.L.L.L.L.L.L.L.L.L.L.L.L.L.L.L.L.L.L.L.L.L.L.P.j.7.X.Y *.z.` 0   qXqXqXqX",
"qXqX  9 W Q.R.L.L.L.L.L.L.L.L.L.L.L.L.L.L.L.L.L.L.L.L.L.L.L.L.L.L.L.L.L.L.L.L.L.L.L.L.L.L.L.L.L.L.L.L.D.z.t.X.&.k.` 0   qXqXqXqX",
"qXqX  9 W Q.R.L.L.L.L.L.L.L.L.L.L.P.T.R.R.R.R.T.P.L.L.L.L.L.L.L.L.L.L.L.L.L.L.L.L.L.L.L.L.L.L.L.L.L.L.I.T.f.#.*.k.` 0   qXqXqXqX",
"qXqX  9 W Q.R.L.L.L.L.L.L.L.L.L.L.I.E.Q.Q.Q.Q.E.I.L.L.L.L.L.L.L.L.L.L.L.L.L.L.L.L.L.L.L.L.L.L.L.L.L.L.P.I.f.#.*.k.` 0   qXqXqXqX",
"qXqX  9 W Q.R.L.L.L.L.L.L.L.L.P.I.d.;.E _ _ E ;.d.I.P.L.L.L.L.L.L.L.L.L.L.L.L.L.L.L.L.L.L.L.L.L.L.L.L.P.I.s.#.*.k.` 0   qXqXqXqX",
"qXqX  9 W Q.R.L.L.L.L.L.L.L.L.T.E.:.a 1 6 6 1 a :.E.T.L.L.L.L.L.L.L.L.L.L.L.L.L.L.L.L.L.L.L.L.L.L.L.L.P.I.s.#.*.k.` 0   qXqXqXqX",
"qXqX  9 ` ~.E.L.L.L.L.L.L.L.L.T.E.,.s @ . . @ s ,.E.T.L.L.L.L.L.L.L.L.L.L.L.L.L.L.L.L.L.L.L.L.L.L.L.L.P.I.s.#.*.k.` 0   qXqXqXqX",
"qXqX  9 ] /.Q.L.L.L.L.L.L.L.L.P.I.h.1.l + + l 1.h.I.P.L.L.L.L.L.L.L.L.L.L.L.L.L.L.L.L.L.L.L.L.L.L.L.L.P.I.s.#.*.k.` 0   qXqXqXqX",
"qXqX  3 B 1.z.E.I.L.L.L.L.L.L.L.L.E.~.1.s s 1.~.E.L.L.L.L.L.L.L.L.L.L.L.L.L.L.L.L.L.L.L.L.L.L.L.L.L.L.P.I.f.#.*.k.` 0   qXqXqXqX",
"qXqXqXqX< d 1.~.E.L.L.L.L.L.L.L.L.I.E.h.,.,.h.E.I.L.L.L.L.L.L.L.L.L.L.L.L.L.L.L.L.L.L.L.L.L.L.L.L.L.L.I.T.f.#.*.k.` 0   qXqXqXqX",
"qXqXqXqX  > B 2.h.I.P.L.L.L.L.L.L.L.L.I.E.E.I.L.L.L.L.L.L.L.L.L.L.L.L.L.L.L.L.L.L.L.L.L.L.L.L.L.L.P.I.D.z.t.o.*.z._ 7   qXqXqXqX",
"qXqXqXqXqXqX< f ,.E.T.L.L.L.L.L.L.L.L.P.T.T.P.L.L.L.L.L.L.L.L.L.L.L.L.L.L.L.L.L.L.L.L.L.L.L.L.L.P.I.T.z.7.X.R *.x.` 6       qXqX",
"qXqXqXqXqXqX  5 _ ~.E.L.L.L.L.L.L.L.L.L.L.L.L.L.L.L.L.L.L.L.L.L.L.L.L.L.L.L.L.L.L.L.L.L.L.P.I.D.j.f.f.y.o.P P *.z.2.h * o   qXqX",
"qXqXqXqXqXqX  6 ` /.Q.L.L.L.L.L.L.L.L.L.L.L.L.L.L.L.L.L.L.L.L.L.L.L.L.L.L.L.L.L.L.L.L.L.P.I.T.z.7.%.%.+.Q I I &.j.v.8.n ;   qXqX",
"qXqXqXqXqXqX  3 B 1.z.E.I.L.L.L.L.L.L.L.L.L.L.L.L.L.L.L.L.L.L.L.L.L.L.P.P.P.P.P.P.P.I.D.j.f.f.y.o.P I U Y Y U O.y.Z.!.[ q   qXqX",
"qXqXqXqXqXqXqXqX< d 1.~.E.L.L.L.L.L.L.L.L.L.L.L.L.L.L.L.L.L.L.L.L.L.P.I.I.I.I.I.I.I.T.z.7.%.%.+.Q I U Y Y Y Y Q o.r.A.] q   qXqX",
"qXqXqXqXqXqXqXqX  > M 1.z.Q.E.T.P.L.L.P.P.P.P.P.P.P.P.P.P.P.P.P.I.D.j.f.f.f.f.f.f.f.g.y.o.P I U Y Y Y Y Y Y Y I P *.x._ 7   qXqX",
"qXqXqXqXqXqXqXqXqXqX> d 1./.~.E.P.L.P.I.I.I.I.I.I.I.I.I.I.I.I.I.T.z.7.#.%.%.%.%.%.%.%.+.Q I U Y Y Y Y Y Y Y Y U I =.c._ 5   qXqX",
"qXqXqXqXqXqXqXqXqXqX  < B ` _ ,.l.P.x.f.f.f.f.f.f.f.f.f.f.f.f.f.g.y.o.P I I I I I I I U Y Y Y Y Y Y Y Y Y Y Y Y U #.p.{ s 1 qXqX",
"qXqXqXqXqXqXqXqXqXqXqXqX3 6 5 f 5.F.r.#.%.%.%.%.%.%.%.%.%.%.%.%.%.+.Q I U U U U U U U Y Y Y Y Y Y Y Y Y Y Y Y Y Y ^ +.$. .Z 5   ",
"qXqXqXqXqXqXqXqXqXqXqXqX      1 C ' ~ T T T T T T T T T T T T T T T Q Q Q Q Q Q Q Q Q Q Q Q Q Q Q Q Q Q Q Q Q Q Q T Y 3.F.| q   ",
"qXqXqXqXqXqXqXqXqXqXqXqXqXqXqXqX< t D ( / Q Q Q Q Q Q Q Q Q Q Q Q ! ! ^ ^ ^ ^ ^ ^ ^ ^ ^ ^ ^ ^ ^ ^ ^ ^ ^ ^ ^ ^ ^ ^ Q R 4.J.| q   ",
"qXqXqXqXqXqXqXqXqXqXqXqXqXqXqXqX  $ j b v c c c c c c c c c c c c c c c c c c c c c c c c c c c c c c c c c c c c c x S H m :   ",
"qXqXqXqXqXqXqXqXqXqXqXqXqXqXqXqXqXqX& - - - - - - - - - - - - - - - - - - - - - - - - - - - - - - - - - - - - - - - = , 6 : O   ",
"qXqXqXqXqXqXqXqXqXqXqXqXqXqXqXqXqXqX                                                                                            "
};
