/* XPM */
static char *result[] = {
/* columns rows colors chars-per-pixel */
"64 64 171 2 ",
"   c black",
".  c #010101",
"X  c #080404",
"o  c #0A0505",
"O  c #160C0C",
"+  c #170C0C",
"@  c #1C0808",
"#  c #1C0F0F",
"$  c #1E0F0F",
"%  c #1F0F0F",
"&  c #1E1010",
"*  c #1F1010",
"=  c #211010",
"-  c #201111",
";  c #211111",
":  c #221212",
">  c #231212",
",  c #241313",
"<  c #251313",
"1  c #251414",
"2  c #261414",
"3  c #271414",
"4  c #271515",
"5  c #281515",
"6  c #291515",
"7  c #291616",
"8  c #2A1616",
"9  c #2B1616",
"0  c #2C1717",
"q  c #333636",
"w  c #462525",
"e  c #472525",
"r  c #482626",
"t  c #492626",
"y  c #492727",
"u  c #4A2727",
"i  c #4B2727",
"p  c #4D2929",
"a  c #5C3030",
"s  c #602F2F",
"d  c #613030",
"f  c #603232",
"g  c #633434",
"h  c #643434",
"j  c #643535",
"k  c #663535",
"l  c #663636",
"z  c #673636",
"x  c #683434",
"c  c #683636",
"v  c #693737",
"b  c #6A3737",
"n  c #793E3E",
"m  c #7C3E3E",
"M  c #554242",
"N  c #6C7171",
"B  c #803F3F",
"V  c #813F3F",
"C  c #814040",
"Z  c #824040",
"A  c #834040",
"S  c #834141",
"D  c #804343",
"F  c #814343",
"G  c #844141",
"H  c #854141",
"J  c #854242",
"K  c #874343",
"L  c #814444",
"P  c #824444",
"I  c #834444",
"U  c #834545",
"Y  c #844545",
"T  c #854646",
"R  c #864646",
"E  c #874646",
"W  c #874747",
"Q  c #884444",
"!  c #894444",
"~  c #8A4545",
"^  c #8B4545",
"/  c #884747",
"(  c #8B4646",
")  c #8C4646",
"_  c #8D4646",
"`  c #8D4747",
"'  c #8E4747",
"]  c #8B4848",
"[  c #8B4949",
"{  c #8D4848",
"}  c #8C4949",
"|  c #8F4848",
" . c #8D4A4A",
".. c #8E4A4A",
"X. c #8F4B4B",
"o. c #904949",
"O. c #904B4B",
"+. c #934B4B",
"@. c #944B4B",
"#. c #914C4C",
"$. c #924D4D",
"%. c #954C4C",
"&. c #964C4C",
"*. c #974C4C",
"=. c #944E4E",
"-. c #954E4E",
";. c #994E4E",
":. c #9A4F4F",
">. c #8F5151",
",. c #9C5050",
"<. c #A05252",
"1. c #A15353",
"2. c #A15454",
"3. c #A25454",
"4. c #A35454",
"5. c #A35555",
"6. c #A45555",
"7. c #A55555",
"8. c #A45656",
"9. c #A55656",
"0. c #A55757",
"q. c #A65656",
"w. c #A75656",
"e. c #A75757",
"r. c #A85757",
"t. c #A95757",
"y. c #AA5656",
"u. c #AA5757",
"i. c #AB5757",
"p. c #AA5858",
"a. c #AB5858",
"s. c #AA5959",
"d. c #AB5959",
"f. c #AC5858",
"g. c #AC5959",
"h. c #AC5A5A",
"j. c #AD5A5A",
"k. c #AD5B5B",
"l. c #AE5A5A",
"z. c #AE5B5B",
"x. c #AF5B5B",
"c. c #AF5C5C",
"v. c #B05C5C",
"b. c #B15C5C",
"n. c #B15D5D",
"m. c #B25D5D",
"M. c #B35D5D",
"N. c #B35E5E",
"B. c #B16464",
"V. c #B26565",
"C. c #B17373",
"Z. c #BB7878",
"A. c #BD7A7A",
"S. c #BE7B7B",
"D. c #BCAAAA",
"F. c #C18484",
"G. c #C28484",
"H. c #C38585",
"J. c #C48686",
"K. c #DCB9B9",
"L. c #E0BEBE",
"P. c #BEC2C2",
"I. c #D2D6D6",
"U. c #D4D9D9",
"Y. c #EEDCDC",
"T. c #EFDDDD",
"R. c #F1DDDD",
"E. c #F0DEDE",
"W. c #F2E1E1",
"Q. c #F4FAFA",
"!. c None",
/* pixels */
"!.!.!.!.!.!.!.!.!.!.!.!.!.!.!.!.!.!.!.!.!.!.!.!.!.!.!.!.!.!.!.!.!.!.!.!.!.!.!.!.!.!.!.!.!.!.!.!.!.!.!.!.!.!.!.!.!.!.!.!.!.!.!.!.",
"!.!.!.!.!.!.!.!.!.!.!.!.!.!.!.!.!.!.!.!.!.!.!.!.!.!.!.!.!.!.!.!.!.!.!.!.!.!.!.!.!.!.!.!.!.!.!.!.!.!.!.!.!.!.!.!.!.!.!.!.!.!.!.!.",
"!.!.!.!.!.!.!.!.!.!.!.!.!.!.!.!.!.!.!.!.!.!.!.!.        !.!.!.!.!.!.!.!.!.!.        !.!.!.!.!.!.!.!.!.!.!.!.!.!.!.!.!.!.!.!.!.!.",
"!.!.!.!.!.!.!.!.!.!.!.!.!.!.!.!.!.!.!.!.!.!.!.!.1 8 9 5 !.!.!.!.!.!.!.!.!.!.1 8 9 5 !.!.!.!.!.!.!.!.!.!.!.!.!.!.!.!.!.!.!.!.!.!.",
"!.!.!.!.!.!.!.!.!.!.!.!.!.!.!.!.!.!.!.!.!.!.  1 z T W v 2   !.!.!.!.!.!.  1 z T W v 2   !.!.!.!.!.!.!.!.!.!.!.!.!.!.!.!.!.!.!.!.",
"!.!.!.!.!.!.!.!.!.!.!.!.!.!.!.!.!.!.!.!.!.!.  8 R k.-.c <   !.!.!.!.!.!.  8 R k.-.c <   !.!.!.!.!.!.!.!.!.!.!.!.!.!.!.!.!.!.!.!.",
"!.!.!.!.!.!.!.!.!.!.!.!.!.!.!.!.!.!.!.!.!.!.  0 / =.p , !.!.!.!.!.!.!.!.  0 / =.p , !.!.!.!.!.!.!.!.!.!.!.!.!.!.!.!.!.!.!.!.!.!.",
"!.!.!.!.!.!.!.!.!.!.!.!.!.!.!.!.!.!.!.!.!.!.  ; h b ,   !.!.!.!.!.!.!.!.  ; h b ,   !.!.!.!.!.!.!.!.!.!.!.!.!.!.!.!.!.!.!.!.!.!.",
"!.!.!.!.!.!.!.!.!.!.!.!.!.!.!.!.!.!.!.!.!.!.  o * 3 !.!.!.!.!.!.!.!.!.!.  o * 3 !.!.!.!.!.!.!.!.!.!.!.!.!.!.!.!.!.!.!.!.!.!.!.!.",
"!.!.!.!.!.!.!.!.!.!.!.!.!.!.!.!.!.!.!.!.!.!.        !.!.!.!.!.!.!.!.!.!.        !.!.!.!.!.!.!.!.!.!.!.!.!.!.!.!.!.!.!.!.!.!.!.!.",
"!.!.!.!.!.!.!.!.!.!.!.!.!.!.!.!.!.!.!.!.!.!.        !.!.!.!.!.!.!.!.!.!.        !.!.!.!.!.!.!.!.!.!.!.!.!.!.!.!.!.!.!.!.!.!.!.!.",
"!.!.!.!.!.!.!.!.!.!.!.!.!.!.!.!.!.!.!.!.!.!.        !.!.!.!.!.!.!.!.!.!.        !.!.!.!.!.!.!.!.!.!.!.!.!.!.!.!.!.!.!.!.!.!.!.!.",
"!.!.!.!.!.!.!.!.!.!.!.!.!.!.!.!.!.!.                                                        !.!.!.!.!.!.!.!.!.!.!.!.!.!.!.!.!.!.",
"!.!.!.!.!.!.!.!.!.!.!.!.!.!.!.!.!.!.< 6 6 6 7 8 8 7 6 6 6 6 6 6 6 6 6 6 7 8 8 7 6 7 8 & X   !.!.!.!.!.!.!.!.!.!.!.!.!.!.!.!.!.!.",
"!.!.!.!.!.!.!.!.!.!.!.!.!.!.      > z I P L P I I P L F F F F F F F F L P I I P L I Y f #       !.!.!.!.!.!.!.!.!.!.!.!.!.!.!.!.",
"!.!.!.!.!.!.!.!.!.!.!.!.!.!.< 3 2 t X.N.m.v.v.v.v.v.v.v.v.v.v.v.v.v.v.v.v.v.v.v.v.m.N.O.u 2 3 < !.!.!.!.!.!.!.!.!.!.!.!.!.!.!.!.",
"!.!.!.!.!.!.!.!.!.!.!.!.  : k P L } 5.v.c.x.x.x.x.x.x.x.x.x.x.x.x.x.x.x.x.x.x.x.x.c.v.8. .P I z >       !.!.!.!.!.!.!.!.!.!.!.!.",
"!.!.!.!.!.!.!.!.!.!.!.!.; r ..N.m.c.k.h.h.h.h.h.h.h.h.h.h.h.h.h.h.h.h.h.h.h.h.h.h.h.h.k.c.m.N.X.t 2 5 1 !.!.!.!.!.!.!.!.!.!.!.!.",
"!.!.!.!.!.!.!.!.!.!.  ; j ..9.v.c.z.j.h.h.h.h.h.h.h.h.h.h.h.h.h.h.h.h.h.h.h.h.h.h.h.h.j.z.c.v.8.} P U l :   !.!.!.!.!.!.!.!.!.!.",
"!.!.!.!.!.!.!.!.!.!.; r ..m.c.h.h.h.h.h.h.h.h.h.h.h.h.h.h.h.h.h.h.h.h.h.h.h.h.h.h.h.h.h.h.h.h.s.e.w.t.R e : !.!.!.!.!.!.!.!.!.!.",
"!.!.!.!.!.!.!.!.  ; j ..9.c.k.h.h.h.h.h.h.h.h.h.h.h.h.h.h.h.h.h.h.h.h.h.h.h.h.h.h.h.h.h.h.h.j.7.%.` ' ` E l :   !.!.!.!.!.!.!.!.",
"!.!.!.!.!.!.!.!.; r ..m.c.h.h.h.h.h.h.h.h.h.h.h.h.h.h.h.h.h.h.h.h.h.h.h.h.h.h.h.h.h.h.h.h.h.j.6.+.K Z ^ <.E e : !.!.!.!.!.!.!.!.",
"!.!.!.!.!.!.  ; j ..9.c.k.h.h.h.h.h.h.h.h.h.h.h.h.h.h.h.h.h.h.h.h.h.h.h.h.h.h.h.h.h.h.h.h.h.h.s.7.;.Q S ^ { E l :   !.!.!.!.!.!.",
"!.!.!.!.!.!.; r ..m.c.h.h.h.h.h.h.h.h.h.h.h.h.h.h.h.h.h.h.h.h.h.h.h.h.h.h.h.h.h.h.h.h.h.h.h.h.j.z.9.@.Q Z ^ <.E e : !.!.!.!.!.!.",
"!.!.!.!.  ; j ..9.c.k.h.h.h.h.h.h.h.h.h.h.h.h.h.h.h.h.h.h.h.h.h.h.h.h.h.h.h.h.h.h.h.h.h.h.h.h.h.j.d.9.;.Q S ^ { E l :   !.!.!.!.",
"!.!.!.!.: r ..m.c.h.h.h.h.h.h.g.a.a.a.a.a.a.a.a.g.h.h.h.h.h.h.h.h.h.h.h.h.g.a.a.a.a.a.a.a.a.g.h.h.j.z.9.@.Q Z ^ <.E e : !.!.!.!.",
"!.!.  < k ..9.c.k.h.h.h.h.h.h.g.i.y.y.y.y.y.y.i.g.h.h.h.h.h.h.h.h.h.h.h.h.g.i.y.y.y.y.y.y.i.g.h.h.h.j.d.9.;.Q S ^ ` R l 1   !.!.",
"!.!.  6 U N.v.h.h.h.h.h.h.g.g.B.Z.F.H.J.J.H.F.Z.B.g.g.h.h.h.h.h.h.h.h.g.g.B.Z.F.H.J.J.H.F.Z.B.g.g.h.h.j.z.9.@.Q Z | t.Y 7   !.!.",
"!.!.  6 P m.c.h.h.h.h.h.h.a.i.Z.K.Y.E.R.R.E.Y.K.Z.i.a.h.h.h.h.h.h.h.h.a.i.Z.K.Y.E.R.R.E.Y.K.Z.i.a.h.h.h.j.d.9.;.Q ' e.U 7   !.!.",
"!.!.  6 F v.x.h.h.h.h.h.h.i.y.G.T.Q.I.P.P.I.Q.T.G.y.i.h.h.h.h.h.h.h.h.i.y.G.T.Q.I.P.P.I.Q.T.G.y.i.h.h.h.h.k.z.3.( ' 7.P 7   !.!.",
"!.!.  6 F v.x.h.h.h.h.h.h.i.y.J.W.U.N q q N U.W.J.y.i.h.h.h.h.h.h.h.h.i.y.J.W.U.N q q N U.W.J.y.i.h.h.h.h.j.k.3.( ' 7.P 7   !.!.",
"!.!.  6 F v.x.h.h.h.h.h.h.a.i.S.L.D.M @ @ M D.L.S.i.a.h.h.h.h.h.h.h.h.a.i.S.L.D.M @ @ M D.L.S.i.a.h.h.h.h.j.k.1.( ' 7.P 7   !.!.",
"!.!.  6 F v.x.h.h.h.h.h.h.g.g.V.A.C.>.m m >.C.A.V.g.g.h.h.h.h.h.h.h.h.g.g.V.A.C.>.m m >.C.A.V.g.g.h.h.h.h.j.k.1.( ' 7.P 7   !.!.",
"!.!.  6 F v.x.h.h.h.h.h.h.h.h.d.u.i.x.v.v.x.i.u.d.h.h.h.h.h.h.h.h.h.h.h.h.d.u.i.x.v.v.x.i.u.d.h.h.h.h.h.h.j.k.1.( ' 7.P 7   !.!.",
"!.!.  6 F v.x.h.h.h.h.h.h.h.h.g.a.f.l.x.x.l.f.a.g.h.h.h.h.h.h.h.h.h.h.h.h.g.a.f.l.x.x.l.f.a.g.h.h.h.h.h.h.j.k.1.( ' 7.P 7   !.!.",
"!.!.  6 F v.x.h.h.h.h.h.h.h.h.h.h.h.h.h.h.h.h.h.h.h.h.h.h.h.h.h.h.h.h.h.h.h.h.h.h.h.h.h.h.h.h.h.h.h.h.h.h.j.k.1.( ' 7.P 7   !.!.",
"!.!.  6 F v.x.h.h.h.h.h.h.h.h.h.h.h.h.h.h.h.h.h.h.h.h.h.h.h.h.h.h.h.h.h.h.h.h.h.h.h.h.h.h.h.h.h.h.h.h.h.h.j.k.1.( ' 7.P 7   !.!.",
"!.!.  6 F v.x.h.h.h.h.h.h.h.h.h.h.h.h.h.h.h.h.h.h.h.h.h.h.h.h.h.h.h.h.h.h.h.h.h.h.h.h.h.h.h.h.h.h.h.h.h.h.j.k.1.( ' 7.P 7   !.!.",
"!.!.  6 F v.x.h.h.h.h.h.h.h.h.h.h.h.h.h.h.h.h.h.h.h.h.h.h.h.h.h.h.h.h.h.h.h.h.h.h.h.h.h.h.h.h.h.h.h.h.h.h.j.k.1.( ' 7.P 7   !.!.",
"!.!.  6 F v.x.h.h.h.h.h.h.h.h.h.h.h.h.h.h.h.h.h.h.h.h.j.z.x.x.x.x.z.j.h.h.h.h.h.h.h.h.h.h.h.h.h.h.h.h.h.h.j.k.1.( ' 7.P 7   !.!.",
"!.!.  6 F v.x.h.h.h.h.h.h.h.h.h.h.h.h.h.h.h.h.h.h.h.h.k.c.v.v.v.v.c.k.h.h.h.h.h.h.h.h.h.h.h.h.h.h.h.h.h.h.j.k.1.( ' 7.P 7   !.!.",
"!.!.  6 F v.x.h.h.h.h.h.h.h.h.h.h.h.h.h.h.h.h.h.h.j.k.2.] D L L D ] 2.k.j.h.h.h.h.h.h.h.h.h.h.h.h.h.h.h.h.j.k.1.( ' 7.P 7   !.!.",
"!.!.  6 F v.x.h.h.h.h.h.h.h.h.h.h.h.h.h.h.h.h.h.h.z.c.[ w > 3 3 > w [ c.z.h.h.h.h.h.h.h.h.h.h.h.h.h.h.h.h.j.k.1.( ' 7.P 7   !.!.",
"!.!.  6 F v.x.h.h.h.h.h.h.h.h.h.h.h.h.h.h.h.h.h.h.z.c.} e + . . + e } c.z.h.h.h.h.h.h.h.h.h.h.h.h.h.h.h.h.j.k.3.^ ` 7.P 7   !.!.",
"!.!.  6 F v.x.h.h.h.h.h.h.h.h.h.h.h.h.h.h.h.h.h.h.j.k.5...a O O a ..5.k.j.h.h.h.h.h.h.h.h.h.h.h.h.h.h.h.h.k.z.3.^ ` 7.P 7   !.!.",
"!.!.  6 P m.c.h.h.h.h.h.h.h.h.h.h.h.h.h.h.h.h.h.h.h.h.c.m...e e ..m.c.h.h.h.h.h.h.h.h.h.h.h.h.h.h.h.h.h.h.s.9.,.o.*.p.U 7   !.!.",
"!.!.  6 U N.v.h.h.h.h.h.h.h.h.h.h.h.h.h.h.h.h.h.h.h.h.k.c.5.} } 5.c.k.h.h.h.h.h.h.h.h.h.h.h.h.h.h.h.h.h.j.6.+.o.,.r.b.U 6   !.!.",
"!.!.  < z X.5.k.j.h.h.h.h.h.h.h.h.h.h.h.h.h.h.h.h.h.h.h.h.k.c.c.k.h.h.h.h.h.h.h.h.h.h.h.h.h.h.h.h.h.h.j.z.1.~ ^ 4.0.O.z <   !.!.",
"!.!.!.!.> t } c.z.h.h.h.h.h.h.h.h.h.h.h.h.h.h.h.h.h.h.h.h.j.z.z.j.h.h.h.h.h.h.h.h.h.h.h.h.h.h.h.h.h.h.k.z.3.~ ) 6. .y > !.!.!.!.",
"!.!.!.!.  2 L m.c.h.h.h.h.h.h.h.h.h.h.h.h.h.h.h.h.h.h.h.h.h.h.h.h.h.h.h.h.h.h.h.h.h.h.h.h.h.h.h.h.h.h.s.9.,.o.*.p.P 2   !.!.!.!.",
"!.!.!.!.  3 P N.v.h.h.h.h.h.h.h.h.h.h.h.h.h.h.h.h.h.h.h.h.h.h.h.h.h.h.h.h.h.h.h.h.h.h.h.h.h.h.h.h.h.j.6.+.o.,.r.n.P 3   !.!.!.!.",
"!.!.!.!.  < z X.5.k.j.h.h.h.h.h.h.h.h.h.h.h.h.h.h.h.h.h.h.h.h.h.h.h.h.h.h.h.h.h.h.h.h.h.h.h.h.h.h.j.k.1.^ ( 4.0.O.z <   !.!.!.!.",
"!.!.!.!.!.!.> t } c.z.h.h.h.h.h.h.h.h.h.h.h.h.h.h.h.h.h.h.h.h.h.h.h.h.h.h.h.h.h.h.h.h.h.h.h.h.h.h.k.z.3.( _ 7. .y > !.!.!.!.!.!.",
"!.!.!.!.!.!.  1 D v.c.h.h.h.h.h.h.h.h.h.h.h.h.h.h.h.h.h.h.h.h.h.h.h.h.h.h.h.h.h.h.h.h.h.h.h.h.h.j.d.9.;.! ' q.F 2   !.!.!.!.!.!.",
"!.!.!.!.!.!.  3 D v.c.j.h.h.h.h.h.h.h.h.h.h.h.h.h.h.h.h.h.h.h.h.h.h.h.h.h.h.h.h.h.h.h.h.h.h.h.j.z.9.@.Q S ' q.L 4   !.!.!.!.!.!.",
"!.!.!.!.!.!.  3 D k.w.6.s.j.h.h.h.h.h.h.h.h.h.h.h.h.h.h.h.h.h.h.h.h.h.h.h.h.h.h.h.h.h.h.h.j.k.d.9.:.! B B | q.L 4   !.!.!.!.!.!.",
"!.!.!.!.!.!.  2 D r.&.+.7.z.j.h.h.h.h.h.h.h.h.h.h.h.h.h.h.h.h.h.h.h.h.h.h.h.h.h.h.h.h.h.j.k.z.9.@.! S V V | q.F 2   !.!.!.!.!.!.",
"!.!.!.!.!.!.: u  .7._ Q ;.9.d.k.j.j.j.j.j.j.j.j.j.j.j.j.j.j.j.j.j.j.j.j.j.j.j.j.j.j.k.s.6.3.3.:.! B C C V ' 9. .u : !.!.!.!.!.!.",
"!.!.!.!.  ; k O.0.5.) Z Q @.9.z.k.k.k.k.k.k.k.k.k.k.k.k.k.k.k.k.k.k.k.k.k.k.k.k.k.k.z.9.@.) ) ~ G C Z C V ` 6.0.O.k ;   !.!.!.!.",
"!.!.!.!., i #.M.p.,.( Z Z ^ ,.7.6.6.6.6.6.6.6.6.6.6.6.6.6.6.6.6.6.6.6.6.6.6.6.6.6.6.7.,.^ Z Z A G G G S A ( ,.p.M.#.i , !.!.!.!.",
"!.!.  2 v $.s.d.;.) K H G K _ | | | | | | | | | | | | | | | | | | | | | | | | | | | | _ K G G H H J J H H K ) ;.d.s.$.v 2   !.!.",
"!.!.  * g W Y n x s s d d d s s s s s s s s s s s s s s s s s s s s s s s s s s s s s s d d d d d d d d d s s x n Y W g *   !.!.",
"!.!.  o - 0 8 2 = $ $ % % % $ $ $ $ $ $ $ $ $ $ $ $ $ $ $ $ $ $ $ $ $ $ $ $ $ $ $ $ $ $ % % % % % % % % % $ $ = 2 8 0 - o   !.!.",
"!.!.                                                                                                                        !.!."
};
