/* XPM */
static char *result[] = {
/* columns rows colors chars-per-pixel */
"64 64 214 2 ",
"   c black",
".  c #010101",
"X  c #020101",
"o  c #080404",
"O  c #0A0505",
"+  c #160C0C",
"@  c #170C0C",
"#  c #180C0C",
"$  c #190C0C",
"%  c #190D0D",
"&  c #1C0E0E",
"*  c #1C0F0F",
"=  c #1E0F0F",
"-  c #1F0F0F",
";  c #1E1010",
":  c #1F1010",
">  c #211111",
",  c #221111",
"<  c #221212",
"1  c #231212",
"2  c #241313",
"3  c #251313",
"4  c #251414",
"5  c #261414",
"6  c #271414",
"7  c #271515",
"8  c #281515",
"9  c #291515",
"0  c #291616",
"q  c #2A1616",
"w  c #2B1616",
"e  c #202222",
"r  c #212323",
"t  c #3E2020",
"y  c #333434",
"u  c #363737",
"i  c #353838",
"p  c #373A3A",
"a  c #462525",
"s  c #472525",
"d  c #482626",
"f  c #492626",
"g  c #4A2727",
"h  c #4B2727",
"j  c #4D2626",
"k  c #4C2828",
"l  c #5C3030",
"z  c #5D3131",
"x  c #602F2F",
"c  c #613030",
"v  c #623030",
"b  c #633131",
"n  c #603232",
"m  c #613333",
"M  c #643535",
"N  c #653535",
"B  c #663535",
"V  c #663636",
"C  c #673636",
"Z  c #683636",
"A  c #693737",
"S  c #6B3636",
"D  c #6D3636",
"F  c #554141",
"G  c #544242",
"H  c #7C4040",
"J  c #6A6C6C",
"K  c #6C6E6E",
"L  c #6F7171",
"P  c #803F3F",
"I  c #813F3F",
"U  c #814040",
"Y  c #824040",
"T  c #834040",
"R  c #834141",
"E  c #804343",
"W  c #814343",
"Q  c #844141",
"!  c #854141",
"~  c #844242",
"^  c #854242",
"/  c #864242",
"(  c #874242",
")  c #874343",
"_  c #814444",
"`  c #824444",
"'  c #834444",
"]  c #834545",
"[  c #844545",
"{  c #854545",
"}  c #854646",
"|  c #864646",
" . c #874646",
".. c #874747",
"X. c #884444",
"o. c #894444",
"O. c #894545",
"+. c #8A4545",
"@. c #8B4545",
"#. c #8B4646",
"$. c #8B4747",
"%. c #8C4646",
"&. c #8D4747",
"*. c #8E4747",
"=. c #8F4747",
"-. c #8A4848",
";. c #8B4848",
":. c #8B4949",
">. c #8D4848",
",. c #8C4949",
"<. c #8F4848",
"1. c #8E4A4A",
"2. c #8F4B4B",
"3. c #914949",
"4. c #924949",
"5. c #904B4B",
"6. c #934B4B",
"7. c #944B4B",
"8. c #904C4C",
"9. c #914C4C",
"0. c #924C4C",
"q. c #924D4D",
"w. c #954C4C",
"e. c #944D4D",
"r. c #974D4D",
"t. c #994E4E",
"y. c #9A4F4F",
"u. c #905252",
"i. c #915353",
"p. c #9D5050",
"a. c #A05252",
"s. c #A15353",
"d. c #A15454",
"f. c #A25454",
"g. c #A35454",
"h. c #A35555",
"j. c #A45555",
"k. c #A55555",
"l. c #A45656",
"z. c #A55656",
"x. c #A65656",
"c. c #A75656",
"v. c #A65757",
"b. c #A75757",
"n. c #A85757",
"m. c #A95757",
"M. c #AA5656",
"N. c #AA5757",
"B. c #AB5757",
"V. c #AD5757",
"C. c #A85858",
"Z. c #A95858",
"A. c #AA5858",
"S. c #AB5858",
"D. c #AA5959",
"F. c #AB5959",
"G. c #AC5858",
"H. c #AD5858",
"J. c #AC5959",
"K. c #AE5959",
"L. c #AC5A5A",
"P. c #AD5A5A",
"I. c #AD5B5B",
"U. c #AE5A5A",
"Y. c #AF5A5A",
"T. c #AE5B5B",
"R. c #AF5B5B",
"E. c #AF5C5C",
"W. c #B15B5B",
"Q. c #B05C5C",
"!. c #B15D5D",
"~. c #B25D5D",
"^. c #B35D5D",
"/. c #B35E5E",
"(. c #B45E5E",
"). c #B16464",
"_. c #B26565",
"`. c #B17373",
"'. c #B37575",
"]. c #BB7878",
"[. c #BD7A7A",
"{. c #BE7B7B",
"}. c #8A8C8C",
"|. c #BBA8A8",
" X c #BEAAAA",
".X c #C18484",
"XX c #C28585",
"oX c #C38585",
"OX c #C48686",
"+X c #C48787",
"@X c #C58787",
"#X c #DCB9B9",
"$X c #E0BEBE",
"%X c #BEC0C0",
"&X c #C0C2C2",
"*X c #C0C4C4",
"=X c #C1C5C5",
"-X c #D1D4D4",
";X c #D2D5D5",
":X c #D3D6D6",
">X c #D4D7D7",
",X c #D5D8D8",
"<X c #EEDCDC",
"1X c #F1DDDD",
"2X c #F0DEDE",
"3X c #F1DEDE",
"4X c #F1DFDF",
"5X c #F2DFDF",
"6X c #F3E0E0",
"7X c #F5E2E2",
"8X c #F3F7F7",
"9X c #F4F8F8",
"0X c #F6FAFA",
"qX c None",
/* pixels */
"qXqXqXqXqXqXqXqXqXqXqXqXqXqXqXqXqXqXqXqXqXqXqXqXqXqXqXqXqXqXqXqXqXqXqXqXqXqXqXqXqXqXqXqXqXqXqXqXqXqXqXqXqXqXqXqXqXqXqXqXqXqXqXqX",
"qXqXqXqXqXqXqXqXqXqXqXqXqXqXqXqXqXqXqXqXqXqXqXqXqXqXqXqXqXqXqXqXqXqXqXqXqXqXqXqXqXqXqXqXqXqXqXqXqXqXqXqXqXqXqXqXqXqXqXqXqXqXqXqX",
"qXqXqXqXqXqXqXqXqXqXqXqXqXqXqXqXqXqXqXqXqXqXqXqXqXqXqXqXqXqXqXqXqXqXqXqXqXqXqXqXqXqXqXqXqXqXqXqXqXqXqXqXqXqXqXqXqXqXqXqXqXqXqXqX",
"qXqXqXqXqXqXqXqXqXqXqXqXqXqXqXqXqXqXqXqXqXqXqXqXqXqXqXqXqXqXqXqXqXqXqXqXqXqXqXqXqXqXqXqXqXqXqXqXqXqXqXqXqXqXqXqXqXqXqXqXqXqXqXqX",
"qXqXqXqXqXqXqXqXqXqXqXqXqXqXqXqXqXqXqXqXqXqXqXqXqXqXqXqXqXqXqXqXqXqXqXqXqXqXqXqXqXqXqXqXqXqXqXqXqXqXqXqXqXqXqXqXqXqXqXqXqXqXqXqX",
"qXqXqXqXqXqXqXqXqXqXqXqXqXqXqXqXqXqXqXqXqXqXqXqXqXqXqXqXqXqXqXqXqXqXqXqXqXqXqXqXqXqXqXqXqXqXqXqXqXqXqXqXqXqXqXqXqXqXqXqXqXqXqXqX",
"qXqXqXqXqXqXqXqXqXqXqXqXqXqXqXqXqXqXqXqXqXqXqXqXqXqXqXqXqXqXqXqX        qXqXqXqXqXqXqXqXqXqXqXqXqXqXqXqXqXqXqXqXqXqXqXqXqXqXqXqX",
"qXqXqXqXqXqXqXqXqXqXqXqXqXqXqXqXqXqXqXqXqXqXqXqXqXqXqXqXqXqXqXqX8 w q 3 qXqXqXqXqXqXqXqXqXqXqXqXqXqXqXqXqXqXqXqXqXqXqXqXqXqXqXqX",
"qXqXqXqXqXqXqXqXqXqXqXqXqXqXqXqXqXqX        qXqXqXqXqXqXqXqX  5 A ..} N <   qXqXqXqXqXqXqXqXqXqXqXqXqXqXqXqXqXqXqXqXqXqXqXqXqXqX",
"qXqXqXqXqXqXqXqXqXqXqXqXqXqXqXqXqXqX8 w q 3 qXqXqXqXqXqXqXqX  3 Z e.L.9.g > qXqXqXqXqXqXqXqXqXqXqXqXqXqXqXqXqXqXqXqXqXqXqXqXqXqX",
"qXqXqXqXqXqXqXqXqXqXqXqXqXqXqXqX  5 A ..} N <   qXqXqXqXqXqXqXqX2 k 9.F.9.M >   qXqXqXqXqXqXqXqXqXqXqXqXqXqXqXqXqXqXqXqXqXqXqXqX",
"qXqXqXqXqXqXqXqXqXqXqXqXqXqXqXqX  3 Z e.L.9.g > qXqXqXqXqXqXqXqX  < B q.L.9.g > qXqXqXqXqXqXqXqXqXqXqXqXqXqXqXqXqXqXqXqXqXqXqXqX",
"qXqXqXqXqXqXqXqXqXqXqXqXqXqXqXqXqXqX2 k 9.F.9.M >   qXqXqXqXqXqXqXqX< h 0.F.9.M >   qXqXqXqXqXqXqXqXqXqXqXqXqXqXqXqXqXqXqXqXqXqX",
"qXqXqXqXqXqXqXqXqXqXqXqXqXqXqXqXqXqX  < B q.L.9.g > qXqXqXqXqXqXqXqX  % z 9.D.2.f > qXqXqXqXqXqXqXqXqXqXqXqXqXqXqXqXqXqXqXqXqXqX",
"qXqXqXqXqXqXqXqXqXqXqXqXqXqXqXqXqXqXqXqX< h 0.F.9.B <                 X # d 2.C.5.B <       qXqXqXqXqXqXqXqXqXqXqXqXqXqXqXqXqXqX",
"qXqXqXqXqXqXqXqXqXqXqXqXqXqXqXqXqXqXqXqX  % z 9.D.5.f 4 6 9 9 9 9 9 0 6 1 a :.~.(.2.f 5 6 3 qXqXqXqXqXqXqXqXqXqXqXqXqXqXqXqXqXqX",
"qXqXqXqXqXqXqXqXqXqXqXqXqXqXqXqXqXqX      X # d 2.b.1.E E W W W W _ ` _ E -.d.T.Q.h.,._ ` C 1       qXqXqXqXqXqXqXqXqXqXqXqXqXqX",
"qXqXqXqXqXqXqXqXqXqXqXqXqXqXqXqXqXqX3 0 q 6 1 a :.Q.!.Q.Q.Q.Q.Q.Q.Q.Q.Q.Q.E.I.L.L.I.E.~./.2.f 5 6 3 qXqXqXqXqXqXqXqXqXqXqXqXqXqX",
"qXqXqXqXqXqXqXqXqXqXqXqXqXqX      1 C ] [ _ E -.d.T.R.R.R.R.R.R.R.R.R.R.R.T.P.L.L.P.T.E.Q.h.,._ ` B <   qXqXqXqXqXqXqXqXqXqXqXqX",
"qXqXqXqXqXqXqXqXqXqXqXqXqXqX4 8 5 f 2./.~.Q.Q.E.I.L.L.L.L.L.L.L.L.L.L.L.L.L.L.L.L.L.L.L.L.I.E.~./.1.d > qXqXqXqXqXqXqXqXqXqXqXqX",
"qXqXqXqXqXqXqXqXqXqXqXqX  < V ] ` ,.l.Q.E.R.R.T.P.L.L.L.L.L.L.L.L.L.L.L.L.L.L.L.L.L.L.L.L.P.T.E.Q.z.1.M >   qXqXqXqXqXqXqXqXqXqX",
"qXqXqXqXqXqXqXqXqXqXqXqX< s | m.c.b.D.L.L.L.L.L.L.L.L.L.L.L.L.L.L.L.L.L.L.L.L.L.L.L.L.L.L.L.L.L.L.E.~.1.d > qXqXqXqXqXqXqXqXqXqX",
"qXqXqXqXqXqXqXqXqXqX  < V  .&.*.&.w.k.P.L.L.L.L.L.L.L.L.L.L.L.L.L.L.L.L.L.L.L.L.L.L.L.L.L.L.L.L.L.I.E.z.1.M >   qXqXqXqXqXqXqXqX",
"qXqXqXqXqXqXqXqXqXqX< s  .a.%.Y ) 6.j.P.L.L.L.L.L.L.L.L.L.L.L.L.L.L.L.L.L.L.L.L.L.L.L.L.L.L.L.L.L.L.L.E.~.1.d > qXqXqXqXqXqXqXqX",
"qXqXqXqXqXqXqXqX  < V  .>.@.Q o.t.k.D.L.L.L.L.L.L.L.L.L.L.L.L.L.L.L.L.L.L.L.L.L.L.L.L.L.L.L.L.L.L.L.L.I.E.z.1.M >   qXqXqXqXqXqX",
"qXqXqXqXqXqXqXqX< a  .a.%.P P %.f.T.I.L.L.L.L.L.L.L.L.L.L.L.L.L.L.L.L.L.L.L.L.L.L.L.L.L.L.L.L.L.L.L.L.L.L.E.~.1.d > qXqXqXqXqXqX",
"qXqXqXqXqXqX  4 V | &.%.^ P P %.f.I.P.L.L.L.L.L.L.L.L.L.L.L.L.L.L.L.L.L.L.L.L.L.L.L.L.L.L.L.L.L.L.L.L.L.L.I.E.z.1.M >   qXqXqXqX",
"qXqXqXqXqXqX  0 [ m.<.P P Q o.7.j.P.L.L.L.L.L.L.L.L.L.J.S.S.S.S.S.S.S.S.J.L.L.L.L.L.L.L.L.L.L.J.S.S.S.S.S.B.B.U.~.1.d < qXqXqXqX",
"qXqXqXqXqXqX  0 ] n.<.P P o.y.z.D.L.L.L.L.L.L.L.L.L.L.J.B.M.M.M.M.M.M.B.J.L.L.L.L.L.L.L.L.L.L.J.B.M.M.M.M.M.M.G.R.z.1.B 3   qXqX",
"qXqXqXqXqXqX  0 ` x.*.R X.7.z.T.P.L.L.L.L.L.L.L.L.J.J.).]..XoXOXOXoX.X].).J.J.L.L.L.L.L.L.J.J.).]..XoXOXOXoX.X].).R.^.] 9   qXqX",
"qXqXqXqXqXqX  0 ` z.*.o.t.z.F.P.L.L.L.L.L.L.L.L.L.S.B.].#X<X2X1X1X2X<X#X].B.S.L.L.L.L.L.L.S.B.].#X<X2X1X1X2X<X#X].K.W.` 9   qXqX",
"qXqXqXqXqXqX  0 ` k.*.#.f.T.I.L.L.L.L.L.L.L.L.L.L.S.M..X<X8X-X%X&X>X9X<X.XM.S.L.L.L.L.L.L.S.M..X<X8X-X%X&X>X9X<X.XV.Y.W 9   qXqX",
"qXqXqXqXqXqX  0 ` k.*.#.f.I.P.L.L.L.L.L.L.L.L.L.L.S.M.oX3X;XJ y u L >X2XoXM.S.L.L.L.L.L.L.S.M.oX3X;XJ y u L >X2XoXV.Y.W 9   qXqX",
"qXqXqXqXqXqX  7 _ k.*.#.s.I.P.L.L.L.L.L.L.L.L.L.L.S.M.oX3X:XK e   p =X5XOXM.S.L.L.L.L.L.L.S.M.oX3X:XK e   p =X5XOXV.Y.W 9   qXqX",
"qXqXqXqX      6 ` z.*.#.s.I.P.L.L.L.L.L.L.L.L.L.L.S.M..X<X0X,X}.r i *X6X+XM.S.L.L.L.L.L.L.S.M..X<X0X,X}.r i *X6X+XV.Y.W 9   qXqX",
"qXqXqXqX  o * h 2.k.&.#.s.I.P.L.L.L.L.L.L.L.L.L.L.S.B.].#X4X7X XF G |.$X{.B.S.L.L.L.L.L.L.S.B.].#X4X7X XF G |.$X{.H.Y.W 9   qXqX",
"qXqXqXqX  ; n 8.v.g.%.#.s.I.P.L.L.L.L.L.L.L.L.L.L.J.J.).].XX@X'.i.u.`.[._.J.J.L.L.L.L.L.L.J.J.).].XX@X'.i.u.`.[._.U.Q.W 9   qXqX",
"qXqXqXqX  q [ !.Z.t.X.#.s.I.P.L.L.L.L.L.L.L.L.L.L.L.L.J.B.M.M.G.R.R.G.N.F.L.L.L.L.L.L.L.L.L.L.J.B.M.M.G.R.R.G.N.F.R.Q.W 9   qXqX",
"qXqXqXqX  q ] A.r.X.Y #.s.I.P.L.L.L.L.L.L.L.L.L.L.L.L.J.S.B.B.J.T.U.G.S.J.L.L.L.L.L.L.L.L.L.L.J.S.B.B.J.T.U.G.S.J.R.Q.W 9   qXqX",
"qXqXqXqX  0 ` z.*.Y X.7.j.P.L.L.L.L.L.L.L.L.L.L.L.L.L.L.L.L.L.L.L.L.L.L.L.L.L.L.L.L.L.L.L.L.L.L.L.L.L.L.L.L.L.L.L.R.Q.W 9   qXqX",
"qXqXqXqX  0 ` k.&.X.t.z.D.L.L.L.L.L.L.L.L.L.L.L.L.L.L.L.L.L.L.L.L.L.L.L.L.L.L.L.L.L.L.L.L.L.L.L.L.L.L.L.L.L.L.L.L.R.Q.W 9   qXqX",
"qXqXqXqX  0 ` k.*.#.f.T.I.L.L.L.L.L.L.L.L.L.L.L.L.L.L.L.L.L.L.L.L.L.L.L.L.L.L.P.T.R.R.R.R.T.P.L.L.L.L.L.L.L.L.L.L.R.Q.W 9   qXqX",
"qXqXqXqX  0 ` k.*.#.f.I.P.L.L.L.L.L.L.L.L.L.L.L.L.L.L.L.L.L.L.L.L.L.L.L.L.L.L.I.E.Q.Q.Q.Q.E.I.L.L.L.L.L.L.L.L.L.L.R.Q.W 9   qXqX",
"qXqXqXqX  0 ` k.*.#.s.I.P.L.L.L.L.L.L.L.L.L.L.L.L.L.L.L.L.L.L.L.L.L.L.L.L.P.I.d.;.E _ _ E ;.d.I.P.L.L.L.L.L.L.L.L.R.Q.W 9   qXqX",
"qXqXqXqX  0 ` k.*.#.s.I.P.L.L.L.L.L.L.L.L.L.L.L.L.L.L.L.L.L.L.L.L.L.L.L.L.T.E.:.a 1 6 6 1 a :.E.T.L.L.L.L.L.L.L.L.R.Q.W 9   qXqX",
"qXqXqXqX  0 ` k.*.#.s.I.P.L.L.L.L.L.L.L.L.L.L.L.L.L.L.L.L.L.L.L.L.L.L.L.L.T.E.,.s @ . . @ s ,.E.T.L.L.L.L.L.L.L.L.E.~.` 9   qXqX",
"qXqXqXqX  0 ` k.*.#.s.I.P.L.L.L.L.L.L.L.L.L.L.L.L.L.L.L.L.L.L.L.L.L.L.L.L.P.I.h.1.l + + l 1.h.I.P.L.L.L.L.L.L.L.L.Q./.] 9   qXqX",
"qXqXqXqX  0 ` k.*.#.f.I.P.L.L.L.L.L.L.L.L.L.L.L.L.L.L.L.L.L.L.L.L.L.L.L.L.L.L.E.~.1.s s 1.~.E.L.L.L.L.L.L.L.L.I.E.z.1.B 3   qXqX",
"qXqXqXqX  0 ` k.*.#.f.T.I.L.L.L.L.L.L.L.L.L.L.L.L.L.L.L.L.L.L.L.L.L.L.L.L.L.L.I.E.h.,.,.h.E.I.L.L.L.L.L.L.L.L.E.~.1.d < qXqXqXqX",
"qXqXqXqX  7 _ z.*.o.t.z.D.I.P.L.L.L.L.L.L.L.L.L.L.L.L.L.L.L.L.L.L.L.L.L.L.L.L.L.L.I.E.E.I.L.L.L.L.L.L.L.L.P.I.h.2.B >   qXqXqXqX",
"qXqX      6 ` x.*.R X.7.z.T.I.P.L.L.L.L.L.L.L.L.L.L.L.L.L.L.L.L.L.L.L.L.L.L.L.L.L.P.T.T.P.L.L.L.L.L.L.L.L.T.E.,.f < qXqXqXqXqXqX",
"qXqX  o * h 2.z.*.P P o.y.f.f.j.D.I.P.L.L.L.L.L.L.L.L.L.L.L.L.L.L.L.L.L.L.L.L.L.L.L.L.L.L.L.L.L.L.L.L.L.L.E.~._ 5   qXqXqXqXqXqX",
"qXqX  ; n 8.v.j.&.I I Q +.%.%.7.z.T.I.P.L.L.L.L.L.L.L.L.L.L.L.L.L.L.L.L.L.L.L.L.L.L.L.L.L.L.L.L.L.L.L.L.L.Q./.` 6   qXqXqXqXqXqX",
"qXqX  q [ !.Z.y.O.U Y Y U I P o.y.f.f.j.D.I.P.P.P.P.P.P.P.L.L.L.L.L.L.L.L.L.L.L.L.L.L.L.L.L.L.L.L.L.L.I.E.z.1.B 3   qXqXqXqXqXqX",
"qXqX  q ] A.r.o.Q Y Y Y Y U I Q +.%.%.7.z.T.I.I.I.I.I.I.I.P.L.L.L.L.L.L.L.L.L.L.L.L.L.L.L.L.L.L.L.L.L.E.~.1.d < qXqXqXqXqXqXqXqX",
"qXqX  7 _ x.*.P I Y Y Y Y Y Y Y U I P o.y.g.f.f.f.f.f.f.f.j.D.I.P.P.P.P.P.P.P.P.P.P.P.P.P.L.L.P.T.E.Q.z.1.M >   qXqXqXqXqXqXqXqX",
"qXqX  5 _ c.=.I U Y Y Y Y Y Y Y Y U I Q +.%.%.%.%.%.%.%.#.7.z.T.I.I.I.I.I.I.I.I.I.I.I.I.I.P.L.P.E.~./.1.d > qXqXqXqXqXqXqXqXqXqX",
"qXqX1 s { p.#.U Y Y Y Y Y Y Y Y Y Y Y Y U I I I I I I I P o.y.g.f.f.f.f.f.f.f.f.f.f.f.f.f.x.P.l.,._ ` B <   qXqXqXqXqXqXqXqXqXqX",
"  5 Z  .$.+.^ Y Y Y Y Y Y Y Y Y Y Y Y Y Y U U U U U U U I Q +.%.%.%.%.%.%.%.%.%.%.%.%.%.#.r.F.5.f 5 6 3 qXqXqXqXqXqXqXqXqXqXqXqX",
"  q | F.3.Y T Q Q Q Q Q Q Q Q Q Q Q Q Q Q Q Q Q Q Q Q Q Q Q T T T T T T T T T T T T T T T ~ ' C 1       qXqXqXqXqXqXqXqXqXqXqXqX",
"  q | J.4.R Q ^ ^ ^ ^ ^ ^ ^ ^ ^ ^ ^ ^ ^ ^ ^ ^ ^ ^ ^ ^ ^ ^ ! ! Q Q Q Q Q Q Q Q Q Q Q Q / ( D t < qXqXqXqXqXqXqXqXqXqXqXqXqXqXqXqX",
"  : m H S x c c c c c c c c c c c c c c c c c c c c c c c c c c c c c c c c c c c c c v b j $   qXqXqXqXqXqXqXqXqXqXqXqXqXqXqXqX",
"  O : 6 , = - - - - - - - - - - - - - - - - - - - - - - - - - - - - - - - - - - - - - - - & qXqXqXqXqXqXqXqXqXqXqXqXqXqXqXqXqXqX",
"                                                                                            qXqXqXqXqXqXqXqXqXqXqXqXqXqXqXqXqXqX"
};
