/* XPM */
static char *result[] = {
/* columns rows colors chars-per-pixel */
"64 64 233 2 ",
"   c black",
".  c #010101",
"X  c #020101",
"o  c #080404",
"O  c #0A0505",
"+  c #160C0C",
"@  c #170C0C",
"#  c #180C0C",
"$  c #190D0D",
"%  c #1B0D0D",
"&  c #1C0F0F",
"*  c #1E0F0F",
"=  c #1F0F0F",
"-  c #1E1010",
";  c #1F1010",
":  c gray12",
">  c #211111",
",  c #221111",
"<  c #221212",
"1  c #231212",
"2  c #241313",
"3  c #251313",
"4  c #251414",
"5  c #261414",
"6  c #271414",
"7  c #271515",
"8  c #281515",
"9  c #291515",
"0  c #291616",
"q  c #2A1616",
"w  c #2B1616",
"e  c #313131",
"r  c #333535",
"t  c #353535",
"y  c #363838",
"u  c #412121",
"i  c #462525",
"p  c #472525",
"a  c #482525",
"s  c #482626",
"d  c #492626",
"f  c #4A2727",
"g  c #4B2727",
"h  c #4C2525",
"j  c #4C2828",
"k  c #5C3030",
"l  c #5D3131",
"z  c #602F2F",
"x  c #613030",
"c  c #623030",
"v  c #603232",
"b  c #613333",
"n  c #643535",
"m  c #653535",
"M  c #663535",
"N  c #663636",
"B  c #673636",
"V  c #683636",
"C  c #693737",
"Z  c #6B3636",
"A  c #753B3B",
"S  c #7C4040",
"D  c #656262",
"F  c #696A6A",
"G  c #6B6C6C",
"H  c #6B6D6D",
"J  c #6E6F6F",
"K  c #803F3F",
"L  c #813F3F",
"P  c #814040",
"I  c #824040",
"U  c #834040",
"Y  c #834141",
"T  c #804343",
"R  c #814343",
"E  c #844141",
"W  c #854141",
"Q  c #854242",
"!  c #874343",
"~  c #814444",
"^  c #824444",
"/  c #834545",
"(  c #844545",
")  c #854545",
"_  c #854646",
"`  c #864646",
"'  c #874646",
"]  c #874747",
"[  c #884444",
"{  c #894444",
"}  c #8A4545",
"|  c #8B4545",
" . c #8B4646",
".. c #8B4747",
"X. c #8C4646",
"o. c #8D4646",
"O. c #8C4747",
"+. c #8D4747",
"@. c #8E4747",
"#. c #8F4747",
"$. c #8A4848",
"%. c #8B4848",
"&. c #8B4949",
"*. c #8D4848",
"=. c #8C4949",
"-. c #8D4949",
";. c #8F4848",
":. c #8E4A4A",
">. c #8F4B4B",
",. c #914949",
"<. c #924949",
"1. c #904B4B",
"2. c #934B4B",
"3. c #944B4B",
"4. c #904C4C",
"5. c #914C4C",
"6. c #924C4C",
"7. c #924D4D",
"8. c #954C4C",
"9. c #944D4D",
"0. c #974D4D",
"q. c #994E4E",
"w. c #9A4F4F",
"e. c #9C5050",
"r. c #9D5050",
"t. c #9D5151",
"y. c #A25050",
"u. c #A05252",
"i. c #A15353",
"p. c #A35353",
"a. c #A15454",
"s. c #A25454",
"d. c #A35454",
"f. c #A35555",
"g. c #A45555",
"h. c #A55555",
"j. c #A45656",
"k. c #A55656",
"l. c #A65656",
"z. c #A75656",
"x. c #A65757",
"c. c #A75757",
"v. c #A95454",
"b. c #A85757",
"n. c #A95757",
"m. c #AA5656",
"M. c #AA5757",
"N. c #AB5757",
"B. c #AD5757",
"V. c #A85858",
"C. c #A95858",
"Z. c #AA5858",
"A. c #AB5858",
"S. c #AA5959",
"D. c #AB5959",
"F. c #AD5858",
"G. c #AC5959",
"H. c #AE5858",
"J. c #AE5959",
"K. c #AC5A5A",
"L. c #AD5A5A",
"P. c #AD5B5B",
"I. c #AE5A5A",
"U. c #AF5A5A",
"Y. c #AE5B5B",
"T. c #AF5B5B",
"R. c #AF5C5C",
"E. c #B15B5B",
"W. c #B25B5B",
"Q. c #B05C5C",
"!. c #B15D5D",
"~. c #B25D5D",
"^. c #B35D5D",
"/. c #B35E5E",
"(. c #B45E5E",
"). c #B06262",
"_. c #B16363",
"`. c #B66565",
"'. c #BA7575",
"]. c #BB7777",
"[. c #BD7777",
"{. c #BB7878",
"}. c #BE7979",
"|. c #BE7A7A",
" X c #BE7B7B",
".X c #888888",
"XX c #BCBCBC",
"oX c gray",
"OX c #C08282",
"+X c #C08383",
"@X c #C18383",
"#X c #C18484",
"$X c #C28484",
"%X c #C38585",
"&X c #C48686",
"*X c #C48787",
"=X c #C09292",
"-X c #D0A2A2",
";X c #D2A4A4",
":X c #C0B3B3",
">X c #C1B4B4",
",X c #DBB8B8",
"<X c #DDB9B9",
"1X c #E0BDBD",
"2X c #C0C3C3",
"3X c #C1C4C4",
"4X c #CFD0D0",
"5X c #D1D3D3",
"6X c #D2D3D3",
"7X c #D2D4D4",
"8X c #D3D6D6",
"9X c #D4D6D6",
"0X c #D4D9D9",
"qX c #ECD9D9",
"wX c #EDD9D9",
"eX c #ECDADA",
"rX c #EDDCDC",
"tX c #EEDCDC",
"yX c #EFDEDE",
"uX c #F0DCDC",
"iX c #F1DEDE",
"pX c #F2DFDF",
"aX c #F3E0E0",
"sX c #F2E1E1",
"dX c #F2E4E4",
"fX c #F6E9E9",
"gX c #F1F3F3",
"hX c #F2F4F4",
"jX c #F6F9F9",
"kX c #F7FBFB",
"lX c #FCF9F9",
"zX c white",
"xX c None",
/* pixels */
"xXxXxXxXxXxXxXxXxXxXxXxXxXxXxXxXxXxXxXxXxXxXxXxXxXxXxXxXxXxXxXxXxXxXxXxXxXxXxXxXxXxXxXxXxXxXxXxXxXxXxXxXxXxXxXxXxXxXxXxXxXxXxXxX",
"xXxXxXxXxXxXxXxXxXxXxXxXxXxXxXxXxXxXxXxXxXxXxXxXxXxXxXxXxXxXxXxXxXxXxXxXxXxXxXxXxXxXxXxXxXxXxXxXxXxXxXxXxXxXxXxXxXxXxXxXxXxXxXxX",
"xXxXxXxXxXxXxXxXxXxXxXxXxXxXxXxXxXxXxXxXxXxXxXxXxXxXxXxXxXxXxXxXxXxXxXxXxXxXxXxXxXxXxXxXxXxXxXxXxXxXxXxXxXxXxXxXxXxXxXxXxXxXxXxX",
"xXxXxXxXxXxXxXxXxXxXxXxXxXxXxXxXxXxXxXxXxXxXxXxXxXxXxXxXxXxXxXxXxXxXxXxXxXxXxXxXxXxXxXxXxXxXxXxXxXxXxXxXxXxXxXxXxXxXxXxXxXxXxXxX",
"xXxXxXxXxXxXxXxXxXxXxXxXxXxXxXxXxXxXxXxXxXxXxXxXxXxXxXxX        xXxXxXxXxXxXxXxXxXxXxXxXxXxXxXxXxXxXxXxXxXxXxXxXxXxXxXxXxXxXxXxX",
"xXxXxXxXxXxXxXxXxXxXxXxXxXxXxXxXxXxXxXxXxXxXxXxXxXxXxXxX3 q w 8 xXxXxXxXxXxXxXxXxXxXxXxXxXxXxXxXxXxXxXxXxXxXxXxXxXxXxXxXxXxXxXxX",
"xXxXxXxXxXxXxXxXxXxXxXxXxXxXxXxXxXxXxXxXxXxXxXxXxXxX  < m _ ] C 5   xXxXxXxXxXxXxXxX        xXxXxXxXxXxXxXxXxXxXxXxXxXxXxXxXxXxX",
"xXxXxXxXxXxXxXxXxXxXxXxXxXxXxXxXxXxXxXxXxXxXxXxXxXxX> f 5.K.9.V 3   xXxXxXxXxXxXxXxX3 q w 8 xXxXxXxXxXxXxXxXxXxXxXxXxXxXxXxXxXxX",
"xXxXxXxXxXxXxXxXxXxXxXxXxXxXxXxXxXxXxXxXxXxXxXxX  > n 5.D.5.j 2 xXxXxXxXxXxXxXxX  < m _ ] C 5   xXxXxXxXxXxXxXxXxXxXxXxXxXxXxXxX",
"xXxXxXxXxXxXxXxXxXxXxXxXxXxXxXxXxXxXxXxXxXxXxXxX> f 5.K.7.M <   xXxXxXxXxXxXxXxX> f 5.K.9.V 3   xXxXxXxXxXxXxXxXxXxXxXxXxXxXxXxX",
"xXxXxXxXxXxXxXxXxXxXxXxXxXxXxXxXxXxXxXxXxXxX  > n 5.D.6.g < xXxXxXxXxXxXxXxX  > n 5.D.5.j 2 xXxXxXxXxXxXxXxXxXxXxXxXxXxXxXxXxXxX",
"xXxXxXxXxXxXxXxXxXxXxXxXxXxXxXxXxXxXxXxXxXxX> d >.S.5.l $   xXxXxXxXxXxXxXxX> f 5.K.7.M <   xXxXxXxXxXxXxXxXxXxXxXxXxXxXxXxXxXxX",
"xXxXxXxXxXxXxXxXxXxXxXxXxXxXxXxXxXxX      < M 1.V.>.s # X                 < M 5.D.6.g < xXxXxXxXxXxXxXxXxXxXxXxXxXxXxXxXxXxXxXxX",
"xXxXxXxXxXxXxXxXxXxXxXxXxXxXxXxXxXxX3 6 5 d >.(.~.&.i 1 6 0 9 9 9 9 9 6 4 d 1.S.5.l $   xXxXxXxXxXxXxXxXxXxXxXxXxXxXxXxXxXxXxXxX",
"xXxXxXxXxXxXxXxXxXxXxXxXxXxX      1 B ^ ~ =.f.Q.Y.a.$.T ~ ^ ~ R R R R T T :.c.>.s # X       xXxXxXxXxXxXxXxXxXxXxXxXxXxXxXxXxXxX",
"xXxXxXxXxXxXxXxXxXxXxXxXxXxX3 6 5 d >./.~.R.P.K.K.P.R.Q.Q.Q.Q.Q.Q.Q.Q.Q.Q.!.Q.&.i 1 6 q 0 3 xXxXxXxXxXxXxXxXxXxXxXxXxXxXxXxXxXxX",
"xXxXxXxXxXxXxXxXxXxXxXxX  < M ^ ~ =.f.Q.R.Y.L.K.K.L.Y.T.T.T.T.T.T.T.T.T.T.T.Y.a.$.T ~ ( / B 1       xXxXxXxXxXxXxXxXxXxXxXxXxXxX",
"xXxXxXxXxXxXxXxXxXxXxXxX> s :./.~.R.P.K.K.K.K.K.K.K.K.K.K.K.K.K.K.K.K.K.K.K.K.P.R.Q.Q.~./.>.d 5 8 4 xXxXxXxXxXxXxXxXxXxXxXxXxXxX",
"xXxXxXxXxXxXxXxXxXxX  > n :.k.Q.R.Y.L.K.K.K.K.K.K.K.K.K.K.K.K.K.K.K.K.K.K.K.K.L.Y.T.T.R.Q.j.=.^ / N <   xXxXxXxXxXxXxXxXxXxXxXxX",
"xXxXxXxXxXxXxXxXxXxX> s :.~.R.K.K.K.K.K.K.K.K.K.K.K.K.K.K.K.K.K.K.K.K.K.K.K.K.K.K.K.K.K.K.S.c.z.n.` p < xXxXxXxXxXxXxXxXxXxXxXxX",
"xXxXxXxXxXxXxXxX  > n :.k.R.P.K.K.K.K.K.K.K.K.K.K.K.K.K.K.K.K.K.K.K.K.K.K.K.K.K.K.K.K.K.L.h.8.+.@.+.' N <   xXxXxXxXxXxXxXxXxXxX",
"xXxXxXxXxXxXxXxX> a *.E.J.A.G.K.K.K.K.K.K.K.K.K.K.K.K.K.K.G.A.N.N.A.G.K.K.K.K.K.K.K.K.K.L.g.2.! I X.u.' p < xXxXxXxXxXxXxXxXxXxX",
"xXxXxXxXxXxX  > m -.p.F.N.M.D.K.K.K.K.K.K.K.K.K.K.K.K.K.K.G.N.m.m.N.G.K.K.K.K.K.K.K.K.K.K.S.h.q.{ E | *.' N <   xXxXxXxXxXxXxXxX",
"xXxXxXxXxXxX> a O.`.}.@X@X{.).N.D.K.K.K.K.K.K.K.K.K.K.D.N.).{.@X@X{.).N.D.K.K.K.K.K.K.K.K.P.Y.s.X.K K X.u.' i < xXxXxXxXxXxXxXxX",
"xXxXxXxX  > m O.y.[.<XrXrX,X'.v.N.K.K.K.K.K.K.K.K.K.K.N.v.'.,XrXrX,X'.v.N.K.K.K.K.K.K.K.K.L.P.s.X.K K Q X.+.` N 4   xXxXxXxXxXxX",
"xXxXxXxX< a -.`.[.-XdXzXzXdX-X'.).G.G.K.K.K.K.K.K.G.G.).'.-XdXzXzXdX-X'.).G.G.K.K.K.K.K.K.K.L.g.3.{ E K K ;.n.( 0   xXxXxXxXxXxX",
"xXxX  3 M *.p.}.<XdXlXzXzXlXdX,X{.N.A.K.K.K.K.K.K.A.N.{.,XdXlXzXzXlXdX,X{.N.A.K.K.K.K.K.K.K.K.S.k.w.{ K K ;.b./ 0   xXxXxXxXxXxX",
"xXxX  9 / W.H.+XeXzXzXzXzXzXzXeX+Xm.A.K.K.K.K.K.K.A.m.+XeXzXzXzXzXzXzXeX+Xm.A.K.K.K.K.K.K.K.K.L.Y.k.3.[ Y @.l.^ 0   xXxXxXxXxXxX",
"xXxX  9 ^ E.F.OXqXzXzXzXzXzXzXqXOXm.A.K.K.K.K.K.K.A.m.OXqXzXzXzXzXzXzXqXOXm.A.K.K.K.K.K.K.K.K.K.L.D.k.q.{ @.k.^ 0   xXxXxXxXxXxX",
"xXxX  9 R U.B.@XqXhX6XoXXX4XgXwX@Xm.A.K.K.K.K.K.K.A.m.@XqXhX6XoXXX4XgXwX@Xm.A.K.K.K.K.K.K.K.K.K.K.P.Y.s. .@.h.^ 0   xXxXxXxXxXxX",
"xXxX  9 R U.B.%XuX7XJ t e F 5XuX%Xm.A.K.K.K.K.K.K.A.m.%XuX7XJ t e F 5XuX%Xm.A.K.K.K.K.K.K.K.K.K.K.L.P.s. .@.h.^ 0   xXxXxXxXxXxX",
"xXxX  9 R U.B.&XpX3Xy   : G 8XiX%Xm.A.K.K.K.K.K.K.A.m.&XpX3Xy   : G 8XiX%Xm.A.K.K.K.K.K.K.K.K.K.K.L.P.i. .@.h.~ 7   xXxXxXxXxXxX",
"xXxX  9 R U.B.*XaX2Xr : .X9XjXtX#Xm.A.K.K.K.K.K.K.A.m.*XaX2Xr : .X9XjXtX#Xm.A.K.K.K.K.K.K.K.K.K.K.L.P.i. .@.k.^ 6       xXxXxXxX",
"xXxX  9 R U.F.|.1X:XD H 9XzXfX,X].N.A.K.K.K.K.K.K.A.N.|.1X:XD H 9XzXfX,X].N.A.K.K.K.K.K.K.K.K.K.K.L.P.i. .+.h.>.g & o   xXxXxXxX",
"xXxX  9 R Q.I._.].=X>X0XkXfX;X'.).G.G.K.K.K.K.K.K.G.G._.].=X>X0XkXfX;X'.).G.G.K.K.K.K.K.K.K.K.K.K.L.P.i. .X.d.x.4.v -   xXxXxXxX",
"xXxX  9 R Q.T.M.v.].1XsXyX,X'.v.N.K.K.K.K.K.K.K.K.K.K.M.v.].1XsXyX,X'.v.N.K.K.K.K.K.K.K.K.K.K.K.K.L.P.i. .[ q.C.!.( q   xXxXxXxX",
"xXxX  9 R Q.T.D.M._. X&X$X].).N.D.K.K.K.K.K.K.K.K.K.K.D.M._. X&X$X].).N.D.K.K.K.K.K.K.K.K.K.K.K.K.L.P.i. .I [ 0.Z./ q   xXxXxXxX",
"xXxX  9 R Q.T.K.K.G.N.m.m.N.G.K.K.K.K.K.K.K.K.K.K.K.K.K.K.G.N.m.m.N.G.K.K.K.K.K.K.K.K.K.K.K.K.K.K.K.L.g.3.[ I @.k.^ 0   xXxXxXxX",
"xXxX  9 R Q.T.K.K.G.A.N.N.A.G.K.K.K.K.K.K.K.K.K.K.K.K.K.K.G.A.N.N.A.G.K.K.K.K.K.K.K.K.K.K.K.K.K.K.K.K.S.k.q.[ +.h.^ 0   xXxXxXxX",
"xXxX  9 R Q.T.K.K.K.K.K.K.K.K.K.K.L.Y.T.T.T.T.Y.L.K.K.K.K.K.K.K.K.K.K.K.K.K.K.K.K.K.K.K.K.K.K.K.K.K.K.P.Y.s. .@.h.^ 0   xXxXxXxX",
"xXxX  9 R Q.T.K.K.K.K.K.K.K.K.K.K.P.R.Q.Q.Q.Q.R.P.K.K.K.K.K.K.K.K.K.K.K.K.K.K.K.K.K.K.K.K.K.K.K.K.K.K.L.P.s. .@.h.^ 0   xXxXxXxX",
"xXxX  9 R Q.T.K.K.K.K.K.K.K.K.L.P.a.%.T ~ ~ T %.a.P.L.K.K.K.K.K.K.K.K.K.K.K.K.K.K.K.K.K.K.K.K.K.K.K.K.L.P.i. .@.h.^ 0   xXxXxXxX",
"xXxX  9 R Q.T.K.K.K.K.K.K.K.K.Y.R.&.i 1 6 6 1 i &.R.Y.K.K.K.K.K.K.K.K.K.K.K.K.K.K.K.K.K.K.K.K.K.K.K.K.L.P.i. .@.h.^ 0   xXxXxXxX",
"xXxX  9 ^ ~.R.K.K.K.K.K.K.K.K.Y.R.=.p @ . . @ p =.R.Y.K.K.K.K.K.K.K.K.K.K.K.K.K.K.K.K.K.K.K.K.K.K.K.K.L.P.i. .@.h.^ 0   xXxXxXxX",
"xXxX  9 / /.Q.K.K.K.K.K.K.K.K.L.P.f.:.k + + k :.f.P.L.K.K.K.K.K.K.K.K.K.K.K.K.K.K.K.K.K.K.K.K.K.K.K.K.L.P.i. .@.h.^ 0   xXxXxXxX",
"xXxX  3 B >.f.P.L.K.K.K.K.K.K.K.K.R.~.:.p p :.~.R.K.K.K.K.K.K.K.K.K.K.K.K.K.K.K.K.K.K.K.K.K.K.K.K.K.K.L.P.i. .@.h.^ 0   xXxXxXxX",
"xXxXxXxX1 d =.R.Y.K.K.K.K.K.K.K.K.P.R.f.=.=.f.R.P.K.K.K.K.K.K.K.K.K.K.K.K.K.K.K.K.K.K.K.K.K.K.K.K.K.K.L.P.i. .@.h.^ 0   xXxXxXxX",
"xXxXxXxX  5 ~ ~.R.K.K.K.K.K.K.K.K.K.K.P.R.R.P.K.K.K.K.K.K.K.K.K.K.K.K.K.K.K.K.K.K.K.K.K.K.K.K.K.K.K.K.L.P.i. .@.h.^ 0   xXxXxXxX",
"xXxXxXxX  6 ^ /.Q.K.K.K.K.K.K.K.K.K.K.L.Y.Y.L.K.K.K.K.K.K.K.K.K.K.K.K.K.K.K.K.K.K.K.K.K.K.K.K.K.K.K.K.L.P.i. .@.h.^ 0   xXxXxXxX",
"xXxXxXxX  3 B >.f.P.L.K.K.K.K.K.K.K.K.K.K.K.K.K.K.K.K.K.K.K.K.K.K.K.K.K.K.K.K.K.K.K.K.K.K.K.K.K.K.K.K.L.P.i. .@.h.~ 7   xXxXxXxX",
"xXxXxXxXxXxX1 d =.R.Y.K.K.K.K.K.K.K.K.K.K.K.K.K.K.K.K.K.K.K.K.K.K.K.K.K.K.K.K.K.K.K.K.K.K.K.K.K.K.K.K.L.P.i. .@.k.^ 6       xXxX",
"xXxXxXxXxXxX  5 ~ ~.R.K.K.K.K.K.K.K.K.K.K.K.K.K.K.K.K.K.K.K.K.K.K.K.K.K.K.K.K.K.K.K.K.K.K.K.K.K.K.K.K.P.Y.s. .+.h.>.g & o   xXxX",
"xXxXxXxXxXxX  6 ^ /.Q.K.K.K.K.K.K.K.K.K.K.K.K.K.K.K.K.K.K.K.K.K.K.K.K.K.K.K.K.K.K.K.K.K.K.K.K.K.K.K.L.Y.Y.s. .X.d.x.4.v -   xXxX",
"xXxXxXxXxXxX  3 M :.k.R.P.K.K.K.K.K.K.K.K.K.K.K.K.K.K.K.K.K.K.K.K.K.K.K.K.K.K.K.K.K.K.K.K.K.K.L.P.S.g.s.s.w.{ { q.C.!.( q   xXxX",
"xXxXxXxXxXxXxXxX< s :.~.R.K.K.K.K.K.K.K.K.K.K.K.K.K.K.K.K.K.K.K.K.K.K.K.K.K.K.K.K.K.K.K.K.K.L.P.Y.k.3.X.X.} E E { 0.Z./ q   xXxX",
"xXxXxXxXxXxXxXxX  > n :.k.Q.R.Y.L.K.K.K.K.K.K.K.K.K.K.K.K.K.K.K.K.K.K.K.K.K.K.L.L.L.L.L.P.S.g.s.s.w.{ K L P I L K @.l.~ 7   xXxX",
"xXxXxXxXxXxXxXxXxXxX> s :./.~.R.P.K.K.K.K.K.K.K.K.K.K.K.K.K.K.K.K.K.K.K.K.K.L.P.P.P.P.P.Y.k.3.X.X.} E L P I I P L #.z.~ 5   xXxX",
"xXxXxXxXxXxXxXxXxXxX  < M ^ ~ =.f.R.Y.L.L.L.L.L.L.L.L.L.L.L.L.L.L.L.L.L.P.S.g.s.s.s.s.s.d.w.{ K L P I I I I I I P  .r.) p 1 xXxX",
"xXxXxXxXxXxXxXxXxXxXxXxX3 6 5 d >.^.Q.P.P.P.P.P.P.P.P.P.P.P.P.P.P.P.P.P.Y.k.3. .X.X.X.X.X.} E L P I I I I I I I I Q } ..' V 5   ",
"xXxXxXxXxXxXxXxXxXxXxXxX      < M &.t.h.g.g.g.g.g.g.g.g.g.g.g.g.g.g.g.g.h.e.| I I U U U U U E E E E E E E E E E E U I ,.D.` q   ",
"xXxXxXxXxXxXxXxXxXxXxXxXxXxXxXxX< u A <.,.;.;.;.;.;.;.;.;.;.;.;.;.;.;.;.;.o.! E E E E E E W W Q Q Q Q Q Q Q Q Q Q E Y <.G.` q   ",
"xXxXxXxXxXxXxXxXxXxXxXxXxXxXxXxX  # h c x z z z z z z z z z z z z z z z z z x x x x x x x x x x x x x x x x x x x x z Z S b ;   ",
"xXxXxXxXxXxXxXxXxXxXxXxXxXxXxXxXxXxX% * * * * * * * * * * * * * * * * * * * = = = = = = = = = = = = = = = = = = = = * , 6 ; O   ",
"xXxXxXxXxXxXxXxXxXxXxXxXxXxXxXxXxXxX                                                                                            "
};
