/* XPM */
static char *_66ba2edc4df481eb0ce6130b8d3b89dwRW9jJkTxp8aC0Of[] = {
/* columns rows colors chars-per-pixel */
"32 32 125 2 ",
"   c None",
".  c #4C4132",
"X  c #5B4835",
"o  c #705C3F",
"O  c #756B3D",
"+  c #463441",
"@  c #5A4859",
"#  c #8D7642",
"$  c #8E7B65",
"%  c #B48D7C",
"&  c #C1965C",
"*  c #C4B151",
"=  c #C9B352",
"-  c #D1BB56",
";  c #D1BF55",
":  c #D2BF56",
">  c #E4A36E",
",  c #EAB66D",
"<  c #E3A371",
"1  c #E3A471",
"2  c #E3A472",
"3  c #E3A473",
"4  c #E4A470",
"5  c #E4A570",
"6  c #E4A471",
"7  c #E4A571",
"8  c #E4A572",
"9  c #E4A672",
"0  c #E4A875",
"q  c #E4A876",
"w  c #E5AD7C",
"e  c #E5AE7D",
"r  c #E4AD7E",
"t  c #E5AE7E",
"y  c #E5AF7E",
"u  c #E5AF7F",
"i  c #E9B372",
"p  c #E9B472",
"a  c #E9B473",
"s  c #E9B573",
"d  c #E6B17B",
"f  c #E6B27C",
"g  c #EBBE79",
"h  c #D9C256",
"j  c #DAC357",
"k  c #EBCD5D",
"l  c #F0DA5D",
"z  c #F2DB5E",
"x  c #FEE75D",
"c  c #FEE65E",
"v  c #FEE75E",
"b  c #FEE75F",
"n  c #FFE75F",
"m  c #FFE85E",
"M  c #FFE95E",
"N  c #FFE85F",
"B  c #FFE95F",
"V  c #FFEA5F",
"C  c #FFEC5F",
"Z  c #DBC563",
"A  c #F3C368",
"S  c #F8D763",
"D  c #F8D863",
"F  c #FBDC61",
"G  c #FCDD63",
"H  c #F8DA67",
"J  c #F8DB67",
"K  c #F8DA68",
"L  c #F4D373",
"P  c #F4D473",
"I  c #F4D474",
"U  c #FCDF70",
"Y  c #F5DD7F",
"T  c #FEE560",
"R  c #FEE760",
"E  c #FEE761",
"W  c #FDE765",
"Q  c #FEE860",
"!  c #FFE860",
"~  c #FFE960",
"^  c #FFE861",
"/  c #FFE961",
"(  c #FFEA61",
")  c #FFE962",
"_  c #FFEA62",
"`  c #FFEB62",
"'  c #FFEC61",
"]  c #FFEC62",
"[  c #FEE864",
"{  c #FFEB66",
"}  c #F9E16F",
"|  c #FBE56E",
" . c #FAE46F",
".. c #FBE56F",
"X. c #FBE66E",
"o. c #FBE66F",
"O. c #FCE76F",
"+. c #FFE96B",
"@. c #F9E070",
"#. c #FEE870",
"$. c #F3E17E",
"%. c #E4AE80",
"&. c #E5AF80",
"*. c #E7BA87",
"=. c #E7BB88",
"-. c #E7BF94",
";. c #E7BF95",
":. c #C4B5B8",
">. c #F4C98C",
",. c #F3DE8C",
"<. c #F3DE8D",
"1. c #E7C096",
"2. c #E7C197",
"3. c #ECCC91",
"4. c #ECCD91",
"5. c #ECCF95",
"6. c #EDD090",
"7. c #EED190",
"8. c #ECD095",
"9. c #FFEB83",
"0. c #FFEE81",
"q. c #F4E08D",
"w. c #DAD2B8",
"e. c #FEEDC6",
"r. c #FFFAC2",
/* pixels */
"                                                                ",
"                                                                ",
"                    1 1 1 3 3 1 2 5 5 0                         ",
"                    u f a , , a f u q 5                         ",
"            5 5 < %.2.4.L S S I 3.;.u < > 5 5 5                 ",
"            u d i g 6.<...N N #.<.7.g s d u 0 5                 ",
"        > u ;.3.L K U #.W N Q W ..@.K P 3.;.w > 5 0             ",
"        u =.5.<...N R R R R R W R x Q ..<.8.*.u 0 5             ",
"    5 u ;.5.,...W R R R R W R R R Q Q W ..Y 8.;.u 5 0 5         ",
"    5 d 3.<.W x x R R R R R R R R R R x N ..,.4.f 5 5 5         ",
"    < i I #.W R R R R W W R R R R R N x N Q ..L a < 5 5         ",
"    %.g K Q Q R W R R R R R R R R +.0.9.@.F R H g u q 0         ",
"5 %.;.4.@.Q Q R R R W R R R W R x 0.r.e.>.A F } 7.;.%.5 5 5     ",
"5 f 3.<...R R R R R R R W R R Q R $.w.:.% & k #.q.3.f 5 5 0     ",
"5 a I #.W R R W W R R R R R W Q Q Z $ @ + o - { #.I i 5 0 5     ",
"3 , S N Q R R R R R W R R R R Q ' j # X . O : ' ' D , 2 2 0     ",
"1 , S N Q W R R R R W R R R R Q Q z h = * h l N N D , 1 1 9     ",
"1 i L #.W R R W W R R R R R W R Q { Q Q ] ] W W ..I s 1 0 1     ",
"1 f 4.<.#.R R R R R R R W R W R R { { Q Q Q Q ..q.4.f 1 5 9     ",
"1 %.2.4.U x Q R R R W R R R R R R Q Q Q Q Q N @.6.2.u > 5 9     ",
"    %.g K x R R W R R R R R R R R R W R R R N J g u q 5         ",
"    < s L #.W R R R R W R W W R W R R R R W ..P i < 0 0         ",
"    5 f 3.<...R R R R R R R R R R R R R Q ..<.3.d 1 5 5         ",
"    5 u ;.5.Y #.W Q Q R R R W R R R R W ..Y 8.-.u 5 5 0         ",
"        u *.5.<.#.R x R R R R R Q N N ..<.5.=.u 0 5             ",
"        > u 2.3.L K U #.W R Q W ..@.H L 3.;.w 5 5 5             ",
"            u d a g 7.<. .Q N ..<.7.g i d u 0 5                 ",
"            > > < %.2.3.L S D I 3.2.u < > 5 5 0                 ",
"                    &.f a , , a d u 0 5                         ",
"                    5 5 3 3 3 3 1 5 5 5                         ",
"                                                                ",
"                                                                "
};
