/* XPM */
static char *b2d1bde9ca824ba8e28d7fe991d02ea5EHSgGThYxPXh3PKs[] = {
/* columns rows colors chars-per-pixel */
"32 32 104 2 ",
"   c None",
".  c #4C4132",
"X  c #5B4835",
"o  c #705C3F",
"O  c #756B3D",
"+  c #463441",
"@  c #5A4859",
"#  c #8D7642",
"$  c #8E7B65",
"%  c #B48D7C",
"&  c #C1965C",
"*  c #C4B151",
"=  c #C9B352",
"-  c #D1BB56",
";  c #D1BF55",
":  c #D2BF56",
">  c #E4A36E",
",  c #EAB66D",
"<  c #E3A371",
"1  c #E3A472",
"2  c #E3A473",
"3  c #E4A470",
"4  c #E4A570",
"5  c #E4A471",
"6  c #E5AF7E",
"7  c #E5AF7F",
"8  c #E9B372",
"9  c #E9B473",
"0  c #E6B17B",
"q  c #E6B27C",
"w  c #EBBE79",
"e  c #D9C256",
"r  c #DAC357",
"t  c #EBCD5D",
"y  c #F0DA5D",
"u  c #F2DB5E",
"i  c #FEE75D",
"p  c #FEE65E",
"a  c #FEE75E",
"s  c #FEE75F",
"d  c #FFE75F",
"f  c #FFE85E",
"g  c #FFE95E",
"h  c #FFE85F",
"j  c #FFE95F",
"k  c #FFEA5F",
"l  c #FFEC5F",
"z  c #DBC563",
"x  c #F3C368",
"c  c #F8D763",
"v  c #FBDC61",
"b  c #FCDD63",
"n  c #F8DA67",
"m  c #F8DA68",
"M  c #F4D373",
"N  c #FCDF70",
"B  c #F5DD7F",
"V  c #FEE560",
"C  c #FEE760",
"Z  c #FEE761",
"A  c #FDE765",
"S  c #FEE860",
"D  c #FFE860",
"F  c #FFE960",
"G  c #FFE861",
"H  c #FFE961",
"J  c #FFEA61",
"K  c #FFE962",
"L  c #FFEA62",
"P  c #FFEB62",
"I  c #FFEC61",
"U  c #FFEC62",
"Y  c #FEE864",
"T  c #FFEB66",
"R  c #F9E16F",
"E  c #FBE56E",
"W  c #FAE46F",
"Q  c #FBE56F",
"!  c #FBE66E",
"~  c #FBE66F",
"^  c #FCE76F",
"/  c #FFE96B",
"(  c #F9E070",
")  c #FEE870",
"_  c #F3E17E",
"`  c #E4AE80",
"'  c #E5AF80",
"]  c #E7BA87",
"[  c #C4B5B8",
"{  c #F4C98C",
"}  c #F3DE8D",
"|  c #F3DF8D",
" . c #E7C096",
".. c #E7C197",
"X. c #ECCC91",
"o. c #ECCF95",
"O. c #EDD090",
"+. c #EED190",
"@. c #FFEB83",
"#. c #FFEE81",
"$. c #F4E08D",
"%. c #DAD2B8",
"&. c #FEEDC6",
"*. c #FFFAC2",
/* pixels */
"                                                                ",
"                                                                ",
"                        5 < 2 2 2 1 5 5                         ",
"                        q q 9 , , 9 q '                         ",
"                1 > 1 7 ] X.M c n M X...7 < 2 2                 ",
"                ` q 8 w o.} ) g g Q $.X.w 8 ' `                 ",
"            > 6 ..X.M m ( ~ A g d A Q R m M X.] ' >             ",
"            6 ] o.} ) D D A Z Z Z Z d d g ) | o.] q             ",
"        > ' ..o.B Q Z D S Z Z Z Z Z Z S S Z Q B O...7 1         ",
"        < 0 X.| Q d Z Z Z Z Z Z Z Z Z Z Z d g Q | o.0 <         ",
"        < 8 M ) A Z d Z Z Z Z Z Z Z Z i i i g A ) M 8 <         ",
"        ` w m g s Z Z Z Z Z Z Z Z Z Z / #.@.N v V m w `         ",
"    5 ' ..O.R d S S Z Z Z Z Z Z Z i i #.*.&.{ x v R +...' 5     ",
"    5 q X.| Q Z Z Z Z Z Z Z Z Z Z d d _ %.[ % & t ^ $.X.q 5     ",
"    1 9 M Q A Z Z Z Z Z Z Z Z Z S D D z $ @ + o - T ^ M 9 1     ",
"    1 , c g D Z Z Z Z Z Z Z Z Z S Y I r # X . O e I g n , 1     ",
"    1 , c s D S Z Z Z Z Z Z Z Z S D D c e = * e y S s c , 2     ",
"    1 8 M ) A A Z Z Z Z Z Z Z Z A Z S S I T I I Z A W M 8 1     ",
"    1 q X.} W S Z Z Z Z Z Z Z Z Z Z S S Y D I D S W } X.q 5     ",
"    1 ` ..O.( S S Z Z Z Z Z Z Z Z Z S S Z Z S S S ( O...' 4     ",
"        ` x M S S Z Z Z Z Z Z Z Z Z Z Z Z Z S S D m x '         ",
"        2 9 M ) A Z i Z Z Z Z Z Z Z Z Z Z Z s A ) M 0 1         ",
"        2 q X.| Q g Z Z Z Z A S Z Z Z Z Z Z s Q } X.q >         ",
"        2 ` ] o.B Q A S S Z S S Z Z Z S S A W B o.] ' 4         ",
"            q ] o.| ) Y Y D S S Z Z D g Z ) | +.] `             ",
"            < q ] X.M m N ) A D Z A ) ( m M o...` 2             ",
"                q q 9 w X.| W s g Q | X.w 8 q '                 ",
"                1 > 1 ' ..X.M c c M X...` < 2 2                 ",
"                        ' q 9 , , 9 q `                         ",
"                        5 5 1 1 < < 1 1                         ",
"                                                                ",
"                                                                "
};
