/* XPM */
static char *f47aec51aea6421fc4a7cea6815cbca4FYSzVMIcEK86du14[] = {
/* columns rows colors chars-per-pixel */
"32 32 163 2 ",
"   c None",
".  c #4C4132",
"X  c #5B4835",
"o  c #705C3F",
"O  c #756B3D",
"+  c #463441",
"@  c #5A4859",
"#  c #8D7642",
"$  c #8E7B65",
"%  c #B48D7C",
"&  c #C1965C",
"*  c #C4B151",
"=  c #C9B352",
"-  c #D1BB56",
";  c #D1BF55",
":  c #D2BF56",
">  c #E4A36E",
",  c #E4A36F",
"<  c #EAB66D",
"1  c #E3A371",
"2  c #E3A471",
"3  c #E3A472",
"4  c #E3A473",
"5  c #E4A470",
"6  c #E4A570",
"7  c #E4A471",
"8  c #E4A571",
"9  c #E4A671",
"0  c #E4A572",
"q  c #E4A672",
"w  c #E4A775",
"e  c #E4A875",
"r  c #E4A975",
"t  c #E4A876",
"y  c #E5AD7B",
"u  c #E5AD7C",
"i  c #E5AD7D",
"p  c #E5AE7C",
"a  c #E5AE7D",
"s  c #E5AF7D",
"d  c #E4AD7E",
"f  c #E5AE7E",
"g  c #E5AF7E",
"h  c #E5AF7F",
"j  c #E9B372",
"k  c #E9B471",
"l  c #E9B472",
"z  c #E9B473",
"x  c #E9B573",
"c  c #E6B17B",
"v  c #E7B27B",
"b  c #E6B27C",
"n  c #E5B07F",
"m  c #EBBE79",
"M  c #D9C256",
"N  c #DAC357",
"B  c #EBCD5D",
"V  c #F0DA5D",
"C  c #F2DB5E",
"Z  c #FEE75D",
"A  c #FEE65E",
"S  c #FEE75E",
"D  c #FEE75F",
"F  c #FFE75F",
"G  c #FFE95D",
"H  c #FFE85E",
"J  c #FFE95E",
"K  c #FFE85F",
"L  c #FFE95F",
"P  c #FFEA5F",
"I  c #FFEC5F",
"U  c #DBC563",
"Y  c #F3C368",
"T  c #F8D763",
"R  c #F8D863",
"E  c #FBDC61",
"W  c #FCDD63",
"Q  c #F8DA67",
"!  c #F8DA68",
"~  c #F4D373",
"^  c #F4D473",
"/  c #F4D474",
"(  c #FCDF70",
")  c #F5DC7E",
"_  c #F5DD7E",
"`  c #F5DD7F",
"'  c #FEE560",
"]  c #FEE760",
"[  c #FEE761",
"{  c #FDE665",
"}  c #FDE765",
"|  c #FEE860",
" . c #FFE860",
".. c #FFE960",
"X. c #FFE861",
"o. c #FFE961",
"O. c #FFEA61",
"+. c #FFEB61",
"@. c #FFEA62",
"#. c #FFEB62",
"$. c #FFEC61",
"%. c #FFEC62",
"&. c #FEE864",
"*. c #FFEB66",
"=. c #F9E16F",
"-. c #FBE46D",
";. c #FBE56E",
":. c #FAE46F",
">. c #FBE46F",
",. c #FBE56F",
"<. c #FBE66E",
"1. c #FBE66F",
"2. c #FCE76F",
"3. c #FFE96B",
"4. c #F9E070",
"5. c #FAE572",
"6. c #FAE573",
"7. c #F9E374",
"8. c #FEE870",
"9. c #F3E17E",
"0. c #E4AE80",
"q. c #E5AF80",
"w. c #E5B181",
"e. c #E7BA86",
"r. c #E7BA87",
"t. c #E8BB87",
"y. c #E7BB88",
"u. c #E7BF93",
"i. c #E7BF94",
"p. c #E7BF95",
"a. c #C4B5B8",
"s. c #ECCC8F",
"d. c #F4C98C",
"f. c #F3DD8C",
"g. c #F3DE8D",
"h. c #F3DF8D",
"j. c #E7C093",
"k. c #E7C194",
"l. c #E7C096",
"z. c #E7C197",
"x. c #ECCD90",
"c. c #ECCC91",
"v. c #ECCD91",
"b. c #ECCF93",
"n. c #ECCE94",
"m. c #ECCF94",
"M. c #ECCF95",
"N. c #E7C79F",
"B. c #E8C99F",
"V. c #EDD090",
"C. c #EED190",
"Z. c #EDD094",
"A. c #ECD095",
"S. c #EFDB9B",
"D. c #EFDC9B",
"F. c #EED99C",
"G. c #FFEB83",
"H. c #FFEE81",
"J. c #F4E08D",
"K. c #DAD2B8",
"L. c #E7C7A0",
"P. c #FEEDC6",
"I. c #FFFAC2",
/* pixels */
"                                                                ",
"                                                                ",
"                    4 w w 7 4 4 4 4 q q                         ",
"                    4 t u b z < < z b u                         ",
"            q q 4 > 4 0.p.c./ T T ~ c.z.0.1 4 >                 ",
"            q e d b z Y V.g.,.J J 5.g.V.m j b d                 ",
"        q q , u p.c.^ Q 4.,.} J F } ,.( ! ^ c.z.b ,             ",
"        q e u y.A.g.,.J J [ [ [ [ [ [ J J ,.g.M.y.u             ",
"    q q q y u.A.` ,.} F D [ [ [ [ [  . .D } ,._ M.z.u q         ",
"    q q q b c.g.,.J F [ [ [ [ [ [ [  . .D J J ,.g.c.b 4         ",
"    q q 4 z ^ ,.} F [ [ [ [ [ [ [ [ &. .D D F } 5.~ j 1         ",
"    q w u m ! J  .[ [ [ [ [ [ [ [ [ $.8.6.G.( E F Q m d         ",
"q q q u p.V.=.F | [ [ [ [ [ [ [ [ F D H.I.P.d.Y E =.V.z.q.>     ",
"q q q b c.g.,.[ [ [ [ [ [ [ [ [ [ [ F 9.K.a.% & B 2.J.c.b q     ",
"q 7 q z / ,.} [ [ [ [ [ [ [ [ [  . . .U $ @ + o - *.8.~ z 4     ",
"q q 1 < R J  .[ [ [ [ [ [ [ D [ |  .$.M # X . O M $.I T < 4     ",
"q q 1 < T J J [ [ [ [ [ [  .[ F |  . .V M = * M V | D R < 3     ",
"q q q z ^ 5.} [ [ [ [ [ [ } =.7.7.5.}  .$.*.$.$.| } :.~ x 3     ",
"q 7 q b c.g.5.F [ [ [ [ J =.g.F.F.g.,.F  .&. . .| :.h.c.b q     ",
"q q q u z.C.4.J J [  .[ -.` M.L.L.c._ ,.} | | | | 4.V.z.u q     ",
"    q e u m Q J [ [ [ =.g.A.y.u w.e.A.g.7.| J [ J ! m q.        ",
"    q q 4 z ^ ,.} J J =.V.z.q., , d p.A.4. .J } 5.~ j 1         ",
"    q q , b c.g.,.J J ! m u     > e u Y ! J J ,.g.c.b q         ",
"    q q q u k.A.` 5.5.~ j 7     4 4 4 z / 7.5._ c.p.u q         ",
"        q w y t.c.D.D.s.v q     q q q b c.D.D.V.y.b             ",
"        q q q y k.B.L.k.y q     q > q b k.B.L.z.u ,             ",
"            q q y w.w.u w q     q q q e u w.w.u                 ",
"            q q q > q q q q     q q q q q > q q                 ",
"                                                                ",
"                                                                ",
"                                                                ",
"                                                                "
};
