/* XPM */
static char *_c491d115f984c48a834b8fc94fb5e73sPSEuB8pfR8nyPPQ[] = {
/* columns rows colors chars-per-pixel */
"32 32 136 2 ",
"   c None",
".  c #4C4132",
"X  c #5B4835",
"o  c #705C3F",
"O  c #756B3D",
"+  c #463441",
"@  c #5A4859",
"#  c #8D7642",
"$  c #8E7B65",
"%  c #B48D7C",
"&  c #C1965C",
"*  c #C4B151",
"=  c #C9B352",
"-  c #D1BB56",
";  c #D1BF55",
":  c #D2BF56",
">  c #E4A36E",
",  c #EAB66D",
"<  c #E3A371",
"1  c #E3A472",
"2  c #E3A473",
"3  c #E4A470",
"4  c #E4A570",
"5  c #E4A471",
"6  c #E4A571",
"7  c #E4A672",
"8  c #E4A875",
"9  c #E5AE7C",
"0  c #E5AE7D",
"q  c #E5AF7D",
"w  c #E5AF7E",
"e  c #E5AF7F",
"r  c #E9B372",
"t  c #E9B471",
"y  c #E9B473",
"u  c #E6B17B",
"i  c #E7B27B",
"p  c #E6B27C",
"a  c #E5B07F",
"s  c #EBBE79",
"d  c #D9C256",
"f  c #DAC357",
"g  c #EBCD5D",
"h  c #F0DA5D",
"j  c #F2DB5E",
"k  c #FEE75D",
"l  c #FEE65E",
"z  c #FEE75E",
"x  c #FEE75F",
"c  c #FFE75F",
"v  c #FFE95D",
"b  c #FFE85E",
"n  c #FFE95E",
"m  c #FFE85F",
"M  c #FFE95F",
"N  c #FFEA5F",
"B  c #FFEC5F",
"V  c #DBC563",
"C  c #F3C368",
"Z  c #F8D763",
"A  c #FBDC61",
"S  c #FCDD63",
"D  c #F8DA67",
"F  c #F8DA68",
"G  c #F4D373",
"H  c #FCDF70",
"J  c #F5DC7E",
"K  c #F5DD7E",
"L  c #F5DD7F",
"P  c #FEE560",
"I  c #FEE760",
"U  c #FEE761",
"Y  c #FDE665",
"T  c #FDE765",
"R  c #FEE860",
"E  c #FFE860",
"W  c #FFE960",
"Q  c #FFE861",
"!  c #FFE961",
"~  c #FFEA61",
"^  c #FFEB61",
"/  c #FFEA62",
"(  c #FFEB62",
")  c #FFEC61",
"_  c #FFEC62",
"`  c #FEE864",
"'  c #FFEB66",
"]  c #F9E16F",
"[  c #FBE46D",
"{  c #FBE56E",
"}  c #FAE46F",
"|  c #FBE46F",
" . c #FBE56F",
".. c #FBE66E",
"X. c #FBE66F",
"o. c #FCE76F",
"O. c #FFE96B",
"+. c #F9E070",
"@. c #FAE572",
"#. c #FAE573",
"$. c #F9E374",
"%. c #FEE870",
"&. c #F3E17E",
"*. c #E4AE80",
"=. c #E5AF80",
"-. c #E5B181",
";. c #E7BA86",
":. c #E7BA87",
">. c #E7BF93",
",. c #C4B5B8",
"<. c #ECCC8F",
"1. c #F4C98C",
"2. c #F3DD8C",
"3. c #F3DE8D",
"4. c #F3DF8D",
"5. c #E7C194",
"6. c #E7C096",
"7. c #E7C197",
"8. c #ECCC91",
"9. c #ECCF93",
"0. c #ECCE94",
"q. c #ECCF94",
"w. c #ECCF95",
"e. c #E7C79F",
"r. c #E8C99F",
"t. c #EDD090",
"y. c #EED190",
"u. c #EFDB9B",
"i. c #EFDC9B",
"p. c #EED99C",
"a. c #FFEB83",
"s. c #FFEE81",
"d. c #F4E08D",
"f. c #DAD2B8",
"g. c #FEEDC6",
"h. c #FFFAC2",
/* pixels */
"                                                                ",
"                                                                ",
"                    < < < 2 2 < 4 4                             ",
"                    =.p y , , y p -.                            ",
"            4 4 2 *.7.9.G Z Z G 8.7.e < < >                     ",
"            e u u C 9.3.| M M @.d.8.s y u -.                    ",
"        > =.>.8.G F +.@.E E E T @.] F G 8.6.e >                 ",
"        e :.w.3.| M E I I I I T M c M | 3.w.;.e                 ",
"    4 e 6.t.2.[ E E E I I T I I I R E I [ 2.w.>.e 4             ",
"    4 u 8.3.[ v I I I I I I I I I I c c v | 3.8.u 4             ",
"    < r G @.T I I I I I T I I I I I c c v M o.G r <             ",
"    =.s F E E I I I I T I I I I I O.s.a.] A c D s =.            ",
"4 =.6.t.] M E I T I I T I I T I x s.h.g.1.C A ] y.7.-.4         ",
"4 p 8.3.| I I I I I I I I I E E c &.f.,.% & g @.4.8.p 4         ",
"< y G @.T I I T I I I I T I I E E V $ @ + o - ' %.G y <         ",
"2 , Z M E I I I T I I T I I I E ) d # X . O : ) ) Z , <         ",
"< , Z M E I I I T I I E I c M M E Z d * * d h R R Z , 1         ",
"< r G | T I T I I I I I ] $.$.] T E ) _ _ _ R T @.G y 1         ",
"< p 9.3.@.I I I I I M | 3.p.p.2.] M ) ) E E M } 4.8.p 1         ",
"< -.6.t.H M I I I T | L 8.e.e.w.K | T R I R c +.t.7.-.<         ",
"    -.s D M E c I @.3.w.:.e e :.t.3.} x I R M D s =.            ",
"    < r G | ' c I +.y.6.e > > e 7.t.H M M T @.G y <             ",
"    > p <.3.| M M D s =.        *.s F M M | 2.8.u >             ",
"    < e 6.9.L @.@.G r <         < y G @.@.K t.7.p <             ",
"        p ;.9.p.u.8.i 4         > u 8.i.i.8.;.e                 ",
"        > e 5.r.r.5.9 4         4 9 >.r.r.5.e 3                 ",
"            p -.-.=.8 4         4 8 e -.-.p                     ",
"            4 < 4 4 4 8         4 8 4 4 4 <                     ",
"                                                                ",
"                                                                ",
"                                                                ",
"                                                                "
};
