/* XPM */
static char *_87225ff9e70454ff74271361d081ca68Xx4SYcAQW1enQRE[] = {
/* columns rows colors chars-per-pixel */
"32 32 135 2 ",
"   c None",
".  c #4C4132",
"X  c #5B4835",
"o  c #705C3F",
"O  c #756B3D",
"+  c #463441",
"@  c #5A4859",
"#  c #8D7642",
"$  c #8E7B65",
"%  c #B48D7C",
"&  c #C1965C",
"*  c #C4B151",
"=  c #C9B352",
"-  c #D1BB56",
";  c #D1BF55",
":  c #D2BF56",
">  c #E4A36E",
",  c #E4A46F",
"<  c #EAB66D",
"1  c #E3A371",
"2  c #E3A472",
"3  c #E3A473",
"4  c #E4A470",
"5  c #E4A570",
"6  c #E4A471",
"7  c #E4A571",
"8  c #E4A672",
"9  c #E4A875",
"0  c #E5AE7C",
"q  c #E5AE7D",
"w  c #E5AF7E",
"e  c #E5AF7F",
"r  c #E9B372",
"t  c #E9B473",
"y  c #E6B17B",
"u  c #E6B27C",
"i  c #E5B07E",
"p  c #E5B07F",
"a  c #EBBE79",
"s  c #D9C255",
"d  c #DBC356",
"f  c #EBCD5D",
"g  c #F3DC5B",
"h  c #F0DA5D",
"j  c #FEE75D",
"k  c #FEE65E",
"l  c #FEE75E",
"z  c #FEE75F",
"x  c #FFE85E",
"c  c #FFE95E",
"v  c #FFE85F",
"b  c #FFE95F",
"n  c #FFEA5F",
"m  c #FFEC5F",
"M  c #DBC563",
"N  c #F3C368",
"B  c #F8D763",
"V  c #FBDC61",
"C  c #FCDD63",
"Z  c #F8DA67",
"A  c #F8DA68",
"S  c #F4D373",
"D  c #FCDF70",
"F  c #F5DD7D",
"G  c #F6DE7D",
"H  c #F5DC7E",
"J  c #F5DD7F",
"K  c #FEE560",
"L  c #FEE760",
"P  c #FEE761",
"I  c #FDE665",
"U  c #FDE765",
"Y  c #FEE764",
"T  c #FEE860",
"R  c #FFE860",
"E  c #FFE960",
"W  c #FFE861",
"Q  c #FFEA60",
"!  c #FFEA61",
"~  c #FFEB62",
"^  c #FFEC61",
"/  c #FFEC62",
"(  c #FEE864",
")  c #FFEA66",
"_  c #FFEB66",
"`  c #F9E16F",
"'  c #FBE46D",
"]  c #FBE56D",
"[  c #FBE56E",
"{  c #FAE46F",
"}  c #FBE46F",
"|  c #FBE56F",
" . c #FBE66E",
".. c #FBE66F",
"X. c #FCE56E",
"o. c #FCE66E",
"O. c #FDE66F",
"+. c #FCE76F",
"@. c #FFE96B",
"#. c #F9E070",
"$. c #FDE770",
"%. c #F9E374",
"&. c #FEE870",
"*. c #F3E17E",
"=. c #E4AE80",
"-. c #E5AF80",
";. c #E7BA87",
":. c #E8BB87",
">. c #C4B5B8",
",. c #F4C98C",
"<. c #F3DD8C",
"1. c #F3DE8C",
"2. c #F3DE8D",
"3. c #F3DF8D",
"4. c #F4DF8D",
"5. c #E7C093",
"6. c #E7C096",
"7. c #E7C196",
"8. c #E7C197",
"9. c #E7C296",
"0. c #ECCC91",
"q. c #ECCE94",
"w. c #ECCF94",
"e. c #ECCF95",
"r. c #E7C79F",
"t. c #EDD090",
"y. c #EED190",
"u. c #EDD094",
"i. c #EED99C",
"p. c #FFEB83",
"a. c #FFEE81",
"s. c #F4E08D",
"d. c #DAD2B8",
"f. c #FEEDC6",
"g. c #FFFAC2",
/* pixels */
"                                                                ",
"                                                                ",
"                        6 1 3 3 3 2 6 6                         ",
"                        u u t < < t u -.                        ",
"                2 , 2 e 8.0.S B Z S 0.8.=.1 3 9                 ",
"                e i r a t.3.| c c | 4.t.a r -.-.                ",
"            > w 8.0.S A A $.U P z U X.#.A S 0.:.u 1             ",
"            w ;.u.3.$.R R R P P P P z z c $.3.q.;.w             ",
"        , u :.e.<.| U z c P P P z ( R R z I | J e.:.w 6         ",
"        1 y e.2.| c P P P P P P z ( ( R z c c | 3.e.y 6         ",
"        1 r S $.U P z P P P P P ( z R R z z R U %.S t 6         ",
"        =.a A c c P P P P P P P L z ^ &.%.p.D V U A a =.        ",
"    6 -.8.t.` z P P P P P P P P L z z p.g.f.,.N V ` t.9.-.6     ",
"    6 u 0.3.| P P P P P P P P P L R c *.d.>.% & f &.s.0.u 6     ",
"    2 t S | U P P P P P P P z c c R c M $ @ + o - _ +.S t 2     ",
"    2 < B c R P P P P z P U ` %.%.$._ s # X . O s ^ c Z < 6     ",
"    2 < B c R P P P P P z | 3.i.i.3.| g s = * s h ( z B < 2     ",
"    2 t S | U P P P P U X.F 0.r.r.q.F | @.^ ^ ^ z I { S t 2     ",
"    6 y 0.3.| R z P P | 3.e.;.=.=.;.q.3.$.^ R R z { 3.0.u 6     ",
"    6 =.8.t.#.R R z c ` 0.8.w > , w 8.t.` R R R z ` t.8.u 8     ",
"        =.a A c R R R A a w         w a A R R R c A a w         ",
"        1 r S | U P $.S r 2         1 t S | U R $.S r 2         ",
"        , y 0.s.| | 3.0.y 6         6 y 0.3.| | 3.0.u 6         ",
"        , w 8.0.F *.0.8.-.6         , -.8.t.F F e.:.-.6         ",
"            u ;.t.u.:.u                 u :.u.u.;.-.            ",
"            , -.8.5.w 2                 1 0 8.8.-.3             ",
"                u w 9 6                 2 9 u -.                ",
"                8 6 8 8                 8 6 6 6                 ",
"                                                                ",
"                                                                ",
"                                                                ",
"                                                                "
};
