/* XPM */
static char *af945086580c4a6cf1c1dbbdf65f97cfRZgztnkM3wsBn5kq[] = {
/* columns rows colors chars-per-pixel */
"32 32 104 2 ",
"   c None",
".  c #4C4132",
"X  c #5B4835",
"o  c #705C3F",
"O  c #756B3D",
"+  c #463441",
"@  c #5A4859",
"#  c #8D7642",
"$  c #8E7B65",
"%  c #B48D7C",
"&  c #C1965C",
"*  c #C4B151",
"=  c #C9B352",
"-  c #D1BB56",
";  c #D1BF55",
":  c #D2BF56",
">  c #E4A36E",
",  c #EAB66D",
"<  c #E3A371",
"1  c #E3A472",
"2  c #E3A473",
"3  c #E4A470",
"4  c #E4A570",
"5  c #E4A471",
"6  c #E5AF7E",
"7  c #E5AF7F",
"8  c #E9B372",
"9  c #E9B473",
"0  c #E6B17B",
"q  c #E6B27C",
"w  c #EBBE79",
"e  c #D9C256",
"r  c #DAC357",
"t  c #EBCD5D",
"y  c #F0DA5D",
"u  c #F2DB5E",
"i  c #FEE75D",
"p  c #FEE65E",
"a  c #FEE75E",
"s  c #FEE75F",
"d  c #FFE75F",
"f  c #FFE85E",
"g  c #FFE95E",
"h  c #FFE85F",
"j  c #FFE95F",
"k  c #FFEA5F",
"l  c #FFEC5F",
"z  c #DBC563",
"x  c #F3C368",
"c  c #F8D763",
"v  c #FBDC61",
"b  c #FCDD63",
"n  c #F8DA67",
"m  c #F8DA68",
"M  c #F4D373",
"N  c #FCDF70",
"B  c #F5DD7F",
"V  c #FEE560",
"C  c #FEE760",
"Z  c #FEE761",
"A  c #FDE765",
"S  c #FEE860",
"D  c #FFE860",
"F  c #FFE960",
"G  c #FFE861",
"H  c #FFE961",
"J  c #FFEA61",
"K  c #FFE962",
"L  c #FFEA62",
"P  c #FFEB62",
"I  c #FFEC61",
"U  c #FFEC62",
"Y  c #FEE864",
"T  c #FFEB66",
"R  c #F9E16F",
"E  c #FBE56E",
"W  c #FAE46F",
"Q  c #FBE56F",
"!  c #FBE66E",
"~  c #FBE66F",
"^  c #FCE76F",
"/  c #FFE96B",
"(  c #F9E070",
")  c #FEE870",
"_  c #F3E17E",
"`  c #E4AE80",
"'  c #E5AF80",
"]  c #E7BA87",
"[  c #C4B5B8",
"{  c #F4C98C",
"}  c #F3DE8D",
"|  c #F3DF8D",
" . c #E7C096",
".. c #E7C197",
"X. c #ECCC91",
"o. c #ECCF95",
"O. c #EDD090",
"+. c #EED190",
"@. c #FFEB83",
"#. c #FFEE81",
"$. c #F4E08D",
"%. c #DAD2B8",
"&. c #FEEDC6",
"*. c #FFFAC2",
/* pixels */
"                                                                ",
"                                                                ",
"                    < < < 2 2 < 4 4                             ",
"                    ' q 9 , , 9 q '                             ",
"            4 4 < `  .X.M c c M o. .7 < > <                     ",
"            7 0 8 w O.$.Q h h E } +.w 8 q q                     ",
"        4 ' ] o.M m N ) Y h Y A Q R n M X. .7 >                 ",
"        ' ] o.| Q h s C C C C A Y h h Q } o.] 7                 ",
"    4 '  .o.B Q C Y h s C A C C s h Y C Q } o.] 7 4             ",
"    5 q X.$.Q h C C C C C C C C C s s s i ) $.o.0 4             ",
"    < 8 M Q A C C C C C A C C C C C s i h Y E M 8 <             ",
"    ' w n h Y C C C A C C C C C C / #.@.R v C n w '             ",
"4 ' ] o.( T Y C C A C C A C C s s #.*.&.{ x v R +. .' 4         ",
"4 q X.} Q Y C C C C C C C C C s s _ %.[ % & t E | o.q 4         ",
"2 9 M ) A C C C C C C A C C C Y Y z $ @ + o - T ) M 9 <         ",
"2 , c h Y s C C C A C C A C C T I r # X . O : I I c , <         ",
"< , c h Y A C C A C C A C C C T Y u r = * e y s l c , 1         ",
"< 8 M Q C C C C C C C C A C C C h h I Y I I s A W M 8 1         ",
"< q X.$.) C s C C C C C C C C C h Y Y h Y Y C ) | X.q <         ",
"4 '  .X.N C Y C A C C A C C C A C h h Y C C s R O...' 1         ",
"    ' x n h s C C C C A C A C C C C C C C Y h m x '             ",
"    2 q M E A s C C C C C C C C C C C s C A ) M 0 <             ",
"    2 q o.} E s C A C C A C C C C C C s h Q } X.q 2             ",
"    < `  .o.B E A C C C C C C C C Y Y A Q B X. .' <             ",
"        q ] o.} ) h h C C C h C C C C ) | o.] q                 ",
"        < 7 ] o.M m R ) A C h A ) N m M o.] ' >                 ",
"            ' ' 8 w +.} ( h h Q | X.w 9 ' '                     ",
"            4 4 < `  .o.M n c M X...' 4 4 2                     ",
"                    ' q 9 , , 9 q '                             ",
"                    4 4 < 2 2 < < >                             ",
"                                                                ",
"                                                                "
};
