/* XPM */
static char *result[] = {
/* columns rows colors chars-per-pixel */
"32 32 98 2 ",
"   c #473F4E",
".  c #483F4F",
"X  c #50304D",
"o  c #533150",
"O  c #543150",
"+  c #573254",
"@  c #6A3857",
"#  c #6C3C5A",
"$  c #6C3D5E",
"%  c #723B5C",
"&  c #793E61",
"*  c #4A4252",
"=  c #4F4953",
"-  c #514352",
";  c #514658",
":  c #59545D",
">  c #67405D",
",  c #6C4664",
"<  c #704761",
"1  c #605B65",
"2  c #60536B",
"3  c #834265",
"4  c #824267",
"5  c #864465",
"6  c #884465",
"7  c #8E4867",
"8  c #804769",
"9  c #90496F",
"0  c #924970",
"q  c #924972",
"w  c #964B73",
"e  c #974C77",
"r  c #9C4E74",
"t  c #9D4E78",
"y  c #8C5272",
"u  c #985479",
"i  c #A05077",
"p  c #A9577C",
"a  c #AC597D",
"s  c #AC5B7E",
"d  c #AE5681",
"f  c #AF5A81",
"g  c #B05D80",
"h  c #B35D83",
"j  c #B55E85",
"k  c #B85E87",
"l  c #B55F88",
"z  c #C1668F",
"x  c #C36F95",
"c  c #D27699",
"v  c #D4759B",
"b  c #D7799C",
"n  c #DC7FA1",
"m  c #D783A5",
"M  c #DD82A2",
"N  c #DE8EA8",
"B  c #E18AA7",
"V  c #E48FAC",
"C  c #EB98B0",
"Z  c #EB98B1",
"A  c #E89BB0",
"S  c #E999B2",
"D  c #EC9DB5",
"F  c #EEA1B8",
"G  c #E8A5BD",
"H  c #F0A8BA",
"J  c #F4A9BA",
"K  c #F5ACBD",
"L  c #F4ACBE",
"P  c #F4ADBF",
"I  c #F7B1C0",
"U  c #F8BDCA",
"Y  c #F9BECB",
"T  c #FAC0CC",
"R  c #FCC9D2",
"E  c #F9CAD6",
"W  c #FBCED6",
"Q  c #FDCDD5",
"!  c #FECED4",
"~  c #F8D0DB",
"^  c #FED9DE",
"/  c #FFDCDF",
"(  c #FDDFE5",
")  c #FFE6E9",
"_  c #FFE8EB",
"`  c #FFEDEE",
"'  c #FFF3F4",
"]  c #FFF4F4",
"[  c #FFF4F5",
"{  c #FFF7F8",
"}  c snow",
"|  c #FFFBFB",
" . c #FFFCFC",
".. c #FFFDFD",
"X. c #FFFEFD",
"o. c #FFFFFE",
"O. c white",
"+. c None",
/* pixels */
"+.+.+.+.+.+.+.+.+.+.+.+.+.+.+.+.+.+.+.+.+.+.+.+.+.+.+.+.+.+.+.+.",
"+.+.+.+.+.+.+.+.+.+.+.+.+.+.+.+.+.+.+.+.+.+.+.+.+.+.+.+.+.+.+.+.",
"+.+.+.+.+.+.+.+.+.+.+.+.+.+.+.+.+.+.+.+.+.+.+.+.+.+.+.+.+.+.+.+.",
"+.+.+.+.+.+.+.+.+.+.+.+.+.+.+.+.+.+.+.+.+.+.+.+.+.+.+.+.+.+.+.+.",
"+.+.+.+.+.+.+.+.+.+.+.+.+.+.+.+.+.+.+.+.+.+.+.+.+.+.+.+.+.+.+.+.",
"+.+.+.+.+.+.+.+.+.+.+.+.+.+.+.+.+.+.+.+.+.+.+.+.+.+.+.+.+.+.+.+.",
"+.+.+.+.+.+.+.+.+.+.+.+.+.+.+.+.+.+.+.+.+.+.+.+.+.+.+.+.+.+.+.+.",
"+.+.+.+.+.+.+.+.+.+.+.+.+.+.+.+.+.+.+.+.+.+.+.+.+.+.+.+.+.+.+.+.",
"+.+.+.+.+.+.+.+.+.+.+.X +.+.+.+.+.+.+.+.+.+.+.+.+.+.+.+.+.+.+.+.",
"+.+.+.+.+.+.+.+.o +.+.+.8 9 p g i 4 +.+.+.+.+.+.+.+.+.+.+.+.+.+.",
"+.+.+.+.+.+.+.+.+.+.+.w v C Y R L B j # . +.+.+.+.+.+.+.+.+.+.+.",
"+.+.+.+.+.+.+.+.+.O r n W [ o.O. .` I z > +.+.+.+.+.+.+.+.+.+.+.",
"+.+.+.+.+.+.+.+.+.$ N ! O.O.O.O.O.O.] K d +.+.+.+.+.+.+.+.+.+.+.",
"+.+.+.+.+.+.+.+.+.u ~ } O.O.O.O.O.O.O._ m % +.+.+.+.+.+.+.+.+.+.",
"+.+.+.+.+.+.+.+.+.a E O.O.O.O.O.O.O.O.o.G 6 +.+.+.+.+.+.+.+.+.+.",
"+.+.+.+.+.+.+.+.+.l Q O.O.O.O.O.O.O.O. .H 7 +.+.+.+.+.+.+.+.+.+.",
"+.+.+.+.+.+.+.+.+.f T O.O.O.O.O.O.O.O.] V 3 +.+.+.+.+.+.+.+.+.+.",
"+.+.+.+.+.+.+.+.+.0 Z ' O.O.O.O.O.O.O.^ c @ +.+.+.+.+.+.+.+.+.+.",
"+.+.+.+.+.+.+.+.+.+.x ( X.O.O.O.O.O.' D t +.+.+.+.+.+.+.+.+.+.+.",
"+.+.+.+.+.+.+.+.; +.y A U ) | ..{ / J k +.+.+.1 +.+.+.+.+.+.+.+.",
"+.+.+.+.+.+.+.+.+.+.+.< h M F P S b s +.+.+.+.+.+.+.+.+.+.+.+.+.",
"+.+.+.+.+.+.+.+.+.+.+.  +.& q e 5 , +.+.+ +.+.: +.+.+.+.+.+.+.+.",
"+.+.+.+.+.+.+.+.+.+.+.+.+.+.+.+.+.* = - +.+.+.+.+.+.+.+.+.+.+.+.",
"+.+.+.+.+.+.+.+.+.+.+.+.+.+.+.+.+.+.+.+.+.+.+.+.+.+.+.+.+.+.+.+.",
"+.+.+.+.+.+.+.+.+.+.+.+.+.+.+.+.+.+.+.+.+.+.+.+.+.+.+.+.+.+.+.+.",
"+.+.+.+.+.+.+.+.+.+.+.+.+.+.+.+.+.+.+.+.+.+.+.+.2 +.+.+.+.+.+.+.",
"+.+.+.+.+.+.+.+.+.+.+.+.+.+.+.+.+.+.+.+.+.+.+.+.+.+.+.+.+.+.+.+.",
"+.+.+.+.+.+.+.+.+.+.+.+.+.+.+.+.+.+.+.+.+.+.+.+.+.+.+.+.+.+.+.+.",
"+.+.+.+.+.+.+.+.+.+.+.+.+.+.+.+.+.+.+.+.+.+.+.+.+.+.+.+.+.+.+.+.",
"+.+.+.+.+.+.+.+.+.+.+.+.+.+.+.+.+.+.+.+.+.+.+.+.+.+.+.+.+.+.+.+.",
"+.+.+.+.+.+.+.+.+.+.+.+.+.+.+.+.+.+.+.+.+.+.+.+.+.+.+.+.+.+.+.+.",
"+.+.+.+.+.+.+.+.+.+.+.+.+.+.+.+.+.+.+.+.+.+.+.+.+.+.+.+.+.+.+.+."
};
