/* XPM */
static char *result[] = {
/* columns rows colors chars-per-pixel */
"32 32 98 2 ",
"   c #4D2E4B",
".  c #483A4A",
"X  c #4B3B4F",
"o  c #543152",
"O  c #60384E",
"+  c #603554",
"@  c #783F5E",
"#  c #4F4557",
"$  c #524759",
"%  c #554A5E",
"&  c #57525B",
"*  c #5A555E",
"=  c #71425B",
"-  c #584C60",
";  c #5C5761",
":  c #5D5862",
">  c #5E5962",
",  c #704064",
"<  c #7D5D74",
"1  c #6B6571",
"2  c #834564",
"3  c #844665",
"4  c #8B4966",
"5  c #8D4B67",
"6  c #82486A",
"7  c #8A4A69",
"8  c #8E4A68",
"9  c #8B4C69",
"0  c #8F4C6B",
"q  c #904C6B",
"w  c #8D5069",
"e  c #865777",
"r  c #965370",
"t  c #A15779",
"y  c #AA5C7B",
"u  c #AB5C7D",
"i  c #AE5E7D",
"p  c #AD5F7E",
"a  c #A0627B",
"s  c #B0627F",
"d  c #AD5B80",
"f  c #A96583",
"g  c #B76B83",
"h  c #B86987",
"j  c #BA6789",
"k  c #BE6E8B",
"l  c #A97192",
"z  c #C4708F",
"x  c #C47291",
"c  c #CF7896",
"v  c #D0809A",
"b  c #DC859F",
"n  c #DD82A3",
"m  c #DA91A9",
"M  c #E189A3",
"N  c #E38AA2",
"B  c #E78FA7",
"V  c #E39DAC",
"C  c #ED99AD",
"Z  c #EF9BAE",
"A  c #F09DB0",
"S  c #F29DB0",
"D  c #EEA4B6",
"F  c #F3A0B2",
"G  c #F4A5B4",
"H  c #F7A9B7",
"J  c #F8A8B5",
"K  c #F2ABBC",
"L  c #FAB1BD",
"P  c #FBB1BD",
"I  c #FCB1BC",
"U  c #FDB7C1",
"Y  c #F8B7C4",
"T  c #FDB8C2",
"R  c #FEBAC3",
"E  c #FEBDC7",
"W  c #FFBEC6",
"Q  c #FFC7CE",
"!  c #FCCCD4",
"~  c #FFD1D6",
"^  c #FFD4D8",
"/  c #FFDCE0",
"(  c #FFE0E2",
")  c #FFE3E6",
"_  c #FFE6E8",
"`  c #FFE8EA",
"'  c #FFECEE",
"]  c #FFEFF0",
"[  c #FFF1F1",
"{  c #FFF2F3",
"}  c #FFF4F5",
"|  c #FFF6F6",
" . c #FFF8F8",
".. c snow",
"X. c #FFFBFB",
"o. c #FFFCFC",
"O. c white",
"+. c None",
/* pixels */
"+.+.+.+.+.+.+.+.+.+.+.+.+.+.+.+.+.+.+.+.+.+.+.+.+.+.+.+.+.+.+.+.",
"+.+.+.+.+.+.+.+.+.+.+.+.+.+.+.+.+.+.+.+.+.+.+.+.+.+.+.+.+.+.+.+.",
"+.+.+.+.+.+.+.+.+.+.+.+.+.+.+.+.+.+.+.+.+.+.+.+.+.+.+.+.+.+.+.+.",
"+.+.+.+.+.+.+.+.+.+.+.+.+.+.+.+.+.+.+.+.+.+.+.+.+.+.+.+.+.+.+.+.",
"+.+.+.+.+.+.+.+.+.+.+.+.+.+.+.+.+.+.+.+.+.+.+.+.+.+.+.+.+.+.+.+.",
"+.+.+.+.+.+.+.+.+.+.+.+.+.+.+.+.+.+.+.+.+.+.+.+.+.+.+.+.+.+.+.+.",
"+.+.+.+.+.+.+.+.+.+.+.+.+.+.+.+.+.+.+.+.+.+.+.+.+.+.+.+.+.+.+.+.",
"+.+.+.+.+.* +.+.+.+.+.% +.+.+.+.+.+.+.+.+.+.+.+.+.+.+.+.+.+.+.+.",
"+.+.+.+.+.+.+.+.+.+.+.X +.+.+.+.+.+.+.+.+.+.+.+.+.+.+.+.+.+.+.+.",
"+.+.+.+.+.+.+.+.o +.+.  + 7 u i y 2 +.+.+.+.+.+.+.+.+.+.+.+.+.+.",
"+.+.+.+.+.+.+.+.+.+.+.5 v K U T P B j +.# $ +.+.+.+.+.+.+.+.+.+.",
"+.+.+.+.+.+.+.+.+.. w N ~  ...X.| ( I x O +.+.+.+.+.+.+.+.+.+.+.",
"+.+.+.+.+.+.+.+.+.< b Q X.O.O.O.O.O.{ Y d +.+.+.+.+.+.+.+.+.+.+.",
"+.+.+.+.+.+.+.+.+.a J ' O.O.O.O.O.O.O./ m = +.+.+.+.+.+.+.+.+.+.",
"+.+.+.+.+.+.+.+.+.s E o.O.O.O.O.O.O.O.] D 9 +.+.+.+.+.+.+.+.+.+.",
"+.+.+.+.+.+.+.+.+.g W X.O.O.O.O.O.O.O.] S 8 +.+.+.+.+.+.+.+.+.+.",
"+.+.+.+.+.+.+.+.+.p T X.O.O.O.O.O.O.O.' C 3 +.+.+.+.+.+.+.+.+.+.",
"+.+.+.+.+.+.+.+.+.0 A ` O.O.O.O.O.O.O.~ c +.+.+.+.+.+.+.+.+.+.+.",
"+.+.+.+.+.+.+.+.+.+.z R } O.O.O.O.O._ G t +.+.+.+.+.+.+.+.+.+.+.",
"+.+.+.+.+.+.+.+.+.+.l n ! ) [ { ' ^ L k +.+.+.+.+.+.+.+.+.+.+.+.",
"+.+.+.+.+.+.+.> +.+.e 6 h M F H Z V f , +.+.+.+.+.+.+.+.+.+.+.+.",
"+.+.+.+.+.+.+.+.+.+.+.+.+.@ q r 4 +.+.+.+.+.+.+.+.+.+.+.+.+.+.+.",
"+.+.+.+.+.+.+.+.+.+.+.+.+.+.+.+.+.+.+.+.- +.+.+.& ; +.+.+.+.+.+.",
"+.+.+.+.+.+.+.+.+.+.+.+.+.+.+.+.+.+.+.+.+.+.+.+.+.+.+.+.+.+.+.+.",
"+.+.+.+.+.+.+.+.+.+.+.+.+.+.+.+.+.+.+.: +.+.+.+.+.+.+.+.+.+.+.+.",
"+.+.+.+.+.+.+.+.+.+.+.+.+.+.+.+.+.+.+.+.+.+.+.+.+.+.+.+.+.+.+.+.",
"+.+.+.+.+.+.+.+.+.+.+.+.+.+.+.+.+.+.+.+.+.+.+.+.+.1 +.+.+.+.+.+.",
"+.+.+.+.+.+.+.+.+.+.+.+.+.+.+.+.+.+.+.+.+.+.+.+.+.+.+.+.+.+.+.+.",
"+.+.+.+.+.+.+.+.+.+.+.+.+.+.+.+.+.+.+.+.+.+.+.+.+.+.+.+.+.+.+.+.",
"+.+.+.+.+.+.+.+.+.+.+.+.+.+.+.+.+.+.+.+.+.+.+.+.+.+.+.+.+.+.+.+.",
"+.+.+.+.+.+.+.+.+.+.+.+.+.+.+.+.+.+.+.+.+.+.+.+.+.+.+.+.+.+.+.+.",
"+.+.+.+.+.+.+.+.+.+.+.+.+.+.+.+.+.+.+.+.+.+.+.+.+.+.+.+.+.+.+.+."
};
