/* XPM */
static char *result[] = {
/* columns rows colors chars-per-pixel */
"32 32 107 2 ",
"   c #4B3049",
".  c #48364A",
"X  c #463D4B",
"o  c #4A394B",
"O  c #763D5E",
"+  c #743C61",
"@  c #783E62",
"#  c #7C3F63",
"$  c #4C4352",
"%  c #5A405D",
"&  c #66465D",
"*  c #6A4259",
"=  c #6E415F",
"-  c #70415B",
";  c #5A4E64",
":  c #5C5760",
">  c #5D5762",
",  c #7A4466",
"<  c #7F4A6B",
"1  c #655667",
"2  c #62546F",
"3  c #755262",
"4  c #696073",
"5  c #736979",
"6  c #736B78",
"7  c #756E7F",
"8  c #824263",
"9  c #824465",
"0  c #884365",
"q  c #8A4465",
"w  c #8B4565",
"e  c #814168",
"r  c #8C456E",
"t  c #814A6C",
"y  c #8B486F",
"u  c #974973",
"i  c #974A73",
"p  c #994B76",
"a  c #9E4D76",
"s  c #9F5478",
"d  c #A24E77",
"f  c #A35077",
"g  c #A15078",
"h  c #A75278",
"j  c #A4507B",
"k  c #7A5782",
"l  c #AB5981",
"z  c #B25885",
"x  c #BF5F8B",
"c  c #8A6B86",
"v  c #B46289",
"b  c #BF608C",
"n  c #C36791",
"m  c #CC6894",
"M  c #CD6A96",
"N  c #CD6E97",
"B  c #CF7596",
"V  c #CF799A",
"C  c #D37099",
"Z  c #D5739B",
"A  c #D9799F",
"S  c #D97AA0",
"D  c #DB7AA0",
"F  c #DB7BA0",
"G  c #DF7FA3",
"H  c #878087",
"J  c #DC8BAC",
"K  c #E286A5",
"L  c #E084A6",
"P  c #E388A7",
"I  c #E389A9",
"U  c #E28EAC",
"Y  c #E48DAD",
"T  c #EB92AD",
"R  c #EE9FB6",
"E  c #EEA2B8",
"W  c #EDA4BC",
"Q  c #F1A4B9",
"!  c #F3A9BC",
"~  c #EEAFC4",
"^  c #F2B6C7",
"/  c #FABCC7",
"(  c #F6B9C9",
")  c #F6BDCB",
"_  c #F6C6D3",
"`  c #F9C6D0",
"'  c #FCD3DA",
"]  c #FAD6DE",
"[  c #FDDEE3",
"{  c #FEE2E5",
"}  c #FDE3E7",
"|  c #FFE2E6",
" . c #FEE7EA",
".. c #FEE9EC",
"X. c #FFEBED",
"o. c #FEECEE",
"O. c #FFEFF0",
"+. c #FCF3F5",
"@. c #FFF4F5",
"#. c #FFF6F6",
"$. c snow",
"%. c #FFFBFB",
"&. c #FFFCFB",
"*. c #FFFDFC",
"=. c #FFFEFE",
"-. c white",
";. c None",
/* pixels */
";.;.;.;.;.;.;.;.;.;.;.;.;.;.;.;.;.;.;.;.;.;.;.;.;.;.;.;.;.;.;.;.",
";.;.;.;.;.;.;.;.;.;.;.;.;.;.;.;.;.;.;.;.;.;.;.;.;.;.;.;.;.;.;.;.",
";.;.;.;.;.;.;.;.;.;.;.;.;.;.;.;.;.;.;.;.;.;.;.;.;.;.;.;.;.;.;.;.",
";.;.;.;.;.;.;.;.;.;.;.;.;.;.;.;.;.;.;.;.;.;.;.;.;.;.;.;.;.;.;.;.",
";.;.;.;.;.;.;.;.;.;.;.;.;.;.;.;.;.;.;.;.;.;.;.;.;.;.;.;.;.;.;.;.",
";.;.;.;.;.;.;.;.;.;.;.;.;.;.;.;.;.;.;.;.;.;.;.;.;.;.;.;.;.;.;.;.",
";.;.;.;.;.;.;.;.;.;.;.;.;.;.;.;.;.;.;.;.;.;.;.;.;.;.;.;.;.;.;.;.",
";.;.;.;.;.;.;.;.;.;.;.1 ;.;.;.;.;.;.;.;.;.;.;.;.;.;.;.;.;.;.;.;.",
";.;.;.;.;.;.;.;.;.;.;.H ;.;.;.;.;.;.;.;.;.;.;.;.;.;.;.;.;.;.;.;.",
";.;.;.;.;.;.;.;.;.;.;.;.3 y p d u @ ;.;.;.2 ;.;.;.;.;.;.;.;.;.;.",
";.;.;.;.;.;.;.;.;.;.;.9 B G W ~ Y C j - o ; ;.;.;.;.;.;.;.;.;.;.",
";.;.;.;.;.;.;.;.X $ < N ^  .%.-.#.' I n = ;.;.;.;.;.;.;.;.;.;.;.",
";.;.;.;.;.;.;.;.;.& V / *.-.-.-.-.-.{ P g ;.;.;.;.;.;.;.;.;.;.;.",
";.;.;.;.;.;.;.;.;.r L X.-.-.-.-.-.-.-.` M c ;.;.;.;.;.;.;.;.;.;.",
";.;.;.;.;.;.;.;.;.f Q %.-.-.-.-.-.-.-...S t ;.;.;.;.;.;.;.;.;.;.",
";.;.;.;.;.;.;.;.;.h ! &.-.-.-.-.-.-.-.O.K 0 ;.;.;.;.;.;.;.;.;.;.",
";.;.;.;.;.;.;.;.;.a R $.-.-.-.-.-.-.-.} Z # ;.;.;.;.;.;.;.;.;.;.",
";.;.;.;.;.;.;.;.;.e F | -.-.-.-.-.-.=.) x ;.;.;.;.;.;.;.;.;.;.;.",
";.;.;.;.;.;.;.;.;.;.z E @.-.-.-.-.-.[ D i ;.;.;.;.;.;.;.;.;.;.;.",
";.;.;.;.;.;.;.;.;.;.+ n ( ] +.@.o._ T v ;.;.;.;.;.;.;.;.;.;.;.;.",
";.;.;.;.;.;.;.;.;.6 ;., l m J U A b s * ;.;.;.;.;.;.;.;.;.;.;.;.",
";.;.;.;.;.;.;.;.;.5 > ;.;.O q w 8 ;.;.;.  ;.;.;.;.;.;.;.;.;.;.;.",
";.;.;.;.;.;.;.;.;.;.4 ;.;.;.;.;.;.;.;.;.. % ;.;.;.;.;.;.;.;.;.;.",
";.;.;.;.;.;.;.;.;.;.;.;.;.;.;.;.;.;.7 ;.;.k ;.;.;.;.;.;.;.;.;.;.",
";.;.;.;.;.;.;.;.;.;.;.;.;.;.;.;.;.;.;.;.;.;.;.;.;.;.;.;.;.;.;.;.",
";.;.;.;.;.;.;.;.;.;.;.;.;.;.;.;.;.;.;.;.;.;.;.;.;.;.;.;.;.;.;.;.",
";.;.;.;.;.;.;.;.;.;.;.;.;.;.;.;.;.;.;.;.;.;.;.;.;.;.;.;.;.;.;.;.",
";.;.;.;.;.;.;.;.;.;.;.;.;.;.;.;.;.;.;.;.;.;.;.;.;.;.;.;.;.;.;.;.",
";.;.;.;.;.;.;.;.;.;.;.;.;.;.;.;.;.;.;.;.;.;.;.;.;.;.;.;.;.;.;.;.",
";.;.;.;.;.;.;.;.;.;.;.;.;.;.;.;.;.;.;.;.;.;.;.;.;.;.;.: ;.;.;.;.",
";.;.;.;.;.;.;.;.;.;.;.;.;.;.;.;.;.;.;.;.;.;.;.;.;.;.;.;.;.;.;.;.",
";.;.;.;.;.;.;.;.;.;.;.;.;.;.;.;.;.;.;.;.;.;.;.;.;.;.;.;.;.;.;.;."
};
