/* XPM */
static char *result[] = {
/* columns rows colors chars-per-pixel */
"32 32 103 2 ",
"   c #462C45",
".  c #4E2F4C",
"X  c #4A3F4C",
"o  c #533353",
"O  c #5A3251",
"+  c #5A3255",
"@  c #5D355B",
"#  c #623459",
"$  c #623559",
"%  c #6B3961",
"&  c #6D3961",
"*  c #723D63",
"=  c #733C66",
"-  c #733D66",
";  c #743C65",
":  c #753E64",
">  c #763F65",
",  c #5B5661",
"<  c #5E5563",
"1  c #5E5863",
"2  c #7C4366",
"3  c #7B4F66",
"4  c #7F426D",
"5  c #7A516B",
"6  c #6E6976",
"7  c #814667",
"8  c #864573",
"9  c #8B4773",
"0  c #8D4874",
"q  c #8C4B74",
"w  c #8E4976",
"e  c #904975",
"r  c #924A76",
"t  c #924D77",
"y  c #954D77",
"u  c #7E7782",
"i  c #7B7684",
"p  c #7E7487",
"a  c #9F5382",
"s  c #A05281",
"d  c #A35782",
"f  c #A75686",
"g  c #A75C84",
"h  c #AE5A87",
"j  c #B45F8B",
"k  c #B7618D",
"l  c #B9658F",
"z  c #C26993",
"x  c #CA7298",
"c  c #CD759A",
"v  c #D2769B",
"b  c #D67A9E",
"n  c #8D8793",
"m  c #8E829C",
"M  c #938F94",
"N  c #DA849F",
"B  c #D983A3",
"V  c #DC8BAA",
"C  c #E187A5",
"Z  c #E28AA7",
"A  c #E48AA8",
"S  c #E48DA8",
"D  c #E58DA9",
"F  c #E48EA9",
"G  c #E68EA9",
"H  c #E791AA",
"J  c #E792AC",
"K  c #EF9BB1",
"L  c #F19DB3",
"P  c #F2A6BA",
"I  c #F3A6BA",
"U  c #F5A9B9",
"Y  c #F6A9BB",
"T  c #F3A9BC",
"R  c #F5ACBD",
"E  c #F9B2BF",
"W  c #FAB6C3",
"Q  c #F2B5C8",
"!  c #FDC0C9",
"~  c #FCC1CA",
"^  c #FECCD3",
"/  c #FFD2D7",
"(  c #FFDBDE",
")  c #FFDDE1",
"_  c #FFDFE2",
"`  c #FFE1E4",
"'  c #FFE3E5",
"]  c #FFE4E6",
"[  c #FFE6E8",
"{  c #FFE7E9",
"}  c #FFEAEB",
"|  c #FFEBED",
" . c #FFECED",
".. c #FFEFF0",
"X. c #FFF6F6",
"o. c #FFF9F9",
"O. c snow",
"+. c #FFFBFB",
"@. c #FFFCFB",
"#. c #FFFCFC",
"$. c #FFFDFD",
"%. c white",
"&. c None",
/* pixels */
"&.&.&.&.&.&.&.&.&.&.&.&.&.&.&.&.&.&.&.&.&.&.&.&.&.&.&.&.&.&.&.&.",
"&.&.&.&.&.&.&.&.&.&.&.&.&.&.&.&.&.&.&.&.&.&.&.&.&.&.&.&.&.&.&.&.",
"&.&.&.&.&.&.&.&.&.&.&.&.&.&.&.&.&.&.&.&.&.&.&.&.&.&.&.&.&.&.&.&.",
"&.&.&.&.&.&.&.&.&.&.&.&.&.&.&.&.&.&.&.&.&.&.&.&.&.&.&.&.&.&.&.&.",
"&.&.&.&.&.&.&.&.&., &.&.&.&.&.&.&.&.&.&.&.&.&.&.&.&.&.&.&.&.&.&.",
"&.&.&.&.&.&.&.&.&.&.&.&.&.&.&.&.&.&.&.&.&.&.&.&.&.&.&.&.&.&.&.&.",
"&.&.&.&.&.&.&.&.&.&.n &.&.&.&.&.&.&.&.&.&.&.&.&.&.&.&.&.&.&.&.&.",
"&.&.&.&.&.&.&.&.&.&.&.&.&.&.&.&.&.&.&.&.&.&.&.&.i &.&.&.&.&.&.&.",
"&.&.&.&.&.&.&.&.&.&.&.&.&.&.&.6 &.&.&.&.&.&.&.&.&.&.&.&.&.&.&.&.",
"&.&.&.&.&.&.1 &.&.&.&.&.&.; 0 t 9 % &.&.&.&.&.&.&.&.&.&.&.&.&.&.",
"&.&.&.&.&.&.&.p &.&.&.* h V Q T K v s # &.M &.&.&.&.&.&.&.&.&.&.",
"&.&.&.&.&.&.&.&.&.&.- x E { %.@.../ L f &.&.&.&.&.&.&.&.&.&.&.&.",
"&.&.&.&.&.&.&.&.&.&.j W X.%.%.%.%.%.] J w &.&.&.&.&.&.&.&.&.&.&.",
"&.&.&.&.&.&.&.&.&.4 G ' %.%.%.%.%.%.%.^ z + &.&.&.&.&.&.&.&.&.&.",
"&.&.&.&.&.&.&.&.&.r I o.%.%.%.%.%.%.%. .Z 2 &.&.&.&.&.&.&.&.&.&.",
"&.&.&.&.&.&.&.&.&.y R +.%.%.%.%.%.%.%...D 7 &.&.&.&.&.&.&.&.&.&.",
"&.&.&.&.&.&.&.&.&.e P O.%.%.%.%.%.%.%._ b & &.&.&.&.&.&.&.&.&.&.",
"&.&.&.&.&.&.&.&.&.= B ` %.%.%.%.%.%.#.! k &.&.&.&.&.&.&.&.&.&.&.",
"&.&.&.&.&.&.&.&.&.&.d U } %.%.%.%.$.( A 8 &.&.&.&.&.&.&.&.&.&.&.",
"&.&.&.&.&.&.&.&.&.. O l Y ) | ..[ ~ H a &.&.&.&.&.&.&.&.&.&.&.&.",
"&.&.&.&.&.&.&.&.&.&.&.5 g c S F C N q &.&.&.&.&.&.&.&.&.&.&.&.&.",
"&.&.&.&.&.&.&.&.&.&.&.&.  $ : : > 3 &.&.&.&.&.&.&.&.&.&.&.&.&.&.",
"&.&.&.&.&.&.&.&.m &.&.&.@ &.&.&.&.&.&.&.&.&.&.&.&.&.&.&.&.&.&.&.",
"&.&.&.&.&.&.&.&.&.&.&.&.&.&.&.&.&.&.&.&.&.u < &.&.&.&.&.&.&.&.&.",
"&.&.&.&.&.&.&.&.&.&.&.&.&.&.&.&.&.&.&.&.&.&.o &.&.&.&.&.&.&.&.&.",
"&.&.&.&.&.&.&.&.&.&.&.&.&.&.&.&.&.&.&.&.&.&.&.X &.&.&.&.&.&.&.&.",
"&.&.&.&.&.&.&.&.&.&.&.&.&.&.&.&.&.&.&.&.&.&.&.&.&.&.&.&.&.&.&.&.",
"&.&.&.&.&.&.&.&.&.&.&.&.&.&.&.&.&.&.&.&.&.&.&.&.&.&.&.&.&.&.&.&.",
"&.&.&.&.&.&.&.&.&.&.&.&.&.&.&.&.&.&.&.&.&.&.&.&.&.&.&.&.&.&.&.&.",
"&.&.&.&.&.&.&.&.&.&.&.&.&.&.&.&.&.&.&.&.&.&.&.&.&.&.&.&.&.&.&.&.",
"&.&.&.&.&.&.&.&.&.&.&.&.&.&.&.&.&.&.&.&.&.&.&.&.&.&.&.&.&.&.&.&.",
"&.&.&.&.&.&.&.&.&.&.&.&.&.&.&.&.&.&.&.&.&.&.&.&.&.&.&.&.&.&.&.&."
};
