/* XPM */
static char *result[] = {
/* columns rows colors chars-per-pixel */
"32 32 90 1 ",
"  c #492F47",
". c #4F2F4E",
"X c #4E324E",
"o c #483E4C",
"O c #4E3C4F",
"+ c #55334A",
"@ c #533050",
"# c #533151",
"$ c #534551",
"% c #564B56",
"& c #544F57",
"* c #504658",
"= c #54495B",
"- c #57525A",
"; c #5A555E",
": c #674457",
"> c #74435B",
", c #5B5660",
"< c #5F5966",
"1 c #7C5966",
"2 c #7D566F",
"3 c #766E7D",
"4 c #81445F",
"5 c #864662",
"6 c #8A4B65",
"7 c #8D4B66",
"8 c #8C4C67",
"9 c #8D4F68",
"0 c #904C6C",
"q c #8C586B",
"w c #8D596E",
"e c #93566B",
"r c #9E5A77",
"t c #A85E7A",
"y c #A4607F",
"u c #B1667F",
"i c #B16681",
"p c #B8728D",
"a c #C8748F",
"s c #C8768E",
"d c #CB7891",
"f c #D27E96",
"g c #B491A1",
"h c #C98297",
"j c #D6819B",
"k c #D7839A",
"l c #D9839E",
"z c #DA89A2",
"x c #DD8BA2",
"c c #DC8CA1",
"v c #DD8DA4",
"b c #E18EA3",
"n c #E38EA4",
"m c #E294A7",
"M c #EB9CAE",
"N c #EEA1B3",
"B c #EFA2B4",
"V c #F1A6B5",
"C c #F2A6B6",
"Z c #F5A7B6",
"A c #F2ABBB",
"S c #F9B2BF",
"D c #F9B5C0",
"F c #F2B8C1",
"G c #F2BAC7",
"H c #FCB8C2",
"J c #FDC2CA",
"K c #FFC3CC",
"L c #FFCDD3",
"P c #FFCFD5",
"I c #FFD5D9",
"U c #FFDADD",
"Y c #FFDCDF",
"T c #FFE2E5",
"R c #FFE6E8",
"E c #FFE7E9",
"W c #FFE8EA",
"Q c #FFECEE",
"! c #FFEEEF",
"~ c #FFEFF0",
"^ c #FFF1F2",
"/ c #FFF2F3",
"( c #FFF5F6",
") c #FFF6F6",
"_ c #FFFBFB",
"` c #FFFCFB",
"' c #FFFCFC",
"] c #FFFDFD",
"[ c white",
"{ c None",
/* pixels */
"{{{{{{{{{{{{{{{{{{{{{{{{{{{{{{{{",
"{{{{{{{{{{{{{{{{{{{{{{{{{{{{{{{{",
"{{{{{{{{{{{{{{{{{{{{{{{{{{{{{{{{",
"{{{{{{{{{{{{{{{{{{{{{{{{{{{{{{{{",
"{{{{{{{{{{{{{{{{{{{{{{{{{{{{{{{{",
"{{{{{{{{{{{{{{{{{{{{{{{{{{{{{{{{",
"{{{{{{{{{{{{{{{{{{{{{{{{{{{{{{{{",
"{{{{{{{{{{{*{{{{{{{{{{{{{{{{{{{{",
"{{{{{{{{{{{ {{{{{{{{{{{{{{{{{{{{",
"{{{{{{{#@{{{O{574{{{{{{{{{{{{{{{",
"{{{{{{{{{{{{pcNAMd0{{={{{{{{{{{{",
"{{{{{{{{oX{aST)`~LBg{{{{{{{{{{{{",
"{{{{{{{{{.rH/[[[[[RFq{{{{{{{{{{{",
"{{{{{{{{{{xW[[[[[[]Ph{{{{{{{{{{{",
"{{{{{{{{{8C([[[[[[[~z{{{{{{{{{{{",
"{{{{{{{{{eD_[[[[[[[Ql{{{{{{{{{{{",
"{{{{{{{{{6V)[[[[[[[Yf{{{{{{{{{{{",
"{{{{{{{{{{kU[[[[[['Ju{{{{{{{{{{{",
"{{{{{{{{{{tZ![[[['Ib{{{{{{{{{{{{",
"{{{{{{{{{{+yGI~^EKn9{{{{{{{{{{{{",
"{{{{{{{{{{2$wsvmji>1{{{{{{{{{{{{",
"{{{{{{3{{{{{{{{{{%&:{{{{{{{{{{{{",
"{{{{{{{{{{{{{{{{{{{{{{{{{{{{{{{{",
"{{{{{{{{{{{{{{{{{{{{{{{{{-;{{{{{",
"{{{{{{{{{{{{{{{{{{{{{{{{{{{{{{{{",
"{{{{{{{{{{{{{{{{{{{{{{{{{{{{{{{{",
"{{{{{{{{{{{{{{{{{{{{{{{{{{{{{{{{",
"{{{{{{{{{{{{{{{{{{{{{{{{{<,{{{{{",
"{{{{{{{{{{{{{{{{{{{{{{{{{{{{{{{{",
"{{{{{{{{{{{{{{{{{{{{{{{{{{{{{{{{",
"{{{{{{{{{{{{{{{{{{{{{{{{{{{{{{{{",
"{{{{{{{{{{{{{{{{{{{{{{{{{{{{{{{{"
};
