/* XPM */
static char *result[] = {
/* columns rows colors chars-per-pixel */
"32 32 109 2 ",
"   c #543C52",
".  c #63375D",
"X  c #6A395C",
"o  c #6B3B5D",
"O  c #6D3A60",
"+  c #6E3A63",
"@  c #6D3A64",
"#  c #6F3B64",
"$  c #703B60",
"%  c #703C63",
"&  c #4A4050",
"*  c #4D4355",
"=  c #514C54",
"-  c #58535C",
";  c #59545D",
":  c #5B565F",
">  c #5A5162",
",  c #7F416D",
"<  c #645E69",
"1  c #7D787F",
"2  c #81416B",
"3  c #82426D",
"4  c #8B4673",
"5  c #8A4475",
"6  c #8A4676",
"7  c #8D4676",
"8  c #8C4677",
"9  c #8E4776",
"0  c #8C4974",
"q  c #824F7B",
"w  c #924873",
"e  c #924879",
"r  c #954978",
"t  c #974A7D",
"y  c #9E4E7C",
"u  c #865979",
"i  c #A24F82",
"p  c #A35082",
"a  c #A65182",
"s  c #A95285",
"d  c #AD5385",
"f  c #AC5386",
"g  c #AC5487",
"h  c #A45880",
"j  c #B05586",
"k  c #B45C8C",
"l  c #BC5D8D",
"z  c #BF6D96",
"x  c #C36290",
"c  c #C26394",
"v  c #C86793",
"b  c #C86A98",
"n  c #D16E9C",
"m  c #CF7599",
"M  c #D0739D",
"N  c #D8769E",
"B  c #D9779E",
"V  c #CF74A0",
"C  c #DD7CA1",
"Z  c #948E98",
"A  c #E382A4",
"S  c #E383A5",
"D  c #E284A5",
"F  c #E185A6",
"G  c #E184A7",
"H  c #E688A7",
"J  c #E689A7",
"K  c #E78AA8",
"L  c #EC93AD",
"P  c #E393B1",
"I  c #EE98B0",
"U  c #F49EB0",
"Y  c #F1A3B8",
"T  c #F1A4B8",
"R  c #F3A5B8",
"E  c #F3A9BB",
"W  c #F1A9BD",
"Q  c #F6AEBD",
"!  c #F3B1C2",
"~  c #FBBFC9",
"^  c #FBC4CE",
"/  c #F5C8D5",
"(  c #FDD0D6",
")  c #FBD1D9",
"_  c #F8D4DA",
"`  c #FEDBDF",
"'  c #F8D8E0",
"]  c #FFE0E3",
"[  c #FFE1E4",
"{  c #FFE2E5",
"}  c #FFE4E6",
"|  c #FFE5E7",
" . c #FFECEE",
".. c #FFEEEF",
"X. c #FFEFF0",
"o. c #FFF0F2",
"O. c #FFF2F2",
"+. c #FFF3F4",
"@. c #FFF6F6",
"#. c #FFF8F8",
"$. c #FFF9F9",
"%. c snow",
"&. c #FFFBFB",
"*. c #FFFCFB",
"=. c #FFFCFC",
"-. c #FFFEFD",
";. c #FEFEFE",
":. c white",
">. c None",
/* pixels */
">.>.>.>.>.>.>.>.>.>.>.>.>.>.>.>.>.>.>.>.>.>.>.>.>.>.>.>.>.>.>.>.",
">.>.>.>.>.>.>.>.>.>.>.>.>.>.>.>.>.>.>.>.>.>.>.>.>.>.>.>.>.>.>.>.",
">.>.>.>.>.>.>.>.>.>.>.>.>.>.>.>.>.>.>.>.>.>.>.>.>.>.>.>.>.>.>.>.",
">.>.>.>.>.>.>.>.>.>.>.>.>.>.>.>.>.>.>.>.>.>.>.>.>.>.>.>.>.>.>.>.",
">.>.>.>.>.>.>.>.>.; >.>.>.>.>.>.>.>.>.>.>.>.>.>.>.>.>.>.>.>.>.>.",
">.>.>.>.>.>.>.>.>.>.>.>.>.>.>.>.>.>.>.>.>.>.>.>.>.>.>.>.>.>.>.>.",
">.>.>.>.>.>.>.>.>.>.>.>.>.>.>.>.>.>.>.>.>.>.>.>.>.>.>.>.>.>.>.>.",
">.>.>.>.>.>.>.>.>.>.>.>.>.>.>.>.>.>.>.>.>.>.>.>.>.>.>.>.>.>.>.>.",
">.>.>.>.< - >.>.>.>.>.>.>.>.>.>.>.>.>.>.>.>.: >.>.>.>.>.>.>.>.>.",
">.>.>.>.>.= >.>.>.>.>.>.O 9 p f y , >.>.>.>.> >.>.>.>.>.>.>.>.>.",
">.>.>.>.>.>.>.>.>.>.>.7 x A W ! I B g # >.>.>.>.>.>.>.>.>.>.>.>.",
">.>.>.>.>.>.>.>.>.>.6 n Q { &.-.O.( L l % >.>.>.>.>.>.>.>.>.>.>.",
">.>.>.>.>.>.>.>.>.+ c / #.:.:.:.:.:.} L a >.>.>.>.>.>.>.>.>.>.>.",
">.>.>.>.>.>.>.>.>.e S | :.:.:.:.:.:.:.) M $ >.>.>.>.>.>.>.>.>.>.",
">.>.>.>.>.>.>.>.>.d Y $.:.:.:.:.:.:.:.@.P 5 >.>.>.>.>.>.>.>.>.>.",
">.>.>.>.>.>.>.>.>.j E *.:.:.:.:.:.:.:. .H t >.>.>.>.>.>.>.>.>.>.",
">.>.>.>.>.>.>.>.>.s T %.:.:.:.:.:.:.:.] C 2 >.>.>.>.>.>.>.>.>.>.",
">.>.>.>.>.>.>.>.>.8 D [ :.:.:.:.:.:.=.~ v X >.>.>.>.>.>.>.>.>.>.",
">.>.>.>.>.>.>.>.>.o m R +.:.:.:.:.;._ U h >.>.>.>.>.>.>.>.>.>.>.",
">.>.>.>.>.>.>.>.& >.0 b ^ ` ..X.o.' F k >.>.>.>.>.>.>.>.>.>.>.>.",
">.>.>.>.>.>.>.>.>.>.>.q z N J K G V i @ >.>.>.>.>.>.>.>.>.>.>.>.",
">.>.>.>.>.>.>.>.>.>.>.* . 3 w r 4 u   >.>.>.>.>.>.>.>.>.>.>.>.>.",
">.>.>.>.>.>.>.>.>.>.>.>.>.>.>.>.>.>.>.>.>.>.>.>.>.>.>.>.>.>.>.>.",
">.>.>.>.>.>.>.>.>.>.>.>.>.>.>.>.>.>.>.>.>.>.>.>.>.>.>.>.>.>.>.>.",
">.>.>.>.>.>.>.>.>.>.>.>.>.>.>.>.>.>.>.>.>.>.>.1 >.>.>.>.>.>.>.>.",
">.>.>.>.>.>.>.>.>.>.>.>.>.>.>.>.>.>.>.>.>.>.>.Z >.>.>.>.>.>.>.>.",
">.>.>.>.>.>.>.>.>.>.>.>.>.>.>.>.>.>.>.>.>.>.>.>.>.>.>.>.>.>.>.>.",
">.>.>.>.>.>.>.>.>.>.>.>.>.>.>.>.>.>.>.>.>.>.>.>.>.>.>.>.>.>.>.>.",
">.>.>.>.>.>.>.>.>.>.>.>.>.>.>.>.>.>.>.>.>.>.>.>.>.>.>.>.>.>.>.>.",
">.>.>.>.>.>.>.>.>.>.>.>.>.>.>.>.>.>.>.>.>.>.>.>.>.>.>.>.>.>.>.>.",
">.>.>.>.>.>.>.>.>.>.>.>.>.>.>.>.>.>.>.>.>.>.>.>.>.>.>.>.>.>.>.>.",
">.>.>.>.>.>.>.>.>.>.>.>.>.>.>.>.>.>.>.>.>.>.>.>.>.>.>.>.>.>.>.>."
};
