/* XPM */
static char *result[] = {
/* columns rows colors chars-per-pixel */
"32 32 95 2 ",
"   c #4E2F4B",
".  c #4F2F4D",
"X  c #52304F",
"o  c #54344D",
"O  c #503B4E",
"+  c #5F3E58",
"@  c #653555",
"#  c #6E3857",
"$  c #723B5B",
"%  c #733A5C",
"&  c #763C5E",
"*  c #663760",
"=  c #7B3D61",
"-  c #7A3E63",
";  c #7B3E63",
":  c #49434C",
">  c #4D4354",
",  c #4C4454",
"<  c #524759",
"1  c #524958",
"2  c #555058",
"3  c #565159",
"4  c #58535C",
"5  c #59545D",
"6  c #5A555E",
"7  c #6C445D",
"8  c #644B5C",
"9  c #7A405E",
"0  c #574C61",
"q  c #7E4061",
"w  c #803F64",
"e  c #8A4465",
"r  c #8A456B",
"t  c #8E476F",
"y  c #964A73",
"u  c #974B73",
"i  c #954A76",
"p  c #984B72",
"a  c #984D73",
"s  c #9C4D71",
"d  c #A65178",
"f  c #A65279",
"g  c #A1527C",
"h  c #A3527C",
"j  c #A2557E",
"k  c #9A6376",
"l  c #95697E",
"z  c #736381",
"x  c #B8608F",
"c  c #BA648C",
"v  c #B86D8E",
"b  c #C86E96",
"n  c #C27095",
"m  c #C37498",
"M  c #CC779C",
"N  c #D47C9F",
"B  c #D689A9",
"V  c #DB8EAD",
"C  c #D494A6",
"Z  c #DE94AD",
"A  c #DF92B1",
"S  c #DD98B4",
"D  c #E091AE",
"F  c #E092B0",
"G  c #E194B2",
"H  c #E295B3",
"J  c #E496B3",
"K  c #EAABC1",
"L  c #ECACC2",
"P  c #EDADC3",
"I  c #EEB3C7",
"U  c #F2B9CA",
"Y  c #F0B9CC",
"T  c #F2BDCE",
"R  c #F3BDCE",
"E  c #F3BECF",
"W  c #F8C8D0",
"Q  c #F6CCD9",
"!  c #F8CFDB",
"~  c #F5D0DA",
"^  c #FBDDE5",
"/  c #FBE5EB",
"(  c #FEEBEF",
")  c #FFECEE",
"_  c #FFF0F2",
"`  c #FDF1F4",
"'  c #FFF5F6",
"]  c #FFF9F9",
"[  c #FFFAFB",
"{  c #FFFCFC",
"}  c #FFFDFC",
"|  c #FFFDFD",
" . c #FFFEFE",
".. c white",
"X. c None",
/* pixels */
"X.X.X.X.X.X.X.X.X.X.X.X.X.X.X.X.X.X.X.X.X.X.X.X.X.X.X.X.X.X.X.X.",
"X.X.X.X.X.X.X.X.X.X.X.X.X.X.X.X.X.X.X.X.X.X.X.X.X.X.X.X.X.X.X.X.",
"X.X.X.X.X.X.X.X.X.X.X.X.X.X.X.X.X.X.X.X.X.X.X.X.X.X.X.X.X.X.X.X.",
"X.X.X.X.X.X.X.X.X.X.X.X.X.X.X.X.X.X.X.X.X.X.X.X.X.X.X.X.X.X.X.X.",
"X.X.X.X.X.X.X.X.X.X.X.X.X.X.X.X.X.X.X.X.X.X.X.X.X.X.X.X.X.X.X.X.",
"X.X.X.X.X.X.X.X.X.X.X.X.X.X.X.X.X.X.X.X.X.X.X.X.X.X.X.X.X.X.X.X.",
"X.X.X.X.X.X.X.X.X.X.X.X.X.X.X.X.X.X.X.X.X.X.X.X.X.X.X.X.X.X.X.X.",
"X.X.X.X.X.X.X.X.X.X.X.X.X.X.X.X.X.X.X.X.X.X.X.X.X.X.X.X.X.X.X.X.",
"X.X.X.X.X.X.6 X.X.X.X.X X.X.X.X.X.X.X.X.X.X.X.X.X.X.X.X.X.X.X.X.",
"X.X.X.X.X.X.X.X.  X.X.X.* q y i t $ X.X.X.X.X.X.X.X.X.X.X.X.X.X.",
"X.X.X.X.X.X.X.X.X.X.X.- x D U E L N h o 0 X.X.X.X.X.X.X.X.X.X.X.",
"X.X.X.X.X.X.X.X.X.. 9 b Q ] ......) P j O X.X.X.X.X.X.X.X.X.X.X.",
"X.X.X.X.X.X.X.X.X.8 C ! ............{ K p X.X.X.X.X.X.X.X.X.X.X.",
"X.X.X.X.X.X.X.X.X.k W } ..............( m X.X.X.X.X.X.X.X.X.X.X.",
"X.X.X.X.X.X.X.X.X.u T ................ .S % X.X.X.X.X.X.X.X.X.X.",
"X.X.X.X.X.X.X.X.X.d R ................} H w X.X.X.X.X.X.X.X.X.X.",
"X.X.X.X.X.X.X.X.X.s Y ................[ B # X.X.X.X.X.X.X.X.X.X.",
"X.X.X.X.X.X.X.X.X.& V ' ..............^ c X.X.X.X.X.X.X.X.X.X.X.",
"X.X.X.X.X.X.X.X.X.X.v ~ { ..........` F r X.X.X.X.X.X.X.X.X.X.X.",
"X.X.X.X.X.X.X.X.X.X.l Z I _ { } | / J f X.X.X.X.5 X.X.X.X.X.X.X.",
"X.X.X.X.X.X.X.1 X.X.+ 7 g M G J A n a X.X.X.X.X.2 X.X.X.X.X.X.X.",
"X.X.X.X.X.X.X.X.X.X.X., X.@ ; e = X.X.X.X.X.X.X.4 X.X.X.X.X.X.X.",
"X.X.X.X.X.X.X.X.X.X.X.X.X.X.X.X.X.X.X.: < X.X.X.X.X.X.X.X.X.X.X.",
"X.X.X.X.X.X.X.X.X.X.X.X.X.X.X.X.X.X.X.3 X.X.X.X.X.X.X.X.X.X.X.X.",
"X.X.X.X.X.X.X.X.X.X.X.X.X.X.X.X.X.X.X.X.X.X.X.X.X.X.X.X.X.X.X.X.",
"X.X.X.X.X.X.X.X.X.X.X.X.X.X.X.X.X.X.X.X.X.X.X.X.> X.X.X.X.X.X.X.",
"X.X.X.X.X.X.X.X.X.X.X.X.X.X.X.X.X.X.X.X.X.X.X.X.z X.X.X.X.X.X.X.",
"X.X.X.X.X.X.X.X.X.X.X.X.X.X.X.X.X.X.X.X.X.X.X.X.X.X.X.X.X.X.X.X.",
"X.X.X.X.X.X.X.X.X.X.X.X.X.X.X.X.X.X.X.X.X.X.X.X.X.X.X.X.X.X.X.X.",
"X.X.X.X.X.X.X.X.X.X.X.X.X.X.X.X.X.X.X.X.X.X.X.X.X.X.X.X.X.X.X.X.",
"X.X.X.X.X.X.X.X.X.X.X.X.X.X.X.X.X.X.X.X.X.X.X.X.X.X.X.X.X.X.X.X.",
"X.X.X.X.X.X.X.X.X.X.X.X.X.X.X.X.X.X.X.X.X.X.X.X.X.X.X.X.X.X.X.X."
};
