/* XPM */
static char *result[] = {
/* columns rows colors chars-per-pixel */
"32 32 105 2 ",
"   c #452E42",
".  c #4D354C",
"X  c #522F50",
"o  c #5A3252",
"O  c #593254",
"+  c #66375A",
"@  c #6A375D",
"#  c #6C395A",
"$  c #6F3B5D",
"%  c #6F3B5E",
"&  c #713B5C",
"*  c #703B5E",
"=  c #703C5F",
"-  c #713C61",
";  c #4B464E",
":  c #4B4150",
">  c #4E4556",
",  c #5D4955",
"<  c #55495D",
"1  c #574C60",
"2  c #584D61",
"3  c #774065",
"4  c #7C406A",
"5  c #7E416A",
"6  c #63516B",
"7  c #72516A",
"8  c #685E70",
"9  c #7B5873",
"0  c #68616E",
"q  c #706777",
"w  c #756D7D",
"e  c #7B777B",
"r  c #85456B",
"t  c #8D4C6F",
"y  c #8F4D6E",
"u  c #8C4970",
"i  c #8D4970",
"p  c #914C76",
"a  c #954E78",
"s  c #955178",
"d  c #99527A",
"f  c #9C517E",
"g  c #7A7482",
"h  c #7B7285",
"j  c #AB5C86",
"k  c #AD5E84",
"l  c #B05E85",
"z  c #9E638C",
"x  c #827384",
"c  c #BC6B8A",
"v  c #BC688C",
"b  c #B4758D",
"n  c #B87395",
"m  c #C66E93",
"M  c #C67196",
"N  c #D0769A",
"B  c #D37B99",
"V  c #D87F9B",
"C  c #DA809E",
"Z  c #DB829F",
"A  c #DD819E",
"S  c #DE83A0",
"D  c #DF85A3",
"F  c #E086A2",
"G  c #E18AA4",
"H  c #E88FA8",
"J  c #E992AA",
"K  c #ED96AD",
"L  c #F19BAF",
"P  c #F19CB0",
"I  c #F19EB0",
"U  c #F39FB2",
"Y  c #F3A3B4",
"T  c #F7A5B6",
"R  c #FAA9B7",
"E  c #F5A6B8",
"W  c #FBB3BF",
"Q  c #F6B7C6",
"!  c #FDB7C2",
"~  c #FBB9C4",
"^  c #FDBCC6",
"/  c #FFC5CA",
"(  c #FFC5CB",
")  c #FFCED3",
"_  c #FFD1D5",
"`  c #FFD3D7",
"'  c #FFD7DA",
"]  c #FFD8DC",
"[  c #FFD9DC",
"{  c #FFD9DD",
"}  c #FFDADD",
"|  c #FFE1E4",
" . c #FFE3E5",
".. c #FFEAEB",
"X. c #FFECED",
"o. c #FFECEE",
"O. c #FFEDEE",
"+. c #FFF0F1",
"@. c #FFF4F5",
"#. c #FFF5F5",
"$. c #FFF8F9",
"%. c #FFFBFB",
"&. c #FFFCFC",
"*. c white",
"=. c None",
/* pixels */
"=.=.=.=.=.=.=.=.=.=.=.=.=.=.=.=.=.=.=.=.=.=.=.=.=.=.=.=.=.=.=.=.",
"=.=.=.=.=.=.=.=.=.=.=.=.=.=.=.=.=.=.=.=.=.=.=.=.=.=.=.=.=.=.=.=.",
"=.=.=.=.=.=.=.=.=.=.=.=.=.=.=.=.=.=.=.=.=.=.=.=.=.=.=.=.=.=.=.=.",
"=.=.=.=.=.=.=.=.=.=.=.=.=.=.=.=.=.=.=.=.=.=.=.=.=.=.=.=.=.=.=.=.",
"=.=.=.=.=.=.=.=.=.=.=.=.=.=.=.=.=.=.=.=.=.=.=.=.=.=.=.=.=.=.=.=.",
"=.=.=.=.=.=.=.=.=.=.=.=.=.=.=.=.=.=.=.=.=.=.=.=.=.=.=.=.=.=.=.=.",
"=.=.=.=.=.=.=.=.=.=.0 ; =.=.=.=.=.=.=.=.=.=.=.=.=.=.=.=.=.=.=.=.",
"=.=.=.=.=.=.=.=.=.=.: 1 =.=.=.=.=.=.=.=.=.=.=.=.=.=.=.=.=.=.=.=.",
"=.=.=.=.=.=.=.=.=.=.=.< =.=.=.=.=.=.=.=.=.=.w =.=.=.=.=.=.=.=.=.",
"=.=.=.=.=.=.=.=.=.=.=.=.=.# t s r + =.=.=.=.=.=.=.=.=.=.=.=.=.=.",
"=.=.=.=.=.=.=.=.e =.=.$ k Z Y Q K N p   2 =.=.=.=.=.=.=.=.=.=.=.",
"=.=.=.=.=.=.=.=.q > @ m R ] O.+...( J b , =.=.=.=.=.=.=.=.=.=.=.",
"=.=.=.=.=.=.=.=.=.=.j T  .*.*.*.*.%.` I y =.=.=.=.=.=.=.=.=.=.=.",
"=.=.=.=.=.=.=.=.=.= G ] *.*.*.*.*.*.$.^ v =.=.=.=.=.=.=.=.=.=.=.",
"=.=.=.=.=.=.=.=.=.u L o.*.*.*.*.*.*.*.{ V =.=.=.=.=.=.=.=.=.=.=.",
"=.=.=.=.=.=.=.=.=.a E @.*.*.*.*.*.*.*.} A & =.=.=.=.=.=.=.=.=.=.",
"=.=.=.=.=.=.=.=.=.i P X.*.*.*.*.*.*.*._ B =.=.=.=.=.=.=.=.=.=.=.",
"=.=.=.=.=.=.=.=.=.* C ) *.*.*.*.*.*.@.W l =.=.=.=.=.=.=.=.=.=.=.",
"=.=.=.=.=.=.=.=.=.=.f U | &.*.*.*.#./ D 4 =.=.=.=.=.=.=.=.=.=.=.",
"=.=.=.=.=.=.=.=.=.=.o n ~ ( [ { ' ! D d =.=.=.=.=.=.=.=.=.=.=.=.",
"=.=.=.=.=.=.=.=.=.=.=.=.z M F H S c 5 =.=.=.=.=.=.=.=.=.=.=.=.=.",
"=.=.=.=.=.=.=.=.h 8 =.=.X O - 3 % =.=.=.9 =.=.=.=.=.=.=.=.=.=.=.",
"=.=.=.=.=.=.=.=.=.=.=.=.=.=.=.=.=.=.=.=.6 =.=.=.=.=.=.=.=.=.=.=.",
"=.=.=.=.=.=.=.=.=.=.=.=.=.=.=.=.=.=.=.=.=.. 7 =.=.=.=.=.=.=.=.=.",
"=.=.=.=.=.=.=.=.=.=.=.=.=.=.=.=.=.=.=.=.=.=.x =.=.=.=.=.=.=.=.=.",
"=.=.=.=.=.=.=.=.=.=.=.=.=.=.=.=.=.=.=.g =.=.=.=.=.=.=.=.=.=.=.=.",
"=.=.=.=.=.=.=.=.=.=.=.=.=.=.=.=.=.=.=.=.=.=.=.=.=.=.=.=.=.=.=.=.",
"=.=.=.=.=.=.=.=.=.=.=.=.=.=.=.=.=.=.=.=.=.=.=.=.=.=.=.=.=.=.=.=.",
"=.=.=.=.=.=.=.=.=.=.=.=.=.=.=.=.=.=.=.=.=.=.=.=.=.=.=.=.=.=.=.=.",
"=.=.=.=.=.=.=.=.=.=.=.=.=.=.=.=.=.=.=.=.=.=.=.=.=.=.=.=.=.=.=.=.",
"=.=.=.=.=.=.=.=.=.=.=.=.=.=.=.=.=.=.=.=.=.=.=.=.=.=.=.=.=.=.=.=.",
"=.=.=.=.=.=.=.=.=.=.=.=.=.=.=.=.=.=.=.=.=.=.=.=.=.=.=.=.=.=.=.=."
};
