/* XPM */
static char *result[] = {
/* columns rows colors chars-per-pixel */
"32 32 105 2 ",
"   c #482D47",
".  c #4A2E49",
"X  c #52314F",
"o  c #533151",
"O  c #543151",
"+  c #5C3755",
"@  c #693958",
"#  c #763D5E",
"$  c #743C62",
"%  c #7A3F63",
"&  c #4A4050",
"*  c #4E4354",
"=  c #554A5D",
"-  c #7B405E",
";  c #71535F",
":  c #5D5561",
">  c #5E5962",
",  c #6F4A61",
"<  c #714060",
"1  c #7E4163",
"2  c #695063",
"3  c #6A516E",
"4  c #67616C",
"5  c #6A616F",
"6  c #6C6371",
"7  c #884466",
"8  c #8C4566",
"9  c #844269",
"0  c #84436D",
"q  c #89456E",
"w  c #83496C",
"e  c #974A74",
"r  c #984A76",
"t  c #994B76",
"y  c #994F74",
"u  c #9D4D77",
"i  c #9E4D77",
"p  c #985079",
"a  c #A45178",
"s  c #A65278",
"d  c #A9527C",
"f  c #846677",
"g  c #A16B7D",
"h  c #A85983",
"j  c #B25583",
"k  c #B75988",
"l  c #BB5A89",
"z  c #BA5D8A",
"x  c #C2688E",
"c  c #C36692",
"v  c #CC6792",
"b  c #D16B96",
"n  c #D26F99",
"m  c #C67E97",
"M  c #D37398",
"N  c #D6719A",
"B  c #D57D98",
"V  c #DB789E",
"C  c #DA799E",
"Z  c #DC799F",
"A  c #DA79A0",
"S  c #DE7EA1",
"D  c #DF84A9",
"F  c #DD87AB",
"G  c #D18FAC",
"H  c #E282A4",
"J  c #E386A7",
"K  c #E489A7",
"L  c #E488A8",
"P  c #EC96AF",
"I  c #E294B0",
"U  c #ED9AB3",
"Y  c #ED9BB3",
"T  c #E99AB5",
"R  c #EF9EB4",
"E  c #F3A9BC",
"W  c #F6ADBD",
"Q  c #EDADC4",
"!  c #F4B3C3",
"~  c #F7B9C6",
"^  c #F1B5C8",
"/  c #F9C3CE",
"(  c #FBC8D0",
")  c #F9C9D3",
"_  c #FCD3DA",
"`  c #FCDBE0",
"'  c #FEDCE0",
"]  c #FDDDE2",
"[  c #FEDFE3",
"{  c #FFDFE3",
"}  c #FEE4E7",
"|  c #FFE4E7",
" . c #FEEBEE",
".. c #FFECEE",
"X. c #FFEDEF",
"o. c #FDEDF0",
"O. c #FFF0F1",
"+. c #FFF1F2",
"@. c #FFF4F4",
"#. c #FFF6F6",
"$. c #FFFCFC",
"%. c #FFFDFD",
"&. c #FFFEFE",
"*. c white",
"=. c None",
/* pixels */
"=.=.=.=.=.=.=.=.=.=.=.=.=.=.=.=.=.=.=.=.=.=.=.=.=.=.=.=.=.=.=.=.",
"=.=.=.=.=.=.=.=.=.=.=.=.=.=.=.=.=.=.=.=.=.=.=.=.=.=.=.=.=.=.=.=.",
"=.=.=.=.=.=.=.=.=.=.=.=.=.=.=.=.=.=.=.=.=.=.=.=.=.=.=.=.=.=.=.=.",
"=.=.=.=.=.=.=.=.=.=.=.=.=.=.=.=.=.=.=.=.=.=.=.=.=.=.=.=.=.=.=.=.",
"=.=.=.=.=.=.=.=.=.=.=.=.=.=.=.=.=.=.=.=.=.=.=.=.=.=.=.=.=.=.=.=.",
"=.=.=.=.=.=.=.=.=.=.=.=.=.=.=.=.=.=.=.=.=.=.=.=.=.=.=.=.=.=.=.=.",
"=.=.=.=.=.=.=.=.=.=.=.=.=.=.=.=.=.=.=.=.=.=.=.=.=.=.=.=.=.=.=.=.",
"=.=.=.=.=.=.=.=.=.=.=.=.=.=.=.=.=.=.=.=.=.=.=.=.=.=.=.=.=.=.=.=.",
"=.=.=.=.4 =.=.=.=.=.=.=.=.=.=.=.=.=.=.=.=.=.=.> =.=.=.=.=.=.=.=.",
"=.=.=.=.=.=.=.=.=.=.=.=.=.0 t a e 1 =.=.=.=.=.=.=.=.=.=.=.=.=.=.",
"=.=.=.=.=.=.=.=.=.=.=.% k V T ^ L b d =.=.=.=.=.=.=.=.=.=.=.=.=.",
"=.=.=.=.=.=.=.=.=.=.g M R ' @.$...( J j =.=.=.=.=.=.=.=.=.=.=.=.",
"=.=.=.=.=.=.=.=.=.=.x W +.*.*.*.*.*.] H r =.=.=.=.=.=.=.=.=.=.=.",
"=.=.=.=.=.=.=.=.=.q Z [ *.*.*.*.*.*.&./ G =.=.=.=.=.=.=.=.=.=.=.",
"=.=.=.=.=.=.=.=.=.i U #.*.*.*.*.*.*.*.{ I <   =.=.=.=.=.=.=.=.=.",
"=.=.=.=.=.=.=.=.=.s E $.*.*.*.*.*.*.*. .A # . =.=.=.=.=.=.=.=.=.",
"=.=.=.=.=.=.=.=.=.u Y #.*.*.*.*.*.*.*.` n $ =.=.=.=.=.=.=.=.=.=.",
"=.=.=.=.=.=.=.=.=.9 N _ *.*.*.*.*.*.%.! l =.=.=.=.=.=.=.=.=.=.=.",
"=.=.=.=.=.=.=.=.=., z P X.*.*.*.*.%.o.D p =.=.=.=.=.=.=.=.=.=.=.",
"=.=.=.=.=.=.=.=.=.; w c Q ) | O.} ~ F h 3 =.=.=.=.=.=.=.=.=.=.=.",
"=.=.=.=.=.=.=.=.& =.=.f m v S K C B y =.=.=.=.=.=.=.=.=.=.=.=.=.",
"=.=.=.=.=.=.=.=.=.=.=.* + @ 7 8 - 2 =.=.=.=.=.=.=.=.=.=.=.=.=.=.",
"=.=.=.=.=.=.=.=.=.=.=.=.o =.=.=.=.=.=.=.=.X =.=.=.=.=.=.=.=.=.=.",
"=.=.=.=.=.=.=.=.=.=.=.= =.=.=.=.=.=.=.=.=.O =.=.=.=.=.=.=.=.=.=.",
"=.=.=.=.=.=.=.=.=.=.=.=.=.=.=.=.=.=.=.=.=.=.=.=.=.=.=.=.=.=.=.=.",
"=.=.=.=.=.=.=.=.=.=.=.=.=.=.=.=.=.=.=.=.=.=.=.6 5 =.=.=.=.=.=.=.",
"=.=.=.=.=.=.=.=.=.=.=.=.=.=.=.=.=.=.=.=.=.=.=.=.: =.=.=.=.=.=.=.",
"=.=.=.=.=.=.=.=.=.=.=.=.=.=.=.=.=.=.=.=.=.=.=.=.=.=.=.=.=.=.=.=.",
"=.=.=.=.=.=.=.=.=.=.=.=.=.=.=.=.=.=.=.=.=.=.=.=.=.=.=.=.=.=.=.=.",
"=.=.=.=.=.=.=.=.=.=.=.=.=.=.=.=.=.=.=.=.=.=.=.=.=.=.=.=.=.=.=.=.",
"=.=.=.=.=.=.=.=.=.=.=.=.=.=.=.=.=.=.=.=.=.=.=.=.=.=.=.=.=.=.=.=.",
"=.=.=.=.=.=.=.=.=.=.=.=.=.=.=.=.=.=.=.=.=.=.=.=.=.=.=.=.=.=.=.=."
};
