/* XPM */
static char *result[] = {
/* columns rows colors chars-per-pixel */
"32 32 104 2 ",
"   c #473D4C",
".  c #493F4F",
"X  c #52324C",
"o  c #5D3457",
"O  c #563A52",
"+  c #5A3A57",
"@  c #5C3D58",
"#  c #643555",
"$  c #62365B",
"%  c #643859",
"&  c #6B395E",
"*  c #6E3D5F",
"=  c #743D62",
"-  c #763E62",
";  c #763E64",
":  c #793F65",
">  c #4E4355",
",  c #5D4A57",
"<  c #52475A",
"1  c #524A58",
"2  c #554C5B",
"3  c #6E4C61",
"4  c #7D4366",
"5  c #7F4366",
"6  c #7C4068",
"7  c #63596E",
"8  c #6B6372",
"9  c #706976",
"0  c #70667A",
"q  c #757076",
"w  c #834469",
"e  c #83456E",
"r  c #85446E",
"t  c #8C496D",
"y  c #8D4973",
"u  c #914A74",
"i  c #924B75",
"p  c #9A5078",
"a  c #9A5279",
"s  c #9D5178",
"d  c #A0537D",
"f  c #A0557D",
"g  c #AD5D7F",
"h  c #84656C",
"j  c #A85682",
"k  c #AB5785",
"l  c #B0618A",
"z  c #BB628D",
"x  c #BE6190",
"c  c #B96D93",
"v  c #C3678F",
"b  c #C06B93",
"n  c #C66F95",
"m  c #CC7396",
"M  c #CE7497",
"N  c #D7779C",
"B  c #D6789D",
"V  c #DD82A1",
"C  c #DE83A2",
"Z  c #E68AA6",
"A  c #E48CA7",
"S  c #E58EA9",
"D  c #E88DA8",
"F  c #E98EA9",
"G  c #EA90AA",
"H  c #EA93AB",
"J  c #ED9AAE",
"K  c #F29DB1",
"L  c #F19EB0",
"P  c #EEA5B7",
"I  c #F2A2B4",
"U  c #F7A6B6",
"Y  c #F6A9B9",
"T  c #F6ABBB",
"R  c #F9ACBB",
"E  c #FAB3BF",
"W  c #FDB8C2",
"Q  c #FDB8C3",
"!  c #F9BBC8",
"~  c #FEC2CA",
"^  c #FBC3CD",
"/  c #FFC6CD",
"(  c #FFCAD0",
")  c #FFD1D6",
"_  c #FFD3D7",
"`  c #FFD5D9",
"'  c #FFD9DC",
"]  c #FFE0E3",
"[  c #FFE2E4",
"{  c #FCE4E7",
"}  c #FFE6E8",
"|  c #FFE7E8",
" . c #FFECED",
".. c #FFEEEF",
"X. c #FFEFF0",
"o. c #FFF2F2",
"O. c #FFF5F6",
"+. c #FFF6F6",
"@. c #FFF6F7",
"#. c #FFFBFB",
"$. c #FFFCFC",
"%. c #FFFDFD",
"&. c white",
"*. c None",
/* pixels */
"*.*.*.*.*.*.*.*.*.*.*.*.*.*.*.*.*.*.*.*.*.*.*.*.*.*.*.*.*.*.*.*.",
"*.*.*.*.*.*.*.*.*.*.*.*.*.*.*.*.*.*.*.*.*.*.*.*.*.*.*.*.*.*.*.*.",
"*.*.*.*.*.*.*.*.*.*.*.*.*.*.*.*.*.*.*.*.*.*.*.*.*.*.*.*.*.*.*.*.",
"*.*.*.*.*.*.*.*.*.*.*.*.*.*.*.*.*.*.*.*.*.*.*.*.*.*.*.*.*.*.*.*.",
"*.*.*.*.*.*.*.*.*.*.*.*.*.*.*.*.*.*.*.*.*.*.*.*.*.*.*.*.*.*.*.*.",
"*.*.*.*.*.*.*.*.*.*.*.*.*.*.*.*.*.*.*.*.*.*.*.*.*.*.*.*.*.*.*.*.",
"*.*.*.*.*.*.*.*.*.*.7 *.*.*.*.*.*.*.*.*.*.*.*.*.*.*.*.*.*.*.*.*.",
"*.*.*.*.*.*.*.*.*.*.*.1 *.*.*.*.*.*.*.*.*.*.*.*.*.*.*.*.*.*.*.*.",
"*.*.*.*.*.*.< *.*.*.*.  *.*.*.*.*.*.*.*.*.*.*.*.*.*.*.*.*.*.*.*.",
"*.*.*.*.*.*.*.*.*.*.*.*.X r p a u - *.*.*.*.9 *.*.*.*.*.*.*.*.*.",
"*.*.*.*.*.*.*.*.*.*.*.r z D T ! K V j % . *.*.*.*.*.*.*.*.*.*.*.",
"*.*.*.*.*.*.*.*.q 2 e N E [ @.$..._ I c @ *.*.*.*.*.*.*.*.*.*.*.",
"*.*.*.*.*.*.*.*.*.+ b W o.&.&.&.&.&.{ P d *.*.*.*.*.*.*.*.*.*.*.",
"*.*.*.*.*.*.*.*.*.r F [ &.&.&.&.&.&.%.( M # *.*.*.*.*.*.*.*.*.*.",
"*.*.*.*.*.*.*.*.*.f R O.&.&.&.&.&.&.&.| A ; *.*.*.*.*.*.*.*.*.*.",
"*.*.*.*.*.*.*.*.*.g Q #.&.&.&.&.&.&.&.X.J 4 *.*.*.*.*.*.*.*.*.*.",
"*.*.*.*.*.*.*.*.*.s Y +.&.&.&.&.&.&.&.] C = *.*.*.*.*.*.*.*.*.*.",
"*.*.*.*.*.*.*.*.*.w Z ' &.&.&.&.&.&.$.~ v *.*.*.*.*.*.*.*.*.*.*.",
"*.*.*.*.*.*.*.*.*.$ x U } &.&.&.&.$.` G i *.*.*.*.*.*.*.*.*.*.*.",
"*.*.*.*.*.*.*.*.*.*.6 n ^ )  .X. ./ G k *.*.*.*.*.*.*.*.*.*.*.*.",
"*.*.*.*.*.*.*.*.*.*.*.* l B H L S m y O *.*.*.*.*.*.*.*.*.*.*.*.",
"*.*.*.*.*.*.*.*.*.0 *.*.o & 5 t : *.*., 3 *.*.*.*.*.*.*.*.*.*.*.",
"*.*.*.*.*.*.*.*.*.8 *.*.*.*.*.*.*.*.*.*.> *.*.*.*.*.*.*.*.*.*.*.",
"*.*.*.*.*.*.*.*.*.*.*.*.*.*.*.*.*.*.*.*.*.*.h *.*.*.*.*.*.*.*.*.",
"*.*.*.*.*.*.*.*.*.*.*.*.*.*.*.*.*.*.*.*.*.*.*.*.*.*.*.*.*.*.*.*.",
"*.*.*.*.*.*.*.*.*.*.*.*.*.*.*.*.*.*.*.*.*.*.*.*.*.*.*.*.*.*.*.*.",
"*.*.*.*.*.*.*.*.*.*.*.*.*.*.*.*.*.*.*.*.*.*.*.*.*.*.*.*.*.*.*.*.",
"*.*.*.*.*.*.*.*.*.*.*.*.*.*.*.*.*.*.*.*.*.*.*.*.*.*.*.*.*.*.*.*.",
"*.*.*.*.*.*.*.*.*.*.*.*.*.*.*.*.*.*.*.*.*.*.*.*.*.*.*.*.*.*.*.*.",
"*.*.*.*.*.*.*.*.*.*.*.*.*.*.*.*.*.*.*.*.*.*.*.*.*.*.*.*.*.*.*.*.",
"*.*.*.*.*.*.*.*.*.*.*.*.*.*.*.*.*.*.*.*.*.*.*.*.*.*.*.*.*.*.*.*.",
"*.*.*.*.*.*.*.*.*.*.*.*.*.*.*.*.*.*.*.*.*.*.*.*.*.*.*.*.*.*.*.*."
};
