/* XPM */
static char *result[] = {
/* columns rows colors chars-per-pixel */
"32 32 111 2 ",
"   c #4F304D",
".  c #5C3459",
"X  c #60355A",
"o  c #61355B",
"O  c #61365E",
"+  c #63365E",
"@  c #65375F",
"#  c #67395D",
"$  c #6A3963",
"%  c #6C3E63",
"&  c #683966",
"*  c #773E6A",
"=  c #733B6C",
"-  c #753D6C",
";  c #783E6B",
":  c #7A3F6B",
">  c #52475A",
",  c #53495A",
"<  c #565059",
"1  c #64485E",
"2  c #604D5E",
"3  c #5E5564",
"4  c #7C406F",
"5  c #61546C",
"6  c #685468",
"7  c #655F6B",
"8  c #665E6B",
"9  c #7D4070",
"0  c #7F4173",
"q  c #735E78",
"w  c #6B6471",
"e  c #6D6773",
"r  c #814171",
"t  c #814173",
"y  c #834275",
"u  c #834276",
"i  c #884573",
"p  c #8C477A",
"a  c #8D477A",
"s  c #91497B",
"d  c #974C7F",
"f  c #9C4F7F",
"g  c #855D76",
"h  c #9D4E83",
"j  c #9E4F85",
"k  c #9D5786",
"l  c #A55387",
"z  c #A4528A",
"x  c #AE598C",
"c  c #B55D8F",
"v  c #A1758E",
"b  c #A76793",
"n  c #BA6192",
"m  c #C06493",
"M  c #C76E97",
"N  c #C86C97",
"B  c #C96C97",
"V  c #C0779C",
"C  c #CD789F",
"Z  c #CF7C9F",
"A  c #D0749C",
"S  c #D5779E",
"D  c #DF7DA1",
"F  c #DD7FA1",
"G  c #DD7EA2",
"H  c #DE81A2",
"J  c #E182A3",
"K  c #E283A3",
"L  c #E283A4",
"P  c #E587A5",
"I  c #E388A6",
"U  c #ED90AA",
"Y  c #EC91AA",
"T  c #EF96AC",
"R  c #F098AE",
"E  c #F29BAF",
"W  c #F39BAF",
"Q  c #F39CB0",
"!  c #F7A4B4",
"~  c #F4A4B6",
"^  c #FDACB7",
"/  c #FBAEBA",
"(  c #FCB4BE",
")  c #FDB7C0",
"_  c #F8BCC7",
"`  c #FFC0C6",
"'  c #FFC3C9",
"]  c #FFCACF",
"[  c #FFCBD0",
"{  c #FFCCD1",
"}  c #FFD1D5",
"|  c #FFD2D6",
" . c #FFD3D6",
".. c #FFD3D7",
"X. c #FFD9DC",
"o. c #FFDADD",
"O. c #FFDEE1",
"+. c #FFE2E4",
"@. c #FFE3E6",
"#. c #FFEAEB",
"$. c #FFECED",
"%. c #FFECEE",
"&. c #FFEDEE",
"*. c #FFF1F2",
"=. c #FFF7F8",
"-. c #FFF8F9",
";. c #FFFBFB",
":. c #FFFCFD",
">. c #FFFEFE",
",. c white",
"<. c None",
/* pixels */
"<.<.<.<.<.<.<.<.<.<.<.<.<.<.<.<.<.<.<.<.<.<.<.<.<.<.<.<.<.<.<.<.",
"<.<.<.<.<.<.<.<.<.<.<.<.<.<.<.<.<.<.<.<.<.<.<.<.<.<.<.<.<.<.<.<.",
"<.<.<.<.<.<.<.<.<.<.<.<.<.<.<.<.<.<.<.<.<.<.<.<.<.<.<.<.<.<.<.<.",
"<.<.<.<.<.<.<.<.<.<.<.<.<.<.<.<.<.<.<.<.<.<.<.<.<.<.<.<.<.<.<.<.",
"<.<.<.<.<.<.<.<.<.<.<.<.<.<.<.<.<.<.<.<.<.<.<.<.<.<.<.<.<.<.<.<.",
"<.<.<.<.<.<.<.<.<.<.e <.<.<.<.<.<.<.<.<.<.<.<.<.<.<.<.<.<.<.<.<.",
"<.<.<.<.<.<.<.<.<.<.< <.<.<.<.<.<.<.<.<.<.<.<.<.<.<.<.<.<.<.<.<.",
"<.<.<.<.<.<.<.<.<.<.> 5 <.<.<.<.<.<.<.<.<.<.<.<.<.<.<.<.<.<.<.<.",
"<.<.<.<.<.<.<.<.<.<.<.<.<.<.<.<.<.<.<.<.<.<.<.7 <.<.<.<.<.<.<.<.",
"<.<.<.<.<.<.<.<.<.<.<.<.X r k b s - <.<.<.<.<.<.<.<.<.<.<.<.<.<.",
"<.<.<.<.<.<.<.w 8 <.<.4 c D ~ _ T S l % , <.<.<.<.<.<.<.<.<.<.<.",
"<.<.<.<.<.<.<.<.3 <.9 B ! [ @.$.O.' Y M g <.<.<.<.<.<.<.<.<.<.<.",
"<.<.<.<.<.<.<.<.<.+ n ! +.>.,.,.,.;.| U f <.<.<.<.<.<.<.<.<.<.<.",
"<.<.<.<.<.<.<.<.<.i P  .>.,.,.,.,.,.=.) N @ <.<.<.<.<.<.<.<.<.<.",
"<.<.<.<.<.<.<.<.<.h E %.,.,.,.,.,.,.,.} H * <.<.<.<.<.<.<.<.<.<.",
"<.<.<.<.<.<.<.<.<.j Q &.,.,.,.,.,.,.,.o.L y <.<.<.<.<.<.<.<.<.<.",
"<.<.<.<.<.<.<.<.<.d R #.,.,.,.,.,.,.>.] F ; <.<.<.<.<.<.<.<.<.<.",
"<.<.<.<.<.<.<.<.<.0 G { :.,.,.,.,.,.*./ m o <.<.<.<.<.<.<.<.<.<.",
"<.<.<.<.<.<.<.<.<.. x W | -.,.,.,.*.' J a <.<.<.<.<.<.<.<.<.<.<.",
"<.<.<.<.<.<.<.<.<.  = C ^ ` X.o...( J z O <.<.<.<.<.<.<.<.<.<.<.",
"<.<.<.<.<.<.<.<.<.<.<.v V A K K I Z p O <.<.<.<.<.<.<.<.<.<.<.<.",
"<.<.<.<.<.<.<.<.<.<.<.<.& $ t u : # <.<.2 <.<.<.<.<.<.<.<.<.<.<.",
"<.<.<.<.<.<.<.<.<.<.<.<.<.<.<.<.<.<.<.<.6 1 <.<.<.<.<.<.<.<.<.<.",
"<.<.<.<.<.<.<.<.<.<.<.<.<.<.<.<.<.<.<.<.<.<.<.<.<.<.<.<.<.<.<.<.",
"<.<.<.<.<.<.<.<.<.<.<.<.<.<.<.<.<.<.<.<.<.<.q <.<.<.<.<.<.<.<.<.",
"<.<.<.<.<.<.<.<.<.<.<.<.<.<.<.<.<.<.<.<.<.<.<.<.<.<.<.<.<.<.<.<.",
"<.<.<.<.<.<.<.<.<.<.<.<.<.<.<.<.<.<.<.<.<.<.<.<.<.<.<.<.<.<.<.<.",
"<.<.<.<.<.<.<.<.<.<.<.<.<.<.<.<.<.<.<.<.<.<.<.<.<.<.<.<.<.<.<.<.",
"<.<.<.<.<.<.<.<.<.<.<.<.<.<.<.<.<.<.<.<.<.<.<.<.<.<.<.<.<.<.<.<.",
"<.<.<.<.<.<.<.<.<.<.<.<.<.<.<.<.<.<.<.<.<.<.<.<.<.<.<.<.<.<.<.<.",
"<.<.<.<.<.<.<.<.<.<.<.<.<.<.<.<.<.<.<.<.<.<.<.<.<.<.<.<.<.<.<.<.",
"<.<.<.<.<.<.<.<.<.<.<.<.<.<.<.<.<.<.<.<.<.<.<.<.<.<.<.<.<.<.<.<."
};
