/* XPM */
static char *result[] = {
/* columns rows colors chars-per-pixel */
"32 32 108 2 ",
"   c #533150",
".  c #593358",
"X  c #5B3459",
"o  c #5B345A",
"O  c #5D355C",
"+  c #5E355D",
"@  c #5F355E",
"#  c #6B3969",
"$  c #6E3B6B",
"%  c #6F3A6D",
"&  c #733D71",
"*  c #763D73",
"=  c #773E75",
"-  c #783E75",
";  c #7A3F76",
":  c #7C3F78",
">  c #7C3F7A",
",  c #4F4456",
"<  c #544F57",
"1  c #514658",
"2  c #564C5D",
"3  c #594C5C",
"4  c #57515B",
"5  c #59535D",
"6  c #6F4466",
"7  c #7E4873",
"8  c #776F7F",
"9  c #854372",
"0  c #874470",
"q  c #84467B",
"w  c #81427C",
"e  c #84427E",
"r  c #86447F",
"t  c #845172",
"y  c #874481",
"u  c #864581",
"i  c #864680",
"p  c #8A4682",
"a  c #8D4885",
"s  c #8F4985",
"d  c #924986",
"f  c #964B8A",
"g  c #964D8A",
"h  c #974E8B",
"j  c #994F8B",
"k  c #A55389",
"l  c #A2538E",
"z  c #A4548F",
"x  c #A75891",
"c  c #AD5D93",
"v  c #A56291",
"b  c #B46495",
"n  c #BD6597",
"m  c #B26F92",
"M  c #B76698",
"N  c #B5689A",
"B  c #BD6999",
"V  c #BC6B9A",
"C  c #BD73A2",
"Z  c #C7719C",
"A  c #CA759E",
"S  c #CC779F",
"D  c #D67FA2",
"F  c #D77FA2",
"G  c #D680A3",
"H  c #DA82A4",
"J  c #DE89A7",
"K  c #DD8AA7",
"L  c #DD8AA8",
"P  c #E08FAA",
"I  c #E28FAA",
"U  c #E48EA9",
"Y  c #EA96AD",
"T  c #E99BB0",
"R  c #EB9EB3",
"E  c #EDA0B4",
"W  c #EDA2B6",
"Q  c #F0A0B2",
"!  c #F0A0B3",
"~  c #F1A3B5",
"^  c #F7A8B6",
"/  c #F2A8B9",
"(  c #F0ACBD",
")  c #F5B0BE",
"_  c #F8B5C0",
"`  c #FCB8C1",
"'  c #FEC3CA",
"]  c #FFCDD2",
"[  c #FFCFD3",
"{  c #FFD6D9",
"}  c #FFD7DA",
"|  c #FFDCDE",
" . c #FFDCDF",
".. c #FDDDE2",
"X. c #FFE1E3",
"o. c #FFE3E5",
"O. c #FFE5E7",
"+. c #FFE6E7",
"@. c #FFE7E8",
"#. c #FFEAEB",
"$. c #FFEFF0",
"%. c #FFF1F2",
"&. c #FFF4F4",
"*. c #FFF6F6",
"=. c #FFFBFB",
"-. c #FFFCFC",
";. c white",
":. c None",
/* pixels */
":.:.:.:.:.:.:.:.:.:.:.:.:.:.:.:.:.:.:.:.:.:.:.:.:.:.:.:.:.:.:.:.",
":.:.:.:.:.:.:.:.:.:.:.:.:.:.:.:.:.:.:.:.:.:.:.:.:.:.:.:.:.:.:.:.",
":.:.:.:.:.:.:.:.:.:.:.:.:.:.:.:.:.:.:.:.:.:.:.:.:.:.:.:.:.:.:.:.",
":.:.:.:.:.:.:.:.:.:.:.:.:.:.:.:.:.:.:.:.:.:.:.:.:.:.:.:.:.:.:.:.",
":.:.:.:.:.:.:.:.:.:.:.:.:.:.:.:.:.:.:.:.:.:.:.:.:.:.:.:.:.:.:.:.",
":.:.:.:.:.:.:.:.:.:.:.:.:.:.:.:.:.:.:.:.:.:.:.:.:.:.:.:.:.:.:.:.",
":.:.:.:.:.:.:.:.:.:.:.:.:.:.:.:.:.:.:.:.:.:.:.:.:.:.:.:.:.:.:.:.",
":.:.:.:.:.:.:.:.:.:.:.:.:.:.:.:.:.:.:.:.:.:.:.:.:.:.:.:.:.:.:.:.",
":.:.:.:.:.:.:.:.:.:.:.:.:.:.:.o :.:.:.:.:.:.:.:.:.:.:.:.:.:.:.:.",
":.:.:.:.:.:.:.:.:.:.:.:.9 r d h s - @ :.:.:.:.:.:.:.:.:.:.:.:.:.",
":.:.:.:.:.:.:.:.:.:.6 p n J E Q Y S l = :.:.:.:.:.:.:.:.:.:.:.:.",
":.:.:.:.:.:.:.:.:.:.m A _  .&.$.#.[ ! N & :.:.:.:.:.:.:.:.:.:.:.",
":.:.:.:.:.:.:.:.:.$ V ` %.;.;.;.;.;.+.R g o :.:.:.:.:.:.:.:.:.:.",
":.:.:.:.:.:.:.:.:.y L o.;.;.;.;.;.;.-.' B % :.:.:.:.:.:.:.:.:.:.",
":.:.:.:.:.:.:.:.X f W *.;.;.;.;.;.;.;.| D : :.:.2 4 :.:.:.:.:.:.",
":.:.:.:.:.:.:.:.+ z ) =.;.;.;.;.;.;.;.O.H e :.:.:.:.:.:.:.:.:.:.",
":.:.:.:.:.:.:.:.. j ~ %.;.;.;.;.;.;.;.} F ; :.:.:.:.:.:.:.:.:.:.",
":.:.:.:.:.:.:.:.:.w G  .;.;.;.;.;.;.-...C % :.:.:.:.:.:.:.:.:.:.",
":.:.:.:.:.:.:.:.:.# x / O.;.;.;.;.-.{ ( v :.:.:.:.:.:.:.:.:.:.:.",
":.:.:.:.:.:.:.:.:.:.> M ^ ] @.$.X.' U b t :.:.:.:.:.:.:.:.:.:.:.",
":.:.:.:.:.:.:.:.1 :.:.q c Z P T I K k 0 :.:.:.:.:.:.:.:.:.:.:.:.",
":.:.:.:.:.< :.:.:.:.:.3 O * u a i 7 :.:.:.:.:.:.:.:.:.:.:.:.:.:.",
":.:.:.:.:.:.:.:.:.:.:.8 :.:.:.:.:.:.:.:.:.:.:.:.:.:.:.:.:.:.:.:.",
":.:.:.:.:.:.:.:.:.:.:., :.:.:.:.:.:.:.:.:.:.:.:.:.:.:.:.:.:.:.:.",
":.:.:.:.:.:.:.:.:.:.:.:.:.:.:.:.:.:.:.:.:.:.:.  :.:.:.:.:.:.:.:.",
":.:.:.:.:.:.:.:.:.:.:.:.:.:.:.:.:.:.:.:.:.:.:.:.:.:.:.:.:.:.:.:.",
":.:.:.:.:.:.:.:.:.:.5 :.:.:.:.:.:.:.:.:.:.:.:.:.:.:.:.:.:.:.:.:.",
":.:.:.:.:.:.:.:.:.:.:.:.:.:.:.:.:.:.:.:.:.:.:.:.:.:.:.:.:.:.:.:.",
":.:.:.:.:.:.:.:.:.:.:.:.:.:.:.:.:.:.:.:.:.:.:.:.:.:.:.:.:.:.:.:.",
":.:.:.:.:.:.:.:.:.:.:.:.:.:.:.:.:.:.:.:.:.:.:.:.:.:.:.:.:.:.:.:.",
":.:.:.:.:.:.:.:.:.:.:.:.:.:.:.:.:.:.:.:.:.:.:.:.:.:.:.:.:.:.:.:.",
":.:.:.:.:.:.:.:.:.:.:.:.:.:.:.:.:.:.:.:.:.:.:.:.:.:.:.:.:.:.:.:."
};
