/* XPM */
static char *result[] = {
/* columns rows colors chars-per-pixel */
"32 32 101 2 ",
"   c #4A2D49",
".  c #453B4A",
"X  c #50304F",
"o  c #563253",
"O  c #523D54",
"+  c #6E3A58",
"@  c #713C5C",
"#  c #7A3F5F",
"$  c #6D3C68",
"%  c #7C3F62",
"&  c #4A4050",
"*  c #514658",
"=  c #5A555E",
"-  c #5E5963",
";  c #7A4762",
":  c #7E4165",
">  c #675D6E",
",  c #7D5570",
"<  c #7E5375",
"1  c #864467",
"2  c #83426B",
"3  c #88456B",
"4  c #8A456A",
"5  c #8D466E",
"6  c #94496F",
"7  c #8F4770",
"8  c #934876",
"9  c #944875",
"0  c #984A73",
"q  c #9A4B74",
"w  c #9A4B78",
"e  c #9F4D7A",
"r  c #9D5377",
"t  c #99537A",
"y  c #A7517E",
"u  c #7F7987",
"i  c #AC5381",
"p  c #AF5382",
"a  c #AC5583",
"s  c #AF5485",
"d  c #B25686",
"f  c #B35686",
"g  c #B85A88",
"h  c #B26384",
"j  c #C5608D",
"k  c #C1668E",
"l  c #C76490",
"z  c #C86591",
"x  c #CD6B94",
"c  c #D16F97",
"v  c #D3709A",
"b  c #DA759D",
"n  c #DC799E",
"m  c #DE7EA1",
"M  c #DF7EA1",
"N  c #8C878F",
"B  c #CE8AA6",
"V  c #DF80A3",
"C  c #DA87A6",
"Z  c #E383A5",
"A  c #E689A7",
"S  c #E08AA9",
"D  c #E689A8",
"F  c #E78AA8",
"G  c #E58BAA",
"H  c #E78BAA",
"J  c #E78CAA",
"K  c #E98EAB",
"L  c #EF97AE",
"P  c #EE98B0",
"I  c #EE9CB3",
"U  c #ECA0B8",
"Y  c #EDA1B8",
"T  c #F1A4B8",
"R  c #F3A8BB",
"E  c #F3A9BB",
"W  c #F1AABE",
"Q  c #F6B9C7",
"!  c #F3B7C8",
"~  c #F9C0C9",
"^  c #FDC5CE",
"/  c #FAC5D0",
"(  c #FDD5DB",
")  c #FED6DB",
"_  c #FFD7DC",
"`  c #FDDBE0",
"'  c #FEE2E6",
"]  c #FFE4E6",
"[  c #FDE4E9",
"{  c #FFE9EB",
"}  c #FFEBED",
"|  c #FFEEEF",
" . c #FFEFF0",
".. c #FFF3F4",
"X. c #FFF6F6",
"o. c snow",
"O. c #FFFBFB",
"+. c #FFFCFB",
"@. c #FFFEFE",
"#. c white",
"$. c None",
/* pixels */
"$.$.$.$.$.$.$.$.$.$.$.$.$.$.$.$.$.$.$.$.$.$.$.$.$.$.$.$.$.$.$.$.",
"$.$.$.$.$.$.$.$.$.$.$.$.$.$.$.$.$.$.$.$.$.$.$.$.$.$.$.$.$.$.$.$.",
"$.$.$.$.$.$.$.$.$.$.$.$.$.$.$.$.$.$.$.$.$.$.$.$.$.$.$.$.$.$.$.$.",
"$.$.$.$.$.$.$.$.$.= $.$.$.$.$.$.$.$.$.$.$.$.$.$.$.$.$.$.$.$.$.$.",
"$.$.$.$.$.$.$.$.$.= $.$.$.$.$.$.$.$.$.$.$.$.$.$.$.$.$.$.$.$.$.$.",
"$.$.$.$.$.$.$.$.$.$.$.$.$.$.$.$.$.$.$.$.$.$.$.$.$.$.$.$.$.$.$.$.",
"$.$.$.$.$.$.$.$.$.$.$.$.$.$.$.$.$.$.$.$.$.$.$.$.$.$.$.$.$.$.$.$.",
"$.$.$.$.$.$.$.$.$.$.$.$.$.$.$.$.$.$.$.$.$.$.$.$.$.$.$.$.$.$.$.$.",
"$.$.$.$.u $.$.$.$.$.$.$.$.$.$.$.$.$.$.$.$.$.$.- $.$.$.$.$.$.$.$.",
"$.$.$.$.$.$.$.$.$.$.$.$.@ q i s y 5 $.$.$.$.$.$.$.$.$.$.$.$.$.$.",
"$.$.$.$.$.$.$.$.$.$.$.0 l Z W ! I n g 1 $.$.$.$.$.$.$.$.$.$.$.$.",
"$.$.$.$.$.$.$.$.$.$.r m Q { O.#.X._ P j : $.$.$.$.$.$.$.$.$.$.$.",
"$.$.$.$.$.$.$.$.$.% x ~ o.#.#.#.#.#.] K p $.$.$.$.$.$.$.$.$.$.$.",
"$.$.$.$.$.$.$.$.$.e H } #.#.#.#.#.#.#.( C # $.$.$.$.$.$.$.$.$.$.",
"$.$.$.$.$.$.$.$.$.f R +.#.#.#.#.#.#.#.X.U 3   $.$.$.$.$.$.$.$.$.",
"$.$.$.$.$.$.$.$.$.d E +.#.#.#.#.#.#.#. .A 8 X $.$.$.$.$.$.$.$.$.",
"$.$.$.$.$.$.$.$.$.i T o.#.#.#.#.#.#.#.} V 4 $.$.$.$.$.$.$.$.$.$.",
"$.$.$.$.$.$.$.$.$.6 M ' #.#.#.#.#.#.@./ z + $.$.$.$.$.$.$.$.$.$.",
"$.$.$.$.$.$.$.$.$.; c Y ..#.#.#.#.#.[ L h $.$.$.$.$.$.$.$.$.$.$.",
"$.$.$.$.$.$.$.$.$.$.t v ^ ` |  . .) G k $.$.$.$.$.$.$.$.$.$.$.$.",
"$.$.$.$.$.$.$.$.* $.$., B b D F J S a $.$.$.$.$.$.$.$.$.$.$.$.$.",
"$.$.$.$.$.$.$.$.$.$.$.. $ 2 9 w 7 < O $.$.$.$.$.$.$.$.$.$.$.$.$.",
"$.$.$.$.$.$.$.$.$.$.$.$.$.$.$.$.$.$.$.$.$.o $.$.$.$.$.$.$.$.$.$.",
"$.$.$.$.$.$.$.$.$.$.$.& $.$.$.$.$.$.$.$.$.$.$.$.$.$.$.$.$.$.$.$.",
"$.$.$.$.$.$.$.$.$.$.$.$.$.$.$.$.$.$.$.$.$.$.$.$.$.$.$.$.$.$.$.$.",
"$.$.$.$.$.$.$.$.$.$.$.$.$.$.$.$.$.$.$.$.$.$.$.N > $.$.$.$.$.$.$.",
"$.$.$.$.$.$.$.$.$.$.$.$.$.$.$.$.$.$.$.$.$.$.$.$.$.$.$.$.$.$.$.$.",
"$.$.$.$.$.$.$.$.$.$.$.$.$.$.$.$.$.$.$.$.$.$.$.$.$.$.$.$.$.$.$.$.",
"$.$.$.$.$.$.$.$.$.$.$.$.$.$.$.$.$.$.$.$.$.$.$.$.$.$.$.$.$.$.$.$.",
"$.$.$.$.$.$.$.$.$.$.$.$.$.$.$.$.$.$.$.$.$.$.$.$.$.$.$.$.$.$.$.$.",
"$.$.$.$.$.$.$.$.$.$.$.$.$.$.$.$.$.$.$.$.$.$.$.$.$.$.$.$.$.$.$.$.",
"$.$.$.$.$.$.$.$.$.$.$.$.$.$.$.$.$.$.$.$.$.$.$.$.$.$.$.$.$.$.$.$."
};
