/* XPM */
static char *result[] = {
/* columns rows colors chars-per-pixel */
"32 32 121 2 ",
"   c #4C304A",
".  c #443B48",
"X  c #51314F",
"o  c #57324E",
"O  c #533151",
"+  c #583356",
"@  c #623852",
"#  c #6A395B",
"$  c #6B395B",
"%  c #6C3A59",
"&  c #6E3A5D",
"*  c #733C5C",
"=  c #713C5F",
"-  c #4D4353",
";  c #4F4455",
":  c #4F4556",
">  c #504551",
",  c #5A465C",
"<  c #5C5760",
"1  c #5D5962",
"2  c #5E5962",
"3  c #7F4162",
"4  c #695A75",
"5  c #814364",
"6  c #824369",
"7  c #864469",
"8  c #8C466C",
"9  c #86496C",
"0  c #904771",
"q  c #964A71",
"w  c #9B5675",
"e  c #A04E78",
"r  c #A6517B",
"t  c #A3527C",
"y  c #A8537D",
"u  c #AC547E",
"i  c #84697B",
"p  c #A5637E",
"a  c #B15782",
"s  c #B15784",
"d  c #B25784",
"f  c #B15D82",
"g  c #B45887",
"h  c #B55C86",
"j  c #B85B87",
"k  c #B55988",
"l  c #B95B88",
"z  c #BD5C8A",
"x  c #BD6D8A",
"c  c #B47191",
"v  c #C05F8C",
"b  c #C2628D",
"n  c #C3628E",
"m  c #C76790",
"M  c #C96792",
"N  c #CA6893",
"B  c #CB6894",
"V  c #CD6A95",
"C  c #CE6996",
"Z  c #D16C96",
"A  c #D26E99",
"S  c #D7739A",
"D  c #D8739B",
"F  c #DF7CA0",
"G  c #E07DA0",
"H  c #E484A4",
"J  c #E585A4",
"K  c #E685A4",
"L  c #E785A4",
"P  c #EA8AA6",
"I  c #EB8CA7",
"U  c #ED8FA8",
"Y  c #F093AA",
"T  c #F196AC",
"R  c #F297AC",
"E  c #F397AC",
"W  c #F29AAF",
"Q  c #F49AAD",
"!  c #F59BAD",
"~  c #F59DAE",
"^  c #F59DAF",
"/  c #F9A4B2",
"(  c #F9A5B3",
")  c #FBA7B3",
"_  c #FBA8B4",
"`  c #FCABB6",
"'  c #F4ACBE",
"]  c #FCADB8",
"[  c #FCAFB9",
"{  c #FEB2BA",
"}  c #FEB3BB",
"|  c #FCB5BF",
" . c #F5B0C0",
".. c #FFBAC1",
"X. c #FFBDC4",
"o. c #FCBDC6",
"O. c #FFC5CA",
"+. c #FFC6CB",
"@. c #FFC8CD",
"#. c #FFCED3",
"$. c #FFD1D5",
"%. c #FFD2D6",
"&. c #FFD7DA",
"*. c #FFD8DB",
"=. c #FFD9DC",
"-. c #FFD9DD",
";. c #FFDADD",
":. c #FFE2E5",
">. c #FFE4E6",
",. c #FFE8E9",
"<. c #FFE9EB",
"1. c #FFEBED",
"2. c #FFECEE",
"3. c #FFEFF0",
"4. c #FFF4F5",
"5. c #FFF5F6",
"6. c #FFF8F8",
"7. c #FFFBFB",
"8. c #FFFEFE",
"9. c white",
"0. c None",
/* pixels */
"0.0.0.0.0.0.0.0.0.0.0.0.0.0.0.0.0.0.0.0.0.0.0.0.0.0.0.0.0.0.0.0.",
"0.0.0.0.0.0.0.0.0.0.0.0.0.0.0.0.0.0.0.0.0.0.0.0.0.0.0.0.0.0.0.0.",
"0.0.0.0.0.0.0.0.0.0.0.0.0.0.0.0.0.0.0.0.0.0.0.0.0.0.0.0.0.0.0.0.",
"0.0.0.0.0.0.0.0.0.0.0.0.0.0.0.0.0.0.0.0.0.0.0.0.0.0.0.0.0.0.0.0.",
"0.0.0.0.0.0.0.0.0.0.0.0.0.0.0.0.0.0.0.0.0.0.0.0.0.0.0.0.0.0.0.0.",
"0.0.0.0.0.0.0.0.0.0.0.0.0.0.0.0.0.0.0.0.0.0.0.0.0.0.0.0.0.0.0.0.",
"0.0.0.0.0.0.0.0.0.0.0.0.0.0.0.0.0.0.0.0.0.0.0.0.0.0.0.0.0.0.0.0.",
"0.0.0.0.0.0.0.0.0.0.0.0.0.0.0.0.0.0.0.0.0.0.0.0.0.0.0.0.0.0.0.0.",
"0.0.0.0.0.0.0.0.0.0.0.+ 0.0.0.$ 0.0.0.0.0.0.0.0.0.0.0.0.0.0.0.0.",
"0.0.0.0.0.0.0.1 > 0.0.o 7 j m B b r 3 0.0.0.0.0.0.0.0.0.0.0.0.0.",
"0.0.0.0.0.0.0.0.X O & k G ^ ` ` / U Z t 0.0.0.0.0.0.0.0.0.0.0.0.",
"0.0.0.0.0.0.0.0.0.0.h I { *.1.2.>.O.( K p 0.0.0.0.0.0.0.0.0.0.0.",
"0.0.0.0.0.0.0.0.0.w J } :.9.9.9.9.7.%.) V * 0.0.0.0.0.0.0.0.0.0.",
"0.0.0.0.0.0.0.0.0.l  .3.9.9.9.9.9.9.6.@.H q 0.0.0.0.0.0.0.0.0.0.",
"0.0.0.0.0.0.0.0.# N | 5.9.9.9.9.9.9.9.,.W u 0.0.0.0.0.0.< 0.0.0.",
"0.0.0.0.0.0.0.0.= C ] 3.9.9.9.9.9.9.9.;.! s 0.0.0.0.0.0.0.0.0.0.",
"0.0.0.0.0.0.0.0.% M _ <.9.9.9.9.9.9.9.$.Y y 0.0.0.0.0.0.0.0.0.0.",
"0.0.0.0.0.0.0.0.0.a T #.8.9.9.9.9.9.4...F 0 0.0.0.0.0.0.0.0.0.0.",
"0.0.0.0.0.0.0.0.0.9 D o.;.7.9.9.9.4.O.R v @ 0.0.0.0.0.0.0.0.0.0.",
"0.0.0.0.0.0.0.0.0., f ' [ +.=.-.&.X.~ A 8 0.2 0.0.0.0.0.0.0.0.0.",
"0.0.0.0.0.0.0.4 0.0.0.x S P Q Q E L n 6 0.0.- 0.0.0.0.0.0.0.0.0.",
"0.0.0.0.0.0.0.0.0.0.0.0.5 e g z d c i   0.0.: 0.0.0.0.0.0.0.0.0.",
"0.0.0.0.0.0.0.0.0.0.0.0.0.0.0.0.0.0.0.0.0.0.0.0.0.0.0.0.0.0.0.0.",
"0.0.0.0.0.0.0.0.0.0.0.0.0.0.0.0.0.0.0.0.0.0.0.0.0.0.0.0.0.0.0.0.",
"0.0.0.0.0.0.0.0.0.0.0.0.0.0.0.0.0.0.0.0.0.0.0.; 0.0.0.0.0.0.0.0.",
"0.0.0.0.0.0.0.0.0.0.0.0.0.0.0.0.0.0.0.0.0.0.0.. 0.0.0.0.0.0.0.0.",
"0.0.0.0.0.0.0.0.0.0.0.0.0.0.0.0.0.0.0.0.0.0.0.0.0.0.0.0.0.0.0.0.",
"0.0.0.0.0.0.0.0.0.0.0.0.0.0.0.0.0.0.0.0.0.0.0.0.0.0.0.0.0.0.0.0.",
"0.0.0.0.0.0.0.0.0.0.0.0.0.0.0.0.0.0.0.0.0.0.0.0.0.0.0.0.0.0.0.0.",
"0.0.0.0.0.0.0.0.0.0.0.0.0.0.0.0.0.0.0.0.0.0.0.0.0.0.0.0.0.0.0.0.",
"0.0.0.0.0.0.0.0.0.0.0.0.0.0.0.0.0.0.0.0.0.0.0.0.0.0.0.0.0.0.0.0.",
"0.0.0.0.0.0.0.0.0.0.0.0.0.0.0.0.0.0.0.0.0.0.0.0.0.0.0.0.0.0.0.0."
};
