/* XPM */
static char *result[] = {
/* columns rows colors chars-per-pixel */
"32 32 104 2 ",
"   c #4D2E47",
".  c #523050",
"X  c #553252",
"o  c #563253",
"O  c #5F3455",
"+  c #5E3657",
"@  c #613550",
"#  c #653757",
"$  c #733C62",
"%  c #763D62",
"&  c #743D64",
"*  c #753E64",
"=  c #554B5C",
"-  c #584A5B",
";  c #5A555F",
":  c #5A5160",
">  c #5E5962",
",  c #604861",
"<  c #69426C",
"1  c #764065",
"2  c #7C4067",
"3  c #7F4066",
"4  c #695E72",
"5  c #6A666B",
"6  c #69606D",
"7  c #6B666F",
"8  c #6B6372",
"9  c #804264",
"0  c #834265",
"q  c #804267",
"w  c #834266",
"e  c #84436D",
"r  c #8C4773",
"t  c #8E4872",
"y  c #914974",
"u  c #934B77",
"i  c #954B76",
"p  c #984D76",
"a  c #9D4F78",
"s  c #A4547D",
"d  c #A15281",
"f  c #A75281",
"g  c #A35B81",
"h  c #AA5886",
"j  c #B65E89",
"k  c #B75E8A",
"l  c #826884",
"z  c #807A88",
"x  c #997485",
"c  c #837690",
"v  c #AE6583",
"b  c #BD628D",
"n  c #B6728C",
"m  c #C46792",
"M  c #C56A91",
"N  c #CB6993",
"B  c #CD7999",
"V  c #D27099",
"C  c #D37498",
"Z  c #DA7A9D",
"A  c #DD7E9F",
"S  c #E180A1",
"D  c #E080A2",
"F  c #E283A2",
"G  c #E383A2",
"H  c #E285A3",
"J  c #E286A3",
"K  c #EB8EA7",
"L  c #E990A8",
"P  c #ED91AA",
"I  c #EF93AB",
"U  c #F197AD",
"Y  c #F198AE",
"T  c #F29AAF",
"R  c #F39CB0",
"E  c #F59DB0",
"W  c #F5A0B2",
"Q  c #F6A4B5",
"!  c #FBAEBA",
"~  c #FCB1BB",
"^  c #FDB7C1",
"/  c #FEBEC5",
"(  c #FEBEC6",
")  c #FEC1C8",
"_  c #FFCACF",
"`  c #FFCDD1",
"'  c #FFCFD4",
"]  c #FFD1D5",
"[  c #FFD3D7",
"{  c #FFD5D9",
"}  c #FFD6D9",
"|  c #FFDADD",
" . c #FFE3E5",
".. c #FFE4E6",
"X. c #FFE5E7",
"o. c #FFE9EB",
"O. c #FFEDEE",
"+. c #FFF1F2",
"@. c #FFF4F5",
"#. c #FFF8F8",
"$. c #FFFBFB",
"%. c #FFFCFC",
"&. c white",
"*. c None",
/* pixels */
"*.*.*.*.*.*.*.*.*.*.*.*.*.*.*.*.*.*.*.*.*.*.*.*.*.*.*.*.*.*.*.*.",
"*.*.*.*.*.*.*.*.*.*.*.*.*.*.*.*.*.*.*.*.*.*.*.*.*.*.*.*.*.*.*.*.",
"*.*.*.*.*.*.*.*.*.*.*.*.*.*.*.*.*.*.*.*.*.*.*.*.*.*.*.*.*.*.*.*.",
"*.*.*.*.*.*.*.*.*.*.*.*.*.*.*.*.*.*.*.*.*.*.*.*.*.*.*.*.*.*.*.*.",
"*.*.*.*.*.*.*.*.*.*.*.*.*.*.*.*.*.*.*.*.*.*.*.*.*.*.*.*.*.*.*.*.",
"*.*.*.*.*.*.*.*.*.*.8 *.*.*.*.*.*.*.*.*.*.*.*.*.*.*.*.*.*.*.*.*.",
"*.*.*.*.*.*.*.*.*.*.*.*.*.*.*.*.*.*.*.*.*.*.*.*.*.*.*.*.*.*.*.*.",
"*.*.*.*.*.*.*.*.*.*.*.: *.*.*.*.*.*.*.*.*.*.*.*.*.*.*.*.*.*.*.*.",
"*.*.*.*.*.*.*.*.*.*.*.*.*.*.*.*.*.*.*.*.*.*.*.> *.*.*.*.*.*.*.*.",
"*.*.*.*.*.*.*.*.*.*.*.*.*.3 g n y % *.*.*.*.*.*.*.*.*.*.*.*.*.*.",
"*.*.*.*.*.*.*.7 5 *.*.9 j A Y W P V d + 4 = *.*.*.*.*.*.*.*.*.*.",
"*.*.*.*.*.*.*.*.*.*.q N Q [ o.O.../ P h , *.*.*.*.*.*.*.*.*.*.*.",
"*.*.*.*.*.*.*.*.*.*.k Q  .&.&.&.&.#.` K p *.*.*.z *.*.*.*.*.*.*.",
"*.*.*.*.*.*.*.*.*.e F [ &.&.&.&.&.&.@.^ m O *.*.*.*.*.*.*.*.*.*.",
"*.*.*.*.*.*.*.*.*.u T o.&.&.&.&.&.&.&.{ H * *.*.*.*.*.*.*.*.*.*.",
"*.*.*.*.*.*.*.*.*.a R O.&.&.&.&.&.&.&.| L 1 *.*.*.*.*.*.*.*.*.*.",
"*.*.*.*.*.*.*.*.*.i U X.&.&.&.&.&.&.&.' Z $ *.*.*.*.*.*.*.*.*.*.",
"*.*.*.*.*.*.*.*.*.2 A _ %.&.&.&.&.&.+.! b *.*.*.*.*.*.*.*.*.*.*.",
"*.*.*.*.*.*.*.*.*.  s I [ $.&.&.&.+.) D r *.*.*.*.*.*.*.*.*.*.*.",
"*.*.*.*.*.*.*.*.*.. @ M E ( } | ] ~ S f *.*.*.*.*.*.*.*.*.*.*.*.",
"*.*.*.*.*.*.*.*.*.*.*.x v C G F J B t *.*.*.*.*.*.*.*.*.*.*.*.*.",
"*.*.*.*.*.*.*.*.*.*.*.*.X # w 0 & *.*.*.*.*.*.*.*.*.*.*.*.*.*.*.",
"*.*.*.*.*.*.*.*.c *.*.*.o *.*.*.*.*.*.*.6 l *.*.*.*.*.*.*.*.*.*.",
"*.*.*.*.*.*.*.*.*.*.*.*.*.*.*.*.*.*.*.*.*.*.*.*.*.*.*.*.*.*.*.*.",
"*.*.*.*.*.*.*.*.*.*.*.*.*.*.*.*.*.*.*.*.*.*.< - *.*.*.*.*.*.*.*.",
"*.*.*.*.*.*.*.*.*.*.*.*.*.*.*.*.*.*.*.*.*.*.*.; *.*.*.*.*.*.*.*.",
"*.*.*.*.*.*.*.*.*.*.*.*.*.*.*.*.*.*.*.*.*.*.*.*.*.*.*.*.*.*.*.*.",
"*.*.*.*.*.*.*.*.*.*.*.*.*.*.*.*.*.*.*.*.*.*.*.*.*.*.*.*.*.*.*.*.",
"*.*.*.*.*.*.*.*.*.*.*.*.*.*.*.*.*.*.*.*.*.*.*.*.*.*.*.*.*.*.*.*.",
"*.*.*.*.*.*.*.*.*.*.*.*.*.*.*.*.*.*.*.*.*.*.*.*.*.*.*.*.*.*.*.*.",
"*.*.*.*.*.*.*.*.*.*.*.*.*.*.*.*.*.*.*.*.*.*.*.*.*.*.*.*.*.*.*.*.",
"*.*.*.*.*.*.*.*.*.*.*.*.*.*.*.*.*.*.*.*.*.*.*.*.*.*.*.*.*.*.*.*."
};
