/* XPM */
static char *result[] = {
/* columns rows colors chars-per-pixel */
"32 32 99 2 ",
"   c #453648",
".  c #4B324A",
"X  c #55324E",
"o  c #523050",
"O  c #5D3453",
"+  c #5C345A",
"@  c #753D59",
"#  c #763E5F",
"$  c #793F59",
"%  c #783F5C",
"&  c #49404F",
"*  c #4A4050",
"=  c #504657",
"-  c #514658",
";  c #524759",
":  c #56515A",
">  c #76425D",
",  c #7E425D",
"<  c #7C415F",
"1  c #774C5E",
"2  c #5C5761",
"3  c #5D5862",
"4  c #7E4365",
"5  c #764D6D",
"6  c #7E4D6F",
"7  c #605966",
"8  c #635C68",
"9  c #745E6D",
"0  c #766B7F",
"q  c #814463",
"w  c #834465",
"e  c #8C4867",
"r  c #8C4967",
"t  c #914B6A",
"y  c #8F5C7E",
"u  c #955173",
"i  c #925777",
"p  c #9A5473",
"a  c #9C5377",
"s  c #9F577A",
"d  c #A35675",
"f  c #A7597A",
"g  c #A95D7F",
"h  c #AE5D7D",
"j  c #B56181",
"k  c #B56F83",
"l  c #BC668B",
"z  c #BF6C8C",
"x  c #C0778F",
"c  c #C67190",
"v  c #D47998",
"b  c #D57D9A",
"n  c #BC839B",
"m  c #D6849B",
"M  c #D5829E",
"N  c #D9839F",
"B  c #DE88A2",
"V  c #E38DA6",
"C  c #E592A7",
"Z  c #E491A8",
"A  c #E894AB",
"S  c #EA98AD",
"D  c #E899AF",
"F  c #EC99AD",
"G  c #EF98AF",
"H  c #EA99B0",
"J  c #F1A6B8",
"K  c #F5AFBE",
"L  c #F7B0BE",
"P  c #F7B0BF",
"I  c #F8B2BF",
"U  c #F8B3C1",
"Y  c #FBB6C1",
"T  c #F3C1CD",
"R  c #FCC2CB",
"E  c #FDC2CC",
"W  c #FDC5CD",
"Q  c #FEC6CE",
"!  c #FFCED3",
"~  c #FFCFD5",
"^  c #FFD3D8",
"/  c #FFE1E4",
"(  c #FFE3E6",
")  c #FFE5E8",
"_  c #FFE8EA",
"`  c #FFECED",
"'  c #FFEDEE",
"]  c #FFEEEF",
"[  c #FFEFF0",
"{  c #FFF4F4",
"}  c #FFF4F5",
"|  c #FFF6F6",
" . c #FFF8F8",
".. c snow",
"X. c #FFFBFB",
"o. c #FFFCFC",
"O. c #FFFEFE",
"+. c white",
"@. c None",
/* pixels */
"@.@.@.@.@.@.@.@.@.@.@.@.@.@.@.@.@.@.@.@.@.@.@.@.@.@.@.@.@.@.@.@.",
"@.@.@.@.@.@.@.@.@.@.@.@.@.@.@.@.@.@.@.@.@.@.@.@.@.@.@.@.@.@.@.@.",
"@.@.@.@.@.@.@.@.@.@.@.@.@.@.@.@.@.@.@.@.@.@.@.@.@.@.@.@.@.@.@.@.",
"@.@.@.@.@.@.@.@.@.@.@.@.@.@.@.@.@.@.@.@.@.@.@.@.@.@.@.@.@.@.@.@.",
"@.@.@.@.@.@.@.@.@.@.@.@.@.@.@.@.@.@.@.@.@.@.@.@.@.@.@.@.@.@.@.@.",
"@.@.@.@.@.@.@.@.@.@.@.@.@.@.@.@.@.@.@.@.@.@.@.@.@.@.@.@.@.@.@.@.",
"@.@.@.@.@.@.@.@.@.@.@.@.@.@.@.@.@.@.@.@.@.@.@.@.@.@.@.@.@.@.@.@.",
"@.@.@.@.@.3 @.@.@.@.@.& @.@.@.@.@.@.@.@.@.@.@.@.@.@.@.@.@.@.@.@.",
"@.@.@.@.@.@.@.@.@.@.@.. @.@.@.@.@.@.@.@.@.@.@.@.@.@.@.@.@.@.@.@.",
"@.@.@.@.@.@.@.@.+ @.@.o X < u s r @.@.@.@.@.@.@.@.@.@.@.@.@.@.@.",
"@.@.@.@.@.@.@.@.@.@.@.$ x D L Y J N f @.- ; @.@.@.@.@.@.@.@.@.@.",
"@.@.@.@.@.@.@.@.=   % v W ] X.X.../ K n @.@.@.@.@.@.@.@.@.@.@.@.",
"@.@.@.@.@.@.@.@.@.O l R X.+.+.+.+.+.| T p @.@.@.@.@.@.@.@.@.@.@.",
"@.@.@.@.@.@.@.@.@.q S ' +.+.+.+.+.+.+.^ m @.@.@.@.@.@.@.@.@.@.@.",
"@.@.@.@.@.@.@.@.@.a U o.+.+.+.+.+.+.+.` C > @.@.@.@.@.@.@.@.@.@.",
"@.@.@.@.@.@.@.@.@.h E O.+.+.+.+.+.+.+.[ F 4 @.@.@.@.@.@.@.@.@.@.",
"@.@.@.@.@.@.@.@.@.d I X.+.+.+.+.+.+.+.' B @ @.@.@.@.@.@.@.@.@.@.",
"@.@.@.@.@.@.@.@.@., Z _ +.+.+.+.+.+.+.~ c @.@.@.@.@.@.@.@.@.@.@.",
"@.@.@.@.@.@.@.@.@.@.j P } +.+.+.+.O.( A t @.@.@.@.@.@.@.@.@.@.@.",
"@.@.@.@.@.@.@.@.@.@.6 z Q ) {  .' ! G g @.@.@.@.@.@.@.@.@.@.@.@.",
"@.@.@.@.@.@.8 @.@.@.y 1 k b H J V M i 5 @.@.@.@.@.@.@.@.@.@.@.@.",
"@.@.@.@.@.@.0 @.@.@.@.@.@.@.w e # 9 @.@.@.@.@.@.@.@.@.@.@.@.@.@.",
"@.@.@.@.@.@.@.@.@.@.@.@.@.@.@.@.@.@.@.@.* @.@.@.@.2 @.@.@.@.@.@.",
"@.@.@.@.@.@.@.@.@.@.@.@.@.@.@.@.@.@.@.@.@.@.@.@.@.: @.@.@.@.@.@.",
"@.@.@.@.@.@.@.@.@.@.@.@.@.@.@.@.@.@.@.@.@.@.@.@.@.@.@.@.@.@.@.@.",
"@.@.@.@.@.@.@.@.@.@.@.@.@.@.@.@.@.@.@.@.@.@.@.@.@.@.@.@.@.@.@.@.",
"@.@.@.@.@.@.@.@.@.@.@.@.@.@.@.@.@.@.@.@.@.@.@.@.@.@.@.@.@.@.@.@.",
"@.@.@.@.@.@.@.@.@.@.@.@.@.@.@.@.@.@.@.@.@.@.@.@.@.7 @.@.@.@.@.@.",
"@.@.@.@.@.@.@.@.@.@.@.@.@.@.@.@.@.@.@.@.@.@.@.@.@.@.@.@.@.@.@.@.",
"@.@.@.@.@.@.@.@.@.@.@.@.@.@.@.@.@.@.@.@.@.@.@.@.@.@.@.@.@.@.@.@.",
"@.@.@.@.@.@.@.@.@.@.@.@.@.@.@.@.@.@.@.@.@.@.@.@.@.@.@.@.@.@.@.@.",
"@.@.@.@.@.@.@.@.@.@.@.@.@.@.@.@.@.@.@.@.@.@.@.@.@.@.@.@.@.@.@.@."
};
