/* XPM */
static char *result[] = {
/* columns rows colors chars-per-pixel */
"32 32 80 1 ",
"  c #4F2F4C",
". c #463B46",
"X c #4C3F4F",
"o c #4C3E50",
"O c #5C3D55",
"+ c #6F3D5C",
"@ c #683F63",
"# c #4B4151",
"$ c #4F4556",
"% c #504556",
"& c #504B53",
"* c #524D56",
"= c #524759",
"- c #5A445E",
"; c #574F5C",
": c #5B565F",
"> c #73425F",
", c #634E64",
"< c #754262",
"1 c #784663",
"2 c #7A4965",
"3 c #7D4D66",
"4 c #7E4869",
"5 c #7D4D68",
"6 c #615868",
"7 c #6B6173",
"8 c #6A6470",
"9 c #834A6C",
"0 c #935874",
"q c #9E5A7F",
"w c #95627F",
"e c #9B607A",
"r c #9D5E80",
"t c #AF6F85",
"y c #A4778B",
"u c #B8758D",
"i c #BA7391",
"p c #BD7D95",
"a c #BE8E9C",
"s c #C38198",
"d c #D18FA5",
"f c #D396A8",
"g c #D796A9",
"h c #D398AD",
"j c #D99EAF",
"k c #CF9BB0",
"l c #D79CB1",
"z c #D99EB0",
"x c #D5A2B1",
"c c #DEA4B4",
"v c #E7A7B7",
"b c #E0A9B7",
"n c #E7A7B9",
"m c #E6B0C0",
"M c #ECB6C5",
"N c #E0BBCB",
"B c #EFBDCA",
"V c #EEBECA",
"C c #F1C4CF",
"Z c #F4C8D2",
"A c #F9CBD5",
"S c #FCD6DD",
"D c #FBDAE0",
"F c #FFE3E7",
"G c #FEE4E8",
"H c #FFEBEE",
"J c #FFECEF",
"K c #FFF1F2",
"L c #FFF4F5",
"P c #FFF6F7",
"I c #FFF8F9",
"U c snow",
"Y c #FFFBFB",
"T c #FFFCFB",
"R c #FFFCFC",
"E c #FFFDFD",
"W c #FFFEFD",
"Q c #FFFEFE",
"! c white",
"~ c None",
/* pixels */
"~~~~~~~~~~~~~~~~~~~~~~~~~~~~~~~~",
"~~~~~~~~~~~~~~~~~~~~~~~~~~~~~~~~",
"~~~~~~~~~~~~~~~~~~~~~~~~~~~~~~~~",
"~~~~~~~~~~~~~~~~~~~~~~~~~~~~~~~~",
"~~~~~~~~~~~~~~~~~~~~~~~~~~~~~~~~",
"~~~~~~~~~~~~~~~~~~~~~~~~~~~~~~~~",
"~~~~~~~~~~~~~~~~~~~~~~~~~~~~~~~~",
"~~~~~~~~~~~~~~~~~~~~~~~~~~~~~~~~",
"~~~~~~~~~~~@~~~~~~~~~~~~~~~~~~~~",
"~~~~~~~$~~~~X~+2~~~~~~~~~~~~~~~~",
"~~~~~~~~#~~~wkmCbp4~%~~~~~~~~~~~",
"~~~~~~~~o ~iAW!!QJnq-~~~~~~~~~~~",
"~~~~~~~~~~yDE!!!!!Lv>~~~~~~~~~~~",
"~~~~~~~~~~hR!!!!!!!Ga~~~~~~~~~~~",
"~~~~~~~~~1V!!!!!!!!Ux~~~~~~~~~~~",
"~~~~~~~~~5Z!!!!!!!!Tz~~~~~~~~~~~",
"~~~~~~~~~<M!!!!!!!!Ks~~~~~~~~~~~",
"~~~~~~~~~~dP!!!!!!!Se~~~~~~~~~~~",
"~~~~~~~~~~0BE!!!!!Lg~~~~~~~~~~~~",
"~~~~~~~~~~~rNHYEIFl9~~~~~~~~~~~~",
"~~~~~~~~~76.3ujcft~~~~~~~~~~~~~~",
"~~~~~*~~~~;:~~~~~~~O,~~~~~~~~~~~",
"~~~~~~~~~~~~~~~~~~8~~~~~~~~~~~~~",
"~~~~~~~~~~~~~~~~~~~~~=~~~~~~~~~~",
"~~~~~~~~~~~~~~~~~~~~~~~~~~~~~~~~",
"~~~~~~~~~~~~~~~~~~~~~~~~~~~~~~~~",
"~~~~~~~~~~~~~~~~~~~~~~~~~~~~~~~~",
"~~~~~~~~~~~~~~~~~~~~~~~~~~~~~~~~",
"~~~~~~~~~~~~~~~~~~~~~~~~~~&~~~~~",
"~~~~~~~~~~~~~~~~~~~~~~~~~~~~~~~~",
"~~~~~~~~~~~~~~~~~~~~~~~~~~~~~~~~",
"~~~~~~~~~~~~~~~~~~~~~~~~~~~~~~~~"
};
