/* XPM */
static char *result[] = {
/* columns rows colors chars-per-pixel */
"32 32 101 2 ",
"   c #4D2F46",
".  c #4C2E4A",
"X  c #51304F",
"o  c #5B3459",
"O  c #5B345A",
"+  c #5D345C",
"@  c #5F355D",
"#  c #6A3862",
"$  c #693968",
"%  c #6A3968",
"&  c #6D3A6B",
"*  c #6E3A6C",
"=  c #6E3B6D",
"-  c #703C62",
";  c #703B6E",
":  c #723C6F",
">  c #783E74",
",  c #7A3F75",
"<  c #555058",
"1  c #5C5562",
"2  c #605667",
"3  c #635D67",
"4  c #7D4075",
"5  c #81427B",
"6  c #844279",
"7  c #83457A",
"8  c #87447B",
"9  c #82427D",
"0  c #82437D",
"q  c #84427D",
"w  c #87447F",
"e  c #834F7F",
"r  c #766785",
"t  c #7F7783",
"y  c #8C4580",
"u  c #8F4784",
"i  c #8F4882",
"p  c #8E4883",
"a  c #8F4883",
"s  c #924984",
"d  c #924987",
"f  c #924B86",
"g  c #954A86",
"h  c #9B4E8D",
"j  c #9E508B",
"k  c #A04E8B",
"l  c #A8558F",
"z  c #B05A92",
"x  c #B05B93",
"c  c #9F6883",
"v  c #B36394",
"b  c #B66095",
"n  c #B86095",
"m  c #BA6899",
"M  c #BB6E9F",
"N  c #C26C9B",
"B  c #CB739D",
"V  c #CB759F",
"C  c #CD759E",
"Z  c #D57DA3",
"A  c #D683A6",
"S  c #D981A4",
"D  c #D881A5",
"F  c #DB82A4",
"G  c #DA83A5",
"H  c #D68EB0",
"J  c #DC94B3",
"K  c #E087A7",
"L  c #E38CA8",
"P  c #E997AF",
"I  c #EC98AE",
"U  c #EEA1B5",
"Y  c #EDA1B6",
"T  c #EEA1B6",
"R  c #EDA5B9",
"E  c #F0A8BA",
"W  c #F5A9B9",
"Q  c #F1B0C0",
"!  c #F5B4C2",
"~  c #F7B7C3",
"^  c #FAC0CA",
"/  c #FCCDD4",
"(  c #FFD3D7",
")  c #FDD2D8",
"_  c #FFDCDF",
"`  c #FFDEE1",
"'  c #FFE0E2",
"]  c #FFE0E3",
"[  c #FFE2E5",
"{  c #FFE6E8",
"}  c #FFE9EA",
"|  c #FFE9EB",
" . c #FFECED",
".. c #FFEFF0",
"X. c #FFF2F3",
"o. c #FFF6F6",
"O. c snow",
"+. c #FFFCFC",
"@. c #FFFDFD",
"#. c white",
"$. c None",
/* pixels */
"$.$.$.$.$.$.$.$.$.$.$.$.$.$.$.$.$.$.$.$.$.$.$.$.$.$.$.$.$.$.$.$.",
"$.$.$.$.$.$.$.$.$.$.$.$.$.$.$.$.$.$.$.$.$.$.$.$.$.$.$.$.$.$.$.$.",
"$.$.$.$.$.$.$.$.$.$.$.$.$.$.$.$.$.$.$.$.$.$.$.$.$.$.$.$.$.$.$.$.",
"$.$.$.$.$.$.$.$.$.$.$.$.$.$.$.$.$.$.$.$.$.$.$.$.$.$.$.$.$.$.$.$.",
"$.$.$.$.$.$.$.$.$.$.$.$.$.$.$.$.$.$.$.$.$.$.$.$.$.$.$.$.$.$.$.$.",
"$.$.$.$.$.$.$.$.$.$.$.$.$.$.$.$.$.$.$.$.$.$.$.$.$.$.$.$.$.$.$.$.",
"$.$.$.$.$.$.$.$.$.$.$.$.$.$.$.$.$.$.$.$.$.$.$.$.$.$.$.$.$.$.$.$.",
"$.$.$.$.$.$.$.$.$.$.$.$.$.$.$.$.$.$.$.$.$.$.$.$.$.$.$.$.$.$.$.$.",
"$.$.$.$.$.$.$.$.$.$.$.$.$.$.$.$.$.$.$.$.$.$.$.$.$.$.$.$.$.$.$.$.",
"$.$.$.$.$.< $.$.$.$.$.$.& w a i p , O $.$.r 1 $.$.$.$.$.$.$.$.$.",
"$.$.$.$.$.$.$.$.$.$.@ 9 z F Y R I B j : $.$.$.$.$.$.$.$.$.$.$.$.",
"$.$.$.$.$.$.$.$.$.$.0 N W ` o.O. .( P l = $.$.$.$.$.$.$.$.$.$.$.",
"$.$.$.$.$.$.$.$.$.& x ~ X.#.#.#.#.#._ L d o $.$.$.$.$.$.$.$.$.$.",
"$.$.$.$.$.$.$.$.$.w F [ #.#.#.#.#.#.+.) M * $.$.$.$.$.$.$.$.$.$.",
"$.$.$.$.$.$.$.$.$.g U o.#.#.#.#.#.#.#.o.H 6 $.$.$.$.$.$.$.$.$.$.",
"$.$.$.$.$.$.$.$.+ k E +.#.#.#.#.#.#.#...A 8 $.$.$.$.$.$.$.$.$.$.",
"$.$.$.$.$.$.$.$.$.s T o.#.#.#.#.#.#.#.] Z > $.$.$.$.$.$.$.$.$.$.",
"$.$.$.$.$.$.$.$.$.5 A ' #.#.#.#.#.#.@.^ n ; $.$.$.$.$.$.$.$.$.$.",
"$.$.$.$.$.$.$.$.$.# m ! | #.#.#.#.@.[ J u $.$.$.$.$.$.$.$.$.$.$.",
"$.$.$.$.$.$.$.$.X   8 b Q ( { ..} / S h % $.$.$.$.$.$.$.$.$.$.$.",
"$.$.$.$.$.$.$.$.$.$.$.e v C G K D V f $ $.$.$.$.$.$.$.$.$.$.$.$.",
"$.$.$.$.$.$.$.$.$.$.$.$.- 4 q y 7 c $.$.$.$.$.$.$.$.$.$.$.$.$.$.",
"$.$.$.$.$.$.$.$.$.$.$.$.. $.$.$.$.$.$.$.$.$.$.$.$.$.$.$.$.$.$.$.",
"$.$.$.$.$.$.$.$.$.$.$.$.$.$.$.$.$.$.$.$.$.$.$.$.$.$.$.$.$.$.$.$.",
"$.$.$.$.$.$.$.$.$.$.$.$.$.$.$.$.$.$.$.$.$.$.3 t $.$.$.$.$.$.$.$.",
"$.$.$.$.$.$.$.$.$.$.$.$.$.$.$.$.$.$.$.$.$.$.$.2 $.$.$.$.$.$.$.$.",
"$.$.$.$.$.$.$.$.$.$.$.$.$.$.$.$.$.$.$.$.$.$.$.$.$.$.$.$.$.$.$.$.",
"$.$.$.$.$.$.$.$.$.$.$.$.$.$.$.$.$.$.$.$.$.$.$.$.$.$.$.$.$.$.$.$.",
"$.$.$.$.$.$.$.$.$.$.$.$.$.$.$.$.$.$.$.$.$.$.$.$.$.$.$.$.$.$.$.$.",
"$.$.$.$.$.$.$.$.$.$.$.$.$.$.$.$.$.$.$.$.$.$.$.$.$.$.$.$.$.$.$.$.",
"$.$.$.$.$.$.$.$.$.$.$.$.$.$.$.$.$.$.$.$.$.$.$.$.$.$.$.$.$.$.$.$.",
"$.$.$.$.$.$.$.$.$.$.$.$.$.$.$.$.$.$.$.$.$.$.$.$.$.$.$.$.$.$.$.$."
};
