/* XPM */
static char *result[] = {
/* columns rows colors chars-per-pixel */
"32 32 93 2 ",
"   c #533150",
".  c #553254",
"X  c #573857",
"o  c #5E355C",
"O  c #703C5B",
"+  c #763F5D",
"@  c #56515C",
"#  c #5A555E",
"$  c #75425E",
"%  c #7B415C",
"&  c #7D415C",
"*  c #7F415E",
"=  c #694E67",
"-  c #7E4260",
";  c #6A5163",
":  c #615B65",
">  c #61556B",
",  c #69546C",
"<  c #686270",
"1  c #766D7D",
"2  c #80435F",
"3  c #884667",
"4  c #8B4967",
"5  c #81456C",
"6  c #894869",
"7  c #8A4A6B",
"8  c #8D486A",
"9  c #974F6E",
"0  c #944E72",
"q  c #954E73",
"w  c #995073",
"e  c #A05476",
"r  c #A5567A",
"t  c #AB5C7D",
"y  c #A4607F",
"u  c #7C6F89",
"i  c #837F83",
"p  c #857990",
"a  c #B36081",
"s  c #B16083",
"d  c #B46182",
"f  c #B76486",
"g  c #BF678A",
"h  c #BE6A89",
"j  c #C97491",
"k  c #CE7B94",
"l  c #D27696",
"z  c #D07E9B",
"x  c #858087",
"c  c #D8809B",
"v  c #D9809B",
"b  c #DF86A1",
"n  c #DF89A3",
"m  c #E28BA3",
"M  c #E38BA3",
"N  c #E68FA7",
"B  c #E68FA9",
"V  c #E792A8",
"C  c #ED96AB",
"Z  c #EC96AD",
"A  c #F1A0B2",
"S  c #F3A1B4",
"D  c #F1A2B5",
"F  c #F5A7B8",
"G  c #F5A8B8",
"H  c #F7AEBD",
"J  c #F6AFBE",
"K  c #F9B2BF",
"L  c #F6B2C1",
"P  c #FCB6C1",
"I  c #FDB8C2",
"U  c #FEC2CA",
"Y  c #FEC3CB",
"T  c #FFD1D6",
"R  c #FFD5D9",
"E  c #FFD8DC",
"W  c #FFDCDF",
"Q  c #FFDEE0",
"!  c #FFE0E3",
"~  c #FFE1E3",
"^  c #FFE2E5",
"/  c #FFE3E5",
"(  c #FFEBED",
")  c #FFECEE",
"_  c #FFEFF0",
"`  c #FFF2F2",
"'  c #FFF5F6",
"]  c #FFF6F6",
"[  c #FFFBFB",
"{  c #FFFCFC",
"}  c #FFFDFD",
"|  c white",
" . c None",
/* pixels */
" . . . . . . . . . . . . . . . . . . . . . . . . . . . . . . . .",
" . . . . . . . . . . . . . . . . . . . . . . . . . . . . . . . .",
" . . . . . . . . . . . . . . . . . . . . . . . . . . . . . . . .",
" . . . . . . . . .#  . . . . . . . . . . . . . . . . . . . . . .",
" . . . . . . . . .#  . . . . . . . . . . . . . . . . . . . . . .",
" . . . . . . . . . .:  . . . . . . . . . . . . . . . . . . . . .",
" . . . . . . . . . .p  . . . . . . . . . . . . . . . . . . . . .",
" . . . . . . . . . . . . . . . . . . . . . . . . . . . . . . . .",
" . . . . . . . . . . . . . . . . . . . . . . . . . . . . . . . .",
" . . . . .@ <  . . . . . .& 8 0 4  . . . .i  . . . . . . . . . .",
" . . . . . . .>  . . .* a M D J A c e  . .x  . . . . . . . . . .",
" . . . . . . . . . .2 l K ^ ] [ ` E S s  . . . . . . . . . . . .",
" . . . . . . . . . .f P ` | | | | | / C 9  . . . . . . . . . . .",
" . . . . . . . . .% M ^ | | | | | | } T j  . . . . . . . . . . .",
" . . . . . . . . .w F ' | | | | | | | _ n O  . . . . . . . . . .",
" . . . . . . . . .t I [ | | | | | | | ) B 5  . . . . . . . . . .",
" . . . . . . . . .q G ' | | | | | | | W v  . . . . . . . . . . .",
" . . . . . . . . .+ m Q | | | | | | { Y h  . . . . . . . . . . .",
" . . . . . . . . . .d H ( | | | | { R N 6  . . . . . . . . . . .",
" . . . . . . . .  .  .g L ! ( _ ~ U N r  . . . . . . . . . . . .",
" . . . . . . . . . . .= y k V Z b z 7  . . . . . . . . . . . . .",
" . . . . . . . . . . . . . .- 3 $ ;  . . . . . . . . . . . . . .",
" . . . . . . . . . . . .o  . . . . . . . . . . . . . . . . . . .",
" . . . . . . . . . . . . . . . . . . . . .u 1  . . . . . . . . .",
" . . . . . . . . . . . . . . . . . . . . . ., X  . . . . . . . .",
" . . . . . . . . . . . . . . . . . . . . . . . . . . . . . . . .",
" . . . . . . . . . . . . . . . . . . . . . . . . . . . . . . . .",
" . . . . . . . . . . . . . . . . . . . . . . . . . . . . . . . .",
" . . . . . . . . . . . . . . . . . . . . . . . . . . . . . . . .",
" . . . . . . . . . . . . . . . . . . . . . . . . . . . . . . . .",
" . . . . . . . . . . . . . . . . . . . . . . . . . . . . . . . .",
" . . . . . . . . . . . . . . . . . . . . . . . . . . . . . . . ."
};
