/* XPM */
static char *result[] = {
/* columns rows colors chars-per-pixel */
"32 32 115 2 ",
"   c #453546",
".  c #4C374D",
"X  c #53324F",
"o  c #543151",
"O  c #553253",
"+  c #563155",
"@  c #583556",
"#  c #5D345C",
"$  c #5B3F5C",
"%  c #67375F",
"&  c #633B5B",
"*  c #663E5E",
"=  c #663763",
"-  c #633860",
";  c #6B3867",
":  c #6A3868",
">  c #6E3A6B",
",  c #723B6B",
"<  c #723B6E",
"1  c #743C6F",
"2  c #763C71",
"3  c #773E70",
"4  c #793D74",
"5  c #4C484F",
"6  c #504557",
"7  c #524557",
"8  c #544F57",
"9  c #544258",
"0  c #514658",
"q  c #53485B",
"w  c #584C5B",
"e  c #5E5168",
"r  c #624666",
"t  c #614964",
"y  c #7B466F",
"u  c #625D66",
"i  c #635E69",
"p  c #7D4773",
"a  c #7F4178",
"s  c #6B6271",
"d  c #6B6272",
"f  c #75697F",
"g  c #804177",
"h  c #86447A",
"j  c #89467D",
"k  c #8A467D",
"l  c #8A477D",
"z  c #8B477F",
"x  c #7D6987",
"c  c #8E4781",
"v  c #8F4882",
"b  c #914B83",
"n  c #9D5187",
"m  c #985188",
"M  c #9B548A",
"N  c #A95B8E",
"B  c #AF588C",
"V  c #B05E91",
"C  c #9A6885",
"Z  c #B26497",
"A  c #B86B96",
"S  c #BE6999",
"D  c #C26E9B",
"F  c #C6749E",
"G  c #CE7B9E",
"H  c #CA7EA1",
"J  c #D17EA3",
"K  c #D27FA4",
"L  c #D27FA5",
"P  c #D683A6",
"I  c #DB87A7",
"U  c #D584A8",
"Y  c #D68BAE",
"T  c #D78DAF",
"R  c #DD8DAB",
"E  c #DC8BAC",
"W  c #E494B0",
"Q  c #E499B3",
"!  c #EAA1B7",
"~  c #E5A6BE",
"^  c #EBA3B9",
"/  c #EDA8BC",
"(  c #F0AABC",
")  c #ECABC0",
"_  c #EDAEC1",
"`  c #EDB1C4",
"'  c #F6BCC8",
"]  c #F3C3D0",
"[  c #F6CCD7",
"{  c #FBC8D1",
"}  c #F9C8D2",
"|  c #FCD0D7",
" . c #FFE0E3",
".. c #FEE3E7",
"X. c #FFE7E9",
"o. c #FFEAED",
"O. c #FFEBED",
"+. c #FFECED",
"@. c #FFECEE",
"#. c #FFEEEE",
"$. c #FFEEEF",
"%. c #FFF0F0",
"&. c #FFF4F5",
"*. c #FFF6F6",
"=. c #FFF8F8",
"-. c #FFF9F9",
";. c snow",
":. c #FFFBFB",
">. c #FFFCFB",
",. c #FFFCFC",
"<. c #FFFDFD",
"1. c #FFFEFD",
"2. c #FFFFFE",
"3. c white",
"4. c None",
/* pixels */
"4.4.4.4.4.4.4.4.4.4.4.4.4.4.4.4.4.4.4.4.4.4.4.4.4.4.4.4.4.4.4.4.",
"4.4.4.4.4.4.4.4.4.4.4.4.4.4.4.4.4.4.4.4.4.4.4.4.4.4.4.4.4.4.4.4.",
"4.4.4.4.4.4.4.4.4.4.4.4.4.4.4.4.4.4.4.4.4.4.4.4.4.4.4.4.4.4.4.4.",
"4.4.4.4.4.4.4.4.4.4.4.4.4.4.4.4.4.4.4.4.4.4.4.4.4.4.4.4.4.4.4.4.",
"4.4.4.4.4.4.4.4.4.4.4.4.4.4.4.4.4.4.4.4.4.4.4.4.4.4.4.4.4.4.4.4.",
"4.4.4.4.4.4.4.4.4.4.4.4.4.4.4.4.4.4.4.4.4.4.4.4.4.4.4.4.4.4.4.4.",
"4.4.4.4.4.4.4.4.4.4.0 4.4.4.4.4.4.4.4.4.4.4.4.4.4.4.4.4.4.4.4.4.",
"4.4.4.4.4.4.4.4.4.4.4.  4.4.4.4.4.4.4.4.4.4.4.4.4.4.4.4.4.4.4.4.",
"4.4.4.4.4.4.4.6 4.4.4.t 4.4.4.4.4.4.4.4.4.4.4.4.4.4.4.4.4.4.4.4.",
"4.4.4.4.4.4.4.q 4.4.4.4.@ 3 j c h > 4.4.4.4.4.4.4.4.4.4.4.4.4.4.",
"4.4.4.4.4.4.4.4.4.4.4.1 A R ) _ ! F b % 7 e 4.4.4.4.4.4.4.4.4.4.",
"4.4.4.4.4.4.4.4.. X y S ' #.<.1.;. .Q B * 4.4.4.4.4.4.4.4.4.4.4.",
"4.4.4.4.4.4.4.4.4.& H [ :.3.3.3.3.3.$.W z 4.4.4.4.4.4.4.4.4.4.4.",
"4.4.4.4.4.4.4.4.4.g E &.3.3.3.3.3.3.3.| G C 4.4.4.4.4.4.4.4.4.4.",
"4.4.4.4.4.4.4.4.4.v / >.3.3.3.3.3.3.3.O.I p 4.4.4.4.4.4.4.4.4.4.",
"4.4.4.4.4.4.4.4.4.v ` 2.3.3.3.3.3.3.3.%.P < 4.4.4.4.4.4.4.4.4.4.",
"4.4.4.4.4.4.4.4.4.k ^ ,.3.3.3.3.3.3.3.+.J ; 4.4.4.4.4.4.4.4.4.4.",
"4.4.4.4.4.4.4.4.4., L X.3.3.3.3.3.3.3.} N + 4.4.4.4.4.4.4.4.4.4.",
"4.4.4.4.4.4.4.4.4.4.n ( *.3.3.3.3.2.o.U a 4.4.4.4.4.4.4.4.4.4.4.",
"4.4.4.4.4.4.4.4.4.4.: Z ] ..=.-.@.{ ~ m 4.4.4.4.4.4.4.4.4.4.4.4.",
"4.4.4.4.4.4.4.4.4.s w - M D Y T K V l o 4.4.4.4.4.4.4.4.4.4.4.4.",
"4.4.4.4.4.4.4.4.4.d u 5 4.= 2 4 < # 4.O r 4.4.4.4.4.4.4.4.4.4.4.",
"4.4.4.4.4.4.4.4.4.4.4.4.4.4.4.4.4.4.i 4.9 $ 4.4.4.4.4.4.4.4.4.4.",
"4.4.4.4.4.4.4.4.4.4.4.4.4.4.4.4.4.4.f 4.4.x 4.4.4.4.4.4.4.4.4.4.",
"4.4.4.4.4.4.4.4.4.4.4.4.4.4.4.4.4.4.4.4.4.4.4.4.4.4.4.4.4.4.4.4.",
"4.4.4.4.4.4.4.4.4.4.4.4.4.4.4.4.4.4.4.4.4.4.4.4.4.4.4.4.4.4.4.4.",
"4.4.4.4.4.4.4.4.4.4.4.4.4.4.4.4.4.4.4.4.4.4.4.4.4.4.4.4.4.4.4.4.",
"4.4.4.4.4.4.4.4.4.4.4.4.4.4.4.4.4.4.4.4.4.4.4.4.4.4.4.4.4.4.4.4.",
"4.4.4.4.4.4.4.4.4.4.4.4.4.4.4.4.4.4.4.4.4.4.4.4.4.4.4.8 4.4.4.4.",
"4.4.4.4.4.4.4.4.4.4.4.4.4.4.4.4.4.4.4.4.4.4.4.4.4.4.4.4.4.4.4.4.",
"4.4.4.4.4.4.4.4.4.4.4.4.4.4.4.4.4.4.4.4.4.4.4.4.4.4.4.4.4.4.4.4.",
"4.4.4.4.4.4.4.4.4.4.4.4.4.4.4.4.4.4.4.4.4.4.4.4.4.4.4.4.4.4.4.4."
};
