/* XPM */
static char *result[] = {
/* columns rows colors chars-per-pixel */
"32 32 119 2 ",
"   c #4E2F4C",
".  c #483A4C",
"X  c #533150",
"o  c #5E355C",
"O  c #5F3858",
"+  c #663953",
"@  c #623B5B",
"#  c #703C5D",
"$  c #743D5D",
"%  c #743D5F",
"&  c #793F5C",
"*  c #4B414C",
"=  c #4B464D",
"-  c #4B4251",
";  c #504457",
":  c #52475A",
">  c #54495C",
",  c #57525B",
"<  c #5B565F",
"1  c #61485F",
"2  c #5D5862",
"3  c #5E5962",
"4  c #5E5964",
"5  c #7B4066",
"6  c #814164",
"7  c #824265",
"8  c #8A466D",
"9  c #8D4770",
"0  c #904A73",
"q  c #964B75",
"w  c #984B76",
"e  c #9D4E75",
"r  c #9F4E79",
"t  c #8B557D",
"y  c #9A5677",
"u  c #A04E76",
"i  c #A14F7A",
"p  c #A35077",
"a  c #A2517A",
"s  c #A5527B",
"d  c #A7537C",
"f  c #AB557C",
"g  c #A2597B",
"h  c #965C80",
"j  c #A85380",
"k  c #AE5682",
"l  c #B25785",
"z  c #B45885",
"x  c #B75B87",
"c  c #BA5C86",
"v  c #B75B89",
"b  c #BD628C",
"n  c #C0608F",
"m  c #C4618E",
"M  c #C2648C",
"N  c #C3668D",
"B  c #C4658F",
"V  c #CD6A95",
"C  c #D7739A",
"Z  c #D7749A",
"A  c #DA739C",
"S  c #DA759D",
"D  c #DF7B9F",
"F  c #DB7EA1",
"G  c #DC84A9",
"H  c #E482A2",
"J  c #E685A4",
"K  c #E887A5",
"L  c #EB8CA7",
"P  c #EC8EA8",
"I  c #ED90A9",
"U  c #EE91A9",
"Y  c #EA92AE",
"T  c #F092AA",
"R  c #F297AC",
"E  c #F59AAE",
"W  c #F39CAE",
"Q  c #F49CAF",
"!  c #EE9EB1",
"~  c #F49FB1",
"^  c #F6A0B1",
"/  c #F6A1B2",
"(  c #FBA9B6",
")  c #FCABB6",
"_  c #F8AAB8",
"`  c #FCAFB9",
"'  c #FBB2BE",
"]  c #FDB7C0",
"[  c #FCB8C1",
"{  c #FDB9C2",
"}  c #F1BFD1",
"|  c #FAC1CB",
" . c #FFC4CA",
".. c #FFC6CB",
"X. c #FFCCD2",
"o. c #FFD1D5",
"O. c #FFD3D7",
"+. c #FFD4D7",
"@. c #FFD6D9",
"#. c #FFD7DA",
"$. c #FFD9DC",
"%. c #FFD9DD",
"&. c #FFDADD",
"*. c #FFE2E4",
"=. c #FFE4E6",
"-. c #FFE9EB",
";. c #FFEAEB",
":. c #FFECED",
">. c #FFECEE",
",. c #FFEDEE",
"<. c #FFEDEF",
"1. c #FFF4F5",
"2. c #FFF5F5",
"3. c #FFFBFB",
"4. c #FFFBFC",
"5. c #FFFCFC",
"6. c #FFFEFE",
"7. c white",
"8. c None",
/* pixels */
"8.8.8.8.8.8.8.8.8.8.8.8.8.8.8.8.8.8.8.8.8.8.8.8.8.8.8.8.8.8.8.8.",
"8.8.8.8.8.8.8.8.8.8.8.8.8.8.8.8.8.8.8.8.8.8.8.8.8.8.8.8.8.8.8.8.",
"8.8.8.8.8.8.8.8.8.8.8.8.8.8.8.8.8.8.8.8.8.8.8.8.8.8.8.8.8.8.8.8.",
"8.8.8.8.8.8.8.8.8.8.8.8.8.8.8.8.8.8.8.8.8.8.8.8.8.8.8.8.8.8.8.8.",
"8.8.8.8.8.8.8.8.8.8.8.8.8.8.8.8.8.8.8.8.8.8.8.8.8.8.8.8.8.8.8.8.",
"8.8.8.8.8.8.8.8.8.8.8.8.8.8.8.8.8.8.8.8.8.8.8.8.8.8.8.8.8.8.8.8.",
"8.8.8.8.8.8.8.8.8.8.8.8.8.8.8.8.8.8.8.8.8.8.8.8.8.8.8.8.8.8.8.8.",
"8.8.8.8.8.8.8.8.8.8.8.8.8.8.8.8.8.8.8.8.8.8.8.8.8.8.8.8.8.8.8.8.",
"8.8.8.8.8.8.8., 8.8.8.o 8.8.8.8.8.8.8.8.8.8.8.8.8.8.8.8.8.8.8.8.",
"8.8.8.8.8.8.8.< 8.8.8.8.& r v M k q $ 8.8.8.8.8.8.8.8.8.8.8.8.8.",
"8.8.8.8.8.8.8.8.X 8.8.i Z P ^ ( Q J m 0 @ 8.8.8.8.8.8.8.8.8.8.8.",
"8.8.8.8.8.8.8.8.8.O j D ` +.-.>.=. .W S y 8.8.8.8.8.8.8.8.8.8.8.",
"8.8.8.8.8.8.8.8.8.8 G [ *.7.7.7.7.3.@.~ c 8.8.8.8.8.8.8.8.8.8.8.",
"8.8.8.8.8.8.8.8.8.d } <.6.7.7.7.7.7.5.X.F 6 8.8.8.8.8.8.8.8.8.8.",
"8.8.8.8.8.8.8.8.8.b ' ,.7.7.7.7.7.7.7.;.Y u 8.8.8.8.8.8.8.8.8.8.",
"8.8.8.8.8.8.8.8.8.N ) :.7.7.7.7.7.7.7.&.T s 8.8.8.8.8.8.8.8.8.8.",
"8.8.8.8.8.8.8.8.8.x / -.7.7.7.7.7.7.7.o.K w 8.8.8.8.8.8.8.8.8.8.",
"8.8.8.8.8.8.8.8.8.p P O.7.7.7.7.7.7.1.] C 7 8.8.8.8.8.8.8.8.8.8.",
"8.8.8.8.8.8.8.8.8.# V | ,.4.7.7.7.2. .U l 8.8.8.8.8.8.8.8.8.8.8.",
"8.8.8.8.8.8.8.8.- . g ! _ ..$.%.#.{ I n 5 8.8.2 8.8.8.8.8.8.8.8.",
"8.8.8.8.8.8.8.8.8.8.8.h B H R E L A z % 8.8.8.= 8.8.8.8.8.8.8.8.",
"8.8.8.8.8.8.8.8.8.8.8.; + 9 a f e t 1 8.  8.8.3 8.8.8.8.8.8.8.8.",
"8.8.8.8.8.8.8.8.8.8.8.8.8.8.8.8.8.8.4 * 8.8.8.8.8.8.8.8.8.8.8.8.",
"8.8.8.8.8.8.8.8.8.8.8.8.8.8.8.8.8.8.8.8.8.8.8.8.8.8.8.8.8.8.8.8.",
"8.8.8.8.8.8.8.8.8.8.8.8.8.8.8.8.8.8.8.8.8.8.8.8.8.8.8.8.8.8.8.8.",
"8.8.8.8.8.8.8.8.8.8.8.8.8.8.8.8.8.8.8.8.8.8.8.> : 8.8.8.8.8.8.8.",
"8.8.8.8.8.8.8.8.8.8.8.8.8.8.8.8.8.8.8.8.8.8.8.8.: 8.8.8.8.8.8.8.",
"8.8.8.8.8.8.8.8.8.8.8.8.8.8.8.8.8.8.8.8.8.8.8.8.8.8.8.8.8.8.8.8.",
"8.8.8.8.8.8.8.8.8.8.8.8.8.8.8.8.8.8.8.8.8.8.8.8.8.8.8.8.8.8.8.8.",
"8.8.8.8.8.8.8.8.8.8.8.8.8.8.8.8.8.8.8.8.8.8.8.8.8.8.8.8.8.8.8.8.",
"8.8.8.8.8.8.8.8.8.8.8.8.8.8.8.8.8.8.8.8.8.8.8.8.8.8.8.8.8.8.8.8.",
"8.8.8.8.8.8.8.8.8.8.8.8.8.8.8.8.8.8.8.8.8.8.8.8.8.8.8.8.8.8.8.8."
};
