/* XPM */
static char *result[] = {
/* columns rows colors chars-per-pixel */
"32 32 113 2 ",
"   c #4E324D",
".  c #4C354E",
"X  c #553152",
"o  c #5E355B",
"O  c #5E345C",
"+  c #5F355C",
"@  c #60355C",
"#  c #603D5F",
"$  c #703C65",
"%  c #703C69",
"&  c #763E6E",
"*  c #783F6F",
"=  c #52485A",
"-  c #55495C",
";  c #565158",
":  c #5D5962",
">  c #654D60",
",  c #644F67",
"<  c #7C5777",
"1  c #66626A",
"2  c #6F6A71",
"3  c #6D6874",
"4  c #6E6578",
"5  c #79727D",
"6  c #804173",
"7  c #814573",
"8  c #834275",
"9  c #854377",
"0  c #864376",
"q  c #834675",
"w  c #824E75",
"e  c #894479",
"r  c #8B4479",
"t  c #91477D",
"y  c #90487C",
"u  c #974A7F",
"i  c #895075",
"p  c #99617E",
"a  c #7C7382",
"s  c #954880",
"d  c #944A80",
"f  c #964A81",
"g  c #9B4B82",
"h  c #9C4B83",
"j  c #9E4D83",
"k  c #9F4E84",
"l  c #8C5C89",
"z  c #9C5484",
"x  c #A04D86",
"c  c #A54F88",
"v  c #A95085",
"b  c #AA5087",
"n  c #A7568A",
"m  c #AC528A",
"M  c #B7568D",
"N  c #B65D8F",
"B  c #A16180",
"V  c #C46193",
"C  c #C16094",
"Z  c #C56294",
"A  c #C56295",
"S  c #C66295",
"D  c #C76295",
"F  c #C56296",
"G  c #CC6396",
"H  c #C86898",
"J  c #CF6999",
"K  c #D06F9D",
"L  c #D578A3",
"P  c #D77AA3",
"I  c #D57BA6",
"U  c #D879A0",
"Y  c #D87BA4",
"T  c #D87CA5",
"R  c #D87EA7",
"E  c #DD80A6",
"W  c #DC80A7",
"Q  c #D682AB",
"!  c #DF88AB",
"~  c #E291B1",
"^  c #E392B2",
"/  c #E497B5",
"(  c #E7A3BE",
")  c #E8A3BE",
"_  c #E9A5BE",
"`  c #E5A5C1",
"'  c #EAA8C0",
"]  c #EAABC3",
"[  c #EBAEC4",
"{  c #ECB1C7",
"}  c #EDB6CA",
"|  c #F5B8C7",
" . c #F5CAD7",
".. c #F5CBD7",
"X. c #F5D0DC",
"o. c #F9DBE3",
"O. c #F8E0E8",
"+. c #F9E2E9",
"@. c #FDEEF1",
"#. c #FDEFF2",
"$. c #FCEFF3",
"%. c #FDF0F3",
"&. c #FCF2F6",
"*. c #FDF3F6",
"=. c #FFF7F8",
"-. c #FDF8FA",
";. c #FEFAFB",
":. c #FFFBFB",
">. c #FFFBFC",
",. c #FFFEFE",
"<. c #FFFFFE",
"1. c white",
"2. c None",
/* pixels */
"2.2.2.2.2.2.2.2.2.2.2.2.2.2.2.2.2.2.2.2.2.2.2.2.2.2.2.2.2.2.2.2.",
"2.2.2.2.2.2.2.2.2.2.2.2.2.2.2.2.2.2.2.2.2.2.2.2.2.2.2.2.2.2.2.2.",
"2.2.2.2.2.2.2.2.2.2.2.2.2.2.2.2.2.2.2.2.2.2.2.2.2.2.2.2.2.2.2.2.",
"2.2.2.2.2.2.2.2.2.2.2.2.2.2.2.2.2.2.2.2.2.2.2.2.2.2.2.2.2.2.2.2.",
"2.2.2.2.2.2.2.2.2.2.2.2.2.2.2.2.2.2.2.2.2.2.2.2.2.2.2.2.2.2.2.2.",
"2.2.2.2.2.2.2.2.2.2.2.2.2.2.2.2.2.2.2.2.2.2.2.2.2.2.2.2.2.2.2.2.",
"2.2.2.2.2.2.2.2.2.2.2.2.2.2.2.2.2.2.2.2.2.2.2.2.2.2.2.2.2.2.2.2.",
"2.2.2.2.2.2.2.2.2.2.2.5 2.2.2.2.2.2.2.2.2.2.2.2.2.2.2.2.2.2.2.2.",
"2.2.2.2.2.2.2.- 2.2.2.2 2.2.2.2.2.2.2.2.2.2.2.2.2.2.2.2.2.2.2.2.",
"2.2.2.2.2.2.2.2.2.2.2.2.p f j k h 0 o 2.2.4 2.2.2.2.2.2.2.2.2.2.",
"2.2.2.2.2.2.2.2.2.2.O d D W ' { ^ K m 7 2.: 2.2.2.2.2.2.2.2.2.2.",
"2.2.2.2.2.2.2.2.= , z G ] %.1.1.>.+.~ Z i 2.2.2.2.2.2.2.2.2.2.2.",
"2.2.2.2.2.2.2.2.2.w U [ :.1.1.1.1.1.@.! c # 2.2.2.2.2.2.2.2.2.2.",
"2.2.2.2.2.2.2.2.2.s R &.1.1.1.1.1.1.1.X.F l 1 2.2.2.2.2.2.2.2.2.",
"2.2.2.2.2.2.2.2.2.b ) <.1.1.1.1.1.1.1.*.I 9 2.2.2.2.2.2.2.2.2.2.",
"2.2.2.2.2.2.2.2.+ M } 1.1.1.1.1.1.1.1.-.Q r 2.2.2.2.2.2.2.2.2.2.",
"2.2.2.2.2.2.2.2.2.v ( 1.1.1.1.1.1.1.1.#.L 8 2.2.2.2.2.2.2.2.2.2.",
"2.2.2.2.2.2.2.2.2.t T $.1.1.1.1.1.1.1...A & 2.2.2.2.2.2.2.2.2.2.",
"2.2.2.2.2.2.2.2.2.$ V ` ;.1.1.1.1.1.O.Y x 2.2.2.2.2.2.2.2.2.2.2.",
"2.2.2.2.2.2.2.2.2.2.y H | o.=.,.#. .E C % 2.2.2.2.2.2.2.2.2.2.2.",
"2.2.2.2.2.2.2.2.2.2.. q N J / _ P S n B 2.2.2.2.2.2.2.2.2.2.2.2.",
"2.2.2.2.2.2.2.2.2.a ; 2.@ 6 u g e * 2.2.X 2.2.2.2.2.2.2.2.2.2.2.",
"2.2.2.2.2.2.2.2.2.2.3 2.2.2.2.2.2.2.2.2.  > 2.2.2.2.2.2.2.2.2.2.",
"2.2.2.2.2.2.2.2.2.2.2.2.2.2.2.2.2.2.2.2.2.< 2.2.2.2.2.2.2.2.2.2.",
"2.2.2.2.2.2.2.2.2.2.2.2.2.2.2.2.2.2.2.2.2.2.2.2.2.2.2.2.2.2.2.2.",
"2.2.2.2.2.2.2.2.2.2.2.2.2.2.2.2.2.2.2.2.2.2.2.2.2.2.2.2.2.2.2.2.",
"2.2.2.2.2.2.2.2.2.2.2.2.2.2.2.2.2.2.2.2.2.2.2.2.2.2.2.2.2.2.2.2.",
"2.2.2.2.2.2.2.2.2.2.2.2.2.2.2.2.2.2.2.2.2.2.2.2.2.2.2.2.2.2.2.2.",
"2.2.2.2.2.2.2.2.2.2.2.2.2.2.2.2.2.2.2.2.2.2.2.2.2.2.2.2.2.2.2.2.",
"2.2.2.2.2.2.2.2.2.2.2.2.2.2.2.2.2.2.2.2.2.2.2.2.2.2.2.2.2.2.2.2.",
"2.2.2.2.2.2.2.2.2.2.2.2.2.2.2.2.2.2.2.2.2.2.2.2.2.2.2.2.2.2.2.2.",
"2.2.2.2.2.2.2.2.2.2.2.2.2.2.2.2.2.2.2.2.2.2.2.2.2.2.2.2.2.2.2.2."
};
