/* XPM */
static char *result[] = {
/* columns rows colors chars-per-pixel */
"32 32 102 2 ",
"   c #502F4B",
".  c #502F4E",
"X  c #573252",
"o  c #5B3359",
"O  c #5C3B5C",
"+  c #613757",
"@  c #673A57",
"#  c #4C454F",
"$  c #4B4151",
"%  c #4B4550",
"&  c #4E4455",
"*  c #504557",
"=  c #524D55",
"-  c #514658",
";  c #53485B",
":  c #564A5E",
">  c #59535D",
",  c #75405D",
"<  c #5B4861",
"1  c #754061",
"2  c #774164",
"3  c #784166",
"4  c #7A4466",
"5  c #7A4567",
"6  c #774968",
"7  c #655E6D",
"8  c #76546F",
"9  c #785E75",
"0  c #804667",
"q  c #814866",
"w  c #80466A",
"e  c #854B6A",
"r  c #8E4D69",
"t  c #894E6C",
"y  c #914E74",
"u  c #975576",
"i  c #9A5679",
"p  c #965B7A",
"a  c #A0587C",
"s  c #A1587C",
"d  c #A25B7D",
"f  c #8F697E",
"g  c #B1627F",
"h  c #A45C81",
"j  c #AA6084",
"k  c #B16788",
"l  c #B06888",
"z  c #BF7292",
"x  c #C57694",
"c  c #C97494",
"v  c #D47F9B",
"b  c #CF819C",
"n  c #D6839E",
"m  c #DC8B9F",
"M  c #DD8AA1",
"N  c #E088A3",
"B  c #E18DA4",
"V  c #E697AD",
"C  c #E996AA",
"Z  c #EC98AC",
"A  c #EC9AAD",
"S  c #EE9BAF",
"D  c #EF9DAF",
"F  c #F09CAF",
"G  c #ED9CB0",
"H  c #F09EB0",
"J  c #F29EB1",
"K  c #F3A0B1",
"L  c #F3A9B6",
"P  c #F8AAB8",
"I  c #FCACB8",
"U  c #FAB0BC",
"Y  c #FDB4BF",
"T  c #FCB5C0",
"R  c #FDB6C1",
"E  c #FDB8C2",
"W  c #FEB9C3",
"Q  c #FEBAC3",
"!  c #FFBFC5",
"~  c #FFCCD2",
"^  c #FFCDD3",
"/  c #FFD0D5",
"(  c #FFDCDF",
")  c #FFE0E2",
"_  c #FFE4E7",
"`  c #FFE5E7",
"'  c #FFE7E9",
"]  c #FFE9EB",
"[  c #FFECED",
"{  c #FFECEE",
"}  c #FFEFF0",
"|  c #FFF0F1",
" . c #FFF1F2",
".. c #FFF2F3",
"X. c #FFF6F6",
"o. c #FFF8F9",
"O. c #FFF9F9",
"+. c #FFFBFB",
"@. c #FFFDFD",
"#. c #FFFEFE",
"$. c white",
"%. c None",
/* pixels */
"%.%.%.%.%.%.%.%.%.%.%.%.%.%.%.%.%.%.%.%.%.%.%.%.%.%.%.%.%.%.%.%.",
"%.%.%.%.%.%.%.%.%.%.%.%.%.%.%.%.%.%.%.%.%.%.%.%.%.%.%.%.%.%.%.%.",
"%.%.%.%.%.%.%.%.%.%.%.%.%.%.%.%.%.%.%.%.%.%.%.%.%.%.%.%.%.%.%.%.",
"%.%.%.%.%.%.%.%.%.%.%.%.%.%.%.%.%.%.%.%.%.%.%.%.%.%.%.%.%.%.%.%.",
"%.%.%.%.%.%.%.%.%.%.%.%.%.%.%.%.%.%.%.%.%.%.%.%.%.%.%.%.%.%.%.%.",
"%.%.%.%.%.%.%.%.%.%.%.%.%.%.%.%.%.%.%.%.%.%.%.%.%.%.%.%.%.%.%.%.",
"%.%.%.%.%.%.%.%.%.%.%.%.%.%.%.%.%.%.%.%.%.%.%.%.%.%.%.%.%.%.%.%.",
"%.%.%.%.%.%.%.%.%.%.%.%.%.%.%.%.%.%.%.%.%.%.%.%.%.%.%.%.%.%.%.%.",
"%.%.%.%.%.%.%.%.%.%.%.%.%.%.%.%.%.%.%.%.%.%.%.%.%.%.%.%.%.%.%.%.",
"%.%.%.%.%.%.%.%.* %.%.. X q i a u , %.%.%.%.%.%.%.%.%.%.%.%.%.%.",
"%.%.%.%.%.%.%.%.< O %.4 x D T E U B h + %.%.%.%.%.%.%.%.%.%.%.%.",
"%.%.%.%.%.%.%.%.%.%.y N ! ] o.+.X.) P b f %.%.%.%.%.%.%.%.%.%.%.",
"%.%.%.%.%.%.%.%.%.%.m !  .$.$.$.$.$._ I l %.%.%.%.%.%.%.%.%.%.%.",
"%.%.%.%.%.%.%.%.%.t L | $.$.$.$.$.$.$./ v %.%.%.%.%.%.%.%.%.%.%.",
"%.%.%.%.%.%.%.%.%.s E +.$.$.$.$.$.$.$.[ A 2 %.%.%.%.%.= %.%.%.%.",
"%.%.%.%.%.%.%.%.%.g W +.$.$.$.$.$.$.$.} G 3 %.%.%.%.%.%.%.%.%.%.",
"%.%.%.%.%.%.%.%.%.d R O.$.$.$.$.$.$.$.' C 1 %.%.%.%.%.%.%.%.%.%.",
"%.%.%.%.%.%.%.%.%.w Z ` $.$.$.$.$.$.@.~ c %.%.%.%.%.%.%.%.%.%.%.",
"%.%.%.%.%.%.%.%.%.%.z Q ..$.$.$.$.#.( F e > %.%.%.%.%.%.%.%.%.%.",
"%.%.%.%.%.%.%.%.%.%.6 n Y ( } } { ^ J j %.% %.%.%.%.%.%.%.%.%.%.",
"%.%.%.%.%.%.%.& %.%.%.8 k M H K S V p   %.; %.%.%.%.%.%.%.%.%.%.",
"%.%.%.%.%.%.%.%.%.%.%.%.%.@ 0 r 5 9 %.o %.%.%.%.%.%.%.%.%.%.%.%.",
"%.%.%.%.%.%.%.%.%.%.%.%.%.%.%.%.%.%.%.%.%.%.%.%.%.%.%.%.%.%.%.%.",
"%.%.%.%.%.%.%.%.%.%.7 %.%.%.%.%.%.%.%.%.%.%.: %.%.%.%.%.%.%.%.%.",
"%.%.%.%.%.%.%.%.%.%.# - %.%.%.%.%.%.%.%.%.%.%.%.%.%.%.%.%.%.%.%.",
"%.%.%.%.%.%.%.%.%.%.%.%.%.%.%.%.%.%.%.%.%.%.%.$ %.%.%.%.%.%.%.%.",
"%.%.%.%.%.%.%.%.%.%.%.%.%.%.%.%.%.%.%.%.%.%.%.%.%.%.%.%.%.%.%.%.",
"%.%.%.%.%.%.%.%.%.%.%.%.%.%.%.%.%.%.%.%.%.%.%.%.%.%.%.%.%.%.%.%.",
"%.%.%.%.%.%.%.%.%.%.%.%.%.%.%.%.%.%.%.%.%.%.%.%.%.%.%.%.%.%.%.%.",
"%.%.%.%.%.%.%.%.%.%.%.%.%.%.%.%.%.%.%.%.%.%.%.%.%.%.%.%.%.%.%.%.",
"%.%.%.%.%.%.%.%.%.%.%.%.%.%.%.%.%.%.%.%.%.%.%.%.%.%.%.%.%.%.%.%.",
"%.%.%.%.%.%.%.%.%.%.%.%.%.%.%.%.%.%.%.%.%.%.%.%.%.%.%.%.%.%.%.%."
};
