/* XPM */
static char *result[] = {
/* columns rows colors chars-per-pixel */
"32 32 86 1 ",
"  c #4A3049",
". c #483349",
"X c #483E4D",
"o c #493D4F",
"O c #573254",
"+ c #4C424D",
"@ c #4B4151",
"# c #4E4355",
"$ c #4F4455",
"% c #504556",
"& c #504557",
"* c #53485A",
"= c #58535B",
"- c #644554",
"; c #724A5C",
": c #5A4B60",
"> c #774E60",
", c #7F4F67",
"< c #7D4E68",
"1 c #605B64",
"2 c #7E5363",
"3 c #7A5066",
"4 c #7D5065",
"5 c #7F5867",
"6 c #7A526C",
"7 c #855168",
"8 c #8B5B6E",
"9 c #8D5F6C",
"0 c #90556A",
"q c #97626E",
"w c #9F687B",
"e c #AD6D7F",
"r c #7C7785",
"t c #A66D82",
"y c #A47684",
"u c #B57687",
"i c #B0778C",
"p c #BB7F8B",
"a c #888291",
"s c #C48194",
"d c #CB8895",
"f c #D38D9C",
"g c #C4909F",
"h c #D695A0",
"j c #DA95A3",
"k c #DC95A4",
"l c #E097A6",
"z c #E09DA7",
"x c #E19EAD",
"c c #E49FAD",
"v c #DFA0AD",
"b c #DAA4B2",
"n c #E6A2B1",
"m c #EDA6B1",
"M c #EDABB5",
"N c #F2AFB7",
"B c #F1B2BC",
"V c #F3B3BE",
"C c #F5B2BC",
"Z c #F3B9C4",
"A c #F8BAC3",
"S c #F8C2CB",
"D c #F1C9D1",
"F c #FDCAD0",
"G c #FECFD5",
"H c #FFD1D6",
"J c #FDD8DC",
"K c #FFDEE2",
"L c #FFE2E5",
"P c #FFE6E8",
"I c #FFE6E9",
"U c #FFE7E9",
"Y c #FFEAEC",
"T c #FFEDEE",
"R c #FFEEF0",
"E c #FFEFF0",
"W c #FFF1F2",
"Q c #FFF6F7",
"! c #FFF8F9",
"~ c #FFF9F9",
"^ c #FFFAFB",
"/ c #FFFBFB",
"( c #FFFDFD",
") c #FFFEFE",
"_ c white",
"` c None",
/* pixels */
"````````````````````````````````",
"````````````````````````````````",
"````````````````````````````````",
"````````````````````````````````",
"````````````````````````````````",
"````````````````````````````````",
"````a```````````````````````````",
"``````````@X````````````````````",
"```````````O````````````````````",
"```````&```.o`4<>````%``````````",
"````````````9hBVMdq``*``````````",
"````````# `pFW^/QLNi:```````````",
"``````````yJ/_____Pm2```````````",
"``````````v~_______Kg```````````",
"`````````,Z(_______Qb```````````",
"`````````0S)_______El```````````",
"`````````7C~_______Tf```````````",
"``````````kY_______Ge```````````",
"``````````wA~_____Iz````````````",
"```````````tDUQ!RHc8````````````",
"``````````6+5sxnju;-````````````",
"`````1`````````````3````````````",
"````````````````````````````````",
"`````````````````````$````r`````",
"````````````````````````````````",
"````````````````````````````````",
"````````````````````````````````",
"````````````````````````````````",
"``````````````````````````=`````",
"````````````````````````````````",
"````````````````````````````````",
"````````````````````````````````"
};
