/* XPM */
static char *result[] = {
/* columns rows colors chars-per-pixel */
"32 32 106 2 ",
"   c #483F4E",
".  c #513549",
"X  c #50304E",
"o  c #51304F",
"O  c #573750",
"+  c #62365B",
"@  c #68395F",
"#  c #6E3A5D",
"$  c #6D3F62",
"%  c #793E61",
"&  c #4D4354",
"*  c #4F4456",
"=  c #504B52",
"-  c #514759",
";  c #54495C",
":  c #5D4C5C",
">  c #71425F",
",  c #584C61",
"<  c #5D4C65",
"1  c #7C4266",
"2  c #615A65",
"3  c #854767",
"4  c #804169",
"5  c #824269",
"6  c #83456C",
"7  c #8A446C",
"8  c #89456F",
"9  c #8B566D",
"0  c #894571",
"q  c #8F4773",
"w  c #934874",
"e  c #954E75",
"r  c #9E4C77",
"t  c #835C76",
"y  c #8C5C72",
"u  c #9B5778",
"i  c #9B527C",
"p  c #A54F7B",
"a  c #A64F7D",
"s  c #A8517F",
"d  c #956979",
"f  c #A15586",
"g  c #AB5382",
"h  c #AE5283",
"j  c #AF5484",
"k  c #A75C80",
"l  c #B25586",
"z  c #BB5F8A",
"x  c #BE5C8D",
"c  c #B4648A",
"v  c #C46092",
"b  c #C96693",
"n  c #C66E92",
"m  c #CF6996",
"M  c #CE6A97",
"N  c #D16C99",
"B  c #D07297",
"V  c #D4719C",
"C  c #D7749E",
"Z  c #D3789A",
"A  c #DD7BA1",
"S  c #DE7CA1",
"D  c #DD7DA3",
"F  c #DF7DA2",
"G  c #DD7EA3",
"H  c #D4809E",
"J  c #DF81A5",
"K  c #E286A8",
"L  c #E38DAD",
"P  c #E38EAF",
"I  c #E991A8",
"U  c #E794B1",
"Y  c #E796B3",
"T  c #E897B3",
"R  c #F09EB4",
"E  c #EDA1B9",
"W  c #EEA2B9",
"Q  c #F2A4B7",
"!  c #F0A9BD",
"~  c #F1ABBE",
"^  c #EFAEC3",
"/  c #F1B1C4",
"(  c #F2B1C4",
")  c #F3BECD",
"_  c #F9C7D1",
"`  c #F9D0D9",
"'  c #F9D3DC",
"]  c #F9D6DF",
"[  c #FDE0E5",
"{  c #FDE1E6",
"}  c #FCE6EB",
"|  c #FEE9EC",
" . c #FDEAED",
".. c #FEEAED",
"X. c #FEECEF",
"o. c #FDEDF1",
"O. c #FFF4F5",
"+. c #FFF6F7",
"@. c #FFF9FA",
"#. c snow",
"$. c #FFFBFA",
"%. c #FFFBFB",
"&. c #FFFCFC",
"*. c #FFFFFE",
"=. c white",
"-. c None",
/* pixels */
"-.-.-.-.-.-.-.-.-.-.-.-.-.-.-.-.-.-.-.-.-.-.-.-.-.-.-.-.-.-.-.-.",
"-.-.-.-.-.-.-.-.-.-.-.-.-.-.-.-.-.-.-.-.-.-.-.-.-.-.-.-.-.-.-.-.",
"-.-.-.-.-.-.-.-.-.-.-.-.-.-.-.-.-.-.-.-.-.-.-.-.-.-.-.-.-.-.-.-.",
"-.-.-.-.-.-.-.-.-.-.-.-.-.-.-.-.-.-.-.-.-.-.-.-.-.-.-.-.-.-.-.-.",
"-.-.-.-.-.-.-.-.-.-.-.-.-.-.-.-.-.-.-.-.-.-.-.-.-.-.-.-.-.-.-.-.",
"-.-.-.-.-.-.-.-.-.-.-.-.-.-.-.-.-.-.-.-.-.-.-.-.-.-.-.-.-.-.-.-.",
"-.-.-.-.-.-.-.-.-.-.-.-.-.-.-.-.-.-.-.-.-.-.-.-.-.-.-.-.-.-.-.-.",
"-.-.-.-.-.-.-.-.-.-.-.-.-.-.-.-.-.-.-.-.-.-.-.-.-.-.-.-.-.-.-.-.",
"-.-.-.-.-.-.-.-.-.-.-.-.-.-.-.-.-.-.-.-.-.-.-.-.-.-.-.-.-.-.-.-.",
"-.-.-.-.-.-.-.-.-.-.-.o @ 7 p h r 5 -.-.-.-.-.-.-.-.-.-.-.-.-.-.",
"-.-.-.-.-.-.-.-.: t -.8 x G T Y P N l 1 -.-.-.-.-.-.-.-.-.-.-.-.",
"-.-.-.-.-.-.-.-.-.. 6 M ^ ..%.%.@.] L H y -.-.-.-.-.-.-.-.-.-.-.",
"-.-.-.-.-.-.-.-.-.> Z / &.=.=.=.=.=.o.! c -.-.-.-.-.-.-.-.-.-.-.",
"-.-.-.-.-.-.-.-.-.q J ..=.=.=.=.=.=.=.' b # -.-.-.-.-.-.-.-.-.-.",
"-.-.-.-.-.-.-.-.-.s W &.=.=.=.=.=.=.=. .C 0 -.-.-.-.= -.-.-.-.-.",
"-.-.-.-.-.-.-.-.-.j ( *.=.=.=.=.=.=.=.X.A w -.-.-.-.-.-.-.-.-.-.",
"-.-.-.-.-.-.-.-.-.a U #.=.=.=.=.=.=.=.} V 4 -.-.-.-.-.-.-.-.-.-.",
"-.-.-.-.-.-.-.-.-.q S [ =.=.=.=.=.=.=.) v $ -.-.-.-.-.-.-.-.-.-.",
"-.-.-.-.-.-.-.-.-.-.n ~ $.=.=.=.=.=.{ D f < -.-.-.-.-.-.-.-.-.-.",
"-.-.-.-.-.-.-.-.-.-.3 B E ` +.O.| _ K g O   -.-.-.-.-.-.-.-.-.-.",
"-.-.-.-.-.-.-.& & -.-.9 z m Q R F I k + -.* -.-.-.-.-.-.-.-.-.-.",
"-.-.-.-.-.-.-.-.-.-.-.-.-.% u i e d -.X -.-.-.-.-.-.-.-.-.-.-.-.",
"-.-.-.-.-.-.-.-.-.-.-.-.-.-.-.-.-.-.-.-.-.-.-.-.-.-.-.-.-.-.-.-.",
"-.-.-.-.-.-.-.-.-.-.2 -.-.-.-.-.-.-.-.-.-.-.- -.-.-.-.-.-.-.-.-.",
"-.-.-.-.-.-.-.-.-.-.-.; -.-.-.-.-.-.-.-.-.-.-.-.-.-.-.-.-.-.-.-.",
"-.-.-.-.-.-.-.-.-.-.-.-.-.-.-.-.-.-.-.-.-.-.-., -.-.-.-.-.-.-.-.",
"-.-.-.-.-.-.-.-.-.-.-.-.-.-.-.-.-.-.-.-.-.-.-.-.-.-.-.-.-.-.-.-.",
"-.-.-.-.-.-.-.-.-.-.-.-.-.-.-.-.-.-.-.-.-.-.-.-.-.-.-.-.-.-.-.-.",
"-.-.-.-.-.-.-.-.-.-.-.-.-.-.-.-.-.-.-.-.-.-.-.-.-.-.-.-.-.-.-.-.",
"-.-.-.-.-.-.-.-.-.-.-.-.-.-.-.-.-.-.-.-.-.-.-.-.-.-.-.-.-.-.-.-.",
"-.-.-.-.-.-.-.-.-.-.-.-.-.-.-.-.-.-.-.-.-.-.-.-.-.-.-.-.-.-.-.-.",
"-.-.-.-.-.-.-.-.-.-.-.-.-.-.-.-.-.-.-.-.-.-.-.-.-.-.-.-.-.-.-.-."
};
