/* XPM */
static char *result[] = {
/* columns rows colors chars-per-pixel */
"32 32 90 1 ",
"  c #4C2E4A",
". c #4C2F4B",
"X c #4F304D",
"o c #573151",
"O c #6B385A",
"+ c #6C395C",
"@ c #733D59",
"# c #713E5A",
"$ c #514153",
"% c #524C56",
"& c #534F57",
"* c #57535E",
"= c #7F425E",
"- c #5F4E66",
"; c #5F5B65",
": c #615C64",
"> c #63576C",
", c #635A69",
"< c #706778",
"1 c #854562",
"2 c #864562",
"3 c #864763",
"4 c #864564",
"5 c #8A4664",
"6 c #8A4765",
"7 c #8D4B6C",
"8 c #91496B",
"9 c #944F75",
"0 c #8A5071",
"q c #985472",
"w c #A45877",
"e c #A35779",
"r c #A75878",
"t c #A95B7A",
"y c #857C8E",
"u c #BC6487",
"i c #B46886",
"p c #B4688E",
"a c #C36B8C",
"s c #C57293",
"d c #CD7794",
"f c #CF7B98",
"g c #D17B97",
"h c #D57D9B",
"j c #D7809C",
"k c #D6819C",
"l c #D7819E",
"z c #D4829F",
"x c #D9849F",
"c c #D786A3",
"v c #DD86A3",
"b c #E18DA4",
"n c #E592A9",
"m c #E692AA",
"M c #EB9AAE",
"N c #EC9EB2",
"B c #EEA0B3",
"V c #EEA0B4",
"C c #EFA7B9",
"Z c #EAA7BC",
"A c #F0A4B6",
"S c #F4A7B8",
"D c #F4ABBC",
"F c #FBBEC8",
"G c #FABFCA",
"H c #FFCCD2",
"J c #FFD1D6",
"K c #FDD0D8",
"L c #FFDADF",
"P c #FFDBDF",
"I c #FFDEE2",
"U c #FFDFE3",
"Y c #FFE2E5",
"T c #FFE5E7",
"R c #FFE5E8",
"E c #FFE6E9",
"W c #FFEDEF",
"Q c #FFEFF0",
"! c #FFF0F1",
"~ c #FFF1F2",
"^ c #FFF2F3",
"/ c #FFF4F5",
"( c #FFF5F6",
") c #FFF6F6",
"_ c #FFF8F8",
"` c #FFFCFC",
"' c #FFFDFD",
"] c #FFFEFE",
"[ c white",
"{ c None",
/* pixels */
"{{{{{{{{{{{{{{{{{{{{{{{{{{{{{{{{",
"{{{{{{{{{{{{{{{{{{{{{{{{{{{{{{{{",
"{{{{{{{{{{{{{{{{{{{{{{{{{{{{{{{{",
"{{{{{{{{{{{{{{{{{{{{{{{{{{{{{{{{",
"{{{{{{{{{{{{{{{{{{{{{{{{{{{{{{{{",
"{{{{{{{{{{%{{{{{{{{{{{{{{{{{{{{{",
"{{{{{{{{{{{{{{{{{{{{{{{{{{{{{{{{",
"{{{{{{{{{{{{{{{{{{{{{{{{{{{{{{{{",
"{{{{{&{{{{{{{{{{{{{{{{{{{{{{{{{{",
"{{{{{*;{{{{{{{16={{{{y:{{{{{{{{{",
"{{{{{{{{{{{{wgMAna7{{{{{{{{{{{{{",
"{{{{{{{{{{{uSI^_WHm9{{{{{{{{{{{{",
"{{{{{{{{{{eD~[[[[]Pb3{{{{{{{{{{{",
"{{{{{{{{{{jY[[[[[['Ki{{{{{{{{{{{",
"{{{{{{{{{4V)[[[[[[[/cO{{{{{{{{{{",
"{{{{{{{{{5C`[[[[[[[Qv+{{{{{{{{{{",
"{{{{{{{{{2N([[[[[[[Ud{{{{{{{{{{{",
"{{{{{{{{{{fR[[[[[[[Gt{{{{{{{{{{{",
"{{{{{{{{{{qZT[[[[`Lz@{{{{{{{{{{{",
"{{{{{{{{X{{rBJE!EFh8{{{{{{{{{{{{",
"{{{{{{{{{{{$0skxlp#{{{{{{{{{{{{{",
"{{{{{{{{{{{{.o{{{-{{{{{{{{{{{{{{",
"{{{{{{{{{{{{ {{{{{{{{{{{{{{{{{{{",
"{{{{{{{{{{{{{{{{{{{{{{,{{{{{{{{{",
"{{{{{{{{{{{{{{{{{{{{{{<>{{{{{{{{",
"{{{{{{{{{{{{{{{{{{{{{{{{{{{{{{{{",
"{{{{{{{{{{{{{{{{{{{{{{{{{{{{{{{{",
"{{{{{{{{{{{{{{{{{{{{{{{{{{{{{{{{",
"{{{{{{{{{{{{{{{{{{{{{{{{{{{{{{{{",
"{{{{{{{{{{{{{{{{{{{{{{{{{{{{{{{{",
"{{{{{{{{{{{{{{{{{{{{{{{{{{{{{{{{",
"{{{{{{{{{{{{{{{{{{{{{{{{{{{{{{{{"
};
