/* XPM */
static char *result[] = {
/* columns rows colors chars-per-pixel */
"32 32 106 2 ",
"   c #4D2F4B",
".  c #4E2F4A",
"X  c #4C3049",
"o  c #583356",
"O  c #5B3455",
"+  c #553A57",
"@  c #61355A",
"#  c #65375C",
"$  c #66385F",
"%  c #623E5D",
"&  c #69385E",
"*  c #68385F",
"=  c #70395E",
"-  c #6C3960",
";  c #793E6B",
":  c #7C3F6B",
">  c #5B565F",
",  c #734763",
"<  c #7E406D",
"1  c #7E426C",
"2  c #615B67",
"3  c #69646D",
"4  c #76707A",
"5  c #77707B",
"6  c #7C777F",
"7  c #83446D",
"8  c #864371",
"9  c #844373",
"0  c #874470",
"q  c #884471",
"w  c #894573",
"e  c #8C4674",
"r  c #954977",
"t  c #944A7B",
"y  c #904D7A",
"u  c #984B7B",
"i  c #994D7C",
"p  c #9D4D7E",
"a  c #9F4E7F",
"s  c #94657C",
"d  c #7E6B81",
"f  c #7F6F82",
"g  c #7E718C",
"h  c #A75283",
"j  c #A55583",
"k  c #AE5688",
"l  c #AF558A",
"z  c #B05586",
"x  c #B5598A",
"c  c #B85B8B",
"v  c #BB5F8F",
"b  c #BC678F",
"n  c #BC6591",
"m  c #C06091",
"M  c #C16392",
"N  c #CA6996",
"B  c #CB6A97",
"V  c #CE719C",
"C  c #D17199",
"Z  c #D8799F",
"A  c #DD7DA2",
"S  c #DC7FA3",
"D  c #88838A",
"F  c #DD88A2",
"G  c #E083A5",
"H  c #E385A6",
"J  c #E489A8",
"K  c #E789A8",
"L  c #E48BA8",
"P  c #E48AA9",
"I  c #E68DA9",
"U  c #E890AD",
"Y  c #EE99AF",
"T  c #EF9AB1",
"R  c #EE9CB3",
"E  c #EEA2B8",
"W  c #F0A2B7",
"Q  c #F1A4B8",
"!  c #F2A8BB",
"~  c #F3A8BB",
"^  c #F3A9BB",
"/  c #F3ABBD",
"(  c #F6BAC7",
")  c #F7BAC8",
"_  c #FAC6D0",
"`  c #FCC8D1",
"'  c #FCCAD2",
"]  c #FFDDE1",
"[  c #FDDDE2",
"{  c #FFE2E6",
"}  c #FDE5E9",
"|  c #FFE9EB",
" . c #FFEBED",
".. c #FFECEE",
"X. c #FFEDEE",
"o. c #FFEFF0",
"O. c #FFF3F4",
"+. c #FFF6F7",
"@. c #FFF9F9",
"#. c snow",
"$. c #FFFBFB",
"%. c #FFFCFB",
"&. c #FFFCFC",
"*. c #FFFEFE",
"=. c white",
"-. c None",
/* pixels */
"-.-.-.-.-.-.-.-.-.-.-.-.-.-.-.-.-.-.-.-.-.-.-.-.-.-.-.-.-.-.-.-.",
"-.-.-.-.-.-.-.-.-.-.-.-.-.-.-.-.-.-.-.-.-.-.-.-.-.-.-.-.-.-.-.-.",
"-.-.-.-.-.-.-.-.-.-.-.-.-.-.-.-.-.-.-.-.-.-.-.-.-.-.-.-.-.-.-.-.",
"-.-.-.-.-.-.-.-.-.-.-.-.-.-.-.-.-.-.-.-.-.-.-.-.-.-.-.-.-.-.-.-.",
"-.-.-.-.-.-.-.-.-.-.-.-.-.-.-.-.-.-.-.-.-.-.-.-.-.-.-.-.-.-.-.-.",
"-.-.-.-.-.-.-.-.-.-.-.-.-.-.-.-.-.-.-.-.-.-.-.-.-.-.-.-.-.-.-.-.",
"-.-.-.-.-.-.-.-.-.-.6 -.-.-.-.-.-.-.-.-.-.-.-.-.-.-.-.-.-.-.-.-.",
"-.-.-.-.-.-.-.-.-.-.-.-.-.-.-.-.-.-.-.-.-.-.-.-.> -.-.-.-.-.-.-.",
"-.-.-.-.-.-.-.-.-.-.-.-.-.-.-.-.-.-.-.-.-.-.-.-.-.-.-.-.-.-.-.-.",
"-.-.-.-.-.-.3 -.-.-.-.-.@ 8 j n u < -.-.-.-.-.-.-.-.-.-.-.-.-.-.",
"-.-.-.-.-.-.-.D -.-.-.0 v G W ! R Z k = 4 5 -.-.-.-.-.-.-.-.-.-.",
"-.-.-.-.-.-.-.-.-.-.q C ) | @.&.+.] T c % -.-.-.-.-.-.-.-.-.-.-.",
"-.-.-.-.-.-.-.-.-.* m ( &.=.=.=.=.=.| U p -.-.-.-.-.-.-.-.-.-.-.",
"-.-.-.-.-.-.-.-.-.w P ..=.=.=.=.=.=.=.' N - -.-.-.-.-.-.-.-.-.-.",
"-.-.-.-.-.-.-.-.-.h ~ $.=.=.=.=.=.=.=. .L 1 -.-.-.-.-.-.-.-.-.-.",
"-.-.-.-.-.-.-.-.-.z ^ %.=.=.=.=.=.=.=.o.Y y -.-.-.-.-.-.-.-.-.-.",
"-.-.-.-.-.-.-.-.-.a Q #.=.=.=.=.=.=.=. .S : -.-.-.-.-.-.-.-.-.-.",
"-.-.-.-.-.-.-.-.-.9 A { =.=.=.=.=.=.*._ M # -.-.-.-.-.-.-.-.-.-.",
"-.-.-.-.-.-.-.-.-.O x E O.=.=.=.=.*.[ H t -.-.-.-.-.-.-.-.-.-.-.",
"-.-.-.-.-.-.-.-.-.o ; B / } o.o.X.` H l $ -.-.-.-.-.-.-.-.-.-.-.",
"-.-.-.-.-.-.-.-.-.-.-.s b V J K I F i $ -.-.-.-.-.-.-.-.-.-.-.-.",
"-.-.-.-.-.-.-.-.-.-.-.-.. & e r 7 , -.-.-.-.-.-.-.-.-.-.-.-.-.-.",
"-.-.-.-.-.-.-.-.g -.-.-.  -.-.-.-.-.-.-.-.d -.-.-.-.-.-.-.-.-.-.",
"-.-.-.-.-.-.-.-.-.-.-.-.-.-.-.-.-.-.-.-.-.f X -.-.-.-.-.-.-.-.-.",
"-.-.-.-.-.-.-.-.-.-.-.-.-.-.-.-.-.-.-.-.-.-.+ -.-.-.-.-.-.-.-.-.",
"-.-.-.-.-.-.-.-.-.-.-.-.-.-.-.-.-.-.-.-.-.-.-.2 -.-.-.-.-.-.-.-.",
"-.-.-.-.-.-.-.-.-.-.-.-.-.-.-.-.-.-.-.-.-.-.-.-.-.-.-.-.-.-.-.-.",
"-.-.-.-.-.-.-.-.-.-.-.-.-.-.-.-.-.-.-.-.-.-.-.-.-.-.-.-.-.-.-.-.",
"-.-.-.-.-.-.-.-.-.-.-.-.-.-.-.-.-.-.-.-.-.-.-.-.-.-.-.-.-.-.-.-.",
"-.-.-.-.-.-.-.-.-.-.-.-.-.-.-.-.-.-.-.-.-.-.-.-.-.-.-.-.-.-.-.-.",
"-.-.-.-.-.-.-.-.-.-.-.-.-.-.-.-.-.-.-.-.-.-.-.-.-.-.-.-.-.-.-.-.",
"-.-.-.-.-.-.-.-.-.-.-.-.-.-.-.-.-.-.-.-.-.-.-.-.-.-.-.-.-.-.-.-."
};
