/* XPM */
static char *result[] = {
/* columns rows colors chars-per-pixel */
"32 32 117 2 ",
"   c #5B3459",
".  c #673958",
"X  c #6B3A5F",
"o  c #6D3B5F",
"O  c #6F3D60",
"+  c #703C63",
"@  c #793E66",
"#  c #4A4050",
"$  c #4A4150",
"%  c #4D4354",
"&  c #504655",
"*  c #514C54",
"=  c #57525B",
"-  c #57535B",
";  c #6D4B63",
":  c #774161",
">  c #784C68",
",  c #68606F",
"<  c #7C787E",
"1  c #804267",
"2  c #8C4770",
"3  c #914873",
"4  c #924975",
"5  c #974C76",
"6  c #944978",
"7  c #984B79",
"8  c #9E567A",
"9  c #A04E7D",
"0  c #A24E7C",
"q  c #A9517E",
"w  c #A25D7E",
"e  c #7A7482",
"r  c #A45080",
"t  c #A85180",
"y  c #AD5382",
"u  c #AD5385",
"i  c #AE5385",
"p  c #AE5386",
"a  c #AD5584",
"s  c #B35586",
"d  c #B25487",
"f  c #BA598B",
"g  c #BF5B8B",
"h  c #AD6187",
"j  c #AB6D86",
"k  c #C05C8E",
"l  c #C45D91",
"z  c #C55E91",
"x  c #C65E91",
"c  c #C16591",
"v  c #C96193",
"b  c #C86492",
"n  c #CD6494",
"m  c #CF6597",
"M  c #D46998",
"N  c #D36C99",
"B  c #D66D99",
"V  c #D86D99",
"C  c #D86F9A",
"Z  c #D4729A",
"A  c #DD759D",
"S  c #D57B9D",
"D  c #DE7A9F",
"F  c #E07A9F",
"G  c #E07CA0",
"H  c #E27DA0",
"J  c #E17EA1",
"K  c #E27FA1",
"L  c #E482A2",
"P  c #E582A2",
"I  c #E583A3",
"U  c #E786A4",
"Y  c #E789A6",
"T  c #E789A7",
"R  c #EB8DA7",
"E  c #E68CAA",
"W  c #E78CAA",
"Q  c #ED92AA",
"!  c #ED92AB",
"~  c #F097AC",
"^  c #F098AD",
"/  c #F19BAE",
"(  c #F39BAE",
")  c #F29BAF",
"_  c #F29CAF",
"`  c #EFA6BB",
"'  c #ECA6BC",
"]  c #F4A3B4",
"[  c #F3A5B5",
"{  c #FEB9C1",
"}  c #FBC2CB",
"|  c #FDC0C8",
" . c #FEC2C9",
".. c #F9C9D3",
"X. c #FFCFD4",
"o. c #FFD3D7",
"O. c #FFD5D9",
"+. c #FED9DC",
"@. c #FFD9DD",
"#. c #FFDADD",
"$. c #FFDBDF",
"%. c #FFDCDE",
"&. c #FEDDE1",
"*. c #FFE3E5",
"=. c #FFE4E6",
"-. c #FFE7E8",
";. c #FFE9EB",
":. c #FFEAEC",
">. c #FFECED",
",. c #FFEDEE",
"<. c #FFF4F5",
"1. c #FFF7F7",
"2. c #FFFAFB",
"3. c #FFFBFC",
"4. c #FFFEFE",
"5. c white",
"6. c None",
/* pixels */
"6.6.6.6.6.6.6.6.6.6.6.6.6.6.6.6.6.6.6.6.6.6.6.6.6.6.6.6.6.6.6.6.",
"6.6.6.6.6.6.6.6.6.6.6.6.6.6.6.6.6.6.6.6.6.6.6.6.6.6.6.6.6.6.6.6.",
"6.6.6.6.6.6.6.6.6.6.6.6.6.6.6.6.6.6.6.6.6.6.6.6.6.6.6.6.6.6.6.6.",
"6.6.6.6.6.6.6.6.6.6.6.6.6.6.6.6.6.6.6.6.6.6.6.6.6.6.6.6.6.6.6.6.",
"6.6.6.6.6.6.6.6.6.6.6.6.6.6.6.6.6.6.6.6.6.6.6.6.6.6.6.6.6.6.6.6.",
"6.6.6.6.6.6.6.6.6.6.6.6.6.6.6.6.6.6.6.6.6.6.6.6.6.6.6.6.6.6.6.6.",
"6.6.6.6.6.6.6.6.6.6.6.6.6.6.6.6.6.6.6.6.6.6.6.6.6.6.6.6.6.6.6.6.",
"6.6.6.6.6.6.6.6.6.6.6.6.6.6.6.6.6.6.6.6.6.6.6.6.6.6.6.6.6.6.6.6.",
"6.6.6.6.6.6.6.6.6.6.6.6.6.6.6.o 6.6.6.6.6.6.6.6.6.6.6.6.6.6.6.6.",
"6.6.6.6.6.6.6.6.6.6.6.. 7 i g z f t 1 6.6.6.6.6.6.6.6.6.6.6.6.6.",
"6.6.6.6.6.6.6.6.6.6.> y M K ! _ Q F v 9 6.6.6.6.6.6.6.6.6.6.6.6.",
"6.6.6.6.6.6.6.6.6.; c V ] o.;.,.=. .~ D 5 6.6.6.6.6.6.6.6.6.6.6.",
"6.6.6.6.6.6.6.6.6.3 N [ *.5.5.5.5.2.%.` k + 6.6.6.6.6.6.6.6.6.6.",
"6.6.6.6.6.6.6.6.6.s Y +.5.5.5.5.5.5.4.} C 6 6.6.6.6.6.6.6.6.6.6.",
"6.6.6.6.6.6.6.6.o z / >.5.5.5.5.5.5.5.O.P u 6.6.6., 6.6.6.6.6.6.",
"6.6.6.6.6.6.6.6.o x ) ,.5.5.5.5.5.5.5.#.U d 6.6.6.6.6.6.6.6.6.6.",
"6.6.6.6.6.6.6.6.X l ^ ;.5.5.5.5.5.5.5.X.H q 6.6.6.6.6.6.6.6.6.6.",
"6.6.6.6.6.6.6.6.6.p J &.5.5.5.5.5.5.<.{ G 4 6.6.6.6.6.6.6.6.6.6.",
"6.6.6.6.6.6.6.6.6.2 m ' @.3.5.5.5.1.| R S O 6.6.6.6.6.6.6.6.6.6.",
"6.6.6.6.6.6.6.6.6.6.r B (  .:.-.$...L n j 6.6.6.6.6.6.6.6.6.6.6.",
"6.6.6.6.6.6.6.6.# 6.6.h Z A E W I T b 8 6.6.6.6.6.6.6.6.6.6.6.6.",
"6.6.6.6.6.* 6.6.6.6.6.6.@ 0 d d a w : 6.6.6.6.6.6.6.6.6.6.6.6.6.",
"6.6.6.6.6.6.6.6.6.6.6.< 6.6.6.6.6.6.6.6.6.  6.6.6.6.6.6.6.6.6.6.",
"6.6.6.6.6.6.6.6.6.6.6.& 6.6.6.6.6.6.6.6.6.6.6.6.6.6.6.6.6.6.6.6.",
"6.6.6.6.6.6.6.6.6.6.6.$ 6.6.6.6.6.6.6.6.6.6.6.% 6.6.6.6.6.6.6.6.",
"6.6.6.6.6.6.6.6.6.6.6.6.6.6.6.6.6.6.6.e 6.6.6.6.6.6.6.6.6.6.6.6.",
"6.6.6.6.6.6.6.6.6.6.= 6.6.6.6.6.6.6.6.6.6.6.6.6.6.6.6.6.6.6.6.6.",
"6.6.6.6.6.6.6.6.6.6.- 6.6.6.6.6.6.6.6.6.6.6.6.6.6.6.6.6.6.6.6.6.",
"6.6.6.6.6.6.6.6.6.6.6.6.6.6.6.6.6.6.6.6.6.6.6.6.6.6.6.6.6.6.6.6.",
"6.6.6.6.6.6.6.6.6.6.6.6.6.6.6.6.6.6.6.6.6.6.6.6.6.6.6.6.6.6.6.6.",
"6.6.6.6.6.6.6.6.6.6.6.6.6.6.6.6.6.6.6.6.6.6.6.6.6.6.6.6.6.6.6.6.",
"6.6.6.6.6.6.6.6.6.6.6.6.6.6.6.6.6.6.6.6.6.6.6.6.6.6.6.6.6.6.6.6."
};
