/* XPM */
static char *result[] = {
/* columns rows colors chars-per-pixel */
"32 32 122 2 ",
"   c #492C47",
".  c #493F4A",
"X  c #483F4E",
"o  c #58344D",
"O  c #533252",
"+  c #563255",
"@  c #583356",
"#  c #593257",
"$  c #5D345C",
"%  c #5E345C",
"&  c #5F345D",
"*  c #573D59",
"=  c #583C58",
"-  c #60345D",
";  c #663763",
":  c #653863",
">  c #6A3A66",
",  c #6C3A69",
"<  c #773E73",
"1  c #783D72",
"2  c #793F72",
"3  c #4B4151",
"4  c #524D56",
"5  c #52475A",
"6  c #55475C",
"7  c #55495D",
"8  c #555058",
"9  c #6A4F61",
"0  c #605967",
"q  c #7D4176",
"w  c #874673",
"e  c #844F76",
"r  c #83437A",
"t  c #87457B",
"y  c #8A487C",
"u  c #8F4B7F",
"i  c #8F6B79",
"p  c #904B81",
"a  c #954D82",
"s  c #934C84",
"d  c #954D86",
"f  c #945182",
"g  c #9B5186",
"h  c #9A5286",
"j  c #9D5187",
"k  c #9D5487",
"l  c #9C5489",
"z  c #A85A8D",
"x  c #A95C8C",
"c  c #AD5E8E",
"v  c #A95990",
"b  c #A16187",
"n  c #A5628B",
"m  c #B36194",
"M  c #B76495",
"N  c #B76795",
"B  c #BD6796",
"V  c #BA6896",
"C  c #BF6C99",
"Z  c #B37793",
"A  c #C16C9A",
"S  c #C8749C",
"D  c #CB769C",
"F  c #D87A9F",
"G  c #D27BA1",
"H  c #D77EA2",
"J  c #DA82A4",
"K  c #E38AA7",
"L  c #E08BA8",
"P  c #E58DA8",
"I  c #E98FA8",
"U  c #EA8EA8",
"Y  c #EE98AD",
"T  c #F099AD",
"R  c #F19BAE",
"E  c #F29CAF",
"W  c #E099B4",
"Q  c #F19EB1",
"!  c #F4A0B0",
"~  c #F5A1B1",
"^  c #F4A1B2",
"/  c #F7A3B2",
"(  c #F7A5B3",
")  c #FCABB6",
"_  c #FCACB6",
"`  c #FCACB7",
"'  c #F6ADBB",
"]  c #FDB1BB",
"[  c #FDB5BE",
"{  c #FDB6BF",
"}  c #FEB6BF",
"|  c #FFB9C0",
" . c #FDBAC2",
".. c #FFBEC4",
"X. c #FFC3C8",
"o. c #FFC7CC",
"O. c #FFC8CD",
"+. c #FFCDD2",
"@. c #FFCFD3",
"#. c #FFD5D8",
"$. c #FFD9DC",
"%. c #FFDCDF",
"&. c #FFDEE1",
"*. c #FFDFE1",
"=. c #FFE1E3",
"-. c #FFE5E8",
";. c #FFE6E8",
":. c #FFE8EA",
">. c #FFEBED",
",. c #FFECEE",
"<. c #FFEEF0",
"1. c #FFEFF0",
"2. c #FFF2F3",
"3. c #FFF5F6",
"4. c #FFF7F8",
"5. c #FFF8F9",
"6. c #FFF9F9",
"7. c snow",
"8. c #FFFCFC",
"9. c #FFFDFD",
"0. c white",
"q. c None",
/* pixels */
"q.q.q.q.q.q.q.q.q.q.q.q.q.q.q.q.q.q.q.q.q.q.q.q.q.q.q.q.q.q.q.q.",
"q.q.q.q.q.q.q.q.q.q.q.q.q.q.q.q.q.q.q.q.q.q.q.q.q.q.q.q.q.q.q.q.",
"q.q.q.q.q.q.q.q.q.q.q.q.q.q.q.q.q.q.q.q.q.q.q.q.q.q.q.q.q.q.q.q.",
"q.q.q.q.q.q.q.q.q.q.q.q.q.q.q.q.q.q.q.q.q.q.q.q.q.q.q.q.q.q.q.q.",
"q.q.q.q.q.q.q.q.q.q.q.q.q.q.q.q.q.q.q.q.q.q.q.q.q.q.q.q.q.q.q.q.",
"q.q.q.q.q.q.q.q.q.q.q.q.q.q.q.q.q.q.q.q.q.q.q.q.q.q.q.q.q.q.q.q.",
"q.q.q.q.q.q.q.q.q.q.q.q.q.q.q.q.q.q.q.q.q.q.q.q.q.q.q.q.q.q.q.q.",
"q.q.q.q.q.q.q.q.q.q.q.q.q.q.q.q.q.q.q.q.q.q.q.q.q.q.q.q.q.q.q.q.",
"q.q.q.q.q.q.q.q.q.q.q.q.q.q.q.$ q.q.q.q.q.q.q.q.q.q.q.q.q.q.q.q.",
"q.q.q.q.q.q.q.q.6 q.q.+ < h c m z u ; q.q.q.q.q.q.q.q.q.q.q.q.q.",
"q.q.q.q.q.q.q.q.* @ # p G ~ ] { ` Y C t q.q.q.q.q.q.q.q.q.q.q.q.",
"q.q.q.q.q.q.q.q.q.o k K | *.2.4.>.+._ F n q.q.q.q.q.q.q.q.q.q.q.",
"q.q.q.q.q.q.q.q.q.w I | 1.0.0.0.0.9.&.) N : q.q.q.q.q.q.q.q.q.q.",
"q.q.q.q.q.q.q.q.q.g ' :.0.0.0.0.0.0.8.O.L q q.q.q.q.q.q.q.q.q.q.",
"q.q.q.q.q.q.q.q.% M  .5.0.0.0.0.0.0.0.>.Q s q.q.q.q.q.8 8 q.q.q.",
"q.q.q.q.q.q.q.q.- D ..7.0.0.0.0.0.0.0.,.^ j q.q.q.q.q.q.q.q.q.q.",
"q.q.q.q.q.q.q.q.& B [ 3.0.0.0.0.0.0.0.%.T y q.q.q.q.q.q.q.q.q.q.",
"q.q.q.q.q.q.q.q.q.d R $.0.0.0.0.0.0.8.o.J 2 q.q.q.q.q.q.q.q.q.q.",
"q.q.q.q.q.q.q.q.q.e H | -.0.0.0.0.6.#./ v = q.q.q.q.q.q.q.q.q.q.",
"q.q.q.q.q.q.q.q.q.9 f W } @.;.<.=.X.! A 1 . 4 q.q.q.q.q.q.q.q.q.",
"q.q.q.q.q.q.q.3 q.q.O b S P ( ` E U V , q.q.7 q.q.q.q.q.q.q.q.q.",
"q.q.q.q.q.q.q.q.q.q.q.q.> r l x a Z i   q.q.q.q.q.q.q.q.q.q.q.q.",
"q.q.q.q.q.q.q.q.q.q.q.q.q.q.q.q.q.q.q.q.q.q.q.q.q.q.q.q.q.q.q.q.",
"q.q.q.q.q.q.q.q.q.q.q.q.q.q.q.q.q.q.q.q.q.q.q.q.q.q.q.q.q.q.q.q.",
"q.q.q.q.q.q.q.q.q.q.0 q.q.q.q.q.q.q.q.q.q.q.q.X q.q.q.q.q.q.q.q.",
"q.q.q.q.q.q.q.q.q.q.q.q.q.q.q.q.q.q.q.q.q.q.q.5 q.q.q.q.q.q.q.q.",
"q.q.q.q.q.q.q.q.q.q.q.q.q.q.q.q.q.q.q.q.q.q.q.q.q.q.q.q.q.q.q.q.",
"q.q.q.q.q.q.q.q.q.q.q.q.q.q.q.q.q.q.q.q.q.q.q.q.q.q.q.q.q.q.q.q.",
"q.q.q.q.q.q.q.q.q.q.q.q.q.q.q.q.q.q.q.q.q.q.q.q.q.q.q.q.q.q.q.q.",
"q.q.q.q.q.q.q.q.q.q.q.q.q.q.q.q.q.q.q.q.q.q.q.q.q.q.q.q.q.q.q.q.",
"q.q.q.q.q.q.q.q.q.q.q.q.q.q.q.q.q.q.q.q.q.q.q.q.q.q.q.q.q.q.q.q.",
"q.q.q.q.q.q.q.q.q.q.q.q.q.q.q.q.q.q.q.q.q.q.q.q.q.q.q.q.q.q.q.q."
};
