/* XPM */
static char *result[] = {
/* columns rows colors chars-per-pixel */
"32 32 111 2 ",
"   c #4D3C4E",
".  c #593356",
"X  c #5B3458",
"o  c #5F355B",
"O  c #603E54",
"+  c #67385C",
"@  c #6C3A5B",
"#  c #673862",
"$  c #623C61",
"%  c #713D6A",
"&  c #763D6A",
"*  c #753D6C",
"=  c #743F6E",
"-  c #793E6E",
";  c #7E3F72",
":  c #4C4352",
">  c #53485B",
",  c #5B5561",
"<  c #634365",
"1  c #724F65",
"2  c #7D4068",
"3  c #754B69",
"4  c #635567",
"5  c #635C68",
"6  c #645A6C",
"7  c #794370",
"8  c #7F4073",
"9  c #7D4074",
"0  c #696571",
"q  c #6C6771",
"w  c #6E6574",
"e  c #6F6678",
"r  c #804171",
"t  c #834177",
"y  c #824276",
"u  c #844276",
"i  c #8B4579",
"p  c #8F4679",
"a  c #8C4C7A",
"s  c #8B4D7E",
"d  c #97497F",
"f  c #8D5279",
"g  c #946D7C",
"h  c #787380",
"j  c #7F7586",
"k  c #964A82",
"l  c #9A4A83",
"z  c #9A4B83",
"x  c #9B4E82",
"c  c #9E4D84",
"v  c #8A5980",
"b  c #A24E85",
"n  c #A04D86",
"m  c #A05085",
"M  c #AF558C",
"N  c #AD588B",
"B  c #B5598E",
"V  c #B9598C",
"C  c #B95B92",
"Z  c #B85E92",
"A  c #BA5E93",
"S  c #BD5E93",
"D  c #C15F94",
"F  c #C16496",
"G  c #CD6897",
"H  c #CA6898",
"J  c #CE6F9C",
"K  c #CF719D",
"L  c #D3729D",
"P  c #D4749F",
"I  c #D5749F",
"U  c #D376A0",
"Y  c #D476A1",
"T  c #D677A1",
"R  c #D778A1",
"E  c #DF88AB",
"W  c #E18AAB",
"Q  c #E78EAB",
"!  c #E18BAC",
"~  c #E790AB",
"^  c #E593B1",
"/  c #E899B4",
"(  c #E89BB6",
")  c #EB9DB6",
"_  c #EDA1B7",
"`  c #ECA9C0",
"'  c #ECAAC0",
"]  c #F1B0C2",
"[  c #F1B1C4",
"{  c #F4BECD",
"}  c #F6C6D2",
"|  c #F6CAD7",
" . c #F9D5DE",
".. c #FAD6DE",
"X. c #F8DAE3",
"o. c #FDDFE4",
"O. c #FCE6EB",
"+. c #FEE9EC",
"@. c #FDEAEE",
"#. c #FDEBEE",
"$. c #FEEBEE",
"%. c #FEECEF",
"&. c #FDEDF0",
"*. c #FFF2F4",
"=. c #FFF6F6",
"-. c snow",
";. c #FFFBFB",
":. c #FFFCFC",
">. c #FFFFFE",
",. c white",
"<. c None",
/* pixels */
"<.<.<.<.<.<.<.<.<.<.<.<.<.<.<.<.<.<.<.<.<.<.<.<.<.<.<.<.<.<.<.<.",
"<.<.<.<.<.<.<.<.<.<.<.<.<.<.<.<.<.<.<.<.<.<.<.<.<.<.<.<.<.<.<.<.",
"<.<.<.<.<.<.<.<.<.<.<.<.<.<.<.<.<.<.<.<.<.<.<.<.<.<.<.<.<.<.<.<.",
"<.<.<.<.<.<.<.<.<.<.<.<.<.<.<.<.<.<.<.<.<.<.<.<.<.<.<.<.<.<.<.<.",
"<.<.<.<.<.<.<.<.<.<.<.<.<.<.<.<.<.<.<.<.<.<.<.<.<.<.<.<.<.<.<.<.",
"<.<.<.<.<.<.<.<.<.<.<.<.<.<.<.<.<.<.<.<.<.<.<.<.<.<.<.<.<.<.<.<.",
"<.<.<.<.<.<.<.<.<.<.<.<.<.<.<.<.<.<.<.<.<.<.<.<.<.<.<.<.<.<.<.<.",
"<.<.<.<.<.<.<.<.<.<.<.w <.<.<.<.<.<.<.<.<.<.<.<.<.<.<.<.<.<.<.<.",
"<.<.<.<.<.<.<.<.<.<.<.: <.<.<.<.<.<.<.<.<.<.<.<.<.<.<.<.<.<.<.<.",
"<.<.<.<.<.<.<.<.<.<.<.<.< ; x m p * <.<.<.5 e <.<.<.<.<.<.<.<.<.",
"<.<.<.<.<.<.<.<.<.<.<.9 M Y ) _ W H b % X <.<.<.<.<.<.<.<.<.<.<.",
"<.<.<.<.<.<.<.<.6 4 s D ' +.;.;.=. .! C 7 <.<.<.<.<.<.<.<.<.<.<.",
"<.<.<.<.<.<.<.<.<.3 F ` ;.,.,.,.,.,.&.E d <.<.<.<.<.<.<.<.<.<.<.",
"<.<.<.<.<.<.<.<.<.t U +.,.,.,.,.,.,.,.| S $ 0 <.<.<.<.<.<.<.<.<.",
"<.<.<.<.<.<.<.<.<.z ( :.,.,.,.,.,.,.,.@.K - <.<.<.<.<.<.<.<.<.<.",
"<.<.<.<.<.<.<.<.<.c [ >.,.,.,.,.,.,.,.@.I u <.<.<.<.<.<.<.<.<.<.",
"<.<.<.<.<.<.<.<.<.l ^ -.,.,.,.,.,.,.,.O.J & <.<.<.<.<.<.<.<.<.<.",
"<.<.<.<.<.<.<.<.<.y L o.,.,.,.,.,.,.,.{ B o <.<.<.<.<.<.<.<.<.<.",
"<.<.<.<.<.<.<.<.<.+ V / *.,.,.,.,.,.X.T i <.<.<.<.<.<.<.<.<.<.<.",
"<.<.<.<.<.<.<.<.<.<.r Z ] ..$.%.#.} R n . <.<.<.<.<.<.<.<.<.<.<.",
"<.<.<.<.<.<.<.<.<.<.<.= N G ~ Q P A k v O <.<.<.<.<.<.<.<.<.<.<.",
"<.<.<.<.<.<.<.<.<.j <.<.@ 2 f a 8 # <.<.  <.<.<.<.<.<.<.<.<.<.<.",
"<.<.<.<.<.<.<.<.<., q <.<.<.<.<.<.<.<.<.> <.<.<.<.<.<.<.<.<.<.<.",
"<.<.<.<.<.<.<.<.<.<.<.<.<.<.<.<.<.<.<.<.<.g 1 <.<.<.<.<.<.<.<.<.",
"<.<.<.<.<.<.<.<.<.<.<.<.<.<.<.<.<.<.<.h <.<.<.<.<.<.<.<.<.<.<.<.",
"<.<.<.<.<.<.<.<.<.<.<.<.<.<.<.<.<.<.<.<.<.<.<.<.<.<.<.<.<.<.<.<.",
"<.<.<.<.<.<.<.<.<.<.<.<.<.<.<.<.<.<.<.<.<.<.<.<.<.<.<.<.<.<.<.<.",
"<.<.<.<.<.<.<.<.<.<.<.<.<.<.<.<.<.<.<.<.<.<.<.<.<.<.<.<.<.<.<.<.",
"<.<.<.<.<.<.<.<.<.<.<.<.<.<.<.<.<.<.<.<.<.<.<.<.<.<.<.<.<.<.<.<.",
"<.<.<.<.<.<.<.<.<.<.<.<.<.<.<.<.<.<.<.<.<.<.<.<.<.<.<.<.<.<.<.<.",
"<.<.<.<.<.<.<.<.<.<.<.<.<.<.<.<.<.<.<.<.<.<.<.<.<.<.<.<.<.<.<.<.",
"<.<.<.<.<.<.<.<.<.<.<.<.<.<.<.<.<.<.<.<.<.<.<.<.<.<.<.<.<.<.<.<."
};
