/* XPM */
static char *_880bdf7e65d4965849e577cef7750bbIbws3KyUqRuUECG4[] = {
/* columns rows colors chars-per-pixel */
"32 32 2 1 ",
"  c None",
". c white",
/* pixels */
"                                ",
"                                ",
"                                ",
"                                ",
"                                ",
"                                ",
"                                ",
"                                ",
"                                ",
"                                ",
"                                ",
"                .               ",
"            .  ..               ",
"             ......             ",
"             ......             ",
"            ........            ",
"           ..........           ",
"             ......             ",
"             ......             ",
"               ..  .            ",
"                .               ",
"                                ",
"                                ",
"                                ",
"                                ",
"                                ",
"                                ",
"                                ",
"                                ",
"                                ",
"                                ",
"                                "
};
