/* XPM */
static char *result[] = {
/* columns rows colors chars-per-pixel */
"32 32 105 2 ",
"   c #4B3E4F",
".  c #53304F",
"X  c #5A3855",
"o  c #5A3458",
"O  c #5F355B",
"+  c #603456",
"@  c #65365D",
"#  c #68385F",
"$  c #663A60",
"%  c #6F3B63",
"&  c #6F3A64",
"*  c #6E3A69",
"=  c #753D6C",
"-  c #4C474E",
";  c #4A4050",
":  c #4E4354",
">  c #4F4556",
",  c #524D55",
"<  c #584E5E",
"1  c #555058",
"2  c #59545D",
"3  c #5C5760",
"4  c #5D5861",
"5  c #5F5A64",
"6  c #7B416B",
"7  c #7B506E",
"8  c #7E4170",
"9  c #7F4170",
"0  c #804270",
"q  c #874671",
"w  c #874472",
"e  c #834474",
"r  c #854576",
"t  c #864577",
"y  c #894F75",
"u  c #934B7B",
"i  c #924C7A",
"p  c #875E71",
"a  c #87517D",
"s  c #7A6D86",
"d  c #9F5181",
"f  c #9E5381",
"g  c #A05582",
"h  c #A65786",
"j  c #A55883",
"k  c #A35886",
"l  c #A35788",
"z  c #AB5989",
"x  c #AA598A",
"c  c #AF5C8A",
"v  c #AC6C87",
"b  c #B56490",
"n  c #C06B95",
"m  c #C36897",
"M  c #C66D95",
"N  c #D1779E",
"B  c #B6849B",
"V  c #C881A7",
"C  c #DE85A0",
"Z  c #D983A5",
"A  c #DB86A7",
"S  c #CB97B6",
"D  c #E187A8",
"F  c #E690AC",
"G  c #E996B0",
"H  c #E49FB7",
"J  c #EA98B1",
"K  c #EAA3BA",
"L  c #EDA5BA",
"P  c #F0A7BA",
"I  c #F3AABD",
"U  c #F0ACBE",
"Y  c #F4AFBF",
"T  c #F6B3C2",
"R  c #F9B2C0",
"E  c #F9B8C5",
"W  c #F0B8C9",
"Q  c #F5BBC9",
"!  c #F8BFCB",
"~  c #EBBCD0",
"^  c #FBC3CD",
"/  c #FCC6CF",
"(  c #F8C6D2",
")  c #FDC8D0",
"_  c #FDCAD2",
"`  c #FDCCD4",
"'  c #FED8DD",
"]  c #FFE7E9",
"[  c #FDE7EA",
"{  c #FFE9EB",
"}  c #FFECEE",
"|  c #FFEDEF",
" . c #FFF1F1",
".. c #FFF5F5",
"X. c #FFF6F6",
"o. c #FFF7F8",
"O. c #FFF9F9",
"+. c snow",
"@. c #FFFBFB",
"#. c #FFFCFC",
"$. c #FFFDFD",
"%. c #FFFEFE",
"&. c #FFFFFE",
"*. c white",
"=. c None",
/* pixels */
"=.=.=.=.=.=.=.=.=.=.=.=.=.=.=.=.=.=.=.=.=.=.=.=.=.=.=.=.=.=.=.=.",
"=.=.=.=.=.=.=.=.=.=.=.=.=.=.=.=.=.=.=.=.=.=.=.=.=.=.=.=.=.=.=.=.",
"=.=.=.=.=.=.=.=.=.=.=.=.=.=.=.=.=.=.=.=.=.=.=.=.=.=.=.=.=.=.=.=.",
"=.=.=.=.=.=.=.=.=.=.=.=.=.=.=.=.=.=.=.=.=.=.=.=.=.=.=.=.=.=.=.=.",
"=.=.=.=.=.=.=.=.=.=.=.=.=.=.=.=.=.=.=.=.=.=.=.=.=.=.=.=.=.=.=.=.",
"=.=.=.=.=.=.=.=.=.=.=.=.=.=.=.=.=.=.=.=.=.=.=.=.=.=.=.=.=.=.=.=.",
"=.=.=.=.=.=.=.=.=.=.=.=.=.=.=.=.=.=.=.=.=.=.=.=.=.=.=.=.=.=.=.=.",
"=.=.=.=.=.=.3 =.=.=.=.: =.=.=.=.=.=.=.=.=.=.=.=.=.=.=.=.=.=.=.=.",
"=.=.=.=.=.=.1 =.=.=.=.  =.=.=.=.=.=.=.=.=.=.=.=.=.=.=.=.=.=.=.=.",
"=.=.=.=.=.=.=.=.o =.=.=.* w f k i = =.=.=.=.=.=.=.=.=.=.=.=.=.=.",
"=.=.=.=.=.=.=.=.=.=.=.8 m G E _ Y A h @ ; =.=.=.=.=.=.=.=.=.=.=.",
"=.=.=.=.=.=.=.=.=.. q N / ..$.*.#.] T b X =.=.=.=.=.=.=.=.=.=.=.",
"=.=.=.=.=.=.=.=.=.p C ) @.*.*.*.*.*.#.W d =.=.=.=.=.=.=.=.=.=.=.",
"=.=.=.=.=.=.=.=.=.v R X.*.*.*.*.*.*.*.[ V # =.=.=.=.=.=.=.=.=.=.",
"=.=.=.=.=.=.=.=.=.g ^ &.*.*.*.*.*.*.*.o.H 6 =.=.=.=.=.=.=.=.=.=.",
"=.=.=.=.=.=.=.=.=.c ` *.*.*.*.*.*.*.*.O.P r =.=.=.=.=.=.=.=.=.=.",
"=.=.=.=.=.=.=.=.=.l ( %.*.*.*.*.*.*.*. .F 9 =.=.=.=.=.=.=.=.=.=.",
"=.=.=.=.=.=.=.=.=.a ~ ..*.*.*.*.*.*.*.' M + =.=.=.=.=.=.=.=.=.=.",
"=.=.=.=.=.=.=.=.=.O n ! #.*.*.*.*.*.| J u =.=.=.=.=.=.=.=.=.=.=.",
"=.=.=.=.=.=.=.=.=.=.B D Q } @.$.+.{ I z =.=.=.=.=.=.=.=.=.=.=.=.",
"=.=.=.=.=.=.=., =.=.7 y x Z L U K S j % =.=.=.=.2 =.=.=.=.=.=.=.",
"=.=.=.=.=.=.=.=.=.=.=.=.=.& e t 0 $ =.=.=.=.=.=.- =.=.=.=.=.=.=.",
"=.=.=.=.=.=.=.=.=.=.=.=.=.=.=.=.=.=.=.=.> =.=.=.5 =.=.=.=.=.=.=.",
"=.=.=.=.=.=.=.=.=.=.=.=.=.=.=.=.=.=.=.4 =.=.=.=.=.=.=.=.=.=.=.=.",
"=.=.=.=.=.=.=.=.=.=.=.=.=.=.=.=.=.=.=.=.=.=.=.=.=.=.=.=.=.=.=.=.",
"=.=.=.=.=.=.=.=.=.=.=.=.=.=.=.=.=.=.=.=.=.=.=.=.=.=.=.=.=.=.=.=.",
"=.=.=.=.=.=.=.=.=.=.=.=.=.=.=.=.=.=.=.=.=.=.=.=.s < =.=.=.=.=.=.",
"=.=.=.=.=.=.=.=.=.=.=.=.=.=.=.=.=.=.=.=.=.=.=.=.=.=.=.=.=.=.=.=.",
"=.=.=.=.=.=.=.=.=.=.=.=.=.=.=.=.=.=.=.=.=.=.=.=.=.=.=.=.=.=.=.=.",
"=.=.=.=.=.=.=.=.=.=.=.=.=.=.=.=.=.=.=.=.=.=.=.=.=.=.=.=.=.=.=.=.",
"=.=.=.=.=.=.=.=.=.=.=.=.=.=.=.=.=.=.=.=.=.=.=.=.=.=.=.=.=.=.=.=.",
"=.=.=.=.=.=.=.=.=.=.=.=.=.=.=.=.=.=.=.=.=.=.=.=.=.=.=.=.=.=.=.=."
};
