/* XPM */
static char *result[] = {
/* columns rows colors chars-per-pixel */
"32 32 108 2 ",
"   c #4F354B",
".  c #4C3A4C",
"X  c #593354",
"o  c #69395C",
"O  c #6B3A5C",
"+  c #783E65",
"@  c #4B4151",
"#  c #4C4550",
"$  c #4E4354",
"%  c #504557",
"&  c #534E56",
"*  c #504658",
"=  c #564B5F",
"-  c #57525A",
";  c #59545D",
":  c #7D5175",
">  c #69656F",
",  c #804567",
"<  c #824467",
"1  c #85446B",
"2  c #84446F",
"3  c #814270",
"4  c #8D4670",
"5  c #8B4873",
"6  c #8B4A72",
"7  c #934976",
"8  c #944A75",
"9  c #954977",
"0  c #984E77",
"q  c #914878",
"w  c #9F4D7B",
"e  c #9C507C",
"r  c #A24E7A",
"t  c #A04E7D",
"y  c #A24E7F",
"u  c #A7507F",
"i  c #9F657A",
"p  c #9E5E82",
"a  c #AD5284",
"s  c #AE5384",
"d  c #B05386",
"f  c #B15486",
"g  c #B25586",
"h  c #B55687",
"j  c #B5598A",
"k  c #BC5A89",
"l  c #BA5C8B",
"z  c #BA588C",
"x  c #BE598C",
"c  c #CC6294",
"v  c #CA6B95",
"b  c #CC6A97",
"n  c #D26797",
"m  c #D26997",
"M  c #D26B97",
"N  c #D56B98",
"B  c #D56C98",
"V  c #C87793",
"C  c #D4719C",
"Z  c #D9729C",
"A  c #D9779C",
"S  c #DB759E",
"D  c #DC789F",
"F  c #DD789F",
"G  c #DF7BA0",
"H  c #DE7BA1",
"J  c #DB7EA0",
"K  c #E07EA2",
"L  c #E180A4",
"P  c #E385A6",
"I  c #E488A8",
"U  c #E68DAA",
"Y  c #E790AE",
"T  c #E995B0",
"R  c #ED9DB5",
"E  c #ED9EB5",
"W  c #EC9EB6",
"Q  c #EC9FB6",
"!  c #E69CBA",
"~  c #ECA0B8",
"^  c #F0A5B9",
"/  c #F3A9BB",
"(  c #F3B3C3",
")  c #F3B4C5",
"_  c #F4B6C6",
"`  c #F9C4CE",
"'  c #F9C7D1",
"]  c #FACCD5",
"[  c #FBCED6",
"{  c #F9D0D9",
"}  c #FCDBE0",
"|  c #FEDFE3",
" . c #FEE1E4",
".. c #FEE1E5",
"X. c #FDE2E6",
"o. c #FEE7EA",
"O. c #FEE8EB",
"+. c #FFEEF0",
"@. c #FFF1F2",
"#. c #FFF5F5",
"$. c #FFF5F6",
"%. c #FFF6F6",
"&. c #FFF6F7",
"*. c #FFF9F9",
"=. c #FFFCFC",
"-. c #FFFDFD",
";. c white",
":. c None",
/* pixels */
":.:.:.:.:.:.:.:.:.:.:.:.:.:.:.:.:.:.:.:.:.:.:.:.:.:.:.:.:.:.:.:.",
":.:.:.:.:.:.:.:.:.:.:.:.:.:.:.:.:.:.:.:.:.:.:.:.:.:.:.:.:.:.:.:.",
":.:.:.:.:.:.:.:.:.:.:.:.:.:.:.:.:.:.:.:.:.:.:.:.:.:.:.:.:.:.:.:.",
":.:.:.:.:.:.:.:.:.:.:.:.:.:.:.:.:.:.:.:.:.:.:.:.:.:.:.:.:.:.:.:.",
":.:.:.:.:.:.:.:.:.:.:.:.:.:.:.:.:.:.:.:.:.:.:.:.:.:.:.:.:.:.:.:.",
":.:.:.:.:.:.:.:.:.:.:.:.:.:.:.:.:.:.:.:.:.:.:.:.:.:.:.:.:.:.:.:.",
":.:.:.:.:.:.:.:.:.:.:.:.:.:.:.:.:.:.:.:.:.:.:.:.:.:.:.:.:.:.:.:.",
":.:.:.:.:.:.:.:.:.:.:.:.:.:.:.:.:.:.:.:.:.:.:.:.:.:.:.:.:.:.:.:.",
":.:.:.:.:.:.:.:.:.:.:.:.:.:.:.:.:.:.:.:.:.:.:.:.:.:.:.:.:.:.:.:.",
":.:.:.:.:.:.:.:.:.:.:.X 2 t d g a 8 o :.:.:.:.:.:.:.:.:.:.:.:.:.",
":.:.:.:.:.:.:.:.:.=   y c G Y W I N z 5 :.:.:.:.:.:.:.:.:.:.:.:.",
":.:.:.:.:.:.:.:.:.. 0 n Q | %.=.+.` I J 6 :.:.:.:.:.:.:.:.:.:.:.",
":.:.:.:.:.:.:.:.:.< A ^ @.;.;.;.;.;.o._ l :.:.:.:.:.:.:.:.:.:.:.",
":.:.:.:.:.:.:.:.:.u K  .;.;.;.;.;.;.;.' m 1 :.:.:.:.:.:.:.:.:.:.",
":.:.:.:.:.:.:.:.:.f E *.;.;.;.;.;.;.;.X.S 9 :.:.:.:.; :.:.:.:.:.",
":.:.:.:.:.:.:.:.:.k / =.;.;.;.;.;.;.;.+.P 9 :.:.:.:.:.:.:.:.:.:.",
":.:.:.:.:.:.:.:.:.h T %.;.;.;.;.;.;.;.} Z 7 :.:.:.:.:.:.:.:.:.:.",
":.:.:.:.:.:.:.:.:.w D ..;.;.;.;.;.;.-.( M , :.:.:.:.:.:.:.:.:.:.",
":.:.:.:.:.:.:.:.:.+ b ) #.;.;.;.;.=.] F V :.:.:.:.:.:.:.:.:.:.:.",
":.:.:.:.:.:.:.:.:.:.q C R [ $.&.O.{ H x : * :.:.:.:.:.:.:.:.:.:.",
":.:.:.:.:.:.:.:.@ :.:.p v B ! ~ L U j 3 :.:.:.:.:.:.:.:.:.:.:.:.",
":.:.:.:.:.:.:.:.:.:.:.:.O 4 r s e i :.:.:.:.:.:.:.:.:.:.:.:.:.:.",
":.:.:.:.:.:.:.:.:.:.> :.:.:.:.:.:.:.:.:.:.:.:.:.:.:.:.:.:.:.:.:.",
":.:.:.:.:.:.:.:.:.:.:.# :.:.:.:.:.:.:.:.:.:.:.:.:.:.:.:.:.:.:.:.",
":.:.:.:.:.:.:.:.:.:.:.$ :.:.:.:.:.:.:.:.:.:.:.:.:.:.:.:.:.:.:.:.",
":.:.:.:.:.:.:.:.:.:.:.:.:.:.:.:.:.:.:.:.:.:.:.% :.:.:.:.:.:.:.:.",
":.:.:.:.:.:.:.:.:.:.:.:.:.:.:.:.:.:.:.:.:.:.:.:.:.:.:.:.:.:.:.:.",
":.:.:.:.:.:.:.:.:.& - :.:.:.:.:.:.:.:.:.:.:.:.:.:.:.:.:.:.:.:.:.",
":.:.:.:.:.:.:.:.:.:.:.:.:.:.:.:.:.:.:.:.:.:.:.:.:.:.:.:.:.:.:.:.",
":.:.:.:.:.:.:.:.:.:.:.:.:.:.:.:.:.:.:.:.:.:.:.:.:.:.:.:.:.:.:.:.",
":.:.:.:.:.:.:.:.:.:.:.:.:.:.:.:.:.:.:.:.:.:.:.:.:.:.:.:.:.:.:.:.",
":.:.:.:.:.:.:.:.:.:.:.:.:.:.:.:.:.:.:.:.:.:.:.:.:.:.:.:.:.:.:.:."
};
